M48
; DRILL file {KiCad 7.0.5} date qui 08 jun 2023 16:22:05
; FORMAT={-:-/ absolute / metric / decimal}
; #@! TF.CreationDate,2023-06-08T16:22:05-03:00
; #@! TF.GenerationSoftware,Kicad,Pcbnew,7.0.5
; #@! TF.FileFunction,NonPlated,1,2,NPTH
FMAT,2
METRIC
; #@! TA.AperFunction,NonPlated,NPTH,ComponentDrill
T1C0.800
; #@! TA.AperFunction,NonPlated,NPTH,ComponentDrill
T2C1.702
; #@! TA.AperFunction,NonPlated,NPTH,ComponentDrill
T3C3.429
%
G90
G05
T1
X139.99Y-79.32
X139.99Y-81.42
X146.99Y-79.32
X146.99Y-81.42
T2
X16.5Y-39.07
X16.5Y-56.07
X16.5Y-73.07
X27.5Y-39.07
X27.5Y-56.07
X27.5Y-73.07
X34.5Y-39.07
X34.5Y-56.07
X34.5Y-73.07
X45.5Y-39.07
X45.5Y-56.07
X45.5Y-73.07
X52.5Y-26.5
X52.5Y-43.5
X52.5Y-60.5
X63.5Y-26.5
X63.5Y-43.5
X63.5Y-60.5
X70.5Y-21.74
X70.5Y-38.74
X70.5Y-55.74
X81.5Y-21.74
X81.5Y-38.74
X81.5Y-55.74
X88.5Y-26.5
X88.5Y-43.5
X88.5Y-60.5
X96.337Y-79.476
X99.5Y-26.5
X99.5Y-43.5
X99.5Y-60.5
X106.5Y-29.36
X106.5Y-46.36
X106.5Y-63.36
X106.963Y-82.324
X115.938Y-86.226
X117.5Y-29.36
X117.5Y-46.36
X117.5Y-63.36
X125.267Y-92.055
X132.307Y-104.521
X139.948Y-96.608
T3
X22.0Y-39.07
X22.0Y-56.07
X22.0Y-73.07
X40.0Y-39.07
X40.0Y-56.07
X40.0Y-73.07
X58.0Y-26.5
X58.0Y-43.5
X58.0Y-60.5
X76.0Y-21.74
X76.0Y-38.74
X76.0Y-55.74
X94.0Y-26.5
X94.0Y-43.5
X94.0Y-60.5
X101.65Y-80.9
X112.0Y-29.36
X112.0Y-46.36
X112.0Y-63.36
X120.603Y-89.141
X136.127Y-100.564
T0
M30
