%TF.GenerationSoftware,KiCad,Pcbnew,7.0.5*%
%TF.CreationDate,2023-06-08T16:22:04-03:00*%
%TF.ProjectId,2kalypcb_microcontroller_trrs,326b616c-7970-4636-925f-6d6963726f63,v1.0.0*%
%TF.SameCoordinates,Original*%
%TF.FileFunction,Drillmap*%
%TF.FilePolarity,Positive*%
%FSLAX45Y45*%
G04 Gerber Fmt 4.5, Leading zero omitted, Abs format (unit mm)*
G04 Created by KiCad (PCBNEW 7.0.5) date 2023-06-08 16:22:04*
%MOMM*%
%LPD*%
G01*
G04 APERTURE LIST*
%ADD10C,0.150000*%
%ADD11C,0.200000*%
%ADD12C,0.080000*%
%ADD13C,0.170180*%
%ADD14C,0.342900*%
G04 APERTURE END LIST*
D10*
X8350000Y-1324000D02*
X6850000Y-1324000D01*
X10818157Y-9199189D02*
X12346190Y-10154010D01*
X6850000Y-1324000D02*
G75*
G03*
X6700000Y-1474000I0J-150000D01*
G01*
X4749935Y-3056935D02*
G75*
G03*
X4899935Y-2906935I-5J150005D01*
G01*
X1451000Y-8157000D02*
X4879364Y-8157000D01*
X10299065Y-1935935D02*
G75*
G03*
X10449065Y-2085935I150005J5D01*
G01*
X10299065Y-1935935D02*
G75*
G03*
X10150000Y-1800273I-149065J-14065D01*
G01*
X6549935Y-1799935D02*
X5050000Y-1800000D01*
X13843937Y-3891000D02*
X13109990Y-3891000D01*
X14857102Y-9986000D02*
X14858000Y-9986000D01*
X13843937Y-3890997D02*
G75*
G03*
X13993937Y-3741000I-7J150007D01*
G01*
X13110000Y-3591000D02*
G75*
G03*
X12960000Y-3741000I10J-150010D01*
G01*
X8328955Y-8478018D02*
X9866947Y-8890122D01*
X14858000Y-9986000D02*
X14858000Y-2236000D01*
X4899935Y-2906935D02*
X4900000Y-1950000D01*
X12959990Y-3741000D02*
G75*
G03*
X13109990Y-3891000I150010J10D01*
G01*
X9866947Y-8890122D02*
X10818157Y-9199189D01*
X13492301Y-11260795D02*
G75*
G03*
X13704400Y-11257093I104199J107895D01*
G01*
X8650065Y-1799935D02*
X10150000Y-1800273D01*
X6336358Y-8233358D02*
X8328955Y-8478018D01*
X14815856Y-10106152D02*
G75*
G03*
X14857102Y-9986000I-107916J104202D01*
G01*
X5050000Y-1800000D02*
G75*
G03*
X4900000Y-1950000I5J-150005D01*
G01*
X13110000Y-3591000D02*
X13843947Y-3591000D01*
X14708000Y-2086000D02*
X10449065Y-2085935D01*
X4749935Y-3056935D02*
X1450000Y-3057000D01*
X8500065Y-1649935D02*
G75*
G03*
X8650065Y-1799935I150005J5D01*
G01*
X13704400Y-11257093D02*
X14815854Y-10106150D01*
X1301000Y-8007000D02*
G75*
G03*
X1451000Y-8157000I150005J5D01*
G01*
X8500000Y-1474000D02*
X8500065Y-1649935D01*
X8500000Y-1474000D02*
G75*
G03*
X8350000Y-1324000I-150000J0D01*
G01*
X1301000Y-8007000D02*
X1300000Y-3207000D01*
X14858000Y-2236000D02*
G75*
G03*
X14708000Y-2086000I-150010J-10D01*
G01*
X1450000Y-3057000D02*
G75*
G03*
X1300000Y-3207000I5J-150005D01*
G01*
X13993950Y-3741000D02*
G75*
G03*
X13843947Y-3591000I-150010J-10D01*
G01*
X12346190Y-10154010D02*
X13492301Y-11260796D01*
X6549935Y-1799935D02*
G75*
G03*
X6699935Y-1649935I-5J150005D01*
G01*
X6700000Y-1474000D02*
X6699935Y-1649935D01*
X4879364Y-8157000D02*
X6336358Y-8233358D01*
D11*
D12*
X13959000Y-7892000D02*
X14039000Y-7972000D01*
X14039000Y-7892000D02*
X13959000Y-7972000D01*
X13959000Y-8102000D02*
X14039000Y-8182000D01*
X14039000Y-8102000D02*
X13959000Y-8182000D01*
X14659000Y-7892000D02*
X14739000Y-7972000D01*
X14739000Y-7892000D02*
X14659000Y-7972000D01*
X14659000Y-8102000D02*
X14739000Y-8182000D01*
X14739000Y-8102000D02*
X14659000Y-8182000D01*
D13*
X1735090Y-3907000D02*
G75*
G03*
X1735090Y-3907000I-85090J0D01*
G01*
X1735090Y-5607000D02*
G75*
G03*
X1735090Y-5607000I-85090J0D01*
G01*
X1735090Y-7307000D02*
G75*
G03*
X1735090Y-7307000I-85090J0D01*
G01*
X2835090Y-3907000D02*
G75*
G03*
X2835090Y-3907000I-85090J0D01*
G01*
X2835090Y-5607000D02*
G75*
G03*
X2835090Y-5607000I-85090J0D01*
G01*
X2835090Y-7307000D02*
G75*
G03*
X2835090Y-7307000I-85090J0D01*
G01*
X3535090Y-3907000D02*
G75*
G03*
X3535090Y-3907000I-85090J0D01*
G01*
X3535090Y-5607000D02*
G75*
G03*
X3535090Y-5607000I-85090J0D01*
G01*
X3535090Y-7307000D02*
G75*
G03*
X3535090Y-7307000I-85090J0D01*
G01*
X4635090Y-3907000D02*
G75*
G03*
X4635090Y-3907000I-85090J0D01*
G01*
X4635090Y-5607000D02*
G75*
G03*
X4635090Y-5607000I-85090J0D01*
G01*
X4635090Y-7307000D02*
G75*
G03*
X4635090Y-7307000I-85090J0D01*
G01*
X5335090Y-2650000D02*
G75*
G03*
X5335090Y-2650000I-85090J0D01*
G01*
X5335090Y-4350000D02*
G75*
G03*
X5335090Y-4350000I-85090J0D01*
G01*
X5335090Y-6050000D02*
G75*
G03*
X5335090Y-6050000I-85090J0D01*
G01*
X6435090Y-2650000D02*
G75*
G03*
X6435090Y-2650000I-85090J0D01*
G01*
X6435090Y-4350000D02*
G75*
G03*
X6435090Y-4350000I-85090J0D01*
G01*
X6435090Y-6050000D02*
G75*
G03*
X6435090Y-6050000I-85090J0D01*
G01*
X7135090Y-2174000D02*
G75*
G03*
X7135090Y-2174000I-85090J0D01*
G01*
X7135090Y-3874000D02*
G75*
G03*
X7135090Y-3874000I-85090J0D01*
G01*
X7135090Y-5574000D02*
G75*
G03*
X7135090Y-5574000I-85090J0D01*
G01*
X8235090Y-2174000D02*
G75*
G03*
X8235090Y-2174000I-85090J0D01*
G01*
X8235090Y-3874000D02*
G75*
G03*
X8235090Y-3874000I-85090J0D01*
G01*
X8235090Y-5574000D02*
G75*
G03*
X8235090Y-5574000I-85090J0D01*
G01*
X8935090Y-2650000D02*
G75*
G03*
X8935090Y-2650000I-85090J0D01*
G01*
X8935090Y-4350000D02*
G75*
G03*
X8935090Y-4350000I-85090J0D01*
G01*
X8935090Y-6050000D02*
G75*
G03*
X8935090Y-6050000I-85090J0D01*
G01*
X9718831Y-7947649D02*
G75*
G03*
X9718831Y-7947649I-85090J0D01*
G01*
X10035090Y-2650000D02*
G75*
G03*
X10035090Y-2650000I-85090J0D01*
G01*
X10035090Y-4350000D02*
G75*
G03*
X10035090Y-4350000I-85090J0D01*
G01*
X10035090Y-6050000D02*
G75*
G03*
X10035090Y-6050000I-85090J0D01*
G01*
X10735090Y-2936000D02*
G75*
G03*
X10735090Y-2936000I-85090J0D01*
G01*
X10735090Y-4636000D02*
G75*
G03*
X10735090Y-4636000I-85090J0D01*
G01*
X10735090Y-6336000D02*
G75*
G03*
X10735090Y-6336000I-85090J0D01*
G01*
X10781349Y-8232350D02*
G75*
G03*
X10781349Y-8232350I-85090J0D01*
G01*
X11678936Y-8622632D02*
G75*
G03*
X11678936Y-8622632I-85090J0D01*
G01*
X11835090Y-2936000D02*
G75*
G03*
X11835090Y-2936000I-85090J0D01*
G01*
X11835090Y-4636000D02*
G75*
G03*
X11835090Y-4636000I-85090J0D01*
G01*
X11835090Y-6336000D02*
G75*
G03*
X11835090Y-6336000I-85090J0D01*
G01*
X12611789Y-9205544D02*
G75*
G03*
X12611789Y-9205544I-85090J0D01*
G01*
X13315749Y-10452066D02*
G75*
G03*
X13315749Y-10452066I-85090J0D01*
G01*
X14079873Y-9660792D02*
G75*
G03*
X14079873Y-9660792I-85090J0D01*
G01*
D14*
X2200000Y-3735550D02*
X2200000Y-4078450D01*
X2028550Y-3907000D02*
X2371450Y-3907000D01*
X2200000Y-5435550D02*
X2200000Y-5778450D01*
X2028550Y-5607000D02*
X2371450Y-5607000D01*
X2200000Y-7135550D02*
X2200000Y-7478450D01*
X2028550Y-7307000D02*
X2371450Y-7307000D01*
X4000000Y-3735550D02*
X4000000Y-4078450D01*
X3828550Y-3907000D02*
X4171450Y-3907000D01*
X4000000Y-5435550D02*
X4000000Y-5778450D01*
X3828550Y-5607000D02*
X4171450Y-5607000D01*
X4000000Y-7135550D02*
X4000000Y-7478450D01*
X3828550Y-7307000D02*
X4171450Y-7307000D01*
X5800000Y-2478550D02*
X5800000Y-2821450D01*
X5628550Y-2650000D02*
X5971450Y-2650000D01*
X5800000Y-4178550D02*
X5800000Y-4521450D01*
X5628550Y-4350000D02*
X5971450Y-4350000D01*
X5800000Y-5878550D02*
X5800000Y-6221450D01*
X5628550Y-6050000D02*
X5971450Y-6050000D01*
X7600000Y-2002550D02*
X7600000Y-2345450D01*
X7428550Y-2174000D02*
X7771450Y-2174000D01*
X7600000Y-3702550D02*
X7600000Y-4045450D01*
X7428550Y-3874000D02*
X7771450Y-3874000D01*
X7600000Y-5402550D02*
X7600000Y-5745450D01*
X7428550Y-5574000D02*
X7771450Y-5574000D01*
X9400000Y-2478550D02*
X9400000Y-2821450D01*
X9228550Y-2650000D02*
X9571450Y-2650000D01*
X9400000Y-4178550D02*
X9400000Y-4521450D01*
X9228550Y-4350000D02*
X9571450Y-4350000D01*
X9400000Y-5878550D02*
X9400000Y-6221450D01*
X9228550Y-6050000D02*
X9571450Y-6050000D01*
X10165000Y-7918550D02*
X10165000Y-8261450D01*
X9993550Y-8090000D02*
X10336450Y-8090000D01*
X11200000Y-2764550D02*
X11200000Y-3107450D01*
X11028550Y-2936000D02*
X11371450Y-2936000D01*
X11200000Y-4464550D02*
X11200000Y-4807450D01*
X11028550Y-4636000D02*
X11371450Y-4636000D01*
X11200000Y-6164550D02*
X11200000Y-6507450D01*
X11028550Y-6336000D02*
X11371450Y-6336000D01*
X12060273Y-8742638D02*
X12060273Y-9085538D01*
X11888823Y-8914088D02*
X12231723Y-8914088D01*
X13612721Y-9884979D02*
X13612721Y-10227879D01*
X13441271Y-10056429D02*
X13784171Y-10056429D01*
D11*
X1553277Y-11621879D02*
X1553277Y-11421879D01*
X1553277Y-11421879D02*
X1600896Y-11421879D01*
X1600896Y-11421879D02*
X1629467Y-11431403D01*
X1629467Y-11431403D02*
X1648515Y-11450451D01*
X1648515Y-11450451D02*
X1658039Y-11469498D01*
X1658039Y-11469498D02*
X1667562Y-11507594D01*
X1667562Y-11507594D02*
X1667562Y-11536165D01*
X1667562Y-11536165D02*
X1658039Y-11574260D01*
X1658039Y-11574260D02*
X1648515Y-11593308D01*
X1648515Y-11593308D02*
X1629467Y-11612356D01*
X1629467Y-11612356D02*
X1600896Y-11621879D01*
X1600896Y-11621879D02*
X1553277Y-11621879D01*
X1753277Y-11621879D02*
X1753277Y-11488546D01*
X1753277Y-11526641D02*
X1762801Y-11507594D01*
X1762801Y-11507594D02*
X1772324Y-11498070D01*
X1772324Y-11498070D02*
X1791372Y-11488546D01*
X1791372Y-11488546D02*
X1810420Y-11488546D01*
X1877086Y-11621879D02*
X1877086Y-11488546D01*
X1877086Y-11421879D02*
X1867562Y-11431403D01*
X1867562Y-11431403D02*
X1877086Y-11440927D01*
X1877086Y-11440927D02*
X1886610Y-11431403D01*
X1886610Y-11431403D02*
X1877086Y-11421879D01*
X1877086Y-11421879D02*
X1877086Y-11440927D01*
X2000896Y-11621879D02*
X1981848Y-11612356D01*
X1981848Y-11612356D02*
X1972324Y-11593308D01*
X1972324Y-11593308D02*
X1972324Y-11421879D01*
X2105658Y-11621879D02*
X2086610Y-11612356D01*
X2086610Y-11612356D02*
X2077086Y-11593308D01*
X2077086Y-11593308D02*
X2077086Y-11421879D01*
X2334229Y-11621879D02*
X2334229Y-11421879D01*
X2334229Y-11421879D02*
X2400896Y-11564737D01*
X2400896Y-11564737D02*
X2467563Y-11421879D01*
X2467563Y-11421879D02*
X2467563Y-11621879D01*
X2648515Y-11621879D02*
X2648515Y-11517118D01*
X2648515Y-11517118D02*
X2638991Y-11498070D01*
X2638991Y-11498070D02*
X2619944Y-11488546D01*
X2619944Y-11488546D02*
X2581848Y-11488546D01*
X2581848Y-11488546D02*
X2562801Y-11498070D01*
X2648515Y-11612356D02*
X2629467Y-11621879D01*
X2629467Y-11621879D02*
X2581848Y-11621879D01*
X2581848Y-11621879D02*
X2562801Y-11612356D01*
X2562801Y-11612356D02*
X2553277Y-11593308D01*
X2553277Y-11593308D02*
X2553277Y-11574260D01*
X2553277Y-11574260D02*
X2562801Y-11555213D01*
X2562801Y-11555213D02*
X2581848Y-11545689D01*
X2581848Y-11545689D02*
X2629467Y-11545689D01*
X2629467Y-11545689D02*
X2648515Y-11536165D01*
X2743753Y-11488546D02*
X2743753Y-11688546D01*
X2743753Y-11498070D02*
X2762801Y-11488546D01*
X2762801Y-11488546D02*
X2800896Y-11488546D01*
X2800896Y-11488546D02*
X2819943Y-11498070D01*
X2819943Y-11498070D02*
X2829467Y-11507594D01*
X2829467Y-11507594D02*
X2838991Y-11526641D01*
X2838991Y-11526641D02*
X2838991Y-11583784D01*
X2838991Y-11583784D02*
X2829467Y-11602832D01*
X2829467Y-11602832D02*
X2819943Y-11612356D01*
X2819943Y-11612356D02*
X2800896Y-11621879D01*
X2800896Y-11621879D02*
X2762801Y-11621879D01*
X2762801Y-11621879D02*
X2743753Y-11612356D01*
X2924705Y-11602832D02*
X2934229Y-11612356D01*
X2934229Y-11612356D02*
X2924705Y-11621879D01*
X2924705Y-11621879D02*
X2915182Y-11612356D01*
X2915182Y-11612356D02*
X2924705Y-11602832D01*
X2924705Y-11602832D02*
X2924705Y-11621879D01*
X2924705Y-11498070D02*
X2934229Y-11507594D01*
X2934229Y-11507594D02*
X2924705Y-11517118D01*
X2924705Y-11517118D02*
X2915182Y-11507594D01*
X2915182Y-11507594D02*
X2924705Y-11498070D01*
X2924705Y-11498070D02*
X2924705Y-11517118D01*
D12*
X1212500Y-11910396D02*
X1292500Y-11990396D01*
X1292500Y-11910396D02*
X1212500Y-11990396D01*
D11*
X1591372Y-11841879D02*
X1610420Y-11841879D01*
X1610420Y-11841879D02*
X1629467Y-11851403D01*
X1629467Y-11851403D02*
X1638991Y-11860927D01*
X1638991Y-11860927D02*
X1648515Y-11879975D01*
X1648515Y-11879975D02*
X1658039Y-11918070D01*
X1658039Y-11918070D02*
X1658039Y-11965689D01*
X1658039Y-11965689D02*
X1648515Y-12003784D01*
X1648515Y-12003784D02*
X1638991Y-12022832D01*
X1638991Y-12022832D02*
X1629467Y-12032356D01*
X1629467Y-12032356D02*
X1610420Y-12041879D01*
X1610420Y-12041879D02*
X1591372Y-12041879D01*
X1591372Y-12041879D02*
X1572324Y-12032356D01*
X1572324Y-12032356D02*
X1562801Y-12022832D01*
X1562801Y-12022832D02*
X1553277Y-12003784D01*
X1553277Y-12003784D02*
X1543753Y-11965689D01*
X1543753Y-11965689D02*
X1543753Y-11918070D01*
X1543753Y-11918070D02*
X1553277Y-11879975D01*
X1553277Y-11879975D02*
X1562801Y-11860927D01*
X1562801Y-11860927D02*
X1572324Y-11851403D01*
X1572324Y-11851403D02*
X1591372Y-11841879D01*
X1743753Y-12022832D02*
X1753277Y-12032356D01*
X1753277Y-12032356D02*
X1743753Y-12041879D01*
X1743753Y-12041879D02*
X1734229Y-12032356D01*
X1734229Y-12032356D02*
X1743753Y-12022832D01*
X1743753Y-12022832D02*
X1743753Y-12041879D01*
X1867562Y-11927594D02*
X1848515Y-11918070D01*
X1848515Y-11918070D02*
X1838991Y-11908546D01*
X1838991Y-11908546D02*
X1829467Y-11889498D01*
X1829467Y-11889498D02*
X1829467Y-11879975D01*
X1829467Y-11879975D02*
X1838991Y-11860927D01*
X1838991Y-11860927D02*
X1848515Y-11851403D01*
X1848515Y-11851403D02*
X1867562Y-11841879D01*
X1867562Y-11841879D02*
X1905658Y-11841879D01*
X1905658Y-11841879D02*
X1924705Y-11851403D01*
X1924705Y-11851403D02*
X1934229Y-11860927D01*
X1934229Y-11860927D02*
X1943753Y-11879975D01*
X1943753Y-11879975D02*
X1943753Y-11889498D01*
X1943753Y-11889498D02*
X1934229Y-11908546D01*
X1934229Y-11908546D02*
X1924705Y-11918070D01*
X1924705Y-11918070D02*
X1905658Y-11927594D01*
X1905658Y-11927594D02*
X1867562Y-11927594D01*
X1867562Y-11927594D02*
X1848515Y-11937118D01*
X1848515Y-11937118D02*
X1838991Y-11946641D01*
X1838991Y-11946641D02*
X1829467Y-11965689D01*
X1829467Y-11965689D02*
X1829467Y-12003784D01*
X1829467Y-12003784D02*
X1838991Y-12022832D01*
X1838991Y-12022832D02*
X1848515Y-12032356D01*
X1848515Y-12032356D02*
X1867562Y-12041879D01*
X1867562Y-12041879D02*
X1905658Y-12041879D01*
X1905658Y-12041879D02*
X1924705Y-12032356D01*
X1924705Y-12032356D02*
X1934229Y-12022832D01*
X1934229Y-12022832D02*
X1943753Y-12003784D01*
X1943753Y-12003784D02*
X1943753Y-11965689D01*
X1943753Y-11965689D02*
X1934229Y-11946641D01*
X1934229Y-11946641D02*
X1924705Y-11937118D01*
X1924705Y-11937118D02*
X1905658Y-11927594D01*
X2067562Y-11841879D02*
X2086610Y-11841879D01*
X2086610Y-11841879D02*
X2105658Y-11851403D01*
X2105658Y-11851403D02*
X2115182Y-11860927D01*
X2115182Y-11860927D02*
X2124705Y-11879975D01*
X2124705Y-11879975D02*
X2134229Y-11918070D01*
X2134229Y-11918070D02*
X2134229Y-11965689D01*
X2134229Y-11965689D02*
X2124705Y-12003784D01*
X2124705Y-12003784D02*
X2115182Y-12022832D01*
X2115182Y-12022832D02*
X2105658Y-12032356D01*
X2105658Y-12032356D02*
X2086610Y-12041879D01*
X2086610Y-12041879D02*
X2067562Y-12041879D01*
X2067562Y-12041879D02*
X2048515Y-12032356D01*
X2048515Y-12032356D02*
X2038991Y-12022832D01*
X2038991Y-12022832D02*
X2029467Y-12003784D01*
X2029467Y-12003784D02*
X2019943Y-11965689D01*
X2019943Y-11965689D02*
X2019943Y-11918070D01*
X2019943Y-11918070D02*
X2029467Y-11879975D01*
X2029467Y-11879975D02*
X2038991Y-11860927D01*
X2038991Y-11860927D02*
X2048515Y-11851403D01*
X2048515Y-11851403D02*
X2067562Y-11841879D01*
X2258039Y-11841879D02*
X2277086Y-11841879D01*
X2277086Y-11841879D02*
X2296134Y-11851403D01*
X2296134Y-11851403D02*
X2305658Y-11860927D01*
X2305658Y-11860927D02*
X2315182Y-11879975D01*
X2315182Y-11879975D02*
X2324705Y-11918070D01*
X2324705Y-11918070D02*
X2324705Y-11965689D01*
X2324705Y-11965689D02*
X2315182Y-12003784D01*
X2315182Y-12003784D02*
X2305658Y-12022832D01*
X2305658Y-12022832D02*
X2296134Y-12032356D01*
X2296134Y-12032356D02*
X2277086Y-12041879D01*
X2277086Y-12041879D02*
X2258039Y-12041879D01*
X2258039Y-12041879D02*
X2238991Y-12032356D01*
X2238991Y-12032356D02*
X2229467Y-12022832D01*
X2229467Y-12022832D02*
X2219944Y-12003784D01*
X2219944Y-12003784D02*
X2210420Y-11965689D01*
X2210420Y-11965689D02*
X2210420Y-11918070D01*
X2210420Y-11918070D02*
X2219944Y-11879975D01*
X2219944Y-11879975D02*
X2229467Y-11860927D01*
X2229467Y-11860927D02*
X2238991Y-11851403D01*
X2238991Y-11851403D02*
X2258039Y-11841879D01*
X2410420Y-12041879D02*
X2410420Y-11908546D01*
X2410420Y-11927594D02*
X2419944Y-11918070D01*
X2419944Y-11918070D02*
X2438991Y-11908546D01*
X2438991Y-11908546D02*
X2467563Y-11908546D01*
X2467563Y-11908546D02*
X2486610Y-11918070D01*
X2486610Y-11918070D02*
X2496134Y-11937118D01*
X2496134Y-11937118D02*
X2496134Y-12041879D01*
X2496134Y-11937118D02*
X2505658Y-11918070D01*
X2505658Y-11918070D02*
X2524705Y-11908546D01*
X2524705Y-11908546D02*
X2553277Y-11908546D01*
X2553277Y-11908546D02*
X2572325Y-11918070D01*
X2572325Y-11918070D02*
X2581848Y-11937118D01*
X2581848Y-11937118D02*
X2581848Y-12041879D01*
X2677086Y-12041879D02*
X2677086Y-11908546D01*
X2677086Y-11927594D02*
X2686610Y-11918070D01*
X2686610Y-11918070D02*
X2705658Y-11908546D01*
X2705658Y-11908546D02*
X2734229Y-11908546D01*
X2734229Y-11908546D02*
X2753277Y-11918070D01*
X2753277Y-11918070D02*
X2762801Y-11937118D01*
X2762801Y-11937118D02*
X2762801Y-12041879D01*
X2762801Y-11937118D02*
X2772325Y-11918070D01*
X2772325Y-11918070D02*
X2791372Y-11908546D01*
X2791372Y-11908546D02*
X2819943Y-11908546D01*
X2819943Y-11908546D02*
X2838991Y-11918070D01*
X2838991Y-11918070D02*
X2848515Y-11937118D01*
X2848515Y-11937118D02*
X2848515Y-12041879D01*
X3238991Y-11832356D02*
X3067563Y-12089498D01*
X3496134Y-11841879D02*
X3515182Y-11841879D01*
X3515182Y-11841879D02*
X3534229Y-11851403D01*
X3534229Y-11851403D02*
X3543753Y-11860927D01*
X3543753Y-11860927D02*
X3553277Y-11879975D01*
X3553277Y-11879975D02*
X3562801Y-11918070D01*
X3562801Y-11918070D02*
X3562801Y-11965689D01*
X3562801Y-11965689D02*
X3553277Y-12003784D01*
X3553277Y-12003784D02*
X3543753Y-12022832D01*
X3543753Y-12022832D02*
X3534229Y-12032356D01*
X3534229Y-12032356D02*
X3515182Y-12041879D01*
X3515182Y-12041879D02*
X3496134Y-12041879D01*
X3496134Y-12041879D02*
X3477086Y-12032356D01*
X3477086Y-12032356D02*
X3467563Y-12022832D01*
X3467563Y-12022832D02*
X3458039Y-12003784D01*
X3458039Y-12003784D02*
X3448515Y-11965689D01*
X3448515Y-11965689D02*
X3448515Y-11918070D01*
X3448515Y-11918070D02*
X3458039Y-11879975D01*
X3458039Y-11879975D02*
X3467563Y-11860927D01*
X3467563Y-11860927D02*
X3477086Y-11851403D01*
X3477086Y-11851403D02*
X3496134Y-11841879D01*
X3648515Y-12022832D02*
X3658039Y-12032356D01*
X3658039Y-12032356D02*
X3648515Y-12041879D01*
X3648515Y-12041879D02*
X3638991Y-12032356D01*
X3638991Y-12032356D02*
X3648515Y-12022832D01*
X3648515Y-12022832D02*
X3648515Y-12041879D01*
X3781848Y-11841879D02*
X3800896Y-11841879D01*
X3800896Y-11841879D02*
X3819944Y-11851403D01*
X3819944Y-11851403D02*
X3829467Y-11860927D01*
X3829467Y-11860927D02*
X3838991Y-11879975D01*
X3838991Y-11879975D02*
X3848515Y-11918070D01*
X3848515Y-11918070D02*
X3848515Y-11965689D01*
X3848515Y-11965689D02*
X3838991Y-12003784D01*
X3838991Y-12003784D02*
X3829467Y-12022832D01*
X3829467Y-12022832D02*
X3819944Y-12032356D01*
X3819944Y-12032356D02*
X3800896Y-12041879D01*
X3800896Y-12041879D02*
X3781848Y-12041879D01*
X3781848Y-12041879D02*
X3762801Y-12032356D01*
X3762801Y-12032356D02*
X3753277Y-12022832D01*
X3753277Y-12022832D02*
X3743753Y-12003784D01*
X3743753Y-12003784D02*
X3734229Y-11965689D01*
X3734229Y-11965689D02*
X3734229Y-11918070D01*
X3734229Y-11918070D02*
X3743753Y-11879975D01*
X3743753Y-11879975D02*
X3753277Y-11860927D01*
X3753277Y-11860927D02*
X3762801Y-11851403D01*
X3762801Y-11851403D02*
X3781848Y-11841879D01*
X3915182Y-11841879D02*
X4038991Y-11841879D01*
X4038991Y-11841879D02*
X3972325Y-11918070D01*
X3972325Y-11918070D02*
X4000896Y-11918070D01*
X4000896Y-11918070D02*
X4019944Y-11927594D01*
X4019944Y-11927594D02*
X4029467Y-11937118D01*
X4029467Y-11937118D02*
X4038991Y-11956165D01*
X4038991Y-11956165D02*
X4038991Y-12003784D01*
X4038991Y-12003784D02*
X4029467Y-12022832D01*
X4029467Y-12022832D02*
X4019944Y-12032356D01*
X4019944Y-12032356D02*
X4000896Y-12041879D01*
X4000896Y-12041879D02*
X3943753Y-12041879D01*
X3943753Y-12041879D02*
X3924706Y-12032356D01*
X3924706Y-12032356D02*
X3915182Y-12022832D01*
X4229468Y-12041879D02*
X4115182Y-12041879D01*
X4172325Y-12041879D02*
X4172325Y-11841879D01*
X4172325Y-11841879D02*
X4153277Y-11870451D01*
X4153277Y-11870451D02*
X4134229Y-11889498D01*
X4134229Y-11889498D02*
X4115182Y-11899022D01*
X4410420Y-11841879D02*
X4315182Y-11841879D01*
X4315182Y-11841879D02*
X4305658Y-11937118D01*
X4305658Y-11937118D02*
X4315182Y-11927594D01*
X4315182Y-11927594D02*
X4334229Y-11918070D01*
X4334229Y-11918070D02*
X4381849Y-11918070D01*
X4381849Y-11918070D02*
X4400896Y-11927594D01*
X4400896Y-11927594D02*
X4410420Y-11937118D01*
X4410420Y-11937118D02*
X4419944Y-11956165D01*
X4419944Y-11956165D02*
X4419944Y-12003784D01*
X4419944Y-12003784D02*
X4410420Y-12022832D01*
X4410420Y-12022832D02*
X4400896Y-12032356D01*
X4400896Y-12032356D02*
X4381849Y-12041879D01*
X4381849Y-12041879D02*
X4334229Y-12041879D01*
X4334229Y-12041879D02*
X4315182Y-12032356D01*
X4315182Y-12032356D02*
X4305658Y-12022832D01*
X4496134Y-11841879D02*
X4496134Y-11879975D01*
X4572325Y-11841879D02*
X4572325Y-11879975D01*
X4867563Y-12118070D02*
X4858039Y-12108546D01*
X4858039Y-12108546D02*
X4838991Y-12079975D01*
X4838991Y-12079975D02*
X4829468Y-12060927D01*
X4829468Y-12060927D02*
X4819944Y-12032356D01*
X4819944Y-12032356D02*
X4810420Y-11984737D01*
X4810420Y-11984737D02*
X4810420Y-11946641D01*
X4810420Y-11946641D02*
X4819944Y-11899022D01*
X4819944Y-11899022D02*
X4829468Y-11870451D01*
X4829468Y-11870451D02*
X4838991Y-11851403D01*
X4838991Y-11851403D02*
X4858039Y-11822832D01*
X4858039Y-11822832D02*
X4867563Y-11813308D01*
X5029468Y-11908546D02*
X5029468Y-12041879D01*
X4981849Y-11832356D02*
X4934230Y-11975213D01*
X4934230Y-11975213D02*
X5058039Y-11975213D01*
X5286611Y-12041879D02*
X5286611Y-11841879D01*
X5372325Y-12041879D02*
X5372325Y-11937118D01*
X5372325Y-11937118D02*
X5362801Y-11918070D01*
X5362801Y-11918070D02*
X5343753Y-11908546D01*
X5343753Y-11908546D02*
X5315182Y-11908546D01*
X5315182Y-11908546D02*
X5296134Y-11918070D01*
X5296134Y-11918070D02*
X5286611Y-11927594D01*
X5496134Y-12041879D02*
X5477087Y-12032356D01*
X5477087Y-12032356D02*
X5467563Y-12022832D01*
X5467563Y-12022832D02*
X5458039Y-12003784D01*
X5458039Y-12003784D02*
X5458039Y-11946641D01*
X5458039Y-11946641D02*
X5467563Y-11927594D01*
X5467563Y-11927594D02*
X5477087Y-11918070D01*
X5477087Y-11918070D02*
X5496134Y-11908546D01*
X5496134Y-11908546D02*
X5524706Y-11908546D01*
X5524706Y-11908546D02*
X5543753Y-11918070D01*
X5543753Y-11918070D02*
X5553277Y-11927594D01*
X5553277Y-11927594D02*
X5562801Y-11946641D01*
X5562801Y-11946641D02*
X5562801Y-12003784D01*
X5562801Y-12003784D02*
X5553277Y-12022832D01*
X5553277Y-12022832D02*
X5543753Y-12032356D01*
X5543753Y-12032356D02*
X5524706Y-12041879D01*
X5524706Y-12041879D02*
X5496134Y-12041879D01*
X5677087Y-12041879D02*
X5658039Y-12032356D01*
X5658039Y-12032356D02*
X5648515Y-12013308D01*
X5648515Y-12013308D02*
X5648515Y-11841879D01*
X5829468Y-12032356D02*
X5810420Y-12041879D01*
X5810420Y-12041879D02*
X5772325Y-12041879D01*
X5772325Y-12041879D02*
X5753277Y-12032356D01*
X5753277Y-12032356D02*
X5743753Y-12013308D01*
X5743753Y-12013308D02*
X5743753Y-11937118D01*
X5743753Y-11937118D02*
X5753277Y-11918070D01*
X5753277Y-11918070D02*
X5772325Y-11908546D01*
X5772325Y-11908546D02*
X5810420Y-11908546D01*
X5810420Y-11908546D02*
X5829468Y-11918070D01*
X5829468Y-11918070D02*
X5838991Y-11937118D01*
X5838991Y-11937118D02*
X5838991Y-11956165D01*
X5838991Y-11956165D02*
X5743753Y-11975213D01*
X5915182Y-12032356D02*
X5934230Y-12041879D01*
X5934230Y-12041879D02*
X5972325Y-12041879D01*
X5972325Y-12041879D02*
X5991372Y-12032356D01*
X5991372Y-12032356D02*
X6000896Y-12013308D01*
X6000896Y-12013308D02*
X6000896Y-12003784D01*
X6000896Y-12003784D02*
X5991372Y-11984737D01*
X5991372Y-11984737D02*
X5972325Y-11975213D01*
X5972325Y-11975213D02*
X5943753Y-11975213D01*
X5943753Y-11975213D02*
X5924706Y-11965689D01*
X5924706Y-11965689D02*
X5915182Y-11946641D01*
X5915182Y-11946641D02*
X5915182Y-11937118D01*
X5915182Y-11937118D02*
X5924706Y-11918070D01*
X5924706Y-11918070D02*
X5943753Y-11908546D01*
X5943753Y-11908546D02*
X5972325Y-11908546D01*
X5972325Y-11908546D02*
X5991372Y-11918070D01*
X6067563Y-12118070D02*
X6077087Y-12108546D01*
X6077087Y-12108546D02*
X6096134Y-12079975D01*
X6096134Y-12079975D02*
X6105658Y-12060927D01*
X6105658Y-12060927D02*
X6115182Y-12032356D01*
X6115182Y-12032356D02*
X6124706Y-11984737D01*
X6124706Y-11984737D02*
X6124706Y-11946641D01*
X6124706Y-11946641D02*
X6115182Y-11899022D01*
X6115182Y-11899022D02*
X6105658Y-11870451D01*
X6105658Y-11870451D02*
X6096134Y-11851403D01*
X6096134Y-11851403D02*
X6077087Y-11822832D01*
X6077087Y-11822832D02*
X6067563Y-11813308D01*
X6429468Y-12118070D02*
X6419944Y-12108546D01*
X6419944Y-12108546D02*
X6400896Y-12079975D01*
X6400896Y-12079975D02*
X6391372Y-12060927D01*
X6391372Y-12060927D02*
X6381849Y-12032356D01*
X6381849Y-12032356D02*
X6372325Y-11984737D01*
X6372325Y-11984737D02*
X6372325Y-11946641D01*
X6372325Y-11946641D02*
X6381849Y-11899022D01*
X6381849Y-11899022D02*
X6391372Y-11870451D01*
X6391372Y-11870451D02*
X6400896Y-11851403D01*
X6400896Y-11851403D02*
X6419944Y-11822832D01*
X6419944Y-11822832D02*
X6429468Y-11813308D01*
X6505658Y-11908546D02*
X6505658Y-12041879D01*
X6505658Y-11927594D02*
X6515182Y-11918070D01*
X6515182Y-11918070D02*
X6534230Y-11908546D01*
X6534230Y-11908546D02*
X6562801Y-11908546D01*
X6562801Y-11908546D02*
X6581849Y-11918070D01*
X6581849Y-11918070D02*
X6591372Y-11937118D01*
X6591372Y-11937118D02*
X6591372Y-12041879D01*
X6715182Y-12041879D02*
X6696134Y-12032356D01*
X6696134Y-12032356D02*
X6686611Y-12022832D01*
X6686611Y-12022832D02*
X6677087Y-12003784D01*
X6677087Y-12003784D02*
X6677087Y-11946641D01*
X6677087Y-11946641D02*
X6686611Y-11927594D01*
X6686611Y-11927594D02*
X6696134Y-11918070D01*
X6696134Y-11918070D02*
X6715182Y-11908546D01*
X6715182Y-11908546D02*
X6743753Y-11908546D01*
X6743753Y-11908546D02*
X6762801Y-11918070D01*
X6762801Y-11918070D02*
X6772325Y-11927594D01*
X6772325Y-11927594D02*
X6781849Y-11946641D01*
X6781849Y-11946641D02*
X6781849Y-12003784D01*
X6781849Y-12003784D02*
X6772325Y-12022832D01*
X6772325Y-12022832D02*
X6762801Y-12032356D01*
X6762801Y-12032356D02*
X6743753Y-12041879D01*
X6743753Y-12041879D02*
X6715182Y-12041879D01*
X6838992Y-11908546D02*
X6915182Y-11908546D01*
X6867563Y-11841879D02*
X6867563Y-12013308D01*
X6867563Y-12013308D02*
X6877087Y-12032356D01*
X6877087Y-12032356D02*
X6896134Y-12041879D01*
X6896134Y-12041879D02*
X6915182Y-12041879D01*
X7134230Y-11908546D02*
X7134230Y-12108546D01*
X7134230Y-11918070D02*
X7153277Y-11908546D01*
X7153277Y-11908546D02*
X7191373Y-11908546D01*
X7191373Y-11908546D02*
X7210420Y-11918070D01*
X7210420Y-11918070D02*
X7219944Y-11927594D01*
X7219944Y-11927594D02*
X7229468Y-11946641D01*
X7229468Y-11946641D02*
X7229468Y-12003784D01*
X7229468Y-12003784D02*
X7219944Y-12022832D01*
X7219944Y-12022832D02*
X7210420Y-12032356D01*
X7210420Y-12032356D02*
X7191373Y-12041879D01*
X7191373Y-12041879D02*
X7153277Y-12041879D01*
X7153277Y-12041879D02*
X7134230Y-12032356D01*
X7343753Y-12041879D02*
X7324706Y-12032356D01*
X7324706Y-12032356D02*
X7315182Y-12013308D01*
X7315182Y-12013308D02*
X7315182Y-11841879D01*
X7505658Y-12041879D02*
X7505658Y-11937118D01*
X7505658Y-11937118D02*
X7496134Y-11918070D01*
X7496134Y-11918070D02*
X7477087Y-11908546D01*
X7477087Y-11908546D02*
X7438992Y-11908546D01*
X7438992Y-11908546D02*
X7419944Y-11918070D01*
X7505658Y-12032356D02*
X7486611Y-12041879D01*
X7486611Y-12041879D02*
X7438992Y-12041879D01*
X7438992Y-12041879D02*
X7419944Y-12032356D01*
X7419944Y-12032356D02*
X7410420Y-12013308D01*
X7410420Y-12013308D02*
X7410420Y-11994260D01*
X7410420Y-11994260D02*
X7419944Y-11975213D01*
X7419944Y-11975213D02*
X7438992Y-11965689D01*
X7438992Y-11965689D02*
X7486611Y-11965689D01*
X7486611Y-11965689D02*
X7505658Y-11956165D01*
X7572325Y-11908546D02*
X7648515Y-11908546D01*
X7600896Y-11841879D02*
X7600896Y-12013308D01*
X7600896Y-12013308D02*
X7610420Y-12032356D01*
X7610420Y-12032356D02*
X7629468Y-12041879D01*
X7629468Y-12041879D02*
X7648515Y-12041879D01*
X7791373Y-12032356D02*
X7772325Y-12041879D01*
X7772325Y-12041879D02*
X7734230Y-12041879D01*
X7734230Y-12041879D02*
X7715182Y-12032356D01*
X7715182Y-12032356D02*
X7705658Y-12013308D01*
X7705658Y-12013308D02*
X7705658Y-11937118D01*
X7705658Y-11937118D02*
X7715182Y-11918070D01*
X7715182Y-11918070D02*
X7734230Y-11908546D01*
X7734230Y-11908546D02*
X7772325Y-11908546D01*
X7772325Y-11908546D02*
X7791373Y-11918070D01*
X7791373Y-11918070D02*
X7800896Y-11937118D01*
X7800896Y-11937118D02*
X7800896Y-11956165D01*
X7800896Y-11956165D02*
X7705658Y-11975213D01*
X7972325Y-12041879D02*
X7972325Y-11841879D01*
X7972325Y-12032356D02*
X7953277Y-12041879D01*
X7953277Y-12041879D02*
X7915182Y-12041879D01*
X7915182Y-12041879D02*
X7896134Y-12032356D01*
X7896134Y-12032356D02*
X7886611Y-12022832D01*
X7886611Y-12022832D02*
X7877087Y-12003784D01*
X7877087Y-12003784D02*
X7877087Y-11946641D01*
X7877087Y-11946641D02*
X7886611Y-11927594D01*
X7886611Y-11927594D02*
X7896134Y-11918070D01*
X7896134Y-11918070D02*
X7915182Y-11908546D01*
X7915182Y-11908546D02*
X7953277Y-11908546D01*
X7953277Y-11908546D02*
X7972325Y-11918070D01*
X8048515Y-12118070D02*
X8058039Y-12108546D01*
X8058039Y-12108546D02*
X8077087Y-12079975D01*
X8077087Y-12079975D02*
X8086611Y-12060927D01*
X8086611Y-12060927D02*
X8096134Y-12032356D01*
X8096134Y-12032356D02*
X8105658Y-11984737D01*
X8105658Y-11984737D02*
X8105658Y-11946641D01*
X8105658Y-11946641D02*
X8096134Y-11899022D01*
X8096134Y-11899022D02*
X8086611Y-11870451D01*
X8086611Y-11870451D02*
X8077087Y-11851403D01*
X8077087Y-11851403D02*
X8058039Y-11822832D01*
X8058039Y-11822832D02*
X8048515Y-11813308D01*
D13*
X1292500Y-12214396D02*
G75*
G03*
X1292500Y-12214396I-85090J0D01*
G01*
D11*
X1658039Y-12305879D02*
X1543753Y-12305879D01*
X1600896Y-12305879D02*
X1600896Y-12105879D01*
X1600896Y-12105879D02*
X1581848Y-12134451D01*
X1581848Y-12134451D02*
X1562801Y-12153498D01*
X1562801Y-12153498D02*
X1543753Y-12163022D01*
X1743753Y-12286832D02*
X1753277Y-12296356D01*
X1753277Y-12296356D02*
X1743753Y-12305879D01*
X1743753Y-12305879D02*
X1734229Y-12296356D01*
X1734229Y-12296356D02*
X1743753Y-12286832D01*
X1743753Y-12286832D02*
X1743753Y-12305879D01*
X1819943Y-12105879D02*
X1953277Y-12105879D01*
X1953277Y-12105879D02*
X1867562Y-12305879D01*
X2067562Y-12105879D02*
X2086610Y-12105879D01*
X2086610Y-12105879D02*
X2105658Y-12115403D01*
X2105658Y-12115403D02*
X2115182Y-12124927D01*
X2115182Y-12124927D02*
X2124705Y-12143975D01*
X2124705Y-12143975D02*
X2134229Y-12182070D01*
X2134229Y-12182070D02*
X2134229Y-12229689D01*
X2134229Y-12229689D02*
X2124705Y-12267784D01*
X2124705Y-12267784D02*
X2115182Y-12286832D01*
X2115182Y-12286832D02*
X2105658Y-12296356D01*
X2105658Y-12296356D02*
X2086610Y-12305879D01*
X2086610Y-12305879D02*
X2067562Y-12305879D01*
X2067562Y-12305879D02*
X2048515Y-12296356D01*
X2048515Y-12296356D02*
X2038991Y-12286832D01*
X2038991Y-12286832D02*
X2029467Y-12267784D01*
X2029467Y-12267784D02*
X2019943Y-12229689D01*
X2019943Y-12229689D02*
X2019943Y-12182070D01*
X2019943Y-12182070D02*
X2029467Y-12143975D01*
X2029467Y-12143975D02*
X2038991Y-12124927D01*
X2038991Y-12124927D02*
X2048515Y-12115403D01*
X2048515Y-12115403D02*
X2067562Y-12105879D01*
X2210420Y-12124927D02*
X2219944Y-12115403D01*
X2219944Y-12115403D02*
X2238991Y-12105879D01*
X2238991Y-12105879D02*
X2286610Y-12105879D01*
X2286610Y-12105879D02*
X2305658Y-12115403D01*
X2305658Y-12115403D02*
X2315182Y-12124927D01*
X2315182Y-12124927D02*
X2324705Y-12143975D01*
X2324705Y-12143975D02*
X2324705Y-12163022D01*
X2324705Y-12163022D02*
X2315182Y-12191594D01*
X2315182Y-12191594D02*
X2200896Y-12305879D01*
X2200896Y-12305879D02*
X2324705Y-12305879D01*
X2410420Y-12305879D02*
X2410420Y-12172546D01*
X2410420Y-12191594D02*
X2419944Y-12182070D01*
X2419944Y-12182070D02*
X2438991Y-12172546D01*
X2438991Y-12172546D02*
X2467563Y-12172546D01*
X2467563Y-12172546D02*
X2486610Y-12182070D01*
X2486610Y-12182070D02*
X2496134Y-12201118D01*
X2496134Y-12201118D02*
X2496134Y-12305879D01*
X2496134Y-12201118D02*
X2505658Y-12182070D01*
X2505658Y-12182070D02*
X2524705Y-12172546D01*
X2524705Y-12172546D02*
X2553277Y-12172546D01*
X2553277Y-12172546D02*
X2572325Y-12182070D01*
X2572325Y-12182070D02*
X2581848Y-12201118D01*
X2581848Y-12201118D02*
X2581848Y-12305879D01*
X2677086Y-12305879D02*
X2677086Y-12172546D01*
X2677086Y-12191594D02*
X2686610Y-12182070D01*
X2686610Y-12182070D02*
X2705658Y-12172546D01*
X2705658Y-12172546D02*
X2734229Y-12172546D01*
X2734229Y-12172546D02*
X2753277Y-12182070D01*
X2753277Y-12182070D02*
X2762801Y-12201118D01*
X2762801Y-12201118D02*
X2762801Y-12305879D01*
X2762801Y-12201118D02*
X2772325Y-12182070D01*
X2772325Y-12182070D02*
X2791372Y-12172546D01*
X2791372Y-12172546D02*
X2819943Y-12172546D01*
X2819943Y-12172546D02*
X2838991Y-12182070D01*
X2838991Y-12182070D02*
X2848515Y-12201118D01*
X2848515Y-12201118D02*
X2848515Y-12305879D01*
X3238991Y-12096356D02*
X3067563Y-12353498D01*
X3496134Y-12105879D02*
X3515182Y-12105879D01*
X3515182Y-12105879D02*
X3534229Y-12115403D01*
X3534229Y-12115403D02*
X3543753Y-12124927D01*
X3543753Y-12124927D02*
X3553277Y-12143975D01*
X3553277Y-12143975D02*
X3562801Y-12182070D01*
X3562801Y-12182070D02*
X3562801Y-12229689D01*
X3562801Y-12229689D02*
X3553277Y-12267784D01*
X3553277Y-12267784D02*
X3543753Y-12286832D01*
X3543753Y-12286832D02*
X3534229Y-12296356D01*
X3534229Y-12296356D02*
X3515182Y-12305879D01*
X3515182Y-12305879D02*
X3496134Y-12305879D01*
X3496134Y-12305879D02*
X3477086Y-12296356D01*
X3477086Y-12296356D02*
X3467563Y-12286832D01*
X3467563Y-12286832D02*
X3458039Y-12267784D01*
X3458039Y-12267784D02*
X3448515Y-12229689D01*
X3448515Y-12229689D02*
X3448515Y-12182070D01*
X3448515Y-12182070D02*
X3458039Y-12143975D01*
X3458039Y-12143975D02*
X3467563Y-12124927D01*
X3467563Y-12124927D02*
X3477086Y-12115403D01*
X3477086Y-12115403D02*
X3496134Y-12105879D01*
X3648515Y-12286832D02*
X3658039Y-12296356D01*
X3658039Y-12296356D02*
X3648515Y-12305879D01*
X3648515Y-12305879D02*
X3638991Y-12296356D01*
X3638991Y-12296356D02*
X3648515Y-12286832D01*
X3648515Y-12286832D02*
X3648515Y-12305879D01*
X3781848Y-12105879D02*
X3800896Y-12105879D01*
X3800896Y-12105879D02*
X3819944Y-12115403D01*
X3819944Y-12115403D02*
X3829467Y-12124927D01*
X3829467Y-12124927D02*
X3838991Y-12143975D01*
X3838991Y-12143975D02*
X3848515Y-12182070D01*
X3848515Y-12182070D02*
X3848515Y-12229689D01*
X3848515Y-12229689D02*
X3838991Y-12267784D01*
X3838991Y-12267784D02*
X3829467Y-12286832D01*
X3829467Y-12286832D02*
X3819944Y-12296356D01*
X3819944Y-12296356D02*
X3800896Y-12305879D01*
X3800896Y-12305879D02*
X3781848Y-12305879D01*
X3781848Y-12305879D02*
X3762801Y-12296356D01*
X3762801Y-12296356D02*
X3753277Y-12286832D01*
X3753277Y-12286832D02*
X3743753Y-12267784D01*
X3743753Y-12267784D02*
X3734229Y-12229689D01*
X3734229Y-12229689D02*
X3734229Y-12182070D01*
X3734229Y-12182070D02*
X3743753Y-12143975D01*
X3743753Y-12143975D02*
X3753277Y-12124927D01*
X3753277Y-12124927D02*
X3762801Y-12115403D01*
X3762801Y-12115403D02*
X3781848Y-12105879D01*
X4019944Y-12105879D02*
X3981848Y-12105879D01*
X3981848Y-12105879D02*
X3962801Y-12115403D01*
X3962801Y-12115403D02*
X3953277Y-12124927D01*
X3953277Y-12124927D02*
X3934229Y-12153498D01*
X3934229Y-12153498D02*
X3924706Y-12191594D01*
X3924706Y-12191594D02*
X3924706Y-12267784D01*
X3924706Y-12267784D02*
X3934229Y-12286832D01*
X3934229Y-12286832D02*
X3943753Y-12296356D01*
X3943753Y-12296356D02*
X3962801Y-12305879D01*
X3962801Y-12305879D02*
X4000896Y-12305879D01*
X4000896Y-12305879D02*
X4019944Y-12296356D01*
X4019944Y-12296356D02*
X4029467Y-12286832D01*
X4029467Y-12286832D02*
X4038991Y-12267784D01*
X4038991Y-12267784D02*
X4038991Y-12220165D01*
X4038991Y-12220165D02*
X4029467Y-12201118D01*
X4029467Y-12201118D02*
X4019944Y-12191594D01*
X4019944Y-12191594D02*
X4000896Y-12182070D01*
X4000896Y-12182070D02*
X3962801Y-12182070D01*
X3962801Y-12182070D02*
X3943753Y-12191594D01*
X3943753Y-12191594D02*
X3934229Y-12201118D01*
X3934229Y-12201118D02*
X3924706Y-12220165D01*
X4105658Y-12105879D02*
X4238991Y-12105879D01*
X4238991Y-12105879D02*
X4153277Y-12305879D01*
X4353277Y-12105879D02*
X4372325Y-12105879D01*
X4372325Y-12105879D02*
X4391372Y-12115403D01*
X4391372Y-12115403D02*
X4400896Y-12124927D01*
X4400896Y-12124927D02*
X4410420Y-12143975D01*
X4410420Y-12143975D02*
X4419944Y-12182070D01*
X4419944Y-12182070D02*
X4419944Y-12229689D01*
X4419944Y-12229689D02*
X4410420Y-12267784D01*
X4410420Y-12267784D02*
X4400896Y-12286832D01*
X4400896Y-12286832D02*
X4391372Y-12296356D01*
X4391372Y-12296356D02*
X4372325Y-12305879D01*
X4372325Y-12305879D02*
X4353277Y-12305879D01*
X4353277Y-12305879D02*
X4334229Y-12296356D01*
X4334229Y-12296356D02*
X4324706Y-12286832D01*
X4324706Y-12286832D02*
X4315182Y-12267784D01*
X4315182Y-12267784D02*
X4305658Y-12229689D01*
X4305658Y-12229689D02*
X4305658Y-12182070D01*
X4305658Y-12182070D02*
X4315182Y-12143975D01*
X4315182Y-12143975D02*
X4324706Y-12124927D01*
X4324706Y-12124927D02*
X4334229Y-12115403D01*
X4334229Y-12115403D02*
X4353277Y-12105879D01*
X4496134Y-12105879D02*
X4496134Y-12143975D01*
X4572325Y-12105879D02*
X4572325Y-12143975D01*
X4867563Y-12382070D02*
X4858039Y-12372546D01*
X4858039Y-12372546D02*
X4838991Y-12343975D01*
X4838991Y-12343975D02*
X4829468Y-12324927D01*
X4829468Y-12324927D02*
X4819944Y-12296356D01*
X4819944Y-12296356D02*
X4810420Y-12248737D01*
X4810420Y-12248737D02*
X4810420Y-12210641D01*
X4810420Y-12210641D02*
X4819944Y-12163022D01*
X4819944Y-12163022D02*
X4829468Y-12134451D01*
X4829468Y-12134451D02*
X4838991Y-12115403D01*
X4838991Y-12115403D02*
X4858039Y-12086832D01*
X4858039Y-12086832D02*
X4867563Y-12077308D01*
X5029468Y-12172546D02*
X5029468Y-12305879D01*
X4981849Y-12096356D02*
X4934230Y-12239213D01*
X4934230Y-12239213D02*
X5058039Y-12239213D01*
X5124706Y-12124927D02*
X5134230Y-12115403D01*
X5134230Y-12115403D02*
X5153277Y-12105879D01*
X5153277Y-12105879D02*
X5200896Y-12105879D01*
X5200896Y-12105879D02*
X5219944Y-12115403D01*
X5219944Y-12115403D02*
X5229468Y-12124927D01*
X5229468Y-12124927D02*
X5238991Y-12143975D01*
X5238991Y-12143975D02*
X5238991Y-12163022D01*
X5238991Y-12163022D02*
X5229468Y-12191594D01*
X5229468Y-12191594D02*
X5115182Y-12305879D01*
X5115182Y-12305879D02*
X5238991Y-12305879D01*
X5477087Y-12305879D02*
X5477087Y-12105879D01*
X5562801Y-12305879D02*
X5562801Y-12201118D01*
X5562801Y-12201118D02*
X5553277Y-12182070D01*
X5553277Y-12182070D02*
X5534230Y-12172546D01*
X5534230Y-12172546D02*
X5505658Y-12172546D01*
X5505658Y-12172546D02*
X5486611Y-12182070D01*
X5486611Y-12182070D02*
X5477087Y-12191594D01*
X5686610Y-12305879D02*
X5667563Y-12296356D01*
X5667563Y-12296356D02*
X5658039Y-12286832D01*
X5658039Y-12286832D02*
X5648515Y-12267784D01*
X5648515Y-12267784D02*
X5648515Y-12210641D01*
X5648515Y-12210641D02*
X5658039Y-12191594D01*
X5658039Y-12191594D02*
X5667563Y-12182070D01*
X5667563Y-12182070D02*
X5686610Y-12172546D01*
X5686610Y-12172546D02*
X5715182Y-12172546D01*
X5715182Y-12172546D02*
X5734230Y-12182070D01*
X5734230Y-12182070D02*
X5743753Y-12191594D01*
X5743753Y-12191594D02*
X5753277Y-12210641D01*
X5753277Y-12210641D02*
X5753277Y-12267784D01*
X5753277Y-12267784D02*
X5743753Y-12286832D01*
X5743753Y-12286832D02*
X5734230Y-12296356D01*
X5734230Y-12296356D02*
X5715182Y-12305879D01*
X5715182Y-12305879D02*
X5686610Y-12305879D01*
X5867563Y-12305879D02*
X5848515Y-12296356D01*
X5848515Y-12296356D02*
X5838991Y-12277308D01*
X5838991Y-12277308D02*
X5838991Y-12105879D01*
X6019944Y-12296356D02*
X6000896Y-12305879D01*
X6000896Y-12305879D02*
X5962801Y-12305879D01*
X5962801Y-12305879D02*
X5943753Y-12296356D01*
X5943753Y-12296356D02*
X5934230Y-12277308D01*
X5934230Y-12277308D02*
X5934230Y-12201118D01*
X5934230Y-12201118D02*
X5943753Y-12182070D01*
X5943753Y-12182070D02*
X5962801Y-12172546D01*
X5962801Y-12172546D02*
X6000896Y-12172546D01*
X6000896Y-12172546D02*
X6019944Y-12182070D01*
X6019944Y-12182070D02*
X6029468Y-12201118D01*
X6029468Y-12201118D02*
X6029468Y-12220165D01*
X6029468Y-12220165D02*
X5934230Y-12239213D01*
X6105658Y-12296356D02*
X6124706Y-12305879D01*
X6124706Y-12305879D02*
X6162801Y-12305879D01*
X6162801Y-12305879D02*
X6181849Y-12296356D01*
X6181849Y-12296356D02*
X6191372Y-12277308D01*
X6191372Y-12277308D02*
X6191372Y-12267784D01*
X6191372Y-12267784D02*
X6181849Y-12248737D01*
X6181849Y-12248737D02*
X6162801Y-12239213D01*
X6162801Y-12239213D02*
X6134230Y-12239213D01*
X6134230Y-12239213D02*
X6115182Y-12229689D01*
X6115182Y-12229689D02*
X6105658Y-12210641D01*
X6105658Y-12210641D02*
X6105658Y-12201118D01*
X6105658Y-12201118D02*
X6115182Y-12182070D01*
X6115182Y-12182070D02*
X6134230Y-12172546D01*
X6134230Y-12172546D02*
X6162801Y-12172546D01*
X6162801Y-12172546D02*
X6181849Y-12182070D01*
X6258039Y-12382070D02*
X6267563Y-12372546D01*
X6267563Y-12372546D02*
X6286611Y-12343975D01*
X6286611Y-12343975D02*
X6296134Y-12324927D01*
X6296134Y-12324927D02*
X6305658Y-12296356D01*
X6305658Y-12296356D02*
X6315182Y-12248737D01*
X6315182Y-12248737D02*
X6315182Y-12210641D01*
X6315182Y-12210641D02*
X6305658Y-12163022D01*
X6305658Y-12163022D02*
X6296134Y-12134451D01*
X6296134Y-12134451D02*
X6286611Y-12115403D01*
X6286611Y-12115403D02*
X6267563Y-12086832D01*
X6267563Y-12086832D02*
X6258039Y-12077308D01*
X6619944Y-12382070D02*
X6610420Y-12372546D01*
X6610420Y-12372546D02*
X6591372Y-12343975D01*
X6591372Y-12343975D02*
X6581849Y-12324927D01*
X6581849Y-12324927D02*
X6572325Y-12296356D01*
X6572325Y-12296356D02*
X6562801Y-12248737D01*
X6562801Y-12248737D02*
X6562801Y-12210641D01*
X6562801Y-12210641D02*
X6572325Y-12163022D01*
X6572325Y-12163022D02*
X6581849Y-12134451D01*
X6581849Y-12134451D02*
X6591372Y-12115403D01*
X6591372Y-12115403D02*
X6610420Y-12086832D01*
X6610420Y-12086832D02*
X6619944Y-12077308D01*
X6696134Y-12172546D02*
X6696134Y-12305879D01*
X6696134Y-12191594D02*
X6705658Y-12182070D01*
X6705658Y-12182070D02*
X6724706Y-12172546D01*
X6724706Y-12172546D02*
X6753277Y-12172546D01*
X6753277Y-12172546D02*
X6772325Y-12182070D01*
X6772325Y-12182070D02*
X6781849Y-12201118D01*
X6781849Y-12201118D02*
X6781849Y-12305879D01*
X6905658Y-12305879D02*
X6886611Y-12296356D01*
X6886611Y-12296356D02*
X6877087Y-12286832D01*
X6877087Y-12286832D02*
X6867563Y-12267784D01*
X6867563Y-12267784D02*
X6867563Y-12210641D01*
X6867563Y-12210641D02*
X6877087Y-12191594D01*
X6877087Y-12191594D02*
X6886611Y-12182070D01*
X6886611Y-12182070D02*
X6905658Y-12172546D01*
X6905658Y-12172546D02*
X6934230Y-12172546D01*
X6934230Y-12172546D02*
X6953277Y-12182070D01*
X6953277Y-12182070D02*
X6962801Y-12191594D01*
X6962801Y-12191594D02*
X6972325Y-12210641D01*
X6972325Y-12210641D02*
X6972325Y-12267784D01*
X6972325Y-12267784D02*
X6962801Y-12286832D01*
X6962801Y-12286832D02*
X6953277Y-12296356D01*
X6953277Y-12296356D02*
X6934230Y-12305879D01*
X6934230Y-12305879D02*
X6905658Y-12305879D01*
X7029468Y-12172546D02*
X7105658Y-12172546D01*
X7058039Y-12105879D02*
X7058039Y-12277308D01*
X7058039Y-12277308D02*
X7067563Y-12296356D01*
X7067563Y-12296356D02*
X7086611Y-12305879D01*
X7086611Y-12305879D02*
X7105658Y-12305879D01*
X7324706Y-12172546D02*
X7324706Y-12372546D01*
X7324706Y-12182070D02*
X7343753Y-12172546D01*
X7343753Y-12172546D02*
X7381849Y-12172546D01*
X7381849Y-12172546D02*
X7400896Y-12182070D01*
X7400896Y-12182070D02*
X7410420Y-12191594D01*
X7410420Y-12191594D02*
X7419944Y-12210641D01*
X7419944Y-12210641D02*
X7419944Y-12267784D01*
X7419944Y-12267784D02*
X7410420Y-12286832D01*
X7410420Y-12286832D02*
X7400896Y-12296356D01*
X7400896Y-12296356D02*
X7381849Y-12305879D01*
X7381849Y-12305879D02*
X7343753Y-12305879D01*
X7343753Y-12305879D02*
X7324706Y-12296356D01*
X7534230Y-12305879D02*
X7515182Y-12296356D01*
X7515182Y-12296356D02*
X7505658Y-12277308D01*
X7505658Y-12277308D02*
X7505658Y-12105879D01*
X7696134Y-12305879D02*
X7696134Y-12201118D01*
X7696134Y-12201118D02*
X7686611Y-12182070D01*
X7686611Y-12182070D02*
X7667563Y-12172546D01*
X7667563Y-12172546D02*
X7629468Y-12172546D01*
X7629468Y-12172546D02*
X7610420Y-12182070D01*
X7696134Y-12296356D02*
X7677087Y-12305879D01*
X7677087Y-12305879D02*
X7629468Y-12305879D01*
X7629468Y-12305879D02*
X7610420Y-12296356D01*
X7610420Y-12296356D02*
X7600896Y-12277308D01*
X7600896Y-12277308D02*
X7600896Y-12258260D01*
X7600896Y-12258260D02*
X7610420Y-12239213D01*
X7610420Y-12239213D02*
X7629468Y-12229689D01*
X7629468Y-12229689D02*
X7677087Y-12229689D01*
X7677087Y-12229689D02*
X7696134Y-12220165D01*
X7762801Y-12172546D02*
X7838992Y-12172546D01*
X7791373Y-12105879D02*
X7791373Y-12277308D01*
X7791373Y-12277308D02*
X7800896Y-12296356D01*
X7800896Y-12296356D02*
X7819944Y-12305879D01*
X7819944Y-12305879D02*
X7838992Y-12305879D01*
X7981849Y-12296356D02*
X7962801Y-12305879D01*
X7962801Y-12305879D02*
X7924706Y-12305879D01*
X7924706Y-12305879D02*
X7905658Y-12296356D01*
X7905658Y-12296356D02*
X7896134Y-12277308D01*
X7896134Y-12277308D02*
X7896134Y-12201118D01*
X7896134Y-12201118D02*
X7905658Y-12182070D01*
X7905658Y-12182070D02*
X7924706Y-12172546D01*
X7924706Y-12172546D02*
X7962801Y-12172546D01*
X7962801Y-12172546D02*
X7981849Y-12182070D01*
X7981849Y-12182070D02*
X7991373Y-12201118D01*
X7991373Y-12201118D02*
X7991373Y-12220165D01*
X7991373Y-12220165D02*
X7896134Y-12239213D01*
X8162801Y-12305879D02*
X8162801Y-12105879D01*
X8162801Y-12296356D02*
X8143754Y-12305879D01*
X8143754Y-12305879D02*
X8105658Y-12305879D01*
X8105658Y-12305879D02*
X8086611Y-12296356D01*
X8086611Y-12296356D02*
X8077087Y-12286832D01*
X8077087Y-12286832D02*
X8067563Y-12267784D01*
X8067563Y-12267784D02*
X8067563Y-12210641D01*
X8067563Y-12210641D02*
X8077087Y-12191594D01*
X8077087Y-12191594D02*
X8086611Y-12182070D01*
X8086611Y-12182070D02*
X8105658Y-12172546D01*
X8105658Y-12172546D02*
X8143754Y-12172546D01*
X8143754Y-12172546D02*
X8162801Y-12182070D01*
X8238992Y-12382070D02*
X8248515Y-12372546D01*
X8248515Y-12372546D02*
X8267563Y-12343975D01*
X8267563Y-12343975D02*
X8277087Y-12324927D01*
X8277087Y-12324927D02*
X8286611Y-12296356D01*
X8286611Y-12296356D02*
X8296134Y-12248737D01*
X8296134Y-12248737D02*
X8296134Y-12210641D01*
X8296134Y-12210641D02*
X8286611Y-12163022D01*
X8286611Y-12163022D02*
X8277087Y-12134451D01*
X8277087Y-12134451D02*
X8267563Y-12115403D01*
X8267563Y-12115403D02*
X8248515Y-12086832D01*
X8248515Y-12086832D02*
X8238992Y-12077308D01*
X1192500Y-12404576D02*
X1192500Y-12604576D01*
X1092500Y-12504576D02*
X1292500Y-12504576D01*
X1534229Y-12396059D02*
X1658039Y-12396059D01*
X1658039Y-12396059D02*
X1591372Y-12472250D01*
X1591372Y-12472250D02*
X1619943Y-12472250D01*
X1619943Y-12472250D02*
X1638991Y-12481774D01*
X1638991Y-12481774D02*
X1648515Y-12491298D01*
X1648515Y-12491298D02*
X1658039Y-12510345D01*
X1658039Y-12510345D02*
X1658039Y-12557964D01*
X1658039Y-12557964D02*
X1648515Y-12577012D01*
X1648515Y-12577012D02*
X1638991Y-12586536D01*
X1638991Y-12586536D02*
X1619943Y-12596059D01*
X1619943Y-12596059D02*
X1562801Y-12596059D01*
X1562801Y-12596059D02*
X1543753Y-12586536D01*
X1543753Y-12586536D02*
X1534229Y-12577012D01*
X1743753Y-12577012D02*
X1753277Y-12586536D01*
X1753277Y-12586536D02*
X1743753Y-12596059D01*
X1743753Y-12596059D02*
X1734229Y-12586536D01*
X1734229Y-12586536D02*
X1743753Y-12577012D01*
X1743753Y-12577012D02*
X1743753Y-12596059D01*
X1924705Y-12462726D02*
X1924705Y-12596059D01*
X1877086Y-12386536D02*
X1829467Y-12529393D01*
X1829467Y-12529393D02*
X1953277Y-12529393D01*
X2019943Y-12415107D02*
X2029467Y-12405583D01*
X2029467Y-12405583D02*
X2048515Y-12396059D01*
X2048515Y-12396059D02*
X2096134Y-12396059D01*
X2096134Y-12396059D02*
X2115182Y-12405583D01*
X2115182Y-12405583D02*
X2124705Y-12415107D01*
X2124705Y-12415107D02*
X2134229Y-12434155D01*
X2134229Y-12434155D02*
X2134229Y-12453202D01*
X2134229Y-12453202D02*
X2124705Y-12481774D01*
X2124705Y-12481774D02*
X2010420Y-12596059D01*
X2010420Y-12596059D02*
X2134229Y-12596059D01*
X2229467Y-12596059D02*
X2267563Y-12596059D01*
X2267563Y-12596059D02*
X2286610Y-12586536D01*
X2286610Y-12586536D02*
X2296134Y-12577012D01*
X2296134Y-12577012D02*
X2315182Y-12548440D01*
X2315182Y-12548440D02*
X2324705Y-12510345D01*
X2324705Y-12510345D02*
X2324705Y-12434155D01*
X2324705Y-12434155D02*
X2315182Y-12415107D01*
X2315182Y-12415107D02*
X2305658Y-12405583D01*
X2305658Y-12405583D02*
X2286610Y-12396059D01*
X2286610Y-12396059D02*
X2248515Y-12396059D01*
X2248515Y-12396059D02*
X2229467Y-12405583D01*
X2229467Y-12405583D02*
X2219944Y-12415107D01*
X2219944Y-12415107D02*
X2210420Y-12434155D01*
X2210420Y-12434155D02*
X2210420Y-12481774D01*
X2210420Y-12481774D02*
X2219944Y-12500821D01*
X2219944Y-12500821D02*
X2229467Y-12510345D01*
X2229467Y-12510345D02*
X2248515Y-12519869D01*
X2248515Y-12519869D02*
X2286610Y-12519869D01*
X2286610Y-12519869D02*
X2305658Y-12510345D01*
X2305658Y-12510345D02*
X2315182Y-12500821D01*
X2315182Y-12500821D02*
X2324705Y-12481774D01*
X2410420Y-12596059D02*
X2410420Y-12462726D01*
X2410420Y-12481774D02*
X2419944Y-12472250D01*
X2419944Y-12472250D02*
X2438991Y-12462726D01*
X2438991Y-12462726D02*
X2467563Y-12462726D01*
X2467563Y-12462726D02*
X2486610Y-12472250D01*
X2486610Y-12472250D02*
X2496134Y-12491298D01*
X2496134Y-12491298D02*
X2496134Y-12596059D01*
X2496134Y-12491298D02*
X2505658Y-12472250D01*
X2505658Y-12472250D02*
X2524705Y-12462726D01*
X2524705Y-12462726D02*
X2553277Y-12462726D01*
X2553277Y-12462726D02*
X2572325Y-12472250D01*
X2572325Y-12472250D02*
X2581848Y-12491298D01*
X2581848Y-12491298D02*
X2581848Y-12596059D01*
X2677086Y-12596059D02*
X2677086Y-12462726D01*
X2677086Y-12481774D02*
X2686610Y-12472250D01*
X2686610Y-12472250D02*
X2705658Y-12462726D01*
X2705658Y-12462726D02*
X2734229Y-12462726D01*
X2734229Y-12462726D02*
X2753277Y-12472250D01*
X2753277Y-12472250D02*
X2762801Y-12491298D01*
X2762801Y-12491298D02*
X2762801Y-12596059D01*
X2762801Y-12491298D02*
X2772325Y-12472250D01*
X2772325Y-12472250D02*
X2791372Y-12462726D01*
X2791372Y-12462726D02*
X2819943Y-12462726D01*
X2819943Y-12462726D02*
X2838991Y-12472250D01*
X2838991Y-12472250D02*
X2848515Y-12491298D01*
X2848515Y-12491298D02*
X2848515Y-12596059D01*
X3238991Y-12386536D02*
X3067563Y-12643678D01*
X3496134Y-12396059D02*
X3515182Y-12396059D01*
X3515182Y-12396059D02*
X3534229Y-12405583D01*
X3534229Y-12405583D02*
X3543753Y-12415107D01*
X3543753Y-12415107D02*
X3553277Y-12434155D01*
X3553277Y-12434155D02*
X3562801Y-12472250D01*
X3562801Y-12472250D02*
X3562801Y-12519869D01*
X3562801Y-12519869D02*
X3553277Y-12557964D01*
X3553277Y-12557964D02*
X3543753Y-12577012D01*
X3543753Y-12577012D02*
X3534229Y-12586536D01*
X3534229Y-12586536D02*
X3515182Y-12596059D01*
X3515182Y-12596059D02*
X3496134Y-12596059D01*
X3496134Y-12596059D02*
X3477086Y-12586536D01*
X3477086Y-12586536D02*
X3467563Y-12577012D01*
X3467563Y-12577012D02*
X3458039Y-12557964D01*
X3458039Y-12557964D02*
X3448515Y-12519869D01*
X3448515Y-12519869D02*
X3448515Y-12472250D01*
X3448515Y-12472250D02*
X3458039Y-12434155D01*
X3458039Y-12434155D02*
X3467563Y-12415107D01*
X3467563Y-12415107D02*
X3477086Y-12405583D01*
X3477086Y-12405583D02*
X3496134Y-12396059D01*
X3648515Y-12577012D02*
X3658039Y-12586536D01*
X3658039Y-12586536D02*
X3648515Y-12596059D01*
X3648515Y-12596059D02*
X3638991Y-12586536D01*
X3638991Y-12586536D02*
X3648515Y-12577012D01*
X3648515Y-12577012D02*
X3648515Y-12596059D01*
X3848515Y-12596059D02*
X3734229Y-12596059D01*
X3791372Y-12596059D02*
X3791372Y-12396059D01*
X3791372Y-12396059D02*
X3772325Y-12424631D01*
X3772325Y-12424631D02*
X3753277Y-12443678D01*
X3753277Y-12443678D02*
X3734229Y-12453202D01*
X3915182Y-12396059D02*
X4038991Y-12396059D01*
X4038991Y-12396059D02*
X3972325Y-12472250D01*
X3972325Y-12472250D02*
X4000896Y-12472250D01*
X4000896Y-12472250D02*
X4019944Y-12481774D01*
X4019944Y-12481774D02*
X4029467Y-12491298D01*
X4029467Y-12491298D02*
X4038991Y-12510345D01*
X4038991Y-12510345D02*
X4038991Y-12557964D01*
X4038991Y-12557964D02*
X4029467Y-12577012D01*
X4029467Y-12577012D02*
X4019944Y-12586536D01*
X4019944Y-12586536D02*
X4000896Y-12596059D01*
X4000896Y-12596059D02*
X3943753Y-12596059D01*
X3943753Y-12596059D02*
X3924706Y-12586536D01*
X3924706Y-12586536D02*
X3915182Y-12577012D01*
X4219944Y-12396059D02*
X4124706Y-12396059D01*
X4124706Y-12396059D02*
X4115182Y-12491298D01*
X4115182Y-12491298D02*
X4124706Y-12481774D01*
X4124706Y-12481774D02*
X4143753Y-12472250D01*
X4143753Y-12472250D02*
X4191372Y-12472250D01*
X4191372Y-12472250D02*
X4210420Y-12481774D01*
X4210420Y-12481774D02*
X4219944Y-12491298D01*
X4219944Y-12491298D02*
X4229468Y-12510345D01*
X4229468Y-12510345D02*
X4229468Y-12557964D01*
X4229468Y-12557964D02*
X4219944Y-12577012D01*
X4219944Y-12577012D02*
X4210420Y-12586536D01*
X4210420Y-12586536D02*
X4191372Y-12596059D01*
X4191372Y-12596059D02*
X4143753Y-12596059D01*
X4143753Y-12596059D02*
X4124706Y-12586536D01*
X4124706Y-12586536D02*
X4115182Y-12577012D01*
X4353277Y-12396059D02*
X4372325Y-12396059D01*
X4372325Y-12396059D02*
X4391372Y-12405583D01*
X4391372Y-12405583D02*
X4400896Y-12415107D01*
X4400896Y-12415107D02*
X4410420Y-12434155D01*
X4410420Y-12434155D02*
X4419944Y-12472250D01*
X4419944Y-12472250D02*
X4419944Y-12519869D01*
X4419944Y-12519869D02*
X4410420Y-12557964D01*
X4410420Y-12557964D02*
X4400896Y-12577012D01*
X4400896Y-12577012D02*
X4391372Y-12586536D01*
X4391372Y-12586536D02*
X4372325Y-12596059D01*
X4372325Y-12596059D02*
X4353277Y-12596059D01*
X4353277Y-12596059D02*
X4334229Y-12586536D01*
X4334229Y-12586536D02*
X4324706Y-12577012D01*
X4324706Y-12577012D02*
X4315182Y-12557964D01*
X4315182Y-12557964D02*
X4305658Y-12519869D01*
X4305658Y-12519869D02*
X4305658Y-12472250D01*
X4305658Y-12472250D02*
X4315182Y-12434155D01*
X4315182Y-12434155D02*
X4324706Y-12415107D01*
X4324706Y-12415107D02*
X4334229Y-12405583D01*
X4334229Y-12405583D02*
X4353277Y-12396059D01*
X4496134Y-12396059D02*
X4496134Y-12434155D01*
X4572325Y-12396059D02*
X4572325Y-12434155D01*
X4867563Y-12672250D02*
X4858039Y-12662726D01*
X4858039Y-12662726D02*
X4838991Y-12634155D01*
X4838991Y-12634155D02*
X4829468Y-12615107D01*
X4829468Y-12615107D02*
X4819944Y-12586536D01*
X4819944Y-12586536D02*
X4810420Y-12538917D01*
X4810420Y-12538917D02*
X4810420Y-12500821D01*
X4810420Y-12500821D02*
X4819944Y-12453202D01*
X4819944Y-12453202D02*
X4829468Y-12424631D01*
X4829468Y-12424631D02*
X4838991Y-12405583D01*
X4838991Y-12405583D02*
X4858039Y-12377012D01*
X4858039Y-12377012D02*
X4867563Y-12367488D01*
X4934230Y-12415107D02*
X4943753Y-12405583D01*
X4943753Y-12405583D02*
X4962801Y-12396059D01*
X4962801Y-12396059D02*
X5010420Y-12396059D01*
X5010420Y-12396059D02*
X5029468Y-12405583D01*
X5029468Y-12405583D02*
X5038991Y-12415107D01*
X5038991Y-12415107D02*
X5048515Y-12434155D01*
X5048515Y-12434155D02*
X5048515Y-12453202D01*
X5048515Y-12453202D02*
X5038991Y-12481774D01*
X5038991Y-12481774D02*
X4924706Y-12596059D01*
X4924706Y-12596059D02*
X5048515Y-12596059D01*
X5238991Y-12596059D02*
X5124706Y-12596059D01*
X5181849Y-12596059D02*
X5181849Y-12396059D01*
X5181849Y-12396059D02*
X5162801Y-12424631D01*
X5162801Y-12424631D02*
X5143753Y-12443678D01*
X5143753Y-12443678D02*
X5124706Y-12453202D01*
X5477087Y-12596059D02*
X5477087Y-12396059D01*
X5562801Y-12596059D02*
X5562801Y-12491298D01*
X5562801Y-12491298D02*
X5553277Y-12472250D01*
X5553277Y-12472250D02*
X5534230Y-12462726D01*
X5534230Y-12462726D02*
X5505658Y-12462726D01*
X5505658Y-12462726D02*
X5486611Y-12472250D01*
X5486611Y-12472250D02*
X5477087Y-12481774D01*
X5686610Y-12596059D02*
X5667563Y-12586536D01*
X5667563Y-12586536D02*
X5658039Y-12577012D01*
X5658039Y-12577012D02*
X5648515Y-12557964D01*
X5648515Y-12557964D02*
X5648515Y-12500821D01*
X5648515Y-12500821D02*
X5658039Y-12481774D01*
X5658039Y-12481774D02*
X5667563Y-12472250D01*
X5667563Y-12472250D02*
X5686610Y-12462726D01*
X5686610Y-12462726D02*
X5715182Y-12462726D01*
X5715182Y-12462726D02*
X5734230Y-12472250D01*
X5734230Y-12472250D02*
X5743753Y-12481774D01*
X5743753Y-12481774D02*
X5753277Y-12500821D01*
X5753277Y-12500821D02*
X5753277Y-12557964D01*
X5753277Y-12557964D02*
X5743753Y-12577012D01*
X5743753Y-12577012D02*
X5734230Y-12586536D01*
X5734230Y-12586536D02*
X5715182Y-12596059D01*
X5715182Y-12596059D02*
X5686610Y-12596059D01*
X5867563Y-12596059D02*
X5848515Y-12586536D01*
X5848515Y-12586536D02*
X5838991Y-12567488D01*
X5838991Y-12567488D02*
X5838991Y-12396059D01*
X6019944Y-12586536D02*
X6000896Y-12596059D01*
X6000896Y-12596059D02*
X5962801Y-12596059D01*
X5962801Y-12596059D02*
X5943753Y-12586536D01*
X5943753Y-12586536D02*
X5934230Y-12567488D01*
X5934230Y-12567488D02*
X5934230Y-12491298D01*
X5934230Y-12491298D02*
X5943753Y-12472250D01*
X5943753Y-12472250D02*
X5962801Y-12462726D01*
X5962801Y-12462726D02*
X6000896Y-12462726D01*
X6000896Y-12462726D02*
X6019944Y-12472250D01*
X6019944Y-12472250D02*
X6029468Y-12491298D01*
X6029468Y-12491298D02*
X6029468Y-12510345D01*
X6029468Y-12510345D02*
X5934230Y-12529393D01*
X6105658Y-12586536D02*
X6124706Y-12596059D01*
X6124706Y-12596059D02*
X6162801Y-12596059D01*
X6162801Y-12596059D02*
X6181849Y-12586536D01*
X6181849Y-12586536D02*
X6191372Y-12567488D01*
X6191372Y-12567488D02*
X6191372Y-12557964D01*
X6191372Y-12557964D02*
X6181849Y-12538917D01*
X6181849Y-12538917D02*
X6162801Y-12529393D01*
X6162801Y-12529393D02*
X6134230Y-12529393D01*
X6134230Y-12529393D02*
X6115182Y-12519869D01*
X6115182Y-12519869D02*
X6105658Y-12500821D01*
X6105658Y-12500821D02*
X6105658Y-12491298D01*
X6105658Y-12491298D02*
X6115182Y-12472250D01*
X6115182Y-12472250D02*
X6134230Y-12462726D01*
X6134230Y-12462726D02*
X6162801Y-12462726D01*
X6162801Y-12462726D02*
X6181849Y-12472250D01*
X6258039Y-12672250D02*
X6267563Y-12662726D01*
X6267563Y-12662726D02*
X6286611Y-12634155D01*
X6286611Y-12634155D02*
X6296134Y-12615107D01*
X6296134Y-12615107D02*
X6305658Y-12586536D01*
X6305658Y-12586536D02*
X6315182Y-12538917D01*
X6315182Y-12538917D02*
X6315182Y-12500821D01*
X6315182Y-12500821D02*
X6305658Y-12453202D01*
X6305658Y-12453202D02*
X6296134Y-12424631D01*
X6296134Y-12424631D02*
X6286611Y-12405583D01*
X6286611Y-12405583D02*
X6267563Y-12377012D01*
X6267563Y-12377012D02*
X6258039Y-12367488D01*
X6619944Y-12672250D02*
X6610420Y-12662726D01*
X6610420Y-12662726D02*
X6591372Y-12634155D01*
X6591372Y-12634155D02*
X6581849Y-12615107D01*
X6581849Y-12615107D02*
X6572325Y-12586536D01*
X6572325Y-12586536D02*
X6562801Y-12538917D01*
X6562801Y-12538917D02*
X6562801Y-12500821D01*
X6562801Y-12500821D02*
X6572325Y-12453202D01*
X6572325Y-12453202D02*
X6581849Y-12424631D01*
X6581849Y-12424631D02*
X6591372Y-12405583D01*
X6591372Y-12405583D02*
X6610420Y-12377012D01*
X6610420Y-12377012D02*
X6619944Y-12367488D01*
X6696134Y-12462726D02*
X6696134Y-12596059D01*
X6696134Y-12481774D02*
X6705658Y-12472250D01*
X6705658Y-12472250D02*
X6724706Y-12462726D01*
X6724706Y-12462726D02*
X6753277Y-12462726D01*
X6753277Y-12462726D02*
X6772325Y-12472250D01*
X6772325Y-12472250D02*
X6781849Y-12491298D01*
X6781849Y-12491298D02*
X6781849Y-12596059D01*
X6905658Y-12596059D02*
X6886611Y-12586536D01*
X6886611Y-12586536D02*
X6877087Y-12577012D01*
X6877087Y-12577012D02*
X6867563Y-12557964D01*
X6867563Y-12557964D02*
X6867563Y-12500821D01*
X6867563Y-12500821D02*
X6877087Y-12481774D01*
X6877087Y-12481774D02*
X6886611Y-12472250D01*
X6886611Y-12472250D02*
X6905658Y-12462726D01*
X6905658Y-12462726D02*
X6934230Y-12462726D01*
X6934230Y-12462726D02*
X6953277Y-12472250D01*
X6953277Y-12472250D02*
X6962801Y-12481774D01*
X6962801Y-12481774D02*
X6972325Y-12500821D01*
X6972325Y-12500821D02*
X6972325Y-12557964D01*
X6972325Y-12557964D02*
X6962801Y-12577012D01*
X6962801Y-12577012D02*
X6953277Y-12586536D01*
X6953277Y-12586536D02*
X6934230Y-12596059D01*
X6934230Y-12596059D02*
X6905658Y-12596059D01*
X7029468Y-12462726D02*
X7105658Y-12462726D01*
X7058039Y-12396059D02*
X7058039Y-12567488D01*
X7058039Y-12567488D02*
X7067563Y-12586536D01*
X7067563Y-12586536D02*
X7086611Y-12596059D01*
X7086611Y-12596059D02*
X7105658Y-12596059D01*
X7324706Y-12462726D02*
X7324706Y-12662726D01*
X7324706Y-12472250D02*
X7343753Y-12462726D01*
X7343753Y-12462726D02*
X7381849Y-12462726D01*
X7381849Y-12462726D02*
X7400896Y-12472250D01*
X7400896Y-12472250D02*
X7410420Y-12481774D01*
X7410420Y-12481774D02*
X7419944Y-12500821D01*
X7419944Y-12500821D02*
X7419944Y-12557964D01*
X7419944Y-12557964D02*
X7410420Y-12577012D01*
X7410420Y-12577012D02*
X7400896Y-12586536D01*
X7400896Y-12586536D02*
X7381849Y-12596059D01*
X7381849Y-12596059D02*
X7343753Y-12596059D01*
X7343753Y-12596059D02*
X7324706Y-12586536D01*
X7534230Y-12596059D02*
X7515182Y-12586536D01*
X7515182Y-12586536D02*
X7505658Y-12567488D01*
X7505658Y-12567488D02*
X7505658Y-12396059D01*
X7696134Y-12596059D02*
X7696134Y-12491298D01*
X7696134Y-12491298D02*
X7686611Y-12472250D01*
X7686611Y-12472250D02*
X7667563Y-12462726D01*
X7667563Y-12462726D02*
X7629468Y-12462726D01*
X7629468Y-12462726D02*
X7610420Y-12472250D01*
X7696134Y-12586536D02*
X7677087Y-12596059D01*
X7677087Y-12596059D02*
X7629468Y-12596059D01*
X7629468Y-12596059D02*
X7610420Y-12586536D01*
X7610420Y-12586536D02*
X7600896Y-12567488D01*
X7600896Y-12567488D02*
X7600896Y-12548440D01*
X7600896Y-12548440D02*
X7610420Y-12529393D01*
X7610420Y-12529393D02*
X7629468Y-12519869D01*
X7629468Y-12519869D02*
X7677087Y-12519869D01*
X7677087Y-12519869D02*
X7696134Y-12510345D01*
X7762801Y-12462726D02*
X7838992Y-12462726D01*
X7791373Y-12396059D02*
X7791373Y-12567488D01*
X7791373Y-12567488D02*
X7800896Y-12586536D01*
X7800896Y-12586536D02*
X7819944Y-12596059D01*
X7819944Y-12596059D02*
X7838992Y-12596059D01*
X7981849Y-12586536D02*
X7962801Y-12596059D01*
X7962801Y-12596059D02*
X7924706Y-12596059D01*
X7924706Y-12596059D02*
X7905658Y-12586536D01*
X7905658Y-12586536D02*
X7896134Y-12567488D01*
X7896134Y-12567488D02*
X7896134Y-12491298D01*
X7896134Y-12491298D02*
X7905658Y-12472250D01*
X7905658Y-12472250D02*
X7924706Y-12462726D01*
X7924706Y-12462726D02*
X7962801Y-12462726D01*
X7962801Y-12462726D02*
X7981849Y-12472250D01*
X7981849Y-12472250D02*
X7991373Y-12491298D01*
X7991373Y-12491298D02*
X7991373Y-12510345D01*
X7991373Y-12510345D02*
X7896134Y-12529393D01*
X8162801Y-12596059D02*
X8162801Y-12396059D01*
X8162801Y-12586536D02*
X8143754Y-12596059D01*
X8143754Y-12596059D02*
X8105658Y-12596059D01*
X8105658Y-12596059D02*
X8086611Y-12586536D01*
X8086611Y-12586536D02*
X8077087Y-12577012D01*
X8077087Y-12577012D02*
X8067563Y-12557964D01*
X8067563Y-12557964D02*
X8067563Y-12500821D01*
X8067563Y-12500821D02*
X8077087Y-12481774D01*
X8077087Y-12481774D02*
X8086611Y-12472250D01*
X8086611Y-12472250D02*
X8105658Y-12462726D01*
X8105658Y-12462726D02*
X8143754Y-12462726D01*
X8143754Y-12462726D02*
X8162801Y-12472250D01*
X8238992Y-12672250D02*
X8248515Y-12662726D01*
X8248515Y-12662726D02*
X8267563Y-12634155D01*
X8267563Y-12634155D02*
X8277087Y-12615107D01*
X8277087Y-12615107D02*
X8286611Y-12586536D01*
X8286611Y-12586536D02*
X8296134Y-12538917D01*
X8296134Y-12538917D02*
X8296134Y-12500821D01*
X8296134Y-12500821D02*
X8286611Y-12453202D01*
X8286611Y-12453202D02*
X8277087Y-12424631D01*
X8277087Y-12424631D02*
X8267563Y-12405583D01*
X8267563Y-12405583D02*
X8248515Y-12377012D01*
X8248515Y-12377012D02*
X8238992Y-12367488D01*
M02*
