%TF.GenerationSoftware,KiCad,Pcbnew,7.0.5*%
%TF.CreationDate,2023-06-08T16:22:02-03:00*%
%TF.ProjectId,2kalypcb_microcontroller_trrs,326b616c-7970-4636-925f-6d6963726f63,v1.0.0*%
%TF.SameCoordinates,Original*%
%TF.FileFunction,Legend,Top*%
%TF.FilePolarity,Positive*%
%FSLAX46Y46*%
G04 Gerber Fmt 4.6, Leading zero omitted, Abs format (unit mm)*
G04 Created by KiCad (PCBNEW 7.0.5) date 2023-06-08 16:22:02*
%MOMM*%
%LPD*%
G01*
G04 APERTURE LIST*
%ADD10C,0.200000*%
%ADD11C,0.250000*%
%ADD12C,0.500000*%
%ADD13C,0.120000*%
%ADD14C,0.150000*%
%ADD15C,1.701800*%
%ADD16C,3.429000*%
%ADD17C,2.032000*%
%ADD18R,1.700000X1.700000*%
%ADD19C,1.700000*%
%ADD20C,0.800000*%
%ADD21O,2.000000X1.600000*%
G04 APERTURE END LIST*
D10*
X15533958Y-33834176D02*
X15533958Y-32564176D01*
X16078244Y-33834176D02*
X16078244Y-33168938D01*
X16078244Y-33168938D02*
X16017768Y-33047985D01*
X16017768Y-33047985D02*
X15896816Y-32987509D01*
X15896816Y-32987509D02*
X15715387Y-32987509D01*
X15715387Y-32987509D02*
X15594435Y-33047985D01*
X15594435Y-33047985D02*
X15533958Y-33108461D01*
X16501578Y-32987509D02*
X16985387Y-32987509D01*
X16683006Y-32564176D02*
X16683006Y-33652747D01*
X16683006Y-33652747D02*
X16743483Y-33773700D01*
X16743483Y-33773700D02*
X16864435Y-33834176D01*
X16864435Y-33834176D02*
X16985387Y-33834176D01*
X17227292Y-32987509D02*
X17711101Y-32987509D01*
X17408720Y-32564176D02*
X17408720Y-33652747D01*
X17408720Y-33652747D02*
X17469197Y-33773700D01*
X17469197Y-33773700D02*
X17590149Y-33834176D01*
X17590149Y-33834176D02*
X17711101Y-33834176D01*
X18134434Y-32987509D02*
X18134434Y-34257509D01*
X18134434Y-33047985D02*
X18255387Y-32987509D01*
X18255387Y-32987509D02*
X18497292Y-32987509D01*
X18497292Y-32987509D02*
X18618244Y-33047985D01*
X18618244Y-33047985D02*
X18678720Y-33108461D01*
X18678720Y-33108461D02*
X18739196Y-33229414D01*
X18739196Y-33229414D02*
X18739196Y-33592271D01*
X18739196Y-33592271D02*
X18678720Y-33713223D01*
X18678720Y-33713223D02*
X18618244Y-33773700D01*
X18618244Y-33773700D02*
X18497292Y-33834176D01*
X18497292Y-33834176D02*
X18255387Y-33834176D01*
X18255387Y-33834176D02*
X18134434Y-33773700D01*
X19223006Y-33773700D02*
X19343959Y-33834176D01*
X19343959Y-33834176D02*
X19585863Y-33834176D01*
X19585863Y-33834176D02*
X19706816Y-33773700D01*
X19706816Y-33773700D02*
X19767292Y-33652747D01*
X19767292Y-33652747D02*
X19767292Y-33592271D01*
X19767292Y-33592271D02*
X19706816Y-33471319D01*
X19706816Y-33471319D02*
X19585863Y-33410842D01*
X19585863Y-33410842D02*
X19404435Y-33410842D01*
X19404435Y-33410842D02*
X19283482Y-33350366D01*
X19283482Y-33350366D02*
X19223006Y-33229414D01*
X19223006Y-33229414D02*
X19223006Y-33168938D01*
X19223006Y-33168938D02*
X19283482Y-33047985D01*
X19283482Y-33047985D02*
X19404435Y-32987509D01*
X19404435Y-32987509D02*
X19585863Y-32987509D01*
X19585863Y-32987509D02*
X19706816Y-33047985D01*
X20311577Y-33713223D02*
X20372054Y-33773700D01*
X20372054Y-33773700D02*
X20311577Y-33834176D01*
X20311577Y-33834176D02*
X20251101Y-33773700D01*
X20251101Y-33773700D02*
X20311577Y-33713223D01*
X20311577Y-33713223D02*
X20311577Y-33834176D01*
X20311577Y-33047985D02*
X20372054Y-33108461D01*
X20372054Y-33108461D02*
X20311577Y-33168938D01*
X20311577Y-33168938D02*
X20251101Y-33108461D01*
X20251101Y-33108461D02*
X20311577Y-33047985D01*
X20311577Y-33047985D02*
X20311577Y-33168938D01*
X21823482Y-32503700D02*
X20734911Y-34136557D01*
X23153958Y-32503700D02*
X22065387Y-34136557D01*
X24121577Y-32987509D02*
X24121577Y-34015604D01*
X24121577Y-34015604D02*
X24061101Y-34136557D01*
X24061101Y-34136557D02*
X24000625Y-34197033D01*
X24000625Y-34197033D02*
X23879672Y-34257509D01*
X23879672Y-34257509D02*
X23698244Y-34257509D01*
X23698244Y-34257509D02*
X23577291Y-34197033D01*
X24121577Y-33773700D02*
X24000625Y-33834176D01*
X24000625Y-33834176D02*
X23758720Y-33834176D01*
X23758720Y-33834176D02*
X23637768Y-33773700D01*
X23637768Y-33773700D02*
X23577291Y-33713223D01*
X23577291Y-33713223D02*
X23516815Y-33592271D01*
X23516815Y-33592271D02*
X23516815Y-33229414D01*
X23516815Y-33229414D02*
X23577291Y-33108461D01*
X23577291Y-33108461D02*
X23637768Y-33047985D01*
X23637768Y-33047985D02*
X23758720Y-32987509D01*
X23758720Y-32987509D02*
X24000625Y-32987509D01*
X24000625Y-32987509D02*
X24121577Y-33047985D01*
X24726339Y-33834176D02*
X24726339Y-32987509D01*
X24726339Y-32564176D02*
X24665863Y-32624652D01*
X24665863Y-32624652D02*
X24726339Y-32685128D01*
X24726339Y-32685128D02*
X24786816Y-32624652D01*
X24786816Y-32624652D02*
X24726339Y-32564176D01*
X24726339Y-32564176D02*
X24726339Y-32685128D01*
X25149673Y-32987509D02*
X25633482Y-32987509D01*
X25331101Y-32564176D02*
X25331101Y-33652747D01*
X25331101Y-33652747D02*
X25391578Y-33773700D01*
X25391578Y-33773700D02*
X25512530Y-33834176D01*
X25512530Y-33834176D02*
X25633482Y-33834176D01*
X26056815Y-33834176D02*
X26056815Y-32564176D01*
X26601101Y-33834176D02*
X26601101Y-33168938D01*
X26601101Y-33168938D02*
X26540625Y-33047985D01*
X26540625Y-33047985D02*
X26419673Y-32987509D01*
X26419673Y-32987509D02*
X26238244Y-32987509D01*
X26238244Y-32987509D02*
X26117292Y-33047985D01*
X26117292Y-33047985D02*
X26056815Y-33108461D01*
X27750149Y-32987509D02*
X27750149Y-33834176D01*
X27205863Y-32987509D02*
X27205863Y-33652747D01*
X27205863Y-33652747D02*
X27266340Y-33773700D01*
X27266340Y-33773700D02*
X27387292Y-33834176D01*
X27387292Y-33834176D02*
X27568721Y-33834176D01*
X27568721Y-33834176D02*
X27689673Y-33773700D01*
X27689673Y-33773700D02*
X27750149Y-33713223D01*
X28354911Y-33834176D02*
X28354911Y-32564176D01*
X28354911Y-33047985D02*
X28475864Y-32987509D01*
X28475864Y-32987509D02*
X28717769Y-32987509D01*
X28717769Y-32987509D02*
X28838721Y-33047985D01*
X28838721Y-33047985D02*
X28899197Y-33108461D01*
X28899197Y-33108461D02*
X28959673Y-33229414D01*
X28959673Y-33229414D02*
X28959673Y-33592271D01*
X28959673Y-33592271D02*
X28899197Y-33713223D01*
X28899197Y-33713223D02*
X28838721Y-33773700D01*
X28838721Y-33773700D02*
X28717769Y-33834176D01*
X28717769Y-33834176D02*
X28475864Y-33834176D01*
X28475864Y-33834176D02*
X28354911Y-33773700D01*
X29503959Y-33713223D02*
X29564436Y-33773700D01*
X29564436Y-33773700D02*
X29503959Y-33834176D01*
X29503959Y-33834176D02*
X29443483Y-33773700D01*
X29443483Y-33773700D02*
X29503959Y-33713223D01*
X29503959Y-33713223D02*
X29503959Y-33834176D01*
X30653007Y-33773700D02*
X30532055Y-33834176D01*
X30532055Y-33834176D02*
X30290150Y-33834176D01*
X30290150Y-33834176D02*
X30169198Y-33773700D01*
X30169198Y-33773700D02*
X30108721Y-33713223D01*
X30108721Y-33713223D02*
X30048245Y-33592271D01*
X30048245Y-33592271D02*
X30048245Y-33229414D01*
X30048245Y-33229414D02*
X30108721Y-33108461D01*
X30108721Y-33108461D02*
X30169198Y-33047985D01*
X30169198Y-33047985D02*
X30290150Y-32987509D01*
X30290150Y-32987509D02*
X30532055Y-32987509D01*
X30532055Y-32987509D02*
X30653007Y-33047985D01*
X31378721Y-33834176D02*
X31257769Y-33773700D01*
X31257769Y-33773700D02*
X31197292Y-33713223D01*
X31197292Y-33713223D02*
X31136816Y-33592271D01*
X31136816Y-33592271D02*
X31136816Y-33229414D01*
X31136816Y-33229414D02*
X31197292Y-33108461D01*
X31197292Y-33108461D02*
X31257769Y-33047985D01*
X31257769Y-33047985D02*
X31378721Y-32987509D01*
X31378721Y-32987509D02*
X31560150Y-32987509D01*
X31560150Y-32987509D02*
X31681102Y-33047985D01*
X31681102Y-33047985D02*
X31741578Y-33108461D01*
X31741578Y-33108461D02*
X31802054Y-33229414D01*
X31802054Y-33229414D02*
X31802054Y-33592271D01*
X31802054Y-33592271D02*
X31741578Y-33713223D01*
X31741578Y-33713223D02*
X31681102Y-33773700D01*
X31681102Y-33773700D02*
X31560150Y-33834176D01*
X31560150Y-33834176D02*
X31378721Y-33834176D01*
X32346340Y-33834176D02*
X32346340Y-32987509D01*
X32346340Y-33108461D02*
X32406817Y-33047985D01*
X32406817Y-33047985D02*
X32527769Y-32987509D01*
X32527769Y-32987509D02*
X32709198Y-32987509D01*
X32709198Y-32987509D02*
X32830150Y-33047985D01*
X32830150Y-33047985D02*
X32890626Y-33168938D01*
X32890626Y-33168938D02*
X32890626Y-33834176D01*
X32890626Y-33168938D02*
X32951102Y-33047985D01*
X32951102Y-33047985D02*
X33072055Y-32987509D01*
X33072055Y-32987509D02*
X33253483Y-32987509D01*
X33253483Y-32987509D02*
X33374436Y-33047985D01*
X33374436Y-33047985D02*
X33434912Y-33168938D01*
X33434912Y-33168938D02*
X33434912Y-33834176D01*
X34946816Y-32503700D02*
X33858245Y-34136557D01*
X35370149Y-33834176D02*
X35370149Y-32564176D01*
X35370149Y-32564176D02*
X35672530Y-32564176D01*
X35672530Y-32564176D02*
X35853959Y-32624652D01*
X35853959Y-32624652D02*
X35974911Y-32745604D01*
X35974911Y-32745604D02*
X36035388Y-32866557D01*
X36035388Y-32866557D02*
X36095864Y-33108461D01*
X36095864Y-33108461D02*
X36095864Y-33289890D01*
X36095864Y-33289890D02*
X36035388Y-33531795D01*
X36035388Y-33531795D02*
X35974911Y-33652747D01*
X35974911Y-33652747D02*
X35853959Y-33773700D01*
X35853959Y-33773700D02*
X35672530Y-33834176D01*
X35672530Y-33834176D02*
X35370149Y-33834176D01*
X36519197Y-32987509D02*
X36761102Y-33834176D01*
X36761102Y-33834176D02*
X37003007Y-33229414D01*
X37003007Y-33229414D02*
X37244911Y-33834176D01*
X37244911Y-33834176D02*
X37486816Y-32987509D01*
X38514911Y-33773700D02*
X38393959Y-33834176D01*
X38393959Y-33834176D02*
X38152054Y-33834176D01*
X38152054Y-33834176D02*
X38031102Y-33773700D01*
X38031102Y-33773700D02*
X37970625Y-33713223D01*
X37970625Y-33713223D02*
X37910149Y-33592271D01*
X37910149Y-33592271D02*
X37910149Y-33229414D01*
X37910149Y-33229414D02*
X37970625Y-33108461D01*
X37970625Y-33108461D02*
X38031102Y-33047985D01*
X38031102Y-33047985D02*
X38152054Y-32987509D01*
X38152054Y-32987509D02*
X38393959Y-32987509D01*
X38393959Y-32987509D02*
X38514911Y-33047985D01*
X38877768Y-32987509D02*
X39361577Y-32987509D01*
X39059196Y-32564176D02*
X39059196Y-33652747D01*
X39059196Y-33652747D02*
X39119673Y-33773700D01*
X39119673Y-33773700D02*
X39240625Y-33834176D01*
X39240625Y-33834176D02*
X39361577Y-33834176D01*
X39966339Y-33834176D02*
X39845387Y-33773700D01*
X39845387Y-33773700D02*
X39784910Y-33713223D01*
X39784910Y-33713223D02*
X39724434Y-33592271D01*
X39724434Y-33592271D02*
X39724434Y-33229414D01*
X39724434Y-33229414D02*
X39784910Y-33108461D01*
X39784910Y-33108461D02*
X39845387Y-33047985D01*
X39845387Y-33047985D02*
X39966339Y-32987509D01*
X39966339Y-32987509D02*
X40147768Y-32987509D01*
X40147768Y-32987509D02*
X40268720Y-33047985D01*
X40268720Y-33047985D02*
X40329196Y-33108461D01*
X40329196Y-33108461D02*
X40389672Y-33229414D01*
X40389672Y-33229414D02*
X40389672Y-33592271D01*
X40389672Y-33592271D02*
X40329196Y-33713223D01*
X40329196Y-33713223D02*
X40268720Y-33773700D01*
X40268720Y-33773700D02*
X40147768Y-33834176D01*
X40147768Y-33834176D02*
X39966339Y-33834176D01*
X40933958Y-33834176D02*
X40933958Y-32987509D01*
X40933958Y-33229414D02*
X40994435Y-33108461D01*
X40994435Y-33108461D02*
X41054911Y-33047985D01*
X41054911Y-33047985D02*
X41175863Y-32987509D01*
X41175863Y-32987509D02*
X41296816Y-32987509D01*
X42627291Y-32503700D02*
X41538720Y-34136557D01*
X43050624Y-33834176D02*
X43050624Y-32564176D01*
X43776339Y-33834176D02*
X43232053Y-33108461D01*
X43776339Y-32564176D02*
X43050624Y-33289890D01*
X44864910Y-33834176D02*
X44864910Y-33168938D01*
X44864910Y-33168938D02*
X44804434Y-33047985D01*
X44804434Y-33047985D02*
X44683482Y-32987509D01*
X44683482Y-32987509D02*
X44441577Y-32987509D01*
X44441577Y-32987509D02*
X44320624Y-33047985D01*
X44864910Y-33773700D02*
X44743958Y-33834176D01*
X44743958Y-33834176D02*
X44441577Y-33834176D01*
X44441577Y-33834176D02*
X44320624Y-33773700D01*
X44320624Y-33773700D02*
X44260148Y-33652747D01*
X44260148Y-33652747D02*
X44260148Y-33531795D01*
X44260148Y-33531795D02*
X44320624Y-33410842D01*
X44320624Y-33410842D02*
X44441577Y-33350366D01*
X44441577Y-33350366D02*
X44743958Y-33350366D01*
X44743958Y-33350366D02*
X44864910Y-33289890D01*
X45651101Y-33834176D02*
X45530149Y-33773700D01*
X45530149Y-33773700D02*
X45469672Y-33652747D01*
X45469672Y-33652747D02*
X45469672Y-32564176D01*
X46013958Y-32987509D02*
X46316339Y-33834176D01*
X46618720Y-32987509D02*
X46316339Y-33834176D01*
X46316339Y-33834176D02*
X46195387Y-34136557D01*
X46195387Y-34136557D02*
X46134910Y-34197033D01*
X46134910Y-34197033D02*
X46013958Y-34257509D01*
D11*
G36*
X68902773Y-76989270D02*
G01*
X68927351Y-76989598D01*
X68951545Y-76990144D01*
X68975353Y-76990909D01*
X68998775Y-76991892D01*
X69021812Y-76993094D01*
X69044464Y-76994514D01*
X69066730Y-76996153D01*
X69088611Y-76998010D01*
X69110106Y-77000085D01*
X69131216Y-77002379D01*
X69151940Y-77004892D01*
X69172279Y-77007623D01*
X69192233Y-77010572D01*
X69211801Y-77013740D01*
X69249781Y-77020732D01*
X69286219Y-77028597D01*
X69321115Y-77037337D01*
X69354469Y-77046950D01*
X69386282Y-77057437D01*
X69416553Y-77068798D01*
X69445282Y-77081033D01*
X69472469Y-77094142D01*
X69485484Y-77101024D01*
X69510388Y-77115673D01*
X69533684Y-77131654D01*
X69555374Y-77148967D01*
X69575457Y-77167611D01*
X69593934Y-77187587D01*
X69610804Y-77208896D01*
X69626067Y-77231536D01*
X69639724Y-77255508D01*
X69651774Y-77280812D01*
X69662217Y-77307448D01*
X69671054Y-77335415D01*
X69678284Y-77364715D01*
X69683907Y-77395346D01*
X69687924Y-77427310D01*
X69690334Y-77460605D01*
X69691137Y-77495232D01*
X69690822Y-77516394D01*
X69689878Y-77537135D01*
X69688303Y-77557457D01*
X69686099Y-77577359D01*
X69683266Y-77596841D01*
X69677835Y-77625277D01*
X69670987Y-77652769D01*
X69662722Y-77679316D01*
X69653041Y-77704919D01*
X69641943Y-77729577D01*
X69629427Y-77753290D01*
X69615496Y-77776059D01*
X69610537Y-77783439D01*
X69594911Y-77804614D01*
X69578074Y-77824174D01*
X69560026Y-77842120D01*
X69540767Y-77858452D01*
X69520298Y-77873169D01*
X69498618Y-77886273D01*
X69475728Y-77897762D01*
X69451626Y-77907636D01*
X69426314Y-77915897D01*
X69399792Y-77922543D01*
X69381437Y-77926077D01*
X69381437Y-77940243D01*
X69406525Y-77945616D01*
X69430988Y-77951966D01*
X69454824Y-77959294D01*
X69478035Y-77967598D01*
X69500620Y-77976879D01*
X69522579Y-77987137D01*
X69543912Y-77998373D01*
X69564619Y-78010585D01*
X69584479Y-78023873D01*
X69603271Y-78038581D01*
X69620993Y-78054709D01*
X69637648Y-78072256D01*
X69653234Y-78091223D01*
X69667751Y-78111610D01*
X69681199Y-78133416D01*
X69690585Y-78150702D01*
X69693579Y-78156642D01*
X69702135Y-78175043D01*
X69709848Y-78194526D01*
X69716720Y-78215091D01*
X69722751Y-78236738D01*
X69727940Y-78259467D01*
X69732288Y-78283278D01*
X69735794Y-78308171D01*
X69738459Y-78334145D01*
X69740282Y-78361202D01*
X69741264Y-78389340D01*
X69741451Y-78408701D01*
X69740682Y-78442311D01*
X69738375Y-78474997D01*
X69734530Y-78506760D01*
X69729147Y-78537600D01*
X69722226Y-78567516D01*
X69713768Y-78596508D01*
X69703771Y-78624577D01*
X69692236Y-78651722D01*
X69679163Y-78677944D01*
X69664553Y-78703242D01*
X69648404Y-78727617D01*
X69630717Y-78751068D01*
X69611493Y-78773596D01*
X69590730Y-78795200D01*
X69568430Y-78815880D01*
X69544591Y-78835637D01*
X69519411Y-78854329D01*
X69493087Y-78871815D01*
X69465617Y-78888096D01*
X69437002Y-78903170D01*
X69407243Y-78917039D01*
X69376338Y-78929701D01*
X69344289Y-78941158D01*
X69311095Y-78951408D01*
X69276756Y-78960453D01*
X69241272Y-78968291D01*
X69204643Y-78974924D01*
X69166870Y-78980351D01*
X69127951Y-78984572D01*
X69108063Y-78986230D01*
X69087888Y-78987587D01*
X69067427Y-78988642D01*
X69046679Y-78989396D01*
X69025646Y-78989848D01*
X69004326Y-78989999D01*
X68253035Y-78989999D01*
X68253035Y-78114632D01*
X68678018Y-78114632D01*
X68678018Y-78652455D01*
X68956454Y-78652455D01*
X68979938Y-78652155D01*
X69002517Y-78651257D01*
X69024192Y-78649759D01*
X69044962Y-78647662D01*
X69064828Y-78644965D01*
X69092930Y-78639798D01*
X69118998Y-78633282D01*
X69143031Y-78625418D01*
X69165028Y-78616206D01*
X69184991Y-78605646D01*
X69202918Y-78593737D01*
X69218811Y-78580481D01*
X69223656Y-78575763D01*
X69237275Y-78560941D01*
X69249554Y-78545234D01*
X69260493Y-78528643D01*
X69270093Y-78511168D01*
X69278353Y-78492808D01*
X69285274Y-78473564D01*
X69290855Y-78453436D01*
X69295097Y-78432423D01*
X69297999Y-78410525D01*
X69299562Y-78387743D01*
X69299860Y-78372064D01*
X69299177Y-78350752D01*
X69297129Y-78330230D01*
X69293716Y-78310498D01*
X69287041Y-78285417D01*
X69277940Y-78261741D01*
X69266411Y-78239469D01*
X69252454Y-78218601D01*
X69236071Y-78199138D01*
X69222191Y-78185463D01*
X69206620Y-78172804D01*
X69188852Y-78161391D01*
X69168885Y-78151223D01*
X69146720Y-78142300D01*
X69122356Y-78134622D01*
X69095795Y-78128190D01*
X69067035Y-78123002D01*
X69046641Y-78120235D01*
X69025270Y-78118021D01*
X69002922Y-78116361D01*
X68979596Y-78115255D01*
X68955294Y-78114701D01*
X68942777Y-78114632D01*
X68678018Y-78114632D01*
X68253035Y-78114632D01*
X68253035Y-77326705D01*
X68678018Y-77326705D01*
X68678018Y-77777089D01*
X68925680Y-77777089D01*
X68948438Y-77776856D01*
X68970308Y-77776157D01*
X68991288Y-77774993D01*
X69011379Y-77773364D01*
X69039848Y-77770047D01*
X69066316Y-77765682D01*
X69090784Y-77760269D01*
X69113251Y-77753809D01*
X69133717Y-77746302D01*
X69152183Y-77737746D01*
X69173691Y-77724710D01*
X69183112Y-77717493D01*
X69199942Y-77701763D01*
X69214528Y-77684368D01*
X69226869Y-77665309D01*
X69236967Y-77644587D01*
X69244821Y-77622200D01*
X69250431Y-77598150D01*
X69253797Y-77572436D01*
X69254849Y-77552058D01*
X69254919Y-77545058D01*
X69254177Y-77523834D01*
X69251948Y-77503762D01*
X69246667Y-77478788D01*
X69238744Y-77455860D01*
X69228180Y-77434977D01*
X69214976Y-77416140D01*
X69199131Y-77399348D01*
X69180645Y-77384602D01*
X69170411Y-77377996D01*
X69147750Y-77365974D01*
X69128741Y-77358010D01*
X69108005Y-77350948D01*
X69085544Y-77344787D01*
X69061357Y-77339527D01*
X69035444Y-77335170D01*
X69007805Y-77331714D01*
X68978440Y-77329159D01*
X68957904Y-77327957D01*
X68936602Y-77327156D01*
X68914532Y-77326755D01*
X68903210Y-77326705D01*
X68678018Y-77326705D01*
X68253035Y-77326705D01*
X68253035Y-76989161D01*
X68877808Y-76989161D01*
X68902773Y-76989270D01*
G37*
G36*
X69881646Y-77458107D02*
G01*
X70340334Y-77458107D01*
X70630006Y-78328589D01*
X70636754Y-78348236D01*
X70642953Y-78368097D01*
X70648604Y-78388173D01*
X70653706Y-78408464D01*
X70658259Y-78428969D01*
X70662264Y-78449689D01*
X70663712Y-78458038D01*
X70667092Y-78478977D01*
X70670209Y-78500274D01*
X70673064Y-78521930D01*
X70675657Y-78543942D01*
X70677987Y-78566313D01*
X70680055Y-78589041D01*
X70680809Y-78598233D01*
X70689113Y-78598233D01*
X70691887Y-78575361D01*
X70695019Y-78552848D01*
X70698508Y-78530692D01*
X70702356Y-78508894D01*
X70706561Y-78487453D01*
X70711124Y-78466370D01*
X70713049Y-78458038D01*
X70718029Y-78437232D01*
X70723200Y-78416640D01*
X70728562Y-78396264D01*
X70734115Y-78376102D01*
X70739859Y-78356154D01*
X70745793Y-78336422D01*
X70748220Y-78328589D01*
X71032519Y-77458107D01*
X71482414Y-77458107D01*
X70832728Y-79197605D01*
X70821485Y-79227175D01*
X70809617Y-79255803D01*
X70797122Y-79283489D01*
X70784002Y-79310231D01*
X70770255Y-79336031D01*
X70755883Y-79360889D01*
X70740885Y-79384804D01*
X70725261Y-79407776D01*
X70709011Y-79429805D01*
X70692136Y-79450892D01*
X70674634Y-79471037D01*
X70656507Y-79490238D01*
X70637754Y-79508497D01*
X70618374Y-79525814D01*
X70598369Y-79542188D01*
X70577739Y-79557619D01*
X70556652Y-79572170D01*
X70535156Y-79585783D01*
X70513253Y-79598457D01*
X70490941Y-79610192D01*
X70468220Y-79620988D01*
X70445092Y-79630846D01*
X70421555Y-79639765D01*
X70397609Y-79647744D01*
X70373256Y-79654786D01*
X70348494Y-79660888D01*
X70323323Y-79666051D01*
X70297745Y-79670276D01*
X70271758Y-79673562D01*
X70245362Y-79675909D01*
X70218558Y-79677317D01*
X70191346Y-79677786D01*
X70169806Y-79677619D01*
X70149148Y-79677119D01*
X70129372Y-79676284D01*
X70106806Y-79674841D01*
X70085511Y-79672918D01*
X70068736Y-79670948D01*
X70046500Y-79667885D01*
X70025526Y-79664683D01*
X70005815Y-79661341D01*
X69984833Y-79657349D01*
X69977390Y-79655805D01*
X69977390Y-79324123D01*
X69997864Y-79327481D01*
X70018412Y-79330504D01*
X70038363Y-79333190D01*
X70051639Y-79334869D01*
X70073866Y-79337220D01*
X70093714Y-79338726D01*
X70113937Y-79339718D01*
X70134533Y-79340196D01*
X70143475Y-79340243D01*
X70167723Y-79339539D01*
X70191010Y-79337426D01*
X70213336Y-79333906D01*
X70234699Y-79328977D01*
X70255101Y-79322640D01*
X70274542Y-79314895D01*
X70293020Y-79305742D01*
X70310537Y-79295180D01*
X70327092Y-79283210D01*
X70342685Y-79269832D01*
X70352547Y-79260131D01*
X70366749Y-79244827D01*
X70380230Y-79228956D01*
X70392990Y-79212518D01*
X70405028Y-79195514D01*
X70416346Y-79177942D01*
X70426941Y-79159805D01*
X70436816Y-79141100D01*
X70445969Y-79121829D01*
X70454402Y-79101991D01*
X70462112Y-79081586D01*
X70466852Y-79067668D01*
X70492254Y-78991952D01*
X69881646Y-77458107D01*
G37*
G36*
X71634333Y-77661317D02*
G01*
X71634951Y-77637637D01*
X71636806Y-77615322D01*
X71639897Y-77594371D01*
X71644225Y-77574787D01*
X71651919Y-77550798D01*
X71661810Y-77529235D01*
X71673900Y-77510101D01*
X71688189Y-77493393D01*
X71704675Y-77479112D01*
X71722749Y-77466862D01*
X71741800Y-77456245D01*
X71761828Y-77447261D01*
X71782833Y-77439911D01*
X71804815Y-77434194D01*
X71827773Y-77430111D01*
X71851709Y-77427661D01*
X71876622Y-77426844D01*
X71900733Y-77427661D01*
X71923975Y-77430111D01*
X71946346Y-77434194D01*
X71967847Y-77439911D01*
X71988478Y-77447261D01*
X72008238Y-77456245D01*
X72027129Y-77466862D01*
X72045150Y-77479112D01*
X72061636Y-77493393D01*
X72075924Y-77510101D01*
X72088014Y-77529235D01*
X72097906Y-77550798D01*
X72105600Y-77574787D01*
X72109927Y-77594371D01*
X72113019Y-77615322D01*
X72114873Y-77637637D01*
X72115491Y-77661317D01*
X72114873Y-77683976D01*
X72113019Y-77705424D01*
X72109927Y-77725662D01*
X72103882Y-77750761D01*
X72095639Y-77773709D01*
X72085198Y-77794504D01*
X72072558Y-77813146D01*
X72057720Y-77829637D01*
X72045150Y-77840592D01*
X72027129Y-77853529D01*
X72008238Y-77864741D01*
X71988478Y-77874228D01*
X71967847Y-77881991D01*
X71946346Y-77888028D01*
X71923975Y-77892341D01*
X71900733Y-77894928D01*
X71876622Y-77895791D01*
X71851709Y-77894928D01*
X71827773Y-77892341D01*
X71804815Y-77888028D01*
X71782833Y-77881991D01*
X71761828Y-77874228D01*
X71741800Y-77864741D01*
X71722749Y-77853529D01*
X71704675Y-77840592D01*
X71688189Y-77825716D01*
X71673900Y-77808687D01*
X71661810Y-77789507D01*
X71651919Y-77768174D01*
X71644225Y-77744688D01*
X71638729Y-77719050D01*
X71636050Y-77698409D01*
X71634608Y-77676558D01*
X71634333Y-77661317D01*
G37*
G36*
X71634333Y-78786788D02*
G01*
X71634951Y-78763108D01*
X71636806Y-78740793D01*
X71639897Y-78719843D01*
X71644225Y-78700258D01*
X71651919Y-78676269D01*
X71661810Y-78654706D01*
X71673900Y-78635572D01*
X71688189Y-78618864D01*
X71704675Y-78604583D01*
X71722749Y-78592333D01*
X71741800Y-78581716D01*
X71761828Y-78572732D01*
X71782833Y-78565382D01*
X71804815Y-78559666D01*
X71827773Y-78555582D01*
X71851709Y-78553132D01*
X71876622Y-78552315D01*
X71900733Y-78553132D01*
X71923975Y-78555582D01*
X71946346Y-78559666D01*
X71967847Y-78565382D01*
X71988478Y-78572732D01*
X72008238Y-78581716D01*
X72027129Y-78592333D01*
X72045150Y-78604583D01*
X72061636Y-78618864D01*
X72075924Y-78635572D01*
X72088014Y-78654706D01*
X72097906Y-78676269D01*
X72105600Y-78700258D01*
X72109927Y-78719843D01*
X72113019Y-78740793D01*
X72114873Y-78763108D01*
X72115491Y-78786788D01*
X72114873Y-78809447D01*
X72113019Y-78830895D01*
X72109927Y-78851133D01*
X72103882Y-78876232D01*
X72095639Y-78899180D01*
X72085198Y-78919975D01*
X72072558Y-78938617D01*
X72057720Y-78955108D01*
X72045150Y-78966063D01*
X72027129Y-78979000D01*
X72008238Y-78990212D01*
X71988478Y-78999700D01*
X71967847Y-79007462D01*
X71946346Y-79013499D01*
X71923975Y-79017812D01*
X71900733Y-79020399D01*
X71876622Y-79021262D01*
X71851709Y-79020399D01*
X71827773Y-79017812D01*
X71804815Y-79013499D01*
X71782833Y-79007462D01*
X71761828Y-78999700D01*
X71741800Y-78990212D01*
X71722749Y-78979000D01*
X71704675Y-78966063D01*
X71688189Y-78951187D01*
X71673900Y-78934158D01*
X71661810Y-78914978D01*
X71651919Y-78893645D01*
X71644225Y-78870159D01*
X71638729Y-78844521D01*
X71636050Y-78823880D01*
X71634608Y-78802029D01*
X71634333Y-78786788D01*
G37*
G36*
X74866643Y-78989999D02*
G01*
X74382554Y-78989999D01*
X73856454Y-78156642D01*
X73676203Y-78283648D01*
X73676203Y-78989999D01*
X73251221Y-78989999D01*
X73251221Y-76989161D01*
X73676203Y-76989161D01*
X73676203Y-77918749D01*
X73689472Y-77900126D01*
X73702717Y-77881502D01*
X73715938Y-77862879D01*
X73729135Y-77844255D01*
X73742309Y-77825632D01*
X73755458Y-77807008D01*
X73760711Y-77799559D01*
X73773851Y-77780795D01*
X73787015Y-77762054D01*
X73800203Y-77743338D01*
X73813414Y-77724645D01*
X73826650Y-77705976D01*
X73839909Y-77687331D01*
X73845219Y-77679880D01*
X74387927Y-76989161D01*
X74860781Y-76989161D01*
X74160293Y-77888463D01*
X74866643Y-78989999D01*
G37*
G36*
X75744436Y-77427365D02*
G01*
X75781393Y-77428928D01*
X75817221Y-77431533D01*
X75851919Y-77435179D01*
X75885487Y-77439867D01*
X75917925Y-77445598D01*
X75949234Y-77452370D01*
X75979413Y-77460183D01*
X76008463Y-77469039D01*
X76036383Y-77478937D01*
X76063173Y-77489876D01*
X76088834Y-77501857D01*
X76113365Y-77514880D01*
X76136767Y-77528945D01*
X76159039Y-77544052D01*
X76180181Y-77560201D01*
X76200115Y-77577424D01*
X76218764Y-77595753D01*
X76236126Y-77615190D01*
X76252202Y-77635733D01*
X76266992Y-77657383D01*
X76280496Y-77680139D01*
X76292714Y-77704003D01*
X76303646Y-77728973D01*
X76313291Y-77755049D01*
X76321651Y-77782233D01*
X76328724Y-77810523D01*
X76334512Y-77839920D01*
X76339013Y-77870424D01*
X76342228Y-77902034D01*
X76344158Y-77934751D01*
X76344801Y-77968575D01*
X76344801Y-78989999D01*
X76052198Y-78989999D01*
X75970621Y-78781904D01*
X75959385Y-78781904D01*
X75947007Y-78797329D01*
X75928275Y-78819465D01*
X75909346Y-78840400D01*
X75890219Y-78860132D01*
X75870895Y-78878662D01*
X75851373Y-78895990D01*
X75831654Y-78912116D01*
X75811737Y-78927039D01*
X75791623Y-78940761D01*
X75771311Y-78953280D01*
X75750802Y-78964597D01*
X75729564Y-78974724D01*
X75706884Y-78983854D01*
X75682761Y-78991989D01*
X75657196Y-78999127D01*
X75630188Y-79005269D01*
X75601738Y-79010416D01*
X75581969Y-79013293D01*
X75561560Y-79015728D01*
X75540509Y-79017720D01*
X75518817Y-79019269D01*
X75496484Y-79020376D01*
X75473510Y-79021040D01*
X75449895Y-79021262D01*
X75424522Y-79020792D01*
X75399695Y-79019384D01*
X75375414Y-79017037D01*
X75351679Y-79013751D01*
X75328489Y-79009526D01*
X75305845Y-79004363D01*
X75283747Y-78998261D01*
X75262194Y-78991220D01*
X75241187Y-78983240D01*
X75220726Y-78974321D01*
X75200811Y-78964464D01*
X75181441Y-78953667D01*
X75162618Y-78941932D01*
X75144339Y-78929258D01*
X75126607Y-78915646D01*
X75109420Y-78901094D01*
X75093094Y-78885571D01*
X75077821Y-78869045D01*
X75063602Y-78851515D01*
X75050436Y-78832981D01*
X75038323Y-78813443D01*
X75027263Y-78792902D01*
X75017257Y-78771357D01*
X75008304Y-78748809D01*
X75000404Y-78725256D01*
X74993558Y-78700700D01*
X74987764Y-78675141D01*
X74983025Y-78648578D01*
X74979338Y-78621011D01*
X74976705Y-78592440D01*
X74975125Y-78562865D01*
X74974699Y-78538149D01*
X75404954Y-78538149D01*
X75405832Y-78560291D01*
X75408465Y-78580800D01*
X75414225Y-78604139D01*
X75422729Y-78624926D01*
X75433975Y-78643161D01*
X75447964Y-78658843D01*
X75461130Y-78669552D01*
X75479649Y-78680810D01*
X75499789Y-78690160D01*
X75521551Y-78697602D01*
X75544936Y-78703135D01*
X75564811Y-78706188D01*
X75585724Y-78708020D01*
X75607676Y-78708631D01*
X75632586Y-78707970D01*
X75656757Y-78705986D01*
X75680190Y-78702680D01*
X75702885Y-78698052D01*
X75724841Y-78692101D01*
X75746058Y-78684829D01*
X75766538Y-78676233D01*
X75786278Y-78666316D01*
X75805281Y-78655076D01*
X75823544Y-78642513D01*
X75835310Y-78633404D01*
X75851984Y-78618754D01*
X75867018Y-78603013D01*
X75880411Y-78586182D01*
X75892165Y-78568260D01*
X75902279Y-78549247D01*
X75910752Y-78529145D01*
X75917586Y-78507951D01*
X75922780Y-78485668D01*
X75926333Y-78462293D01*
X75928246Y-78437828D01*
X75928611Y-78420913D01*
X75928611Y-78302211D01*
X75764968Y-78302211D01*
X75740170Y-78302464D01*
X75716333Y-78303226D01*
X75693458Y-78304495D01*
X75671545Y-78306271D01*
X75650594Y-78308555D01*
X75630604Y-78311347D01*
X75602423Y-78316486D01*
X75576405Y-78322767D01*
X75552551Y-78330190D01*
X75530861Y-78338755D01*
X75511335Y-78348463D01*
X75493973Y-78359312D01*
X75483600Y-78367179D01*
X75465168Y-78384063D01*
X75449193Y-78402228D01*
X75435675Y-78421676D01*
X75424616Y-78442406D01*
X75416014Y-78464418D01*
X75409870Y-78487713D01*
X75406183Y-78512290D01*
X75404954Y-78538149D01*
X74974699Y-78538149D01*
X74974598Y-78532287D01*
X74975268Y-78502076D01*
X74977277Y-78472868D01*
X74980626Y-78444663D01*
X74985314Y-78417463D01*
X74991342Y-78391266D01*
X74998710Y-78366073D01*
X75007416Y-78341883D01*
X75017463Y-78318697D01*
X75028849Y-78296515D01*
X75041574Y-78275336D01*
X75055639Y-78255161D01*
X75071044Y-78235990D01*
X75087788Y-78217823D01*
X75105871Y-78200659D01*
X75125294Y-78184499D01*
X75146057Y-78169343D01*
X75168218Y-78155146D01*
X75191715Y-78141865D01*
X75216547Y-78129500D01*
X75242716Y-78118052D01*
X75270220Y-78107519D01*
X75299060Y-78097902D01*
X75329235Y-78089200D01*
X75360746Y-78081415D01*
X75393593Y-78074546D01*
X75427776Y-78068592D01*
X75463294Y-78063555D01*
X75500148Y-78059433D01*
X75538337Y-78056228D01*
X75557933Y-78054968D01*
X75577863Y-78053938D01*
X75598126Y-78053136D01*
X75618724Y-78052564D01*
X75639655Y-78052220D01*
X75660921Y-78052106D01*
X75928611Y-78052106D01*
X75928611Y-77981764D01*
X75928053Y-77958818D01*
X75926378Y-77937056D01*
X75923588Y-77916480D01*
X75919681Y-77897088D01*
X75912735Y-77873076D01*
X75903805Y-77851170D01*
X75892890Y-77831371D01*
X75879991Y-77813679D01*
X75865108Y-77798093D01*
X75848469Y-77784355D01*
X75830303Y-77772448D01*
X75810611Y-77762373D01*
X75789392Y-77754130D01*
X75766647Y-77747718D01*
X75742376Y-77743139D01*
X75716577Y-77740391D01*
X75696227Y-77739532D01*
X75689253Y-77739475D01*
X75668234Y-77739767D01*
X75647310Y-77740643D01*
X75626480Y-77742103D01*
X75605745Y-77744146D01*
X75585104Y-77746774D01*
X75564557Y-77749985D01*
X75544105Y-77753781D01*
X75523748Y-77758160D01*
X75503485Y-77763123D01*
X75483316Y-77768670D01*
X75469923Y-77772692D01*
X75449864Y-77778966D01*
X75429806Y-77785515D01*
X75409747Y-77792338D01*
X75389689Y-77799437D01*
X75369631Y-77806810D01*
X75349572Y-77814458D01*
X75329514Y-77822380D01*
X75309455Y-77830578D01*
X75289397Y-77839050D01*
X75269338Y-77847797D01*
X75255966Y-77853781D01*
X75118213Y-77568017D01*
X75141622Y-77555818D01*
X75165503Y-77544134D01*
X75189856Y-77532966D01*
X75214681Y-77522313D01*
X75239979Y-77512175D01*
X75265749Y-77502552D01*
X75291991Y-77493444D01*
X75318706Y-77484852D01*
X75345893Y-77476775D01*
X75373552Y-77469213D01*
X75392254Y-77464458D01*
X75420579Y-77457736D01*
X75449137Y-77451675D01*
X75477927Y-77446275D01*
X75497249Y-77443043D01*
X75516674Y-77440104D01*
X75536202Y-77437460D01*
X75555833Y-77435109D01*
X75575567Y-77433052D01*
X75595404Y-77431289D01*
X75615344Y-77429820D01*
X75635387Y-77428644D01*
X75655533Y-77427763D01*
X75675783Y-77427175D01*
X75696135Y-77426881D01*
X75706350Y-77426844D01*
X75744436Y-77427365D01*
G37*
G36*
X77418699Y-77427023D02*
G01*
X77457415Y-77428450D01*
X77495097Y-77431305D01*
X77531745Y-77435586D01*
X77567359Y-77441296D01*
X77601938Y-77448432D01*
X77635483Y-77456996D01*
X77667994Y-77466987D01*
X77699471Y-77478405D01*
X77729914Y-77491251D01*
X77759322Y-77505524D01*
X77787696Y-77521224D01*
X77815036Y-77538352D01*
X77841342Y-77556906D01*
X77866613Y-77576889D01*
X77890851Y-77598298D01*
X77902581Y-77609538D01*
X77925059Y-77632978D01*
X77946087Y-77657623D01*
X77965665Y-77683475D01*
X77983792Y-77710532D01*
X78000469Y-77738796D01*
X78015696Y-77768265D01*
X78029473Y-77798941D01*
X78041800Y-77830822D01*
X78052676Y-77863909D01*
X78062103Y-77898202D01*
X78070079Y-77933702D01*
X78076605Y-77970407D01*
X78081680Y-78008318D01*
X78085306Y-78047435D01*
X78086575Y-78067446D01*
X78087481Y-78087758D01*
X78088025Y-78108372D01*
X78088206Y-78129287D01*
X78088206Y-78333474D01*
X77098046Y-78333474D01*
X77099085Y-78355042D01*
X77100862Y-78376025D01*
X77103375Y-78396425D01*
X77106625Y-78416242D01*
X77110611Y-78435474D01*
X77117971Y-78463227D01*
X77126988Y-78489667D01*
X77137663Y-78514793D01*
X77149995Y-78538605D01*
X77163984Y-78561104D01*
X77179630Y-78582288D01*
X77196934Y-78602159D01*
X77203070Y-78608491D01*
X77222524Y-78626387D01*
X77243336Y-78642523D01*
X77265504Y-78656898D01*
X77289028Y-78669514D01*
X77313909Y-78680369D01*
X77340147Y-78689463D01*
X77367742Y-78696798D01*
X77386892Y-78700710D01*
X77406645Y-78703839D01*
X77427002Y-78706186D01*
X77447961Y-78707751D01*
X77469523Y-78708533D01*
X77480530Y-78708631D01*
X77508303Y-78708377D01*
X77535570Y-78707618D01*
X77562331Y-78706351D01*
X77588584Y-78704578D01*
X77614332Y-78702298D01*
X77639572Y-78699512D01*
X77664306Y-78696219D01*
X77688533Y-78692419D01*
X77712254Y-78688113D01*
X77735468Y-78683300D01*
X77750662Y-78679810D01*
X77773450Y-78674040D01*
X77796384Y-78667720D01*
X77819463Y-78660851D01*
X77842689Y-78653432D01*
X77866060Y-78645463D01*
X77889577Y-78636945D01*
X77913241Y-78627878D01*
X77937050Y-78618261D01*
X77961006Y-78608094D01*
X77985107Y-78597378D01*
X78001256Y-78589929D01*
X78001256Y-78911841D01*
X77980074Y-78922112D01*
X77958660Y-78931859D01*
X77937014Y-78941083D01*
X77915137Y-78949782D01*
X77893028Y-78957958D01*
X77870687Y-78965610D01*
X77848114Y-78972739D01*
X77825309Y-78979343D01*
X77802273Y-78985424D01*
X77779004Y-78990981D01*
X77763363Y-78994395D01*
X77739456Y-78999196D01*
X77714631Y-79003525D01*
X77688887Y-79007382D01*
X77662224Y-79010767D01*
X77634642Y-79013679D01*
X77606141Y-79016119D01*
X77586630Y-79017483D01*
X77566711Y-79018638D01*
X77546384Y-79019582D01*
X77525648Y-79020317D01*
X77504504Y-79020842D01*
X77482951Y-79021157D01*
X77460990Y-79021262D01*
X77432378Y-79020926D01*
X77404181Y-79019918D01*
X77376400Y-79018239D01*
X77349036Y-79015888D01*
X77322087Y-79012866D01*
X77295554Y-79009172D01*
X77269437Y-79004806D01*
X77243736Y-78999768D01*
X77218452Y-78994059D01*
X77193583Y-78987678D01*
X77169130Y-78980626D01*
X77145093Y-78972902D01*
X77121472Y-78964506D01*
X77098267Y-78955438D01*
X77075478Y-78945699D01*
X77053105Y-78935288D01*
X77031236Y-78924196D01*
X77009958Y-78912413D01*
X76989272Y-78899940D01*
X76969177Y-78886775D01*
X76949674Y-78872920D01*
X76930762Y-78858375D01*
X76912442Y-78843138D01*
X76894713Y-78827211D01*
X76877576Y-78810593D01*
X76861031Y-78793284D01*
X76845077Y-78775284D01*
X76829714Y-78756594D01*
X76814943Y-78737213D01*
X76800764Y-78717141D01*
X76787176Y-78696379D01*
X76774180Y-78674925D01*
X76761935Y-78652714D01*
X76750480Y-78629801D01*
X76739816Y-78606186D01*
X76729941Y-78581869D01*
X76720856Y-78556849D01*
X76712562Y-78531127D01*
X76705057Y-78504703D01*
X76698342Y-78477577D01*
X76692417Y-78449749D01*
X76687283Y-78421218D01*
X76682938Y-78391985D01*
X76679383Y-78362050D01*
X76676618Y-78331413D01*
X76674643Y-78300074D01*
X76673458Y-78268032D01*
X76673063Y-78235288D01*
X76673420Y-78201819D01*
X76674490Y-78169068D01*
X76676274Y-78137034D01*
X76678772Y-78105717D01*
X76681984Y-78075118D01*
X76685007Y-78052106D01*
X77106350Y-78052106D01*
X77694487Y-78052106D01*
X77693345Y-78027060D01*
X77691018Y-78002847D01*
X77687506Y-77979467D01*
X77682809Y-77956920D01*
X77676927Y-77935206D01*
X77669860Y-77914324D01*
X77661608Y-77894276D01*
X77652172Y-77875060D01*
X77641550Y-77856678D01*
X77629743Y-77839128D01*
X77621214Y-77827891D01*
X77607333Y-77812090D01*
X77592071Y-77797843D01*
X77575425Y-77785151D01*
X77557398Y-77774013D01*
X77537988Y-77764428D01*
X77517195Y-77756398D01*
X77495020Y-77749923D01*
X77471462Y-77745001D01*
X77446522Y-77741634D01*
X77420200Y-77739820D01*
X77401884Y-77739475D01*
X77379530Y-77740145D01*
X77357897Y-77742154D01*
X77336986Y-77745503D01*
X77316796Y-77750191D01*
X77297327Y-77756219D01*
X77278579Y-77763586D01*
X77260553Y-77772293D01*
X77243248Y-77782340D01*
X77226664Y-77793726D01*
X77210802Y-77806451D01*
X77200628Y-77815679D01*
X77186186Y-77830706D01*
X77172904Y-77847209D01*
X77160781Y-77865190D01*
X77149817Y-77884647D01*
X77140013Y-77905581D01*
X77131368Y-77927992D01*
X77123881Y-77951881D01*
X77117554Y-77977246D01*
X77112387Y-78004087D01*
X77108378Y-78032406D01*
X77106350Y-78052106D01*
X76685007Y-78052106D01*
X76685909Y-78045237D01*
X76690547Y-78016073D01*
X76695900Y-77987626D01*
X76701966Y-77959897D01*
X76708745Y-77932885D01*
X76716239Y-77906591D01*
X76724446Y-77881014D01*
X76733366Y-77856155D01*
X76743000Y-77832013D01*
X76753348Y-77808588D01*
X76764410Y-77785881D01*
X76776168Y-77763880D01*
X76788483Y-77742574D01*
X76801355Y-77721962D01*
X76814785Y-77702045D01*
X76828772Y-77682822D01*
X76843316Y-77664294D01*
X76858417Y-77646461D01*
X76874075Y-77629322D01*
X76890290Y-77612877D01*
X76907063Y-77597127D01*
X76924393Y-77582072D01*
X76942280Y-77567711D01*
X76960724Y-77554045D01*
X76979725Y-77541074D01*
X76999284Y-77528797D01*
X77019399Y-77517214D01*
X77040002Y-77506271D01*
X77061020Y-77496034D01*
X77082454Y-77486503D01*
X77104304Y-77477677D01*
X77126570Y-77469558D01*
X77149253Y-77462145D01*
X77172351Y-77455438D01*
X77195865Y-77449437D01*
X77219795Y-77444142D01*
X77244141Y-77439553D01*
X77268903Y-77435669D01*
X77294081Y-77432492D01*
X77319675Y-77430021D01*
X77345685Y-77428256D01*
X77372111Y-77427197D01*
X77398953Y-77426844D01*
X77418699Y-77427023D01*
G37*
G36*
X78840474Y-78989999D02*
G01*
X78420865Y-78989999D01*
X78420865Y-76864109D01*
X78840474Y-76864109D01*
X78840474Y-78989999D01*
G37*
G36*
X81219888Y-78430682D02*
G01*
X81219134Y-78463962D01*
X81216873Y-78496391D01*
X81213104Y-78527969D01*
X81207828Y-78558696D01*
X81201045Y-78588572D01*
X81192754Y-78617597D01*
X81182956Y-78645771D01*
X81171650Y-78673093D01*
X81158837Y-78699565D01*
X81144516Y-78725186D01*
X81128688Y-78749955D01*
X81111352Y-78773874D01*
X81092509Y-78796942D01*
X81072159Y-78819158D01*
X81050301Y-78840524D01*
X81026936Y-78861038D01*
X81002245Y-78880440D01*
X80976286Y-78898591D01*
X80949061Y-78915489D01*
X80920568Y-78931136D01*
X80890809Y-78945531D01*
X80859782Y-78958674D01*
X80827489Y-78970566D01*
X80793928Y-78981206D01*
X80759101Y-78990594D01*
X80723006Y-78998730D01*
X80685645Y-79005615D01*
X80647016Y-79011248D01*
X80627227Y-79013595D01*
X80607121Y-79015629D01*
X80586698Y-79017350D01*
X80565958Y-79018758D01*
X80544902Y-79019853D01*
X80523529Y-79020636D01*
X80501839Y-79021105D01*
X80479832Y-79021262D01*
X80460053Y-79021149D01*
X80440404Y-79020813D01*
X80401499Y-79019468D01*
X80363116Y-79017226D01*
X80325257Y-79014087D01*
X80287920Y-79010051D01*
X80251106Y-79005119D01*
X80214815Y-78999289D01*
X80179047Y-78992563D01*
X80143802Y-78984940D01*
X80109079Y-78976420D01*
X80074879Y-78967003D01*
X80041202Y-78956690D01*
X80008048Y-78945480D01*
X79975417Y-78933372D01*
X79943309Y-78920368D01*
X79911723Y-78906467D01*
X79911723Y-78515190D01*
X79929713Y-78523027D01*
X79947780Y-78530784D01*
X79965922Y-78538460D01*
X79984141Y-78546057D01*
X80002436Y-78553573D01*
X80020808Y-78561009D01*
X80039256Y-78568365D01*
X80057780Y-78575641D01*
X80076381Y-78582836D01*
X80095058Y-78589952D01*
X80113811Y-78596987D01*
X80132641Y-78603942D01*
X80151547Y-78610817D01*
X80170529Y-78617612D01*
X80189588Y-78624327D01*
X80208722Y-78630962D01*
X80227890Y-78637350D01*
X80247046Y-78643326D01*
X80266190Y-78648890D01*
X80285323Y-78654042D01*
X80304445Y-78658782D01*
X80323555Y-78663110D01*
X80352198Y-78668829D01*
X80380816Y-78673620D01*
X80409409Y-78677484D01*
X80437975Y-78680421D01*
X80466516Y-78682430D01*
X80495030Y-78683512D01*
X80514026Y-78683718D01*
X80542715Y-78683186D01*
X80569799Y-78681588D01*
X80595277Y-78678927D01*
X80619150Y-78675200D01*
X80641416Y-78670409D01*
X80662077Y-78664553D01*
X80681132Y-78657632D01*
X80704042Y-78646748D01*
X80724096Y-78633971D01*
X80737264Y-78623146D01*
X80752834Y-78607369D01*
X80766329Y-78590570D01*
X80777747Y-78572748D01*
X80787090Y-78553903D01*
X80794356Y-78534035D01*
X80799546Y-78513145D01*
X80802660Y-78491232D01*
X80803698Y-78468296D01*
X80802422Y-78444890D01*
X80798594Y-78422605D01*
X80792213Y-78401441D01*
X80783281Y-78381399D01*
X80771796Y-78362477D01*
X80757759Y-78344676D01*
X80751430Y-78337870D01*
X80734378Y-78321257D01*
X80719483Y-78308225D01*
X80703474Y-78295421D01*
X80686350Y-78282846D01*
X80668112Y-78270501D01*
X80648760Y-78258384D01*
X80628293Y-78246496D01*
X80612212Y-78237731D01*
X80590070Y-78225892D01*
X80567118Y-78213825D01*
X80549374Y-78204625D01*
X80531175Y-78195295D01*
X80512520Y-78185837D01*
X80493410Y-78176250D01*
X80473846Y-78166534D01*
X80453826Y-78156690D01*
X80433351Y-78146716D01*
X80412421Y-78136614D01*
X80394660Y-78127982D01*
X80376548Y-78118937D01*
X80358085Y-78109480D01*
X80339270Y-78099611D01*
X80320105Y-78089330D01*
X80300588Y-78078637D01*
X80280721Y-78067531D01*
X80260502Y-78056014D01*
X80240215Y-78043939D01*
X80220141Y-78031162D01*
X80200281Y-78017683D01*
X80180635Y-78003502D01*
X80161202Y-77988618D01*
X80141983Y-77973032D01*
X80122978Y-77956744D01*
X80104187Y-77939754D01*
X80086036Y-77921947D01*
X80068710Y-77903209D01*
X80052209Y-77883540D01*
X80036531Y-77862940D01*
X80025314Y-77846879D01*
X80014561Y-77830293D01*
X80004271Y-77813184D01*
X79994445Y-77795552D01*
X79985083Y-77777395D01*
X79982065Y-77771227D01*
X79973510Y-77752286D01*
X79965796Y-77732650D01*
X79958924Y-77712318D01*
X79952893Y-77691291D01*
X79947704Y-77669568D01*
X79943356Y-77647149D01*
X79939850Y-77624036D01*
X79937185Y-77600226D01*
X79935362Y-77575721D01*
X79934380Y-77550521D01*
X79934193Y-77533334D01*
X79934907Y-77499795D01*
X79937048Y-77467198D01*
X79940616Y-77435544D01*
X79945612Y-77404832D01*
X79952035Y-77375063D01*
X79959885Y-77346237D01*
X79969162Y-77318353D01*
X79979867Y-77291412D01*
X79991999Y-77265413D01*
X80005558Y-77240357D01*
X80020545Y-77216244D01*
X80036959Y-77193073D01*
X80054800Y-77170845D01*
X80074068Y-77149560D01*
X80094764Y-77129217D01*
X80116887Y-77109817D01*
X80140300Y-77091421D01*
X80164743Y-77074211D01*
X80190217Y-77058188D01*
X80216721Y-77043352D01*
X80244256Y-77029704D01*
X80272821Y-77017241D01*
X80302416Y-77005966D01*
X80333042Y-76995878D01*
X80364698Y-76986976D01*
X80397385Y-76979262D01*
X80431102Y-76972734D01*
X80465849Y-76967393D01*
X80501627Y-76963239D01*
X80538435Y-76960272D01*
X80576274Y-76958491D01*
X80615143Y-76957898D01*
X80634802Y-76958037D01*
X80664056Y-76958769D01*
X80693025Y-76960127D01*
X80721712Y-76962112D01*
X80750115Y-76964723D01*
X80778235Y-76967962D01*
X80806072Y-76971827D01*
X80833625Y-76976320D01*
X80860895Y-76981439D01*
X80887881Y-76987185D01*
X80914584Y-76993557D01*
X80941349Y-77000506D01*
X80968337Y-77007977D01*
X80995548Y-77015973D01*
X81022982Y-77024492D01*
X81050640Y-77033536D01*
X81069202Y-77039855D01*
X81087864Y-77046408D01*
X81106625Y-77053193D01*
X81125485Y-77060211D01*
X81144444Y-77067462D01*
X81163503Y-77074946D01*
X81182661Y-77082663D01*
X81201918Y-77090612D01*
X81211584Y-77094674D01*
X81073831Y-77423425D01*
X81048247Y-77412221D01*
X81023152Y-77401506D01*
X80998547Y-77391281D01*
X80974431Y-77381545D01*
X80950805Y-77372298D01*
X80927668Y-77363541D01*
X80905021Y-77355274D01*
X80882863Y-77347496D01*
X80861195Y-77340207D01*
X80840016Y-77333408D01*
X80826168Y-77329147D01*
X80805513Y-77323124D01*
X80784763Y-77317693D01*
X80763919Y-77312854D01*
X80742981Y-77308608D01*
X80721948Y-77304954D01*
X80700820Y-77301893D01*
X80679598Y-77299424D01*
X80658282Y-77297548D01*
X80636871Y-77296265D01*
X80615366Y-77295573D01*
X80600976Y-77295442D01*
X80578760Y-77295940D01*
X80557539Y-77297434D01*
X80537315Y-77299924D01*
X80518087Y-77303410D01*
X80493998Y-77309608D01*
X80471680Y-77317576D01*
X80451133Y-77327315D01*
X80432357Y-77338825D01*
X80415352Y-77352106D01*
X80400239Y-77366806D01*
X80387142Y-77382575D01*
X80376059Y-77399413D01*
X80366992Y-77417319D01*
X80359939Y-77436293D01*
X80354902Y-77456337D01*
X80351879Y-77477448D01*
X80350872Y-77499629D01*
X80351709Y-77519471D01*
X80355430Y-77544685D01*
X80362127Y-77568480D01*
X80371802Y-77590855D01*
X80384453Y-77611810D01*
X80400081Y-77631346D01*
X80418685Y-77649462D01*
X80434592Y-77662117D01*
X80446127Y-77670110D01*
X80464894Y-77682083D01*
X80485293Y-77694554D01*
X80507324Y-77707522D01*
X80530986Y-77720989D01*
X80556279Y-77734954D01*
X80574048Y-77744540D01*
X80592542Y-77754348D01*
X80611760Y-77764377D01*
X80631704Y-77774628D01*
X80652373Y-77785100D01*
X80673768Y-77795793D01*
X80695887Y-77806708D01*
X80718731Y-77817844D01*
X80730425Y-77823495D01*
X80749598Y-77832738D01*
X80768405Y-77842027D01*
X80786845Y-77851361D01*
X80804919Y-77860742D01*
X80822627Y-77870168D01*
X80839968Y-77879640D01*
X80865293Y-77893934D01*
X80889794Y-77908331D01*
X80913470Y-77922831D01*
X80936322Y-77937434D01*
X80958350Y-77952140D01*
X80979553Y-77966949D01*
X80993230Y-77976879D01*
X81013130Y-77991970D01*
X81032162Y-78007568D01*
X81050327Y-78023672D01*
X81067625Y-78040283D01*
X81084056Y-78057401D01*
X81099619Y-78075025D01*
X81114315Y-78093155D01*
X81128144Y-78111793D01*
X81141106Y-78130937D01*
X81153200Y-78150587D01*
X81160781Y-78163969D01*
X81171344Y-78184657D01*
X81180868Y-78206238D01*
X81189353Y-78228713D01*
X81196799Y-78252080D01*
X81203206Y-78276340D01*
X81208574Y-78301493D01*
X81212904Y-78327539D01*
X81216194Y-78354479D01*
X81218445Y-78382311D01*
X81219657Y-78411036D01*
X81219888Y-78430682D01*
G37*
G36*
X81484159Y-78786788D02*
G01*
X81484777Y-78763108D01*
X81486632Y-78740793D01*
X81489723Y-78719843D01*
X81494050Y-78700258D01*
X81501744Y-78676269D01*
X81511636Y-78654706D01*
X81523726Y-78635572D01*
X81538014Y-78618864D01*
X81554501Y-78604583D01*
X81572575Y-78592333D01*
X81591625Y-78581716D01*
X81611653Y-78572732D01*
X81632658Y-78565382D01*
X81654640Y-78559666D01*
X81677599Y-78555582D01*
X81701535Y-78553132D01*
X81726448Y-78552315D01*
X81750559Y-78553132D01*
X81773800Y-78555582D01*
X81796171Y-78559666D01*
X81817672Y-78565382D01*
X81838303Y-78572732D01*
X81858064Y-78581716D01*
X81876955Y-78592333D01*
X81894975Y-78604583D01*
X81911461Y-78618864D01*
X81925750Y-78635572D01*
X81937840Y-78654706D01*
X81947732Y-78676269D01*
X81955425Y-78700258D01*
X81959753Y-78719843D01*
X81962844Y-78740793D01*
X81964699Y-78763108D01*
X81965317Y-78786788D01*
X81964699Y-78809447D01*
X81962844Y-78830895D01*
X81959753Y-78851133D01*
X81953708Y-78876232D01*
X81945465Y-78899180D01*
X81935023Y-78919975D01*
X81922384Y-78938617D01*
X81907546Y-78955108D01*
X81894975Y-78966063D01*
X81876955Y-78979000D01*
X81858064Y-78990212D01*
X81838303Y-78999700D01*
X81817672Y-79007462D01*
X81796171Y-79013499D01*
X81773800Y-79017812D01*
X81750559Y-79020399D01*
X81726448Y-79021262D01*
X81701535Y-79020399D01*
X81677599Y-79017812D01*
X81654640Y-79013499D01*
X81632658Y-79007462D01*
X81611653Y-78999700D01*
X81591625Y-78990212D01*
X81572575Y-78979000D01*
X81554501Y-78966063D01*
X81538014Y-78951187D01*
X81523726Y-78934158D01*
X81511636Y-78914978D01*
X81501744Y-78893645D01*
X81494050Y-78870159D01*
X81488555Y-78844521D01*
X81485876Y-78823880D01*
X81484433Y-78802029D01*
X81484159Y-78786788D01*
G37*
G36*
X84062386Y-78989999D02*
G01*
X83604187Y-78989999D01*
X83457641Y-78489789D01*
X82725889Y-78489789D01*
X82579832Y-78989999D01*
X82121144Y-78989999D01*
X82420372Y-78145895D01*
X82832868Y-78145895D01*
X83356524Y-78145895D01*
X83209979Y-77693557D01*
X83203384Y-77672276D01*
X83197098Y-77652138D01*
X83190229Y-77630248D01*
X83184058Y-77610668D01*
X83177482Y-77589871D01*
X83173342Y-77576809D01*
X83166320Y-77554615D01*
X83159298Y-77532302D01*
X83152276Y-77509869D01*
X83145254Y-77487317D01*
X83138232Y-77464646D01*
X83131210Y-77441856D01*
X83128401Y-77432706D01*
X83121582Y-77410121D01*
X83115168Y-77388466D01*
X83109160Y-77367741D01*
X83103557Y-77347946D01*
X83098360Y-77329082D01*
X83092659Y-77307672D01*
X83091765Y-77304234D01*
X83086109Y-77325661D01*
X83080871Y-77344907D01*
X83075157Y-77365417D01*
X83068965Y-77387192D01*
X83062296Y-77410230D01*
X83056617Y-77429571D01*
X83053663Y-77439545D01*
X83047725Y-77459451D01*
X83041878Y-77479112D01*
X83036123Y-77498530D01*
X83030460Y-77517703D01*
X83024888Y-77536631D01*
X83018052Y-77559949D01*
X83011360Y-77582885D01*
X83008722Y-77591952D01*
X83002397Y-77613367D01*
X82996548Y-77632730D01*
X82990160Y-77653257D01*
X82983575Y-77673473D01*
X82976482Y-77693557D01*
X82832868Y-78145895D01*
X82420372Y-78145895D01*
X82830425Y-76989161D01*
X83350662Y-76989161D01*
X84062386Y-78989999D01*
G37*
G36*
X84211863Y-78786788D02*
G01*
X84212481Y-78763108D01*
X84214336Y-78740793D01*
X84217427Y-78719843D01*
X84221755Y-78700258D01*
X84229448Y-78676269D01*
X84239340Y-78654706D01*
X84251430Y-78635572D01*
X84265718Y-78618864D01*
X84282205Y-78604583D01*
X84300279Y-78592333D01*
X84319330Y-78581716D01*
X84339357Y-78572732D01*
X84360362Y-78565382D01*
X84382344Y-78559666D01*
X84405303Y-78555582D01*
X84429239Y-78553132D01*
X84454152Y-78552315D01*
X84478263Y-78553132D01*
X84501504Y-78555582D01*
X84523875Y-78559666D01*
X84545376Y-78565382D01*
X84566007Y-78572732D01*
X84585768Y-78581716D01*
X84604659Y-78592333D01*
X84622679Y-78604583D01*
X84639166Y-78618864D01*
X84653454Y-78635572D01*
X84665544Y-78654706D01*
X84675436Y-78676269D01*
X84683129Y-78700258D01*
X84687457Y-78719843D01*
X84690548Y-78740793D01*
X84692403Y-78763108D01*
X84693021Y-78786788D01*
X84692403Y-78809447D01*
X84690548Y-78830895D01*
X84687457Y-78851133D01*
X84681412Y-78876232D01*
X84673169Y-78899180D01*
X84662727Y-78919975D01*
X84650088Y-78938617D01*
X84635250Y-78955108D01*
X84622679Y-78966063D01*
X84604659Y-78979000D01*
X84585768Y-78990212D01*
X84566007Y-78999700D01*
X84545376Y-79007462D01*
X84523875Y-79013499D01*
X84501504Y-79017812D01*
X84478263Y-79020399D01*
X84454152Y-79021262D01*
X84429239Y-79020399D01*
X84405303Y-79017812D01*
X84382344Y-79013499D01*
X84360362Y-79007462D01*
X84339357Y-78999700D01*
X84319330Y-78990212D01*
X84300279Y-78979000D01*
X84282205Y-78966063D01*
X84265718Y-78951187D01*
X84251430Y-78934158D01*
X84239340Y-78914978D01*
X84229448Y-78893645D01*
X84221755Y-78870159D01*
X84216259Y-78844521D01*
X84213580Y-78823880D01*
X84212137Y-78802029D01*
X84211863Y-78786788D01*
G37*
D12*
G36*
X66709533Y-71255799D02*
G01*
X67265429Y-71255799D01*
X67265429Y-73095436D01*
X68990761Y-71255799D01*
X69638493Y-71255799D01*
X68049937Y-72949867D01*
X69685387Y-75320000D01*
X69018116Y-75320000D01*
X67686504Y-73312323D01*
X67265429Y-73751960D01*
X67265429Y-75320000D01*
X66709533Y-75320000D01*
X66709533Y-71255799D01*
G37*
G36*
X71384692Y-72194352D02*
G01*
X71435571Y-72196336D01*
X71486175Y-72199642D01*
X71536504Y-72204270D01*
X71586558Y-72210220D01*
X71636338Y-72217493D01*
X71685843Y-72226089D01*
X71735073Y-72236006D01*
X71784029Y-72247246D01*
X71832709Y-72259808D01*
X71865011Y-72268918D01*
X71912936Y-72283690D01*
X71959624Y-72300162D01*
X72005076Y-72318334D01*
X72049292Y-72338206D01*
X72092271Y-72359779D01*
X72134014Y-72383052D01*
X72174520Y-72408025D01*
X72213789Y-72434698D01*
X72251823Y-72463071D01*
X72288619Y-72493144D01*
X72312463Y-72514138D01*
X72346719Y-72547033D01*
X72378775Y-72581972D01*
X72408634Y-72618955D01*
X72436295Y-72657981D01*
X72461757Y-72699051D01*
X72485021Y-72742165D01*
X72506087Y-72787322D01*
X72524955Y-72834523D01*
X72541624Y-72883768D01*
X72556096Y-72935056D01*
X72564522Y-72970383D01*
X72572204Y-73010088D01*
X72579131Y-73053365D01*
X72585302Y-73100214D01*
X72590717Y-73150635D01*
X72595377Y-73204627D01*
X72599281Y-73262192D01*
X72601464Y-73302554D01*
X72603311Y-73344502D01*
X72604822Y-73388039D01*
X72605998Y-73433162D01*
X72606837Y-73479874D01*
X72607341Y-73528173D01*
X72607509Y-73578060D01*
X72607509Y-74202344D01*
X72607758Y-74250819D01*
X72608505Y-74300255D01*
X72609750Y-74350653D01*
X72611493Y-74402013D01*
X72613734Y-74454334D01*
X72616473Y-74507617D01*
X72619710Y-74561862D01*
X72623446Y-74617069D01*
X72627679Y-74673237D01*
X72632410Y-74730367D01*
X72635841Y-74768988D01*
X72641989Y-74826621D01*
X72649442Y-74883019D01*
X72658201Y-74938179D01*
X72668264Y-74992103D01*
X72679633Y-75044791D01*
X72692307Y-75096243D01*
X72706286Y-75146457D01*
X72721570Y-75195436D01*
X72738160Y-75243177D01*
X72756054Y-75289683D01*
X72768709Y-75320000D01*
X72263615Y-75320000D01*
X72246716Y-75278085D01*
X72231192Y-75235140D01*
X72217041Y-75191165D01*
X72204264Y-75146160D01*
X72194666Y-75107868D01*
X72189365Y-75084549D01*
X72181079Y-75045332D01*
X72173318Y-75006449D01*
X72166081Y-74967900D01*
X72158090Y-74922081D01*
X72150854Y-74876744D01*
X72145401Y-74839330D01*
X72124763Y-74873214D01*
X72103147Y-74905993D01*
X72068892Y-74953085D01*
X72032439Y-74997687D01*
X71993788Y-75039799D01*
X71952938Y-75079420D01*
X71909890Y-75116552D01*
X71864644Y-75151193D01*
X71817200Y-75183345D01*
X71767558Y-75213006D01*
X71715717Y-75240177D01*
X71697948Y-75248681D01*
X71662167Y-75264888D01*
X71626141Y-75280051D01*
X71571644Y-75300833D01*
X71516598Y-75319263D01*
X71461002Y-75335340D01*
X71404857Y-75349064D01*
X71348162Y-75360436D01*
X71290918Y-75369455D01*
X71233124Y-75376121D01*
X71174780Y-75380434D01*
X71135579Y-75382003D01*
X71096134Y-75382526D01*
X71041298Y-75381533D01*
X70987675Y-75378557D01*
X70935266Y-75373596D01*
X70884070Y-75366650D01*
X70834088Y-75357720D01*
X70785320Y-75346805D01*
X70737765Y-75333906D01*
X70691424Y-75319023D01*
X70646296Y-75302155D01*
X70602382Y-75283302D01*
X70559681Y-75262465D01*
X70518194Y-75239644D01*
X70477921Y-75214838D01*
X70438861Y-75188047D01*
X70401015Y-75159272D01*
X70364383Y-75128513D01*
X70329482Y-75095895D01*
X70296834Y-75061545D01*
X70266437Y-75025462D01*
X70238292Y-74987646D01*
X70212399Y-74948098D01*
X70188757Y-74906817D01*
X70167366Y-74863803D01*
X70148228Y-74819057D01*
X70131340Y-74772579D01*
X70116705Y-74724368D01*
X70104321Y-74674424D01*
X70094189Y-74622747D01*
X70086308Y-74569338D01*
X70080679Y-74514197D01*
X70077302Y-74457322D01*
X70076251Y-74402623D01*
X70579316Y-74402623D01*
X70580870Y-74453594D01*
X70585533Y-74502091D01*
X70593304Y-74548116D01*
X70604183Y-74591667D01*
X70618171Y-74632746D01*
X70635267Y-74671352D01*
X70655471Y-74707484D01*
X70678784Y-74741144D01*
X70705205Y-74772331D01*
X70734735Y-74801045D01*
X70756148Y-74818813D01*
X70790432Y-74843431D01*
X70826604Y-74865628D01*
X70864666Y-74885403D01*
X70904617Y-74902756D01*
X70946457Y-74917689D01*
X70990186Y-74930199D01*
X71035804Y-74940289D01*
X71083311Y-74947957D01*
X71132708Y-74953203D01*
X71183993Y-74956028D01*
X71219232Y-74956566D01*
X71276646Y-74955278D01*
X71332015Y-74951414D01*
X71385341Y-74944974D01*
X71436624Y-74935958D01*
X71485863Y-74924366D01*
X71533058Y-74910198D01*
X71578209Y-74893454D01*
X71621317Y-74874134D01*
X71662382Y-74852238D01*
X71701402Y-74827766D01*
X71726281Y-74810020D01*
X71761990Y-74781570D01*
X71795844Y-74751540D01*
X71827844Y-74719929D01*
X71857989Y-74686739D01*
X71886279Y-74651969D01*
X71912714Y-74615618D01*
X71937295Y-74577688D01*
X71960021Y-74538178D01*
X71980892Y-74497088D01*
X71999909Y-74454418D01*
X72011556Y-74425094D01*
X72027794Y-74380271D01*
X72042434Y-74334831D01*
X72055477Y-74288772D01*
X72066923Y-74242095D01*
X72076772Y-74194799D01*
X72085024Y-74146886D01*
X72091678Y-74098354D01*
X72096736Y-74049204D01*
X72100196Y-73999436D01*
X72102060Y-73949049D01*
X72102415Y-73915115D01*
X72102415Y-73807648D01*
X71464452Y-73807648D01*
X71424596Y-73808051D01*
X71384894Y-73809262D01*
X71345347Y-73811280D01*
X71305954Y-73814105D01*
X71266716Y-73817737D01*
X71227632Y-73822176D01*
X71188703Y-73827423D01*
X71149929Y-73833476D01*
X71111309Y-73840337D01*
X71072843Y-73848005D01*
X71047286Y-73853565D01*
X70997582Y-73866342D01*
X70950077Y-73881714D01*
X70904770Y-73899682D01*
X70861661Y-73920244D01*
X70820750Y-73943401D01*
X70782038Y-73969153D01*
X70745523Y-73997501D01*
X70711207Y-74028443D01*
X70680295Y-74062286D01*
X70653505Y-74099823D01*
X70630836Y-74141055D01*
X70612289Y-74185980D01*
X70597863Y-74234600D01*
X70589749Y-74273489D01*
X70583953Y-74314456D01*
X70580475Y-74357500D01*
X70579316Y-74402623D01*
X70076251Y-74402623D01*
X70076176Y-74398715D01*
X70076920Y-74350058D01*
X70079153Y-74302759D01*
X70082874Y-74256818D01*
X70088083Y-74212236D01*
X70094780Y-74169013D01*
X70102966Y-74127148D01*
X70112641Y-74086642D01*
X70123803Y-74047494D01*
X70136454Y-74009705D01*
X70158222Y-73955569D01*
X70183337Y-73904490D01*
X70211802Y-73856468D01*
X70243616Y-73811502D01*
X70266685Y-73783224D01*
X70303619Y-73742800D01*
X70342614Y-73704696D01*
X70383670Y-73668909D01*
X70426787Y-73635441D01*
X70471964Y-73604292D01*
X70519202Y-73575461D01*
X70568501Y-73548948D01*
X70619861Y-73524754D01*
X70673281Y-73502878D01*
X70710040Y-73489582D01*
X70747714Y-73477316D01*
X70766895Y-73471570D01*
X70805764Y-73460686D01*
X70844946Y-73450504D01*
X70884440Y-73441024D01*
X70924248Y-73432247D01*
X70964369Y-73424171D01*
X71004803Y-73416798D01*
X71045549Y-73410127D01*
X71086609Y-73404159D01*
X71127981Y-73398892D01*
X71169666Y-73394328D01*
X71211665Y-73390466D01*
X71253976Y-73387306D01*
X71296600Y-73384848D01*
X71339537Y-73383093D01*
X71382787Y-73382039D01*
X71426350Y-73381688D01*
X72102415Y-73381688D01*
X72102415Y-73303531D01*
X72101640Y-73256567D01*
X72099316Y-73211420D01*
X72095442Y-73168090D01*
X72090019Y-73126577D01*
X72083047Y-73086880D01*
X72069683Y-73030740D01*
X72052833Y-72978688D01*
X72032497Y-72930722D01*
X72008675Y-72886845D01*
X71981367Y-72847054D01*
X71950572Y-72811351D01*
X71916291Y-72779735D01*
X71904089Y-72770104D01*
X71865495Y-72743216D01*
X71824085Y-72718973D01*
X71779858Y-72697375D01*
X71732814Y-72678422D01*
X71682954Y-72662113D01*
X71630278Y-72648448D01*
X71574785Y-72637429D01*
X71516476Y-72629054D01*
X71476039Y-72624940D01*
X71434349Y-72622001D01*
X71391408Y-72620238D01*
X71347216Y-72619651D01*
X71295095Y-72620329D01*
X71243145Y-72622364D01*
X71191368Y-72625756D01*
X71139762Y-72630504D01*
X71088328Y-72636609D01*
X71037065Y-72644071D01*
X70985975Y-72652890D01*
X70935056Y-72663065D01*
X70884309Y-72674597D01*
X70833733Y-72687485D01*
X70800112Y-72696831D01*
X70750229Y-72711835D01*
X70700964Y-72727904D01*
X70652318Y-72745037D01*
X70604290Y-72763235D01*
X70556880Y-72782498D01*
X70510089Y-72802825D01*
X70463915Y-72824217D01*
X70418360Y-72846674D01*
X70373423Y-72870196D01*
X70329105Y-72894783D01*
X70299902Y-72911765D01*
X70299902Y-72407648D01*
X70347206Y-72390529D01*
X70394596Y-72373977D01*
X70442072Y-72357991D01*
X70489633Y-72342572D01*
X70537281Y-72327720D01*
X70585014Y-72313435D01*
X70632833Y-72299716D01*
X70680738Y-72286564D01*
X70728729Y-72273979D01*
X70776806Y-72261961D01*
X70808904Y-72254263D01*
X70857176Y-72243438D01*
X70905636Y-72233678D01*
X70954285Y-72224983D01*
X71003123Y-72217352D01*
X71052150Y-72210786D01*
X71101366Y-72205285D01*
X71150771Y-72200849D01*
X71200365Y-72197477D01*
X71250147Y-72195170D01*
X71300119Y-72193928D01*
X71333538Y-72193691D01*
X71384692Y-72194352D01*
G37*
G36*
X75317627Y-75320000D02*
G01*
X75262001Y-75318881D01*
X75207962Y-75315527D01*
X75155511Y-75309936D01*
X75104648Y-75302109D01*
X75055372Y-75292045D01*
X75007683Y-75279745D01*
X74961582Y-75265209D01*
X74917069Y-75248436D01*
X74874143Y-75229427D01*
X74832805Y-75208182D01*
X74793055Y-75184700D01*
X74754892Y-75158982D01*
X74718317Y-75131028D01*
X74683329Y-75100837D01*
X74649929Y-75068410D01*
X74618116Y-75033747D01*
X74588185Y-74996931D01*
X74560185Y-74958291D01*
X74534115Y-74917827D01*
X74509977Y-74875539D01*
X74487770Y-74831426D01*
X74467494Y-74785489D01*
X74449149Y-74737728D01*
X74432736Y-74688143D01*
X74418253Y-74636734D01*
X74405701Y-74583500D01*
X74395080Y-74528443D01*
X74386391Y-74471561D01*
X74379632Y-74412855D01*
X74374804Y-74352325D01*
X74371908Y-74289970D01*
X74370942Y-74225792D01*
X74370942Y-71494180D01*
X73564941Y-71494180D01*
X73564941Y-71068220D01*
X74874082Y-71068220D01*
X74874082Y-74215045D01*
X74874575Y-74255830D01*
X74876052Y-74295385D01*
X74880113Y-74352415D01*
X74886390Y-74406680D01*
X74894882Y-74458180D01*
X74905590Y-74506915D01*
X74918513Y-74552885D01*
X74933651Y-74596090D01*
X74951005Y-74636531D01*
X74970574Y-74674206D01*
X74992358Y-74709117D01*
X75000112Y-74720139D01*
X75024747Y-74751217D01*
X75060719Y-74787899D01*
X75100264Y-74819147D01*
X75143380Y-74844961D01*
X75190069Y-74865340D01*
X75227429Y-74877057D01*
X75266799Y-74885719D01*
X75308178Y-74891323D01*
X75351567Y-74893870D01*
X75366476Y-74894040D01*
X75954613Y-74894040D01*
X75954613Y-75320000D01*
X75317627Y-75320000D01*
G37*
G36*
X76944285Y-76082037D02*
G01*
X77242261Y-76082037D01*
X77282950Y-76080938D01*
X77334425Y-76076053D01*
X77382724Y-76067260D01*
X77427847Y-76054560D01*
X77469796Y-76037951D01*
X77508570Y-76017435D01*
X77544168Y-75993011D01*
X77576591Y-75964678D01*
X77584201Y-75956985D01*
X77618563Y-75916257D01*
X77645517Y-75877778D01*
X77673483Y-75832497D01*
X77702463Y-75780416D01*
X77722346Y-75741918D01*
X77742679Y-75700396D01*
X77763463Y-75655852D01*
X77784697Y-75608286D01*
X77806381Y-75557697D01*
X77828515Y-75504086D01*
X77851100Y-75447452D01*
X77874135Y-75387796D01*
X77897621Y-75325117D01*
X77909533Y-75292644D01*
X76725443Y-72256217D01*
X77258870Y-72256217D01*
X78166476Y-74676175D01*
X79060405Y-72256217D01*
X79593831Y-72256217D01*
X78786853Y-74345959D01*
X78769124Y-74391921D01*
X78751842Y-74436749D01*
X78735007Y-74480443D01*
X78718618Y-74523005D01*
X78702675Y-74564432D01*
X78687179Y-74604727D01*
X78672129Y-74643888D01*
X78657526Y-74681915D01*
X78643370Y-74718809D01*
X78625189Y-74766238D01*
X78620768Y-74777780D01*
X78605289Y-74816111D01*
X78589804Y-74854365D01*
X78585597Y-74864731D01*
X78571486Y-74903187D01*
X78557381Y-74942723D01*
X78556288Y-74945819D01*
X78543293Y-74982780D01*
X78530012Y-75020730D01*
X78516288Y-75060046D01*
X78502962Y-75098285D01*
X78500600Y-75105066D01*
X78467383Y-75192993D01*
X78454118Y-75230198D01*
X78434391Y-75284933D01*
X78414871Y-75338379D01*
X78395557Y-75390537D01*
X78376449Y-75441407D01*
X78357546Y-75490990D01*
X78338850Y-75539284D01*
X78320360Y-75586290D01*
X78302077Y-75632008D01*
X78283999Y-75676439D01*
X78266127Y-75719581D01*
X78248782Y-75761275D01*
X78231918Y-75800994D01*
X78215534Y-75838738D01*
X78199632Y-75874507D01*
X78179177Y-75919127D01*
X78159576Y-75960236D01*
X78140831Y-75997834D01*
X78118601Y-76039895D01*
X78105904Y-76062498D01*
X78074209Y-76116445D01*
X78040431Y-76166912D01*
X78004570Y-76213898D01*
X77966624Y-76257404D01*
X77926595Y-76297429D01*
X77884482Y-76333974D01*
X77840286Y-76367038D01*
X77794006Y-76396622D01*
X77745642Y-76422725D01*
X77695194Y-76445348D01*
X77642663Y-76464491D01*
X77588048Y-76480153D01*
X77531349Y-76492335D01*
X77472567Y-76501036D01*
X77411701Y-76506256D01*
X77348751Y-76507997D01*
X76944285Y-76507997D01*
X76944285Y-76082037D01*
G37*
G36*
X82369407Y-73893621D02*
G01*
X82913580Y-73893621D01*
X82913580Y-74319581D01*
X82369407Y-74319581D01*
X82369407Y-75320000D01*
X81819372Y-75320000D01*
X81819372Y-74319581D01*
X80088179Y-74319581D01*
X80088179Y-73893621D01*
X80531724Y-73893621D01*
X81819372Y-73893621D01*
X81819372Y-71775547D01*
X80531724Y-73893621D01*
X80088179Y-73893621D01*
X80088179Y-73820348D01*
X81729491Y-71255799D01*
X82369407Y-71255799D01*
X82369407Y-73893621D01*
G37*
G36*
X83593552Y-74952658D02*
G01*
X83596825Y-74909796D01*
X83606642Y-74870112D01*
X83623004Y-74833607D01*
X83645912Y-74800281D01*
X83661940Y-74782665D01*
X83691747Y-74751350D01*
X83722550Y-74718952D01*
X83754350Y-74685473D01*
X83787145Y-74650911D01*
X83820936Y-74615268D01*
X83855724Y-74578543D01*
X83891507Y-74540736D01*
X83928287Y-74501847D01*
X83966062Y-74461876D01*
X84004834Y-74420823D01*
X84031235Y-74392854D01*
X84058094Y-74364369D01*
X84085182Y-74335579D01*
X84112499Y-74306483D01*
X84140045Y-74277083D01*
X84167820Y-74247377D01*
X84195824Y-74217365D01*
X84224057Y-74187049D01*
X84252519Y-74156427D01*
X84281210Y-74125499D01*
X84310130Y-74094267D01*
X84339279Y-74062729D01*
X84368657Y-74030886D01*
X84398264Y-73998737D01*
X84428099Y-73966284D01*
X84458164Y-73933524D01*
X84488458Y-73900460D01*
X84522455Y-73863243D01*
X84554838Y-73827794D01*
X84585607Y-73794114D01*
X84614762Y-73762203D01*
X84642302Y-73732061D01*
X84676512Y-73694623D01*
X84707851Y-73660330D01*
X84736320Y-73629182D01*
X84767872Y-73594668D01*
X84796365Y-73563475D01*
X84827598Y-73529128D01*
X84855602Y-73498147D01*
X84884192Y-73466257D01*
X84911486Y-73435422D01*
X84939668Y-73403084D01*
X84968158Y-73369820D01*
X84993743Y-73339472D01*
X85013092Y-73316231D01*
X85039687Y-73283722D01*
X85065253Y-73252140D01*
X85089788Y-73221486D01*
X85120898Y-73182056D01*
X85150177Y-73144275D01*
X85177623Y-73108142D01*
X85203238Y-73073658D01*
X85227022Y-73040823D01*
X85243657Y-73017278D01*
X85270042Y-72978857D01*
X85294852Y-72940532D01*
X85318089Y-72902303D01*
X85339751Y-72864168D01*
X85359839Y-72826129D01*
X85378353Y-72788186D01*
X85385318Y-72773035D01*
X85402428Y-72732927D01*
X85417855Y-72692836D01*
X85431600Y-72652762D01*
X85443661Y-72612705D01*
X85454040Y-72572665D01*
X85462735Y-72532643D01*
X85469747Y-72492638D01*
X85475077Y-72452650D01*
X85478723Y-72412679D01*
X85480687Y-72372725D01*
X85481061Y-72346099D01*
X85480278Y-72304177D01*
X85477931Y-72263407D01*
X85474020Y-72223790D01*
X85465218Y-72166526D01*
X85452897Y-72111854D01*
X85437054Y-72059776D01*
X85417691Y-72010291D01*
X85394808Y-71963400D01*
X85368404Y-71919101D01*
X85338479Y-71877396D01*
X85305034Y-71838283D01*
X85280782Y-71813649D01*
X85241541Y-71778905D01*
X85199655Y-71747578D01*
X85155124Y-71719668D01*
X85107949Y-71695176D01*
X85058130Y-71674102D01*
X85005665Y-71656445D01*
X84950556Y-71642205D01*
X84892802Y-71631383D01*
X84852830Y-71626067D01*
X84811683Y-71622270D01*
X84769360Y-71619991D01*
X84725862Y-71619232D01*
X84664210Y-71620701D01*
X84601619Y-71625109D01*
X84538089Y-71632455D01*
X84473620Y-71642740D01*
X84408213Y-71655964D01*
X84341866Y-71672126D01*
X84274581Y-71691226D01*
X84206357Y-71713265D01*
X84137195Y-71738243D01*
X84067093Y-71766159D01*
X83996053Y-71797014D01*
X83960181Y-71813543D01*
X83924074Y-71830807D01*
X83887732Y-71848806D01*
X83851156Y-71867539D01*
X83814345Y-71887007D01*
X83777299Y-71907209D01*
X83740019Y-71928147D01*
X83702503Y-71949818D01*
X83664754Y-71972225D01*
X83626769Y-71995366D01*
X83626769Y-71444354D01*
X83678959Y-71421622D01*
X83731114Y-71399955D01*
X83783235Y-71379353D01*
X83835322Y-71359815D01*
X83887374Y-71341343D01*
X83939392Y-71323935D01*
X83991376Y-71307591D01*
X84043325Y-71292313D01*
X84095240Y-71278099D01*
X84147121Y-71264950D01*
X84181689Y-71256775D01*
X84232387Y-71245427D01*
X84283000Y-71235194D01*
X84333527Y-71226078D01*
X84383968Y-71218078D01*
X84434323Y-71211195D01*
X84484592Y-71205427D01*
X84534775Y-71200776D01*
X84584873Y-71197241D01*
X84634884Y-71194823D01*
X84684810Y-71193520D01*
X84718046Y-71193272D01*
X84771034Y-71193951D01*
X84823387Y-71195986D01*
X84875105Y-71199377D01*
X84926187Y-71204126D01*
X84976633Y-71210231D01*
X85026445Y-71217693D01*
X85075621Y-71226511D01*
X85124161Y-71236687D01*
X85172066Y-71248218D01*
X85219336Y-71261107D01*
X85250496Y-71270453D01*
X85296657Y-71285514D01*
X85341720Y-71302121D01*
X85385684Y-71320273D01*
X85428549Y-71339971D01*
X85470314Y-71361214D01*
X85510981Y-71384003D01*
X85550548Y-71408338D01*
X85589016Y-71434218D01*
X85626385Y-71461644D01*
X85662655Y-71490615D01*
X85686225Y-71510788D01*
X85716249Y-71538649D01*
X85745141Y-71567643D01*
X85772899Y-71597771D01*
X85799523Y-71629032D01*
X85825014Y-71661427D01*
X85849371Y-71694955D01*
X85872595Y-71729616D01*
X85894686Y-71765411D01*
X85915643Y-71802340D01*
X85935467Y-71840401D01*
X85948053Y-71866406D01*
X85965687Y-71906253D01*
X85981587Y-71947029D01*
X85995752Y-71988731D01*
X86008183Y-72031361D01*
X86018879Y-72074918D01*
X86027840Y-72119403D01*
X86035068Y-72164815D01*
X86040560Y-72211154D01*
X86044318Y-72258421D01*
X86046342Y-72306615D01*
X86046727Y-72339260D01*
X86045671Y-72389661D01*
X86042503Y-72440113D01*
X86037222Y-72490617D01*
X86029829Y-72541172D01*
X86020323Y-72591779D01*
X86008705Y-72642438D01*
X85994975Y-72693148D01*
X85979133Y-72743909D01*
X85961178Y-72794722D01*
X85941111Y-72845587D01*
X85926560Y-72879525D01*
X85906796Y-72922124D01*
X85885363Y-72964438D01*
X85862260Y-73006464D01*
X85837487Y-73048205D01*
X85816467Y-73081392D01*
X85794379Y-73114395D01*
X85771221Y-73147215D01*
X85746934Y-73180447D01*
X85720968Y-73215176D01*
X85693323Y-73251400D01*
X85663999Y-73289120D01*
X85632995Y-73328336D01*
X85600312Y-73369049D01*
X85574698Y-73400565D01*
X85548140Y-73432922D01*
X85529909Y-73454961D01*
X85504440Y-73484728D01*
X85477493Y-73516022D01*
X85449066Y-73548842D01*
X85419161Y-73583189D01*
X85387776Y-73619062D01*
X85361604Y-73648859D01*
X85341354Y-73671849D01*
X85313449Y-73703142D01*
X85284445Y-73735474D01*
X85254342Y-73768844D01*
X85223140Y-73803251D01*
X85190839Y-73838697D01*
X85157439Y-73875181D01*
X85122940Y-73912703D01*
X85096344Y-73941525D01*
X85087341Y-73951263D01*
X85055055Y-73985848D01*
X85023533Y-74019383D01*
X84992774Y-74051870D01*
X84962777Y-74083306D01*
X84933545Y-74113694D01*
X84905075Y-74143031D01*
X84893901Y-74154473D01*
X84865880Y-74182751D01*
X84837382Y-74211412D01*
X84808406Y-74240454D01*
X84778954Y-74269877D01*
X84749025Y-74299683D01*
X84718619Y-74329870D01*
X84706322Y-74342051D01*
X84675053Y-74373111D01*
X84642304Y-74405841D01*
X84608077Y-74440240D01*
X84579630Y-74468961D01*
X84550237Y-74498751D01*
X84519897Y-74529610D01*
X84488611Y-74561537D01*
X84480642Y-74569685D01*
X84448020Y-74603177D01*
X84413659Y-74638684D01*
X84377556Y-74676206D01*
X84349338Y-74705670D01*
X84320140Y-74736267D01*
X84289964Y-74767997D01*
X84258809Y-74800861D01*
X84226674Y-74834859D01*
X84193561Y-74869990D01*
X84170942Y-74894040D01*
X86074082Y-74894040D01*
X86074082Y-75320000D01*
X83593552Y-75320000D01*
X83593552Y-74952658D01*
G37*
D11*
G36*
X133048825Y-66072592D02*
G01*
X133048825Y-65586182D01*
X134658507Y-65586182D01*
X133048825Y-64076517D01*
X133048825Y-63509752D01*
X134531134Y-64899738D01*
X136605001Y-63468719D01*
X136605001Y-64052581D01*
X134848284Y-65217742D01*
X135232966Y-65586182D01*
X136605001Y-65586182D01*
X136605001Y-66072592D01*
X133048825Y-66072592D01*
G37*
G36*
X136605001Y-61212770D02*
G01*
X136568325Y-61227556D01*
X136530749Y-61241140D01*
X136492271Y-61253522D01*
X136452891Y-61264702D01*
X136419385Y-61273100D01*
X136398982Y-61277739D01*
X136364667Y-61284989D01*
X136330644Y-61291780D01*
X136296913Y-61298112D01*
X136256822Y-61305105D01*
X136217152Y-61311436D01*
X136184414Y-61316207D01*
X136214064Y-61334265D01*
X136242744Y-61353179D01*
X136283950Y-61383152D01*
X136322977Y-61415049D01*
X136359825Y-61448869D01*
X136394494Y-61484612D01*
X136426984Y-61522279D01*
X136457295Y-61561869D01*
X136485428Y-61603383D01*
X136511381Y-61646820D01*
X136535156Y-61692180D01*
X136542596Y-61707728D01*
X136556778Y-61739037D01*
X136570045Y-61770560D01*
X136588230Y-61818244D01*
X136604356Y-61866410D01*
X136618423Y-61915056D01*
X136630432Y-61964183D01*
X136640382Y-62013791D01*
X136648274Y-62063880D01*
X136654107Y-62114450D01*
X136657881Y-62165500D01*
X136659253Y-62199801D01*
X136659711Y-62234316D01*
X136658843Y-62282297D01*
X136656238Y-62329217D01*
X136651897Y-62375075D01*
X136645820Y-62419871D01*
X136638006Y-62463606D01*
X136628455Y-62506278D01*
X136617169Y-62547889D01*
X136604146Y-62588437D01*
X136589386Y-62627924D01*
X136572890Y-62666349D01*
X136554658Y-62703712D01*
X136534689Y-62740013D01*
X136512984Y-62775252D01*
X136489542Y-62809429D01*
X136464364Y-62842545D01*
X136437450Y-62874598D01*
X136408909Y-62905136D01*
X136378853Y-62933703D01*
X136347280Y-62960300D01*
X136314191Y-62984927D01*
X136279587Y-63007584D01*
X136243466Y-63028271D01*
X136205829Y-63046987D01*
X136166676Y-63063734D01*
X136126007Y-63078510D01*
X136083823Y-63091316D01*
X136040122Y-63102152D01*
X135994905Y-63111018D01*
X135948172Y-63117913D01*
X135899923Y-63122839D01*
X135850158Y-63125794D01*
X135798877Y-63126779D01*
X135756301Y-63126128D01*
X135714915Y-63124174D01*
X135674717Y-63120919D01*
X135635707Y-63116360D01*
X135597887Y-63110500D01*
X135561255Y-63103337D01*
X135525813Y-63094872D01*
X135491558Y-63085105D01*
X135458493Y-63074035D01*
X135411124Y-63054989D01*
X135366430Y-63033013D01*
X135324410Y-63008106D01*
X135285065Y-62980269D01*
X135260322Y-62960083D01*
X135224951Y-62927766D01*
X135191610Y-62893645D01*
X135160297Y-62857722D01*
X135131012Y-62819995D01*
X135103756Y-62780465D01*
X135078529Y-62739131D01*
X135055330Y-62695995D01*
X135034160Y-62651055D01*
X135015019Y-62604312D01*
X135003385Y-62572148D01*
X134992652Y-62539183D01*
X134987624Y-62522400D01*
X134978101Y-62488390D01*
X134969192Y-62454106D01*
X134960897Y-62419548D01*
X134953217Y-62384716D01*
X134946151Y-62349610D01*
X134939699Y-62314231D01*
X134933862Y-62278577D01*
X134928640Y-62242650D01*
X134924032Y-62206450D01*
X134920038Y-62169975D01*
X134916658Y-62133226D01*
X134913894Y-62096204D01*
X134911743Y-62058908D01*
X134910207Y-62021338D01*
X134909285Y-61983494D01*
X134908978Y-61945376D01*
X134908978Y-61353820D01*
X135281693Y-61353820D01*
X135281693Y-61912037D01*
X135282046Y-61946912D01*
X135283105Y-61981651D01*
X135284871Y-62016255D01*
X135287343Y-62050723D01*
X135290521Y-62085057D01*
X135294405Y-62119255D01*
X135298996Y-62153318D01*
X135304293Y-62187245D01*
X135310296Y-62221038D01*
X135317005Y-62254695D01*
X135321871Y-62277058D01*
X135333051Y-62320549D01*
X135346501Y-62362116D01*
X135362222Y-62401759D01*
X135380214Y-62439480D01*
X135400477Y-62475276D01*
X135423010Y-62509150D01*
X135447814Y-62541100D01*
X135474889Y-62571127D01*
X135504501Y-62598174D01*
X135537346Y-62621616D01*
X135573424Y-62641451D01*
X135612733Y-62657680D01*
X135655276Y-62670302D01*
X135689303Y-62677403D01*
X135725150Y-62682474D01*
X135762814Y-62685517D01*
X135802296Y-62686531D01*
X135846896Y-62685171D01*
X135889331Y-62681092D01*
X135929602Y-62674292D01*
X135967710Y-62664773D01*
X136003654Y-62652533D01*
X136037434Y-62637574D01*
X136069050Y-62619896D01*
X136098502Y-62599497D01*
X136125790Y-62576378D01*
X136150915Y-62550540D01*
X136166462Y-62531803D01*
X136188003Y-62501805D01*
X136207425Y-62470154D01*
X136224728Y-62436850D01*
X136239913Y-62401893D01*
X136252978Y-62365283D01*
X136263925Y-62327020D01*
X136272754Y-62287104D01*
X136279463Y-62245536D01*
X136284054Y-62202314D01*
X136286525Y-62157439D01*
X136286996Y-62126605D01*
X136285869Y-62076368D01*
X136282488Y-62027919D01*
X136276853Y-61981259D01*
X136268964Y-61936387D01*
X136258821Y-61893303D01*
X136246424Y-61852007D01*
X136231773Y-61812500D01*
X136214868Y-61774780D01*
X136195709Y-61738849D01*
X136174296Y-61704706D01*
X136158769Y-61682937D01*
X136133875Y-61651692D01*
X136107598Y-61622069D01*
X136079939Y-61594070D01*
X136050897Y-61567693D01*
X136020473Y-61542939D01*
X135988667Y-61519808D01*
X135955478Y-61498300D01*
X135920907Y-61478415D01*
X135884953Y-61460152D01*
X135847617Y-61443513D01*
X135821958Y-61433321D01*
X135782738Y-61419113D01*
X135742978Y-61406303D01*
X135702676Y-61394891D01*
X135661834Y-61384875D01*
X135620450Y-61376257D01*
X135578526Y-61369037D01*
X135536061Y-61363214D01*
X135493054Y-61358789D01*
X135449507Y-61355761D01*
X135405419Y-61354131D01*
X135375726Y-61353820D01*
X135281693Y-61353820D01*
X134908978Y-61353820D01*
X134840590Y-61353820D01*
X134799497Y-61354498D01*
X134759994Y-61356532D01*
X134722080Y-61359921D01*
X134685755Y-61364666D01*
X134651021Y-61370767D01*
X134601898Y-61382460D01*
X134556353Y-61397204D01*
X134514383Y-61414998D01*
X134475990Y-61435842D01*
X134441173Y-61459737D01*
X134409933Y-61486683D01*
X134382269Y-61516678D01*
X134373842Y-61527355D01*
X134350315Y-61561125D01*
X134329103Y-61597359D01*
X134310204Y-61636058D01*
X134293620Y-61677221D01*
X134279349Y-61720848D01*
X134267393Y-61766940D01*
X134257751Y-61815496D01*
X134250423Y-61866516D01*
X134246823Y-61901899D01*
X134244252Y-61938377D01*
X134242709Y-61975951D01*
X134242195Y-62014619D01*
X134242789Y-62060225D01*
X134244569Y-62105681D01*
X134247537Y-62150986D01*
X134251692Y-62196141D01*
X134257034Y-62241146D01*
X134263563Y-62286001D01*
X134271279Y-62330705D01*
X134280183Y-62375259D01*
X134290273Y-62419663D01*
X134301551Y-62463916D01*
X134309728Y-62493335D01*
X134322857Y-62536983D01*
X134336917Y-62580089D01*
X134351908Y-62622655D01*
X134367831Y-62664679D01*
X134384686Y-62706163D01*
X134402473Y-62747105D01*
X134421191Y-62787507D01*
X134440841Y-62827368D01*
X134461422Y-62866688D01*
X134482936Y-62905466D01*
X134497795Y-62931018D01*
X134056693Y-62931018D01*
X134041714Y-62889627D01*
X134027230Y-62848161D01*
X134013243Y-62806620D01*
X133999752Y-62765004D01*
X133986756Y-62723312D01*
X133974256Y-62681546D01*
X133962253Y-62639704D01*
X133950745Y-62597787D01*
X133939733Y-62555795D01*
X133929217Y-62513728D01*
X133922481Y-62485642D01*
X133913010Y-62443404D01*
X133904469Y-62401001D01*
X133896861Y-62358433D01*
X133890184Y-62315700D01*
X133884439Y-62272801D01*
X133879625Y-62229737D01*
X133875743Y-62186508D01*
X133872793Y-62143114D01*
X133870775Y-62099554D01*
X133869688Y-62055829D01*
X133869481Y-62026587D01*
X133870059Y-61981828D01*
X133871795Y-61937309D01*
X133874687Y-61893030D01*
X133878737Y-61848992D01*
X133883944Y-61805194D01*
X133890308Y-61761637D01*
X133897828Y-61718320D01*
X133906506Y-61675244D01*
X133916341Y-61632408D01*
X133927333Y-61589812D01*
X133935304Y-61561549D01*
X133948229Y-61519614D01*
X133962643Y-61478762D01*
X133978543Y-61438991D01*
X133995932Y-61400303D01*
X134014808Y-61362696D01*
X134035171Y-61326171D01*
X134057023Y-61290728D01*
X134080361Y-61256367D01*
X134105188Y-61223088D01*
X134131502Y-61190891D01*
X134149871Y-61170027D01*
X134178655Y-61140054D01*
X134209227Y-61112004D01*
X134241587Y-61085878D01*
X134275735Y-61061675D01*
X134311671Y-61039396D01*
X134349395Y-61019040D01*
X134388908Y-61000607D01*
X134430209Y-60984098D01*
X134473298Y-60969512D01*
X134518175Y-60956849D01*
X134549086Y-60949476D01*
X134583828Y-60942754D01*
X134621695Y-60936693D01*
X134662688Y-60931294D01*
X134706806Y-60926555D01*
X134754050Y-60922478D01*
X134804419Y-60919062D01*
X134839735Y-60917152D01*
X134876440Y-60915536D01*
X134914535Y-60914214D01*
X134954018Y-60913185D01*
X134994891Y-60912450D01*
X135037152Y-60912010D01*
X135080803Y-60911863D01*
X135627052Y-60911863D01*
X135669467Y-60911645D01*
X135712724Y-60910991D01*
X135756822Y-60909902D01*
X135801762Y-60908377D01*
X135847543Y-60906416D01*
X135894166Y-60904019D01*
X135941630Y-60901186D01*
X135989936Y-60897918D01*
X136039083Y-60894214D01*
X136089072Y-60890074D01*
X136122865Y-60887072D01*
X136173295Y-60881693D01*
X136222642Y-60875171D01*
X136270908Y-60867507D01*
X136318091Y-60858702D01*
X136364193Y-60848754D01*
X136409213Y-60837664D01*
X136453151Y-60825433D01*
X136496007Y-60812059D01*
X136537781Y-60797543D01*
X136578473Y-60781885D01*
X136605001Y-60770812D01*
X136605001Y-61212770D01*
G37*
G36*
X136605001Y-58540509D02*
G01*
X136604022Y-58589182D01*
X136601087Y-58636466D01*
X136596195Y-58682361D01*
X136589346Y-58726866D01*
X136580540Y-58769983D01*
X136569778Y-58811710D01*
X136557059Y-58852048D01*
X136542383Y-58890997D01*
X136525750Y-58928557D01*
X136507160Y-58964728D01*
X136486614Y-58999510D01*
X136464111Y-59032903D01*
X136439650Y-59064906D01*
X136413234Y-59095520D01*
X136384860Y-59124745D01*
X136354529Y-59152581D01*
X136322316Y-59178771D01*
X136288506Y-59203271D01*
X136253100Y-59226082D01*
X136216097Y-59247203D01*
X136177499Y-59266634D01*
X136137304Y-59284375D01*
X136095513Y-59300427D01*
X136052126Y-59314789D01*
X136007143Y-59327462D01*
X135960564Y-59338445D01*
X135912388Y-59347738D01*
X135862617Y-59355341D01*
X135811249Y-59361255D01*
X135758285Y-59365479D01*
X135703725Y-59368014D01*
X135647569Y-59368859D01*
X133257408Y-59368859D01*
X133257408Y-60074110D01*
X132884693Y-60074110D01*
X132884693Y-58928611D01*
X135638165Y-58928611D01*
X135673852Y-58928180D01*
X135708463Y-58926888D01*
X135758364Y-58923334D01*
X135805846Y-58917842D01*
X135850908Y-58910411D01*
X135893552Y-58901042D01*
X135933775Y-58889734D01*
X135971580Y-58876488D01*
X136006965Y-58861304D01*
X136039931Y-58844181D01*
X136070478Y-58825120D01*
X136080123Y-58818335D01*
X136107316Y-58796779D01*
X136139413Y-58765304D01*
X136166755Y-58730702D01*
X136189341Y-58692975D01*
X136207173Y-58652123D01*
X136217426Y-58619432D01*
X136225005Y-58584984D01*
X136229908Y-58548777D01*
X136232137Y-58510812D01*
X136232286Y-58497766D01*
X136232286Y-57983147D01*
X136605001Y-57983147D01*
X136605001Y-58540509D01*
G37*
G36*
X137271783Y-57117184D02*
G01*
X137271783Y-56856454D01*
X137270822Y-56820851D01*
X137266548Y-56775811D01*
X137258854Y-56733550D01*
X137247741Y-56694066D01*
X137233208Y-56657361D01*
X137215257Y-56623434D01*
X137193885Y-56592286D01*
X137169095Y-56563915D01*
X137162363Y-56557257D01*
X137126726Y-56527190D01*
X137093056Y-56503606D01*
X137053436Y-56479135D01*
X137007865Y-56453778D01*
X136974179Y-56436380D01*
X136937848Y-56418588D01*
X136898872Y-56400403D01*
X136857251Y-56381823D01*
X136812986Y-56362850D01*
X136766076Y-56343482D01*
X136716522Y-56323720D01*
X136664322Y-56303564D01*
X136609478Y-56283015D01*
X136581065Y-56272592D01*
X133924191Y-57308670D01*
X133924191Y-56841922D01*
X136041654Y-56047766D01*
X133924191Y-55265579D01*
X133924191Y-54798831D01*
X135752715Y-55504937D01*
X135792931Y-55520449D01*
X135832156Y-55535571D01*
X135870389Y-55550302D01*
X135907630Y-55564643D01*
X135943879Y-55578592D01*
X135979137Y-55592151D01*
X136013403Y-55605320D01*
X136046677Y-55618097D01*
X136078959Y-55630484D01*
X136120459Y-55646393D01*
X136130559Y-55650261D01*
X136164098Y-55663805D01*
X136197570Y-55677354D01*
X136206640Y-55681036D01*
X136240289Y-55693383D01*
X136274884Y-55705725D01*
X136277593Y-55706681D01*
X136309934Y-55718051D01*
X136343139Y-55729672D01*
X136377541Y-55741681D01*
X136411000Y-55753342D01*
X136416934Y-55755408D01*
X136493870Y-55784473D01*
X136526424Y-55796080D01*
X136574317Y-55813341D01*
X136621082Y-55830421D01*
X136666721Y-55847321D01*
X136711232Y-55864040D01*
X136754617Y-55880580D01*
X136796874Y-55896939D01*
X136838005Y-55913118D01*
X136878008Y-55929116D01*
X136916885Y-55944934D01*
X136954634Y-55960572D01*
X136991116Y-55975749D01*
X137025871Y-55990505D01*
X137058897Y-56004840D01*
X137090195Y-56018755D01*
X137129237Y-56036653D01*
X137165208Y-56053804D01*
X137198106Y-56070206D01*
X137234909Y-56089657D01*
X137254686Y-56100767D01*
X137301890Y-56128500D01*
X137346049Y-56158055D01*
X137387162Y-56189434D01*
X137425229Y-56222637D01*
X137460251Y-56257662D01*
X137492228Y-56294511D01*
X137521159Y-56333183D01*
X137547045Y-56373678D01*
X137569886Y-56415996D01*
X137589681Y-56460138D01*
X137606431Y-56506103D01*
X137620135Y-56553891D01*
X137630794Y-56603502D01*
X137638407Y-56654937D01*
X137642975Y-56708195D01*
X137644498Y-56763276D01*
X137644498Y-57117184D01*
X137271783Y-57117184D01*
G37*
G36*
X135729634Y-52370202D02*
G01*
X136605001Y-52370202D01*
X136605001Y-52851482D01*
X135729634Y-52851482D01*
X135729634Y-54366277D01*
X135292806Y-54366277D01*
X133048825Y-52930129D01*
X133048825Y-52851482D01*
X133503605Y-52851482D01*
X135356920Y-53978175D01*
X135356920Y-52851482D01*
X133503605Y-52851482D01*
X133048825Y-52851482D01*
X133048825Y-52370202D01*
X135356920Y-52370202D01*
X135356920Y-51894050D01*
X135729634Y-51894050D01*
X135729634Y-52370202D01*
G37*
G36*
X136283577Y-51299075D02*
G01*
X136246072Y-51296211D01*
X136211349Y-51287621D01*
X136179407Y-51273304D01*
X136150247Y-51253260D01*
X136134833Y-51239235D01*
X136107432Y-51213154D01*
X136079084Y-51186201D01*
X136049790Y-51158377D01*
X136019548Y-51129681D01*
X135988361Y-51100114D01*
X135956226Y-51069675D01*
X135923145Y-51038364D01*
X135889117Y-51006182D01*
X135854143Y-50973128D01*
X135818221Y-50939203D01*
X135793748Y-50916102D01*
X135768824Y-50892600D01*
X135743632Y-50868898D01*
X135718174Y-50844996D01*
X135692448Y-50820893D01*
X135666455Y-50796590D01*
X135640195Y-50772087D01*
X135613668Y-50747383D01*
X135586874Y-50722479D01*
X135559813Y-50697374D01*
X135532484Y-50672069D01*
X135504889Y-50646564D01*
X135477026Y-50620858D01*
X135448896Y-50594952D01*
X135420499Y-50568846D01*
X135391835Y-50542539D01*
X135362904Y-50516032D01*
X135330338Y-50486285D01*
X135299321Y-50457949D01*
X135269851Y-50431026D01*
X135241929Y-50405516D01*
X135215555Y-50381418D01*
X135182796Y-50351485D01*
X135152790Y-50324063D01*
X135125535Y-50299153D01*
X135095335Y-50271545D01*
X135068041Y-50246613D01*
X135037988Y-50219285D01*
X135010880Y-50194782D01*
X134982976Y-50169765D01*
X134955995Y-50145882D01*
X134927700Y-50121224D01*
X134898593Y-50096294D01*
X134872039Y-50073908D01*
X134851703Y-50056978D01*
X134823258Y-50033707D01*
X134795624Y-50011337D01*
X134768801Y-49989869D01*
X134734300Y-49962647D01*
X134701241Y-49937028D01*
X134669625Y-49913012D01*
X134639452Y-49890599D01*
X134610721Y-49869789D01*
X134590119Y-49855233D01*
X134556501Y-49832146D01*
X134522967Y-49810437D01*
X134489516Y-49790105D01*
X134456148Y-49771151D01*
X134422864Y-49753574D01*
X134389663Y-49737374D01*
X134376407Y-49731280D01*
X134341312Y-49716308D01*
X134306232Y-49702810D01*
X134271167Y-49690783D01*
X134236118Y-49680229D01*
X134201083Y-49671148D01*
X134166063Y-49663540D01*
X134131059Y-49657404D01*
X134096069Y-49652741D01*
X134061095Y-49649550D01*
X134026135Y-49647832D01*
X134002837Y-49647505D01*
X133966155Y-49648189D01*
X133930482Y-49650243D01*
X133895817Y-49653666D01*
X133845711Y-49661367D01*
X133797874Y-49672148D01*
X133752305Y-49686011D01*
X133709006Y-49702953D01*
X133667976Y-49722976D01*
X133629214Y-49746080D01*
X133592722Y-49772264D01*
X133558499Y-49801528D01*
X133536944Y-49822749D01*
X133506543Y-49857085D01*
X133479131Y-49893735D01*
X133454711Y-49932699D01*
X133433280Y-49973977D01*
X133414840Y-50017570D01*
X133399390Y-50063476D01*
X133386930Y-50111697D01*
X133377461Y-50162231D01*
X133372809Y-50197207D01*
X133369487Y-50233211D01*
X133367493Y-50270243D01*
X133366829Y-50308304D01*
X133368114Y-50362249D01*
X133371971Y-50417017D01*
X133378399Y-50472605D01*
X133387399Y-50529015D01*
X133398969Y-50586247D01*
X133413111Y-50644300D01*
X133429824Y-50703174D01*
X133449108Y-50762870D01*
X133470964Y-50823388D01*
X133495390Y-50884726D01*
X133522388Y-50946887D01*
X133536851Y-50978275D01*
X133551957Y-51009868D01*
X133567706Y-51041667D01*
X133584098Y-51073672D01*
X133601132Y-51105881D01*
X133618809Y-51138296D01*
X133637129Y-51170917D01*
X133656092Y-51203742D01*
X133675698Y-51236774D01*
X133695946Y-51270010D01*
X133213811Y-51270010D01*
X133193920Y-51224344D01*
X133174962Y-51178708D01*
X133156935Y-51133102D01*
X133139839Y-51087526D01*
X133123676Y-51041980D01*
X133108444Y-50996465D01*
X133094143Y-50950979D01*
X133080775Y-50905523D01*
X133068338Y-50860098D01*
X133056832Y-50814702D01*
X133049679Y-50784455D01*
X133039749Y-50740094D01*
X133030796Y-50695808D01*
X133022819Y-50651597D01*
X133015819Y-50607461D01*
X133009796Y-50563401D01*
X133004750Y-50519415D01*
X133000680Y-50475505D01*
X132997587Y-50431669D01*
X132995471Y-50387909D01*
X132994331Y-50344224D01*
X132994114Y-50315143D01*
X132994708Y-50268778D01*
X132996488Y-50222969D01*
X132999456Y-50177716D01*
X133003611Y-50133019D01*
X133008953Y-50088879D01*
X133015482Y-50045294D01*
X133023198Y-50002265D01*
X133032102Y-49959792D01*
X133042192Y-49917875D01*
X133053470Y-49876514D01*
X133061647Y-49849249D01*
X133074826Y-49808858D01*
X133089357Y-49769428D01*
X133105240Y-49730959D01*
X133122475Y-49693453D01*
X133141063Y-49656908D01*
X133161004Y-49621325D01*
X133182296Y-49586704D01*
X133204942Y-49553044D01*
X133228939Y-49520346D01*
X133254289Y-49488609D01*
X133271940Y-49467986D01*
X133296319Y-49441715D01*
X133321689Y-49416435D01*
X133348051Y-49392147D01*
X133375404Y-49368850D01*
X133403749Y-49346546D01*
X133433086Y-49325233D01*
X133463415Y-49304912D01*
X133494736Y-49285583D01*
X133527048Y-49267245D01*
X133560352Y-49249899D01*
X133583106Y-49238886D01*
X133617973Y-49223457D01*
X133653651Y-49209544D01*
X133690141Y-49197150D01*
X133727442Y-49186273D01*
X133765555Y-49176914D01*
X133804479Y-49169073D01*
X133844214Y-49162749D01*
X133884761Y-49157943D01*
X133926119Y-49154655D01*
X133968289Y-49152884D01*
X133996853Y-49152547D01*
X134040954Y-49153471D01*
X134085100Y-49156243D01*
X134129291Y-49160864D01*
X134173527Y-49167333D01*
X134217808Y-49175650D01*
X134262134Y-49185816D01*
X134306505Y-49197829D01*
X134350921Y-49211692D01*
X134395383Y-49227402D01*
X134439889Y-49244961D01*
X134469585Y-49257693D01*
X134506860Y-49274986D01*
X134543884Y-49293740D01*
X134580657Y-49313955D01*
X134617180Y-49335631D01*
X134646219Y-49354024D01*
X134675097Y-49373352D01*
X134703814Y-49393614D01*
X134732892Y-49414865D01*
X134763280Y-49437586D01*
X134794976Y-49461775D01*
X134827981Y-49487434D01*
X134862295Y-49514562D01*
X134897919Y-49543160D01*
X134925495Y-49565572D01*
X134953808Y-49588811D01*
X134973092Y-49604762D01*
X134999138Y-49627048D01*
X135026520Y-49650627D01*
X135055238Y-49675500D01*
X135085291Y-49701667D01*
X135116680Y-49729129D01*
X135142753Y-49752029D01*
X135162869Y-49769748D01*
X135190251Y-49794165D01*
X135218541Y-49819543D01*
X135247739Y-49845883D01*
X135277846Y-49873185D01*
X135308861Y-49901449D01*
X135340784Y-49930674D01*
X135373616Y-49960861D01*
X135398836Y-49984132D01*
X135407356Y-49992009D01*
X135437618Y-50020259D01*
X135466961Y-50047842D01*
X135495387Y-50074756D01*
X135522894Y-50101003D01*
X135549483Y-50126581D01*
X135575153Y-50151492D01*
X135585164Y-50161270D01*
X135609908Y-50185788D01*
X135634986Y-50210724D01*
X135660398Y-50236077D01*
X135686144Y-50261848D01*
X135712223Y-50288036D01*
X135738637Y-50314642D01*
X135749296Y-50325401D01*
X135776473Y-50352762D01*
X135805111Y-50381417D01*
X135835211Y-50411366D01*
X135860342Y-50436257D01*
X135886408Y-50461976D01*
X135913409Y-50488523D01*
X135941346Y-50515898D01*
X135948476Y-50522871D01*
X135977781Y-50551415D01*
X136008850Y-50581482D01*
X136041681Y-50613071D01*
X136067462Y-50637762D01*
X136094234Y-50663310D01*
X136121999Y-50689715D01*
X136150755Y-50716975D01*
X136180502Y-50745093D01*
X136211242Y-50774067D01*
X136232286Y-50793859D01*
X136232286Y-49128611D01*
X136605001Y-49128611D01*
X136605001Y-51299075D01*
X136283577Y-51299075D01*
G37*
G36*
X133048825Y-45630565D02*
G01*
X133048825Y-45131332D01*
X136204931Y-44293579D01*
X133048825Y-43454117D01*
X133048825Y-42954030D01*
X136605001Y-43999511D01*
X136605001Y-44585083D01*
X133048825Y-45630565D01*
G37*
G36*
X136232286Y-42173551D02*
G01*
X136232286Y-41422138D01*
X133677994Y-41422138D01*
X134324261Y-41992323D01*
X134004547Y-42254762D01*
X133048825Y-41427267D01*
X133048825Y-40944277D01*
X136232286Y-40944277D01*
X136232286Y-40202267D01*
X136605001Y-40202267D01*
X136605001Y-42173551D01*
X136232286Y-42173551D01*
G37*
D13*
%TO.C,*%
X127230000Y-22170000D02*
X127230000Y-72970000D01*
X129770000Y-22170000D02*
X127230000Y-22170000D01*
X129770000Y-72970000D02*
X127230000Y-72970000D01*
X129770000Y-72970000D02*
X129770000Y-22170000D01*
X142410000Y-24710000D02*
X142410000Y-73030000D01*
X142410000Y-73030000D02*
X145070000Y-73030000D01*
X145070000Y-22110000D02*
X143740000Y-22110000D01*
X145070000Y-23440000D02*
X145070000Y-22110000D01*
X145070000Y-24710000D02*
X142410000Y-24710000D01*
X145070000Y-73030000D02*
X145070000Y-24710000D01*
D14*
%TO.C,J1*%
X148590000Y-78370000D02*
X136490000Y-78370000D01*
X148590000Y-78620000D02*
X150590000Y-78620000D01*
X150590000Y-84220000D02*
X150590000Y-78620000D01*
X148590000Y-84220000D02*
X150590000Y-84220000D01*
X148590000Y-84470000D02*
X148590000Y-78370000D01*
X148590000Y-84470000D02*
X136490000Y-84470000D01*
X136490000Y-84470000D02*
X136490000Y-78370000D01*
%TD*%
%LPC*%
D13*
%TO.C,*%
X127230000Y-72970000D02*
X129770000Y-72970000D01*
%TD*%
D15*
%TO.C,S8*%
X63500000Y-43500000D03*
D16*
X58000000Y-43500000D03*
D15*
X52500000Y-43500000D03*
D17*
X63000000Y-47300000D03*
X53000000Y-47300000D03*
X58000000Y-49400000D03*
X58000000Y-49400000D03*
%TD*%
D15*
%TO.C,S20*%
X115938462Y-86226324D03*
D16*
X120602727Y-89140880D03*
D15*
X125266992Y-92055436D03*
D17*
X118376180Y-83268701D03*
X126856661Y-88567894D03*
X123729251Y-84137396D03*
X123729251Y-84137396D03*
%TD*%
D15*
%TO.C,S10*%
X81500000Y-55740000D03*
D16*
X76000000Y-55740000D03*
D15*
X70500000Y-55740000D03*
D17*
X81000000Y-59540000D03*
X71000000Y-59540000D03*
X76000000Y-61640000D03*
X76000000Y-61640000D03*
%TD*%
D15*
%TO.C,S13*%
X99500000Y-60500000D03*
D16*
X94000000Y-60500000D03*
D15*
X88500000Y-60500000D03*
D17*
X99000000Y-64300000D03*
X89000000Y-64300000D03*
X94000000Y-66400000D03*
X94000000Y-66400000D03*
%TD*%
D15*
%TO.C,S4*%
X45500000Y-73070000D03*
D16*
X40000000Y-73070000D03*
D15*
X34500000Y-73070000D03*
D17*
X45000000Y-76870000D03*
X35000000Y-76870000D03*
X40000000Y-78970000D03*
X40000000Y-78970000D03*
%TD*%
D18*
%TO.C,*%
X125840000Y-23460000D03*
X143740000Y-23440000D03*
D19*
X125840000Y-26000000D03*
X143740000Y-25980000D03*
X125840000Y-28540000D03*
X143740000Y-28520000D03*
X125840000Y-31080000D03*
X143740000Y-31060000D03*
X125840000Y-33620000D03*
X143740000Y-33600000D03*
X125840000Y-36160000D03*
X143740000Y-36140000D03*
X125840000Y-38700000D03*
X143740000Y-38680000D03*
X125840000Y-41240000D03*
X143740000Y-41220000D03*
X125840000Y-43780000D03*
X143740000Y-43760000D03*
X125840000Y-46320000D03*
X143740000Y-46300000D03*
X125840000Y-48860000D03*
X143740000Y-48840000D03*
X125840000Y-51400000D03*
X143740000Y-51380000D03*
X125840000Y-53940000D03*
X143740000Y-53920000D03*
X125840000Y-56480000D03*
X143740000Y-56460000D03*
X125840000Y-59020000D03*
X143740000Y-59000000D03*
X125840000Y-61560000D03*
X143740000Y-61540000D03*
X125840000Y-64100000D03*
X143740000Y-64080000D03*
X125840000Y-66640000D03*
X143740000Y-66620000D03*
X125840000Y-69180000D03*
X143740000Y-69160000D03*
X125840000Y-71720000D03*
X143740000Y-71700000D03*
X128500000Y-71700000D03*
X141080000Y-71720000D03*
X128500000Y-69160000D03*
X141080000Y-69180000D03*
X128500000Y-66620000D03*
X141080000Y-66640000D03*
X128500000Y-64080000D03*
X141080000Y-64100000D03*
X128500000Y-61540000D03*
X141080000Y-61560000D03*
X128500000Y-59000000D03*
X141080000Y-59020000D03*
X128500000Y-56460000D03*
X141080000Y-56480000D03*
X128500000Y-53920000D03*
X141080000Y-53940000D03*
X128500000Y-51380000D03*
X141080000Y-51400000D03*
X128500000Y-48840000D03*
X141080000Y-48860000D03*
X128500000Y-46300000D03*
X141080000Y-46320000D03*
X128500000Y-43760000D03*
X141080000Y-43780000D03*
X128500000Y-41220000D03*
X141080000Y-41240000D03*
X128500000Y-38680000D03*
X141080000Y-38700000D03*
X128500000Y-36140000D03*
X141080000Y-36160000D03*
X128500000Y-33600000D03*
X141080000Y-33620000D03*
X128500000Y-31060000D03*
X141080000Y-31080000D03*
X128500000Y-28520000D03*
X141080000Y-28540000D03*
X128500000Y-25980000D03*
X141080000Y-26000000D03*
X128500000Y-23440000D03*
X141080000Y-23460000D03*
%TD*%
D15*
%TO.C,S21*%
X132306591Y-104520659D03*
D16*
X136127212Y-100564290D03*
D15*
X139947833Y-96607921D03*
D17*
X129920429Y-101521287D03*
X136867013Y-94327889D03*
X131883107Y-96465806D03*
X131883107Y-96465806D03*
%TD*%
D15*
%TO.C,S5*%
X45500000Y-56070000D03*
D16*
X40000000Y-56070000D03*
D15*
X34500000Y-56070000D03*
D17*
X45000000Y-59870000D03*
X35000000Y-59870000D03*
X40000000Y-61970000D03*
X40000000Y-61970000D03*
%TD*%
D15*
%TO.C,S19*%
X96337408Y-79476495D03*
D16*
X101650000Y-80900000D03*
D15*
X106962592Y-82323505D03*
D17*
X97803883Y-75935387D03*
X107463142Y-78523577D03*
X103177032Y-75201038D03*
X103177032Y-75201038D03*
%TD*%
D15*
%TO.C,S15*%
X99500000Y-26500000D03*
D16*
X94000000Y-26500000D03*
D15*
X88500000Y-26500000D03*
D17*
X99000000Y-30300000D03*
X89000000Y-30300000D03*
X94000000Y-32400000D03*
X94000000Y-32400000D03*
%TD*%
D15*
%TO.C,S1*%
X27500000Y-73070000D03*
D16*
X22000000Y-73070000D03*
D15*
X16500000Y-73070000D03*
D17*
X27000000Y-76870000D03*
X17000000Y-76870000D03*
X22000000Y-78970000D03*
X22000000Y-78970000D03*
%TD*%
D15*
%TO.C,S18*%
X117500000Y-29360000D03*
D16*
X112000000Y-29360000D03*
D15*
X106500000Y-29360000D03*
D17*
X117000000Y-33160000D03*
X107000000Y-33160000D03*
X112000000Y-35260000D03*
X112000000Y-35260000D03*
%TD*%
D20*
%TO.C,J1*%
X146990000Y-79320000D03*
X139990000Y-79320000D03*
X146990000Y-81420000D03*
X139990000Y-81420000D03*
D21*
X137290000Y-79120000D03*
X137290000Y-81620000D03*
X138390000Y-77020000D03*
X138390000Y-83720000D03*
X142390000Y-77020000D03*
X145390000Y-83720000D03*
X145390000Y-77020000D03*
X142390000Y-83720000D03*
%TD*%
D15*
%TO.C,S11*%
X81500000Y-38740000D03*
D16*
X76000000Y-38740000D03*
D15*
X70500000Y-38740000D03*
D17*
X81000000Y-42540000D03*
X71000000Y-42540000D03*
X76000000Y-44640000D03*
X76000000Y-44640000D03*
%TD*%
D15*
%TO.C,S9*%
X63500000Y-26500000D03*
D16*
X58000000Y-26500000D03*
D15*
X52500000Y-26500000D03*
D17*
X63000000Y-30300000D03*
X53000000Y-30300000D03*
X58000000Y-32400000D03*
X58000000Y-32400000D03*
%TD*%
D15*
%TO.C,S6*%
X45500000Y-39070000D03*
D16*
X40000000Y-39070000D03*
D15*
X34500000Y-39070000D03*
D17*
X45000000Y-42870000D03*
X35000000Y-42870000D03*
X40000000Y-44970000D03*
X40000000Y-44970000D03*
%TD*%
D15*
%TO.C,S14*%
X99500000Y-43500000D03*
D16*
X94000000Y-43500000D03*
D15*
X88500000Y-43500000D03*
D17*
X99000000Y-47300000D03*
X89000000Y-47300000D03*
X94000000Y-49400000D03*
X94000000Y-49400000D03*
%TD*%
D15*
%TO.C,S12*%
X81500000Y-21740000D03*
D16*
X76000000Y-21740000D03*
D15*
X70500000Y-21740000D03*
D17*
X81000000Y-25540000D03*
X71000000Y-25540000D03*
X76000000Y-27640000D03*
X76000000Y-27640000D03*
%TD*%
D15*
%TO.C,S16*%
X117500000Y-63360000D03*
D16*
X112000000Y-63360000D03*
D15*
X106500000Y-63360000D03*
D17*
X117000000Y-67160000D03*
X107000000Y-67160000D03*
X112000000Y-69260000D03*
X112000000Y-69260000D03*
%TD*%
D15*
%TO.C,S3*%
X27500000Y-39070000D03*
D16*
X22000000Y-39070000D03*
D15*
X16500000Y-39070000D03*
D17*
X27000000Y-42870000D03*
X17000000Y-42870000D03*
X22000000Y-44970000D03*
X22000000Y-44970000D03*
%TD*%
D15*
%TO.C,S2*%
X27500000Y-56070000D03*
D16*
X22000000Y-56070000D03*
D15*
X16500000Y-56070000D03*
D17*
X27000000Y-59870000D03*
X17000000Y-59870000D03*
X22000000Y-61970000D03*
X22000000Y-61970000D03*
%TD*%
D15*
%TO.C,S17*%
X117500000Y-46360000D03*
D16*
X112000000Y-46360000D03*
D15*
X106500000Y-46360000D03*
D17*
X117000000Y-50160000D03*
X107000000Y-50160000D03*
X112000000Y-52260000D03*
X112000000Y-52260000D03*
%TD*%
D15*
%TO.C,S7*%
X63500000Y-60500000D03*
D16*
X58000000Y-60500000D03*
D15*
X52500000Y-60500000D03*
D17*
X63000000Y-64300000D03*
X53000000Y-64300000D03*
X58000000Y-66400000D03*
X58000000Y-66400000D03*
%TD*%
%LPD*%
M02*
