%TF.GenerationSoftware,KiCad,Pcbnew,7.0.5*%
%TF.CreationDate,2023-06-08T16:22:02-03:00*%
%TF.ProjectId,2kalypcb_microcontroller_trrs,326b616c-7970-4636-925f-6d6963726f63,v1.0.0*%
%TF.SameCoordinates,Original*%
%TF.FileFunction,Legend,Bot*%
%TF.FilePolarity,Positive*%
%FSLAX46Y46*%
G04 Gerber Fmt 4.6, Leading zero omitted, Abs format (unit mm)*
G04 Created by KiCad (PCBNEW 7.0.5) date 2023-06-08 16:22:02*
%MOMM*%
%LPD*%
G01*
G04 APERTURE LIST*
%ADD10C,0.250000*%
%ADD11C,0.200000*%
%ADD12C,0.120000*%
%ADD13C,0.150000*%
%ADD14C,1.701800*%
%ADD15C,3.429000*%
%ADD16C,2.032000*%
%ADD17R,1.700000X1.700000*%
%ADD18C,1.700000*%
%ADD19C,0.800000*%
%ADD20O,2.000000X1.600000*%
G04 APERTURE END LIST*
D10*
G36*
X136551174Y-66072592D02*
G01*
X136551174Y-65586182D01*
X134941492Y-65586182D01*
X136551174Y-64076517D01*
X136551174Y-63509752D01*
X135068865Y-64899738D01*
X132994999Y-63468719D01*
X132994999Y-64052581D01*
X134751715Y-65217742D01*
X134367033Y-65586182D01*
X132994999Y-65586182D01*
X132994999Y-66072592D01*
X136551174Y-66072592D01*
G37*
G36*
X133021526Y-60781885D02*
G01*
X133062218Y-60797543D01*
X133103992Y-60812059D01*
X133146848Y-60825433D01*
X133190786Y-60837664D01*
X133235806Y-60848754D01*
X133281908Y-60858702D01*
X133329091Y-60867507D01*
X133377357Y-60875171D01*
X133426704Y-60881693D01*
X133477134Y-60887072D01*
X133510927Y-60890074D01*
X133560916Y-60894214D01*
X133610063Y-60897918D01*
X133658369Y-60901186D01*
X133705833Y-60904019D01*
X133752456Y-60906416D01*
X133798237Y-60908377D01*
X133843177Y-60909902D01*
X133887275Y-60910991D01*
X133930532Y-60911645D01*
X133972947Y-60911863D01*
X134519196Y-60911863D01*
X134562847Y-60912010D01*
X134605108Y-60912450D01*
X134645981Y-60913185D01*
X134685464Y-60914214D01*
X134723559Y-60915536D01*
X134760264Y-60917152D01*
X134795580Y-60919062D01*
X134845949Y-60922478D01*
X134893193Y-60926555D01*
X134937311Y-60931294D01*
X134978304Y-60936693D01*
X135016171Y-60942754D01*
X135050913Y-60949476D01*
X135081824Y-60956849D01*
X135126701Y-60969512D01*
X135169790Y-60984098D01*
X135211091Y-61000607D01*
X135250604Y-61019040D01*
X135288328Y-61039396D01*
X135324264Y-61061675D01*
X135358412Y-61085878D01*
X135390772Y-61112004D01*
X135421344Y-61140054D01*
X135450128Y-61170027D01*
X135468497Y-61190891D01*
X135494811Y-61223088D01*
X135519638Y-61256367D01*
X135542976Y-61290728D01*
X135564828Y-61326171D01*
X135585191Y-61362696D01*
X135604067Y-61400303D01*
X135621456Y-61438991D01*
X135637356Y-61478762D01*
X135651770Y-61519614D01*
X135664695Y-61561549D01*
X135672666Y-61589812D01*
X135683658Y-61632408D01*
X135693493Y-61675244D01*
X135702171Y-61718320D01*
X135709691Y-61761637D01*
X135716055Y-61805194D01*
X135721262Y-61848992D01*
X135725312Y-61893030D01*
X135728204Y-61937309D01*
X135729940Y-61981828D01*
X135730518Y-62026587D01*
X135730311Y-62055829D01*
X135729224Y-62099554D01*
X135727206Y-62143114D01*
X135724256Y-62186508D01*
X135720374Y-62229737D01*
X135715560Y-62272801D01*
X135709815Y-62315700D01*
X135703138Y-62358433D01*
X135695530Y-62401001D01*
X135686989Y-62443404D01*
X135677518Y-62485642D01*
X135670782Y-62513728D01*
X135660266Y-62555795D01*
X135649254Y-62597787D01*
X135637746Y-62639704D01*
X135625743Y-62681546D01*
X135613243Y-62723312D01*
X135600247Y-62765004D01*
X135586756Y-62806620D01*
X135572769Y-62848161D01*
X135558285Y-62889627D01*
X135543306Y-62931018D01*
X135102204Y-62931018D01*
X135117063Y-62905466D01*
X135138577Y-62866688D01*
X135159158Y-62827368D01*
X135178808Y-62787507D01*
X135197526Y-62747105D01*
X135215313Y-62706163D01*
X135232168Y-62664679D01*
X135248091Y-62622655D01*
X135263082Y-62580089D01*
X135277142Y-62536983D01*
X135290271Y-62493335D01*
X135298448Y-62463916D01*
X135309726Y-62419663D01*
X135319816Y-62375259D01*
X135328720Y-62330705D01*
X135336436Y-62286001D01*
X135342965Y-62241146D01*
X135348307Y-62196141D01*
X135352462Y-62150986D01*
X135355430Y-62105681D01*
X135357210Y-62060225D01*
X135357804Y-62014619D01*
X135357290Y-61975951D01*
X135355747Y-61938377D01*
X135353176Y-61901899D01*
X135349576Y-61866516D01*
X135342248Y-61815496D01*
X135332606Y-61766940D01*
X135320650Y-61720848D01*
X135306379Y-61677221D01*
X135289795Y-61636058D01*
X135270896Y-61597359D01*
X135249684Y-61561125D01*
X135226157Y-61527355D01*
X135217730Y-61516678D01*
X135190066Y-61486683D01*
X135158826Y-61459737D01*
X135124009Y-61435842D01*
X135085616Y-61414998D01*
X135043646Y-61397204D01*
X134998101Y-61382460D01*
X134948978Y-61370767D01*
X134914244Y-61364666D01*
X134877919Y-61359921D01*
X134840005Y-61356532D01*
X134800502Y-61354498D01*
X134759409Y-61353820D01*
X134691021Y-61353820D01*
X134691021Y-61945376D01*
X134690714Y-61983494D01*
X134689792Y-62021338D01*
X134688256Y-62058908D01*
X134686105Y-62096204D01*
X134683341Y-62133226D01*
X134679961Y-62169975D01*
X134675967Y-62206450D01*
X134671359Y-62242650D01*
X134666137Y-62278577D01*
X134660300Y-62314231D01*
X134653848Y-62349610D01*
X134646782Y-62384716D01*
X134639102Y-62419548D01*
X134630807Y-62454106D01*
X134621898Y-62488390D01*
X134612375Y-62522400D01*
X134607347Y-62539183D01*
X134596614Y-62572148D01*
X134584980Y-62604312D01*
X134565839Y-62651055D01*
X134544669Y-62695995D01*
X134521470Y-62739131D01*
X134496243Y-62780465D01*
X134468987Y-62819995D01*
X134439702Y-62857722D01*
X134408389Y-62893645D01*
X134375048Y-62927766D01*
X134339677Y-62960083D01*
X134314934Y-62980269D01*
X134275589Y-63008106D01*
X134233569Y-63033013D01*
X134188875Y-63054989D01*
X134141506Y-63074035D01*
X134108441Y-63085105D01*
X134074186Y-63094872D01*
X134038744Y-63103337D01*
X134002112Y-63110500D01*
X133964292Y-63116360D01*
X133925282Y-63120919D01*
X133885084Y-63124174D01*
X133843698Y-63126128D01*
X133801122Y-63126779D01*
X133749841Y-63125794D01*
X133700076Y-63122839D01*
X133651827Y-63117913D01*
X133605094Y-63111018D01*
X133559877Y-63102152D01*
X133516176Y-63091316D01*
X133473992Y-63078510D01*
X133433323Y-63063734D01*
X133394170Y-63046987D01*
X133356533Y-63028271D01*
X133320412Y-63007584D01*
X133285808Y-62984927D01*
X133252719Y-62960300D01*
X133221146Y-62933703D01*
X133191090Y-62905136D01*
X133162549Y-62874598D01*
X133135635Y-62842545D01*
X133110457Y-62809429D01*
X133087015Y-62775252D01*
X133065310Y-62740013D01*
X133045341Y-62703712D01*
X133027109Y-62666349D01*
X133010613Y-62627924D01*
X132995853Y-62588437D01*
X132982830Y-62547889D01*
X132971544Y-62506278D01*
X132961993Y-62463606D01*
X132954179Y-62419871D01*
X132948102Y-62375075D01*
X132943761Y-62329217D01*
X132941156Y-62282297D01*
X132940288Y-62234316D01*
X132940746Y-62199801D01*
X132942118Y-62165500D01*
X132944993Y-62126605D01*
X133313003Y-62126605D01*
X133313474Y-62157439D01*
X133315945Y-62202314D01*
X133320536Y-62245536D01*
X133327245Y-62287104D01*
X133336074Y-62327020D01*
X133347021Y-62365283D01*
X133360086Y-62401893D01*
X133375271Y-62436850D01*
X133392574Y-62470154D01*
X133411996Y-62501805D01*
X133433537Y-62531803D01*
X133449084Y-62550540D01*
X133474209Y-62576378D01*
X133501497Y-62599497D01*
X133530949Y-62619896D01*
X133562565Y-62637574D01*
X133596345Y-62652533D01*
X133632289Y-62664773D01*
X133670397Y-62674292D01*
X133710668Y-62681092D01*
X133753103Y-62685171D01*
X133797703Y-62686531D01*
X133837185Y-62685517D01*
X133874849Y-62682474D01*
X133910696Y-62677403D01*
X133944723Y-62670302D01*
X133987266Y-62657680D01*
X134026575Y-62641451D01*
X134062653Y-62621616D01*
X134095498Y-62598174D01*
X134125110Y-62571127D01*
X134152185Y-62541100D01*
X134176989Y-62509150D01*
X134199522Y-62475276D01*
X134219785Y-62439480D01*
X134237777Y-62401759D01*
X134253498Y-62362116D01*
X134266948Y-62320549D01*
X134278128Y-62277058D01*
X134282994Y-62254695D01*
X134289703Y-62221038D01*
X134295706Y-62187245D01*
X134301003Y-62153318D01*
X134305594Y-62119255D01*
X134309478Y-62085057D01*
X134312656Y-62050723D01*
X134315128Y-62016255D01*
X134316894Y-61981651D01*
X134317953Y-61946912D01*
X134318306Y-61912037D01*
X134318306Y-61353820D01*
X134224273Y-61353820D01*
X134194580Y-61354131D01*
X134150492Y-61355761D01*
X134106945Y-61358789D01*
X134063938Y-61363214D01*
X134021473Y-61369037D01*
X133979549Y-61376257D01*
X133938165Y-61384875D01*
X133897323Y-61394891D01*
X133857021Y-61406303D01*
X133817261Y-61419113D01*
X133778041Y-61433321D01*
X133752382Y-61443513D01*
X133715046Y-61460152D01*
X133679092Y-61478415D01*
X133644521Y-61498300D01*
X133611332Y-61519808D01*
X133579526Y-61542939D01*
X133549102Y-61567693D01*
X133520060Y-61594070D01*
X133492401Y-61622069D01*
X133466124Y-61651692D01*
X133441230Y-61682937D01*
X133425703Y-61704706D01*
X133404290Y-61738849D01*
X133385131Y-61774780D01*
X133368226Y-61812500D01*
X133353575Y-61852007D01*
X133341178Y-61893303D01*
X133331035Y-61936387D01*
X133323146Y-61981259D01*
X133317511Y-62027919D01*
X133314130Y-62076368D01*
X133313003Y-62126605D01*
X132944993Y-62126605D01*
X132945892Y-62114450D01*
X132951725Y-62063880D01*
X132959617Y-62013791D01*
X132969567Y-61964183D01*
X132981576Y-61915056D01*
X132995643Y-61866410D01*
X133011769Y-61818244D01*
X133029954Y-61770560D01*
X133043221Y-61739037D01*
X133057403Y-61707728D01*
X133064843Y-61692180D01*
X133088618Y-61646820D01*
X133114571Y-61603383D01*
X133142704Y-61561869D01*
X133173015Y-61522279D01*
X133205505Y-61484612D01*
X133240174Y-61448869D01*
X133277022Y-61415049D01*
X133316049Y-61383152D01*
X133357255Y-61353179D01*
X133385935Y-61334265D01*
X133415585Y-61316207D01*
X133382847Y-61311436D01*
X133343177Y-61305105D01*
X133303086Y-61298112D01*
X133269355Y-61291780D01*
X133235332Y-61284989D01*
X133201017Y-61277739D01*
X133180614Y-61273100D01*
X133147108Y-61264702D01*
X133107728Y-61253522D01*
X133069250Y-61241140D01*
X133031674Y-61227556D01*
X132994999Y-61212770D01*
X132994999Y-60770812D01*
X133021526Y-60781885D01*
G37*
G36*
X132994999Y-58540509D02*
G01*
X132995977Y-58589182D01*
X132998912Y-58636466D01*
X133003804Y-58682361D01*
X133010653Y-58726866D01*
X133019459Y-58769983D01*
X133030221Y-58811710D01*
X133042940Y-58852048D01*
X133057616Y-58890997D01*
X133074249Y-58928557D01*
X133092839Y-58964728D01*
X133113385Y-58999510D01*
X133135888Y-59032903D01*
X133160349Y-59064906D01*
X133186765Y-59095520D01*
X133215139Y-59124745D01*
X133245470Y-59152581D01*
X133277683Y-59178771D01*
X133311493Y-59203271D01*
X133346899Y-59226082D01*
X133383902Y-59247203D01*
X133422500Y-59266634D01*
X133462695Y-59284375D01*
X133504486Y-59300427D01*
X133547873Y-59314789D01*
X133592856Y-59327462D01*
X133639435Y-59338445D01*
X133687611Y-59347738D01*
X133737382Y-59355341D01*
X133788750Y-59361255D01*
X133841714Y-59365479D01*
X133896274Y-59368014D01*
X133952430Y-59368859D01*
X136342591Y-59368859D01*
X136342591Y-60074110D01*
X136715306Y-60074110D01*
X136715306Y-58928611D01*
X133961834Y-58928611D01*
X133926147Y-58928180D01*
X133891536Y-58926888D01*
X133841635Y-58923334D01*
X133794153Y-58917842D01*
X133749091Y-58910411D01*
X133706447Y-58901042D01*
X133666224Y-58889734D01*
X133628419Y-58876488D01*
X133593034Y-58861304D01*
X133560068Y-58844181D01*
X133529521Y-58825120D01*
X133519876Y-58818335D01*
X133492683Y-58796779D01*
X133460586Y-58765304D01*
X133433244Y-58730702D01*
X133410658Y-58692975D01*
X133392826Y-58652123D01*
X133382573Y-58619432D01*
X133374994Y-58584984D01*
X133370091Y-58548777D01*
X133367862Y-58510812D01*
X133367713Y-58497766D01*
X133367713Y-57983147D01*
X132994999Y-57983147D01*
X132994999Y-58540509D01*
G37*
G36*
X132328216Y-57117184D02*
G01*
X132328216Y-56856454D01*
X132329177Y-56820851D01*
X132333451Y-56775811D01*
X132341145Y-56733550D01*
X132352258Y-56694066D01*
X132366791Y-56657361D01*
X132384742Y-56623434D01*
X132406114Y-56592286D01*
X132430904Y-56563915D01*
X132437636Y-56557257D01*
X132473273Y-56527190D01*
X132506943Y-56503606D01*
X132546563Y-56479135D01*
X132592134Y-56453778D01*
X132625820Y-56436380D01*
X132662151Y-56418588D01*
X132701127Y-56400403D01*
X132742748Y-56381823D01*
X132787013Y-56362850D01*
X132833923Y-56343482D01*
X132883477Y-56323720D01*
X132935677Y-56303564D01*
X132990521Y-56283015D01*
X133018934Y-56272592D01*
X135675808Y-57308670D01*
X135675808Y-56841922D01*
X133558345Y-56047766D01*
X135675808Y-55265579D01*
X135675808Y-54798831D01*
X133847284Y-55504937D01*
X133807068Y-55520449D01*
X133767843Y-55535571D01*
X133729610Y-55550302D01*
X133692369Y-55564643D01*
X133656120Y-55578592D01*
X133620862Y-55592151D01*
X133586596Y-55605320D01*
X133553322Y-55618097D01*
X133521040Y-55630484D01*
X133479540Y-55646393D01*
X133469440Y-55650261D01*
X133435901Y-55663805D01*
X133402429Y-55677354D01*
X133393359Y-55681036D01*
X133359710Y-55693383D01*
X133325115Y-55705725D01*
X133322406Y-55706681D01*
X133290065Y-55718051D01*
X133256860Y-55729672D01*
X133222458Y-55741681D01*
X133188999Y-55753342D01*
X133183065Y-55755408D01*
X133106129Y-55784473D01*
X133073575Y-55796080D01*
X133025682Y-55813341D01*
X132978917Y-55830421D01*
X132933278Y-55847321D01*
X132888767Y-55864040D01*
X132845382Y-55880580D01*
X132803125Y-55896939D01*
X132761994Y-55913118D01*
X132721991Y-55929116D01*
X132683114Y-55944934D01*
X132645365Y-55960572D01*
X132608883Y-55975749D01*
X132574128Y-55990505D01*
X132541102Y-56004840D01*
X132509804Y-56018755D01*
X132470762Y-56036653D01*
X132434791Y-56053804D01*
X132401893Y-56070206D01*
X132365090Y-56089657D01*
X132345313Y-56100767D01*
X132298109Y-56128500D01*
X132253950Y-56158055D01*
X132212837Y-56189434D01*
X132174770Y-56222637D01*
X132139748Y-56257662D01*
X132107771Y-56294511D01*
X132078840Y-56333183D01*
X132052954Y-56373678D01*
X132030113Y-56415996D01*
X132010318Y-56460138D01*
X131993568Y-56506103D01*
X131979864Y-56553891D01*
X131969205Y-56603502D01*
X131961592Y-56654937D01*
X131957024Y-56708195D01*
X131955501Y-56763276D01*
X131955501Y-57117184D01*
X132328216Y-57117184D01*
G37*
G36*
X134243079Y-52370202D02*
G01*
X136551174Y-52370202D01*
X136551174Y-52930129D01*
X134307193Y-54366277D01*
X133870365Y-54366277D01*
X133870365Y-52851482D01*
X134243079Y-52851482D01*
X134243079Y-53978175D01*
X136096394Y-52851482D01*
X134243079Y-52851482D01*
X133870365Y-52851482D01*
X132994999Y-52851482D01*
X132994999Y-52370202D01*
X133870365Y-52370202D01*
X133870365Y-51894050D01*
X134243079Y-51894050D01*
X134243079Y-52370202D01*
G37*
G36*
X133316422Y-51299075D02*
G01*
X133353927Y-51296211D01*
X133388650Y-51287621D01*
X133420592Y-51273304D01*
X133449752Y-51253260D01*
X133465166Y-51239235D01*
X133492567Y-51213154D01*
X133520915Y-51186201D01*
X133550209Y-51158377D01*
X133580451Y-51129681D01*
X133611638Y-51100114D01*
X133643773Y-51069675D01*
X133676854Y-51038364D01*
X133710882Y-51006182D01*
X133745856Y-50973128D01*
X133781778Y-50939203D01*
X133806251Y-50916102D01*
X133831175Y-50892600D01*
X133856367Y-50868898D01*
X133881825Y-50844996D01*
X133907551Y-50820893D01*
X133933544Y-50796590D01*
X133959804Y-50772087D01*
X133986331Y-50747383D01*
X134013125Y-50722479D01*
X134040186Y-50697374D01*
X134067515Y-50672069D01*
X134095110Y-50646564D01*
X134122973Y-50620858D01*
X134151103Y-50594952D01*
X134179500Y-50568846D01*
X134208164Y-50542539D01*
X134237095Y-50516032D01*
X134269661Y-50486285D01*
X134300678Y-50457949D01*
X134330148Y-50431026D01*
X134358070Y-50405516D01*
X134384444Y-50381418D01*
X134417203Y-50351485D01*
X134447209Y-50324063D01*
X134474464Y-50299153D01*
X134504664Y-50271545D01*
X134531958Y-50246613D01*
X134562011Y-50219285D01*
X134589119Y-50194782D01*
X134617023Y-50169765D01*
X134644004Y-50145882D01*
X134672299Y-50121224D01*
X134701406Y-50096294D01*
X134727960Y-50073908D01*
X134748296Y-50056978D01*
X134776741Y-50033707D01*
X134804375Y-50011337D01*
X134831198Y-49989869D01*
X134865699Y-49962647D01*
X134898758Y-49937028D01*
X134930374Y-49913012D01*
X134960547Y-49890599D01*
X134989278Y-49869789D01*
X135009880Y-49855233D01*
X135043498Y-49832146D01*
X135077032Y-49810437D01*
X135110483Y-49790105D01*
X135143851Y-49771151D01*
X135177135Y-49753574D01*
X135210336Y-49737374D01*
X135223592Y-49731280D01*
X135258687Y-49716308D01*
X135293767Y-49702810D01*
X135328832Y-49690783D01*
X135363881Y-49680229D01*
X135398916Y-49671148D01*
X135433936Y-49663540D01*
X135468940Y-49657404D01*
X135503930Y-49652741D01*
X135538904Y-49649550D01*
X135573864Y-49647832D01*
X135597162Y-49647505D01*
X135633844Y-49648189D01*
X135669517Y-49650243D01*
X135704182Y-49653666D01*
X135754288Y-49661367D01*
X135802125Y-49672148D01*
X135847694Y-49686011D01*
X135890993Y-49702953D01*
X135932023Y-49722976D01*
X135970785Y-49746080D01*
X136007277Y-49772264D01*
X136041500Y-49801528D01*
X136063055Y-49822749D01*
X136093456Y-49857085D01*
X136120868Y-49893735D01*
X136145288Y-49932699D01*
X136166719Y-49973977D01*
X136185159Y-50017570D01*
X136200609Y-50063476D01*
X136213069Y-50111697D01*
X136222538Y-50162231D01*
X136227190Y-50197207D01*
X136230512Y-50233211D01*
X136232506Y-50270243D01*
X136233170Y-50308304D01*
X136231885Y-50362249D01*
X136228028Y-50417017D01*
X136221600Y-50472605D01*
X136212600Y-50529015D01*
X136201030Y-50586247D01*
X136186888Y-50644300D01*
X136170175Y-50703174D01*
X136150891Y-50762870D01*
X136129035Y-50823388D01*
X136104609Y-50884726D01*
X136077611Y-50946887D01*
X136063148Y-50978275D01*
X136048042Y-51009868D01*
X136032293Y-51041667D01*
X136015901Y-51073672D01*
X135998867Y-51105881D01*
X135981190Y-51138296D01*
X135962870Y-51170917D01*
X135943907Y-51203742D01*
X135924301Y-51236774D01*
X135904053Y-51270010D01*
X136386188Y-51270010D01*
X136406079Y-51224344D01*
X136425037Y-51178708D01*
X136443064Y-51133102D01*
X136460160Y-51087526D01*
X136476323Y-51041980D01*
X136491555Y-50996465D01*
X136505856Y-50950979D01*
X136519224Y-50905523D01*
X136531661Y-50860098D01*
X136543167Y-50814702D01*
X136550320Y-50784455D01*
X136560250Y-50740094D01*
X136569203Y-50695808D01*
X136577180Y-50651597D01*
X136584180Y-50607461D01*
X136590203Y-50563401D01*
X136595249Y-50519415D01*
X136599319Y-50475505D01*
X136602412Y-50431669D01*
X136604528Y-50387909D01*
X136605668Y-50344224D01*
X136605885Y-50315143D01*
X136605291Y-50268778D01*
X136603511Y-50222969D01*
X136600543Y-50177716D01*
X136596388Y-50133019D01*
X136591046Y-50088879D01*
X136584517Y-50045294D01*
X136576801Y-50002265D01*
X136567897Y-49959792D01*
X136557807Y-49917875D01*
X136546529Y-49876514D01*
X136538352Y-49849249D01*
X136525173Y-49808858D01*
X136510642Y-49769428D01*
X136494759Y-49730959D01*
X136477524Y-49693453D01*
X136458936Y-49656908D01*
X136438995Y-49621325D01*
X136417703Y-49586704D01*
X136395057Y-49553044D01*
X136371060Y-49520346D01*
X136345710Y-49488609D01*
X136328059Y-49467986D01*
X136303680Y-49441715D01*
X136278310Y-49416435D01*
X136251948Y-49392147D01*
X136224595Y-49368850D01*
X136196250Y-49346546D01*
X136166913Y-49325233D01*
X136136584Y-49304912D01*
X136105263Y-49285583D01*
X136072951Y-49267245D01*
X136039647Y-49249899D01*
X136016893Y-49238886D01*
X135982026Y-49223457D01*
X135946348Y-49209544D01*
X135909858Y-49197150D01*
X135872557Y-49186273D01*
X135834444Y-49176914D01*
X135795520Y-49169073D01*
X135755785Y-49162749D01*
X135715238Y-49157943D01*
X135673880Y-49154655D01*
X135631710Y-49152884D01*
X135603146Y-49152547D01*
X135559045Y-49153471D01*
X135514899Y-49156243D01*
X135470708Y-49160864D01*
X135426472Y-49167333D01*
X135382191Y-49175650D01*
X135337865Y-49185816D01*
X135293494Y-49197829D01*
X135249078Y-49211692D01*
X135204616Y-49227402D01*
X135160110Y-49244961D01*
X135130414Y-49257693D01*
X135093139Y-49274986D01*
X135056115Y-49293740D01*
X135019342Y-49313955D01*
X134982819Y-49335631D01*
X134953780Y-49354024D01*
X134924902Y-49373352D01*
X134896185Y-49393614D01*
X134867107Y-49414865D01*
X134836719Y-49437586D01*
X134805023Y-49461775D01*
X134772018Y-49487434D01*
X134737704Y-49514562D01*
X134702080Y-49543160D01*
X134674504Y-49565572D01*
X134646191Y-49588811D01*
X134626907Y-49604762D01*
X134600861Y-49627048D01*
X134573479Y-49650627D01*
X134544761Y-49675500D01*
X134514708Y-49701667D01*
X134483319Y-49729129D01*
X134457246Y-49752029D01*
X134437130Y-49769748D01*
X134409748Y-49794165D01*
X134381458Y-49819543D01*
X134352260Y-49845883D01*
X134322153Y-49873185D01*
X134291138Y-49901449D01*
X134259215Y-49930674D01*
X134226383Y-49960861D01*
X134201163Y-49984132D01*
X134192643Y-49992009D01*
X134162381Y-50020259D01*
X134133038Y-50047842D01*
X134104612Y-50074756D01*
X134077105Y-50101003D01*
X134050516Y-50126581D01*
X134024846Y-50151492D01*
X134014835Y-50161270D01*
X133990091Y-50185788D01*
X133965013Y-50210724D01*
X133939601Y-50236077D01*
X133913855Y-50261848D01*
X133887776Y-50288036D01*
X133861362Y-50314642D01*
X133850703Y-50325401D01*
X133823526Y-50352762D01*
X133794888Y-50381417D01*
X133764788Y-50411366D01*
X133739657Y-50436257D01*
X133713591Y-50461976D01*
X133686590Y-50488523D01*
X133658653Y-50515898D01*
X133651523Y-50522871D01*
X133622218Y-50551415D01*
X133591149Y-50581482D01*
X133558318Y-50613071D01*
X133532537Y-50637762D01*
X133505765Y-50663310D01*
X133478000Y-50689715D01*
X133449244Y-50716975D01*
X133419497Y-50745093D01*
X133388757Y-50774067D01*
X133367713Y-50793859D01*
X133367713Y-49128611D01*
X132994999Y-49128611D01*
X132994999Y-51299075D01*
X133316422Y-51299075D01*
G37*
G36*
X136551174Y-45630565D02*
G01*
X136551174Y-45131332D01*
X133395068Y-44293579D01*
X136551174Y-43454117D01*
X136551174Y-42954030D01*
X132994999Y-43999511D01*
X132994999Y-44585083D01*
X136551174Y-45630565D01*
G37*
G36*
X133367713Y-42173551D02*
G01*
X133367713Y-41422138D01*
X135922005Y-41422138D01*
X135275738Y-41992323D01*
X135595452Y-42254762D01*
X136551174Y-41427267D01*
X136551174Y-40944277D01*
X133367713Y-40944277D01*
X133367713Y-40202267D01*
X132994999Y-40202267D01*
X132994999Y-42173551D01*
X133367713Y-42173551D01*
G37*
D11*
X46566041Y-33834176D02*
X46566041Y-32564176D01*
X46021755Y-33834176D02*
X46021755Y-33168938D01*
X46021755Y-33168938D02*
X46082231Y-33047985D01*
X46082231Y-33047985D02*
X46203183Y-32987509D01*
X46203183Y-32987509D02*
X46384612Y-32987509D01*
X46384612Y-32987509D02*
X46505564Y-33047985D01*
X46505564Y-33047985D02*
X46566041Y-33108461D01*
X45598421Y-32987509D02*
X45114612Y-32987509D01*
X45416993Y-32564176D02*
X45416993Y-33652747D01*
X45416993Y-33652747D02*
X45356516Y-33773700D01*
X45356516Y-33773700D02*
X45235564Y-33834176D01*
X45235564Y-33834176D02*
X45114612Y-33834176D01*
X44872707Y-32987509D02*
X44388898Y-32987509D01*
X44691279Y-32564176D02*
X44691279Y-33652747D01*
X44691279Y-33652747D02*
X44630802Y-33773700D01*
X44630802Y-33773700D02*
X44509850Y-33834176D01*
X44509850Y-33834176D02*
X44388898Y-33834176D01*
X43965565Y-32987509D02*
X43965565Y-34257509D01*
X43965565Y-33047985D02*
X43844612Y-32987509D01*
X43844612Y-32987509D02*
X43602707Y-32987509D01*
X43602707Y-32987509D02*
X43481755Y-33047985D01*
X43481755Y-33047985D02*
X43421279Y-33108461D01*
X43421279Y-33108461D02*
X43360803Y-33229414D01*
X43360803Y-33229414D02*
X43360803Y-33592271D01*
X43360803Y-33592271D02*
X43421279Y-33713223D01*
X43421279Y-33713223D02*
X43481755Y-33773700D01*
X43481755Y-33773700D02*
X43602707Y-33834176D01*
X43602707Y-33834176D02*
X43844612Y-33834176D01*
X43844612Y-33834176D02*
X43965565Y-33773700D01*
X42876993Y-33773700D02*
X42756040Y-33834176D01*
X42756040Y-33834176D02*
X42514136Y-33834176D01*
X42514136Y-33834176D02*
X42393183Y-33773700D01*
X42393183Y-33773700D02*
X42332707Y-33652747D01*
X42332707Y-33652747D02*
X42332707Y-33592271D01*
X42332707Y-33592271D02*
X42393183Y-33471319D01*
X42393183Y-33471319D02*
X42514136Y-33410842D01*
X42514136Y-33410842D02*
X42695564Y-33410842D01*
X42695564Y-33410842D02*
X42816517Y-33350366D01*
X42816517Y-33350366D02*
X42876993Y-33229414D01*
X42876993Y-33229414D02*
X42876993Y-33168938D01*
X42876993Y-33168938D02*
X42816517Y-33047985D01*
X42816517Y-33047985D02*
X42695564Y-32987509D01*
X42695564Y-32987509D02*
X42514136Y-32987509D01*
X42514136Y-32987509D02*
X42393183Y-33047985D01*
X41788422Y-33713223D02*
X41727945Y-33773700D01*
X41727945Y-33773700D02*
X41788422Y-33834176D01*
X41788422Y-33834176D02*
X41848898Y-33773700D01*
X41848898Y-33773700D02*
X41788422Y-33713223D01*
X41788422Y-33713223D02*
X41788422Y-33834176D01*
X41788422Y-33047985D02*
X41727945Y-33108461D01*
X41727945Y-33108461D02*
X41788422Y-33168938D01*
X41788422Y-33168938D02*
X41848898Y-33108461D01*
X41848898Y-33108461D02*
X41788422Y-33047985D01*
X41788422Y-33047985D02*
X41788422Y-33168938D01*
X40276517Y-32503700D02*
X41365088Y-34136557D01*
X38946041Y-32503700D02*
X40034612Y-34136557D01*
X37978422Y-32987509D02*
X37978422Y-34015604D01*
X37978422Y-34015604D02*
X38038898Y-34136557D01*
X38038898Y-34136557D02*
X38099374Y-34197033D01*
X38099374Y-34197033D02*
X38220327Y-34257509D01*
X38220327Y-34257509D02*
X38401755Y-34257509D01*
X38401755Y-34257509D02*
X38522708Y-34197033D01*
X37978422Y-33773700D02*
X38099374Y-33834176D01*
X38099374Y-33834176D02*
X38341279Y-33834176D01*
X38341279Y-33834176D02*
X38462231Y-33773700D01*
X38462231Y-33773700D02*
X38522708Y-33713223D01*
X38522708Y-33713223D02*
X38583184Y-33592271D01*
X38583184Y-33592271D02*
X38583184Y-33229414D01*
X38583184Y-33229414D02*
X38522708Y-33108461D01*
X38522708Y-33108461D02*
X38462231Y-33047985D01*
X38462231Y-33047985D02*
X38341279Y-32987509D01*
X38341279Y-32987509D02*
X38099374Y-32987509D01*
X38099374Y-32987509D02*
X37978422Y-33047985D01*
X37373660Y-33834176D02*
X37373660Y-32987509D01*
X37373660Y-32564176D02*
X37434136Y-32624652D01*
X37434136Y-32624652D02*
X37373660Y-32685128D01*
X37373660Y-32685128D02*
X37313183Y-32624652D01*
X37313183Y-32624652D02*
X37373660Y-32564176D01*
X37373660Y-32564176D02*
X37373660Y-32685128D01*
X36950326Y-32987509D02*
X36466517Y-32987509D01*
X36768898Y-32564176D02*
X36768898Y-33652747D01*
X36768898Y-33652747D02*
X36708421Y-33773700D01*
X36708421Y-33773700D02*
X36587469Y-33834176D01*
X36587469Y-33834176D02*
X36466517Y-33834176D01*
X36043184Y-33834176D02*
X36043184Y-32564176D01*
X35498898Y-33834176D02*
X35498898Y-33168938D01*
X35498898Y-33168938D02*
X35559374Y-33047985D01*
X35559374Y-33047985D02*
X35680326Y-32987509D01*
X35680326Y-32987509D02*
X35861755Y-32987509D01*
X35861755Y-32987509D02*
X35982707Y-33047985D01*
X35982707Y-33047985D02*
X36043184Y-33108461D01*
X34349850Y-32987509D02*
X34349850Y-33834176D01*
X34894136Y-32987509D02*
X34894136Y-33652747D01*
X34894136Y-33652747D02*
X34833659Y-33773700D01*
X34833659Y-33773700D02*
X34712707Y-33834176D01*
X34712707Y-33834176D02*
X34531278Y-33834176D01*
X34531278Y-33834176D02*
X34410326Y-33773700D01*
X34410326Y-33773700D02*
X34349850Y-33713223D01*
X33745088Y-33834176D02*
X33745088Y-32564176D01*
X33745088Y-33047985D02*
X33624135Y-32987509D01*
X33624135Y-32987509D02*
X33382230Y-32987509D01*
X33382230Y-32987509D02*
X33261278Y-33047985D01*
X33261278Y-33047985D02*
X33200802Y-33108461D01*
X33200802Y-33108461D02*
X33140326Y-33229414D01*
X33140326Y-33229414D02*
X33140326Y-33592271D01*
X33140326Y-33592271D02*
X33200802Y-33713223D01*
X33200802Y-33713223D02*
X33261278Y-33773700D01*
X33261278Y-33773700D02*
X33382230Y-33834176D01*
X33382230Y-33834176D02*
X33624135Y-33834176D01*
X33624135Y-33834176D02*
X33745088Y-33773700D01*
X32596040Y-33713223D02*
X32535563Y-33773700D01*
X32535563Y-33773700D02*
X32596040Y-33834176D01*
X32596040Y-33834176D02*
X32656516Y-33773700D01*
X32656516Y-33773700D02*
X32596040Y-33713223D01*
X32596040Y-33713223D02*
X32596040Y-33834176D01*
X31446992Y-33773700D02*
X31567944Y-33834176D01*
X31567944Y-33834176D02*
X31809849Y-33834176D01*
X31809849Y-33834176D02*
X31930801Y-33773700D01*
X31930801Y-33773700D02*
X31991278Y-33713223D01*
X31991278Y-33713223D02*
X32051754Y-33592271D01*
X32051754Y-33592271D02*
X32051754Y-33229414D01*
X32051754Y-33229414D02*
X31991278Y-33108461D01*
X31991278Y-33108461D02*
X31930801Y-33047985D01*
X31930801Y-33047985D02*
X31809849Y-32987509D01*
X31809849Y-32987509D02*
X31567944Y-32987509D01*
X31567944Y-32987509D02*
X31446992Y-33047985D01*
X30721278Y-33834176D02*
X30842230Y-33773700D01*
X30842230Y-33773700D02*
X30902707Y-33713223D01*
X30902707Y-33713223D02*
X30963183Y-33592271D01*
X30963183Y-33592271D02*
X30963183Y-33229414D01*
X30963183Y-33229414D02*
X30902707Y-33108461D01*
X30902707Y-33108461D02*
X30842230Y-33047985D01*
X30842230Y-33047985D02*
X30721278Y-32987509D01*
X30721278Y-32987509D02*
X30539849Y-32987509D01*
X30539849Y-32987509D02*
X30418897Y-33047985D01*
X30418897Y-33047985D02*
X30358421Y-33108461D01*
X30358421Y-33108461D02*
X30297945Y-33229414D01*
X30297945Y-33229414D02*
X30297945Y-33592271D01*
X30297945Y-33592271D02*
X30358421Y-33713223D01*
X30358421Y-33713223D02*
X30418897Y-33773700D01*
X30418897Y-33773700D02*
X30539849Y-33834176D01*
X30539849Y-33834176D02*
X30721278Y-33834176D01*
X29753659Y-33834176D02*
X29753659Y-32987509D01*
X29753659Y-33108461D02*
X29693182Y-33047985D01*
X29693182Y-33047985D02*
X29572230Y-32987509D01*
X29572230Y-32987509D02*
X29390801Y-32987509D01*
X29390801Y-32987509D02*
X29269849Y-33047985D01*
X29269849Y-33047985D02*
X29209373Y-33168938D01*
X29209373Y-33168938D02*
X29209373Y-33834176D01*
X29209373Y-33168938D02*
X29148897Y-33047985D01*
X29148897Y-33047985D02*
X29027944Y-32987509D01*
X29027944Y-32987509D02*
X28846516Y-32987509D01*
X28846516Y-32987509D02*
X28725563Y-33047985D01*
X28725563Y-33047985D02*
X28665087Y-33168938D01*
X28665087Y-33168938D02*
X28665087Y-33834176D01*
X27153183Y-32503700D02*
X28241754Y-34136557D01*
X26729850Y-33834176D02*
X26729850Y-32564176D01*
X26729850Y-32564176D02*
X26427469Y-32564176D01*
X26427469Y-32564176D02*
X26246040Y-32624652D01*
X26246040Y-32624652D02*
X26125088Y-32745604D01*
X26125088Y-32745604D02*
X26064611Y-32866557D01*
X26064611Y-32866557D02*
X26004135Y-33108461D01*
X26004135Y-33108461D02*
X26004135Y-33289890D01*
X26004135Y-33289890D02*
X26064611Y-33531795D01*
X26064611Y-33531795D02*
X26125088Y-33652747D01*
X26125088Y-33652747D02*
X26246040Y-33773700D01*
X26246040Y-33773700D02*
X26427469Y-33834176D01*
X26427469Y-33834176D02*
X26729850Y-33834176D01*
X25580802Y-32987509D02*
X25338897Y-33834176D01*
X25338897Y-33834176D02*
X25096992Y-33229414D01*
X25096992Y-33229414D02*
X24855088Y-33834176D01*
X24855088Y-33834176D02*
X24613183Y-32987509D01*
X23585088Y-33773700D02*
X23706040Y-33834176D01*
X23706040Y-33834176D02*
X23947945Y-33834176D01*
X23947945Y-33834176D02*
X24068897Y-33773700D01*
X24068897Y-33773700D02*
X24129374Y-33713223D01*
X24129374Y-33713223D02*
X24189850Y-33592271D01*
X24189850Y-33592271D02*
X24189850Y-33229414D01*
X24189850Y-33229414D02*
X24129374Y-33108461D01*
X24129374Y-33108461D02*
X24068897Y-33047985D01*
X24068897Y-33047985D02*
X23947945Y-32987509D01*
X23947945Y-32987509D02*
X23706040Y-32987509D01*
X23706040Y-32987509D02*
X23585088Y-33047985D01*
X23222231Y-32987509D02*
X22738422Y-32987509D01*
X23040803Y-32564176D02*
X23040803Y-33652747D01*
X23040803Y-33652747D02*
X22980326Y-33773700D01*
X22980326Y-33773700D02*
X22859374Y-33834176D01*
X22859374Y-33834176D02*
X22738422Y-33834176D01*
X22133660Y-33834176D02*
X22254612Y-33773700D01*
X22254612Y-33773700D02*
X22315089Y-33713223D01*
X22315089Y-33713223D02*
X22375565Y-33592271D01*
X22375565Y-33592271D02*
X22375565Y-33229414D01*
X22375565Y-33229414D02*
X22315089Y-33108461D01*
X22315089Y-33108461D02*
X22254612Y-33047985D01*
X22254612Y-33047985D02*
X22133660Y-32987509D01*
X22133660Y-32987509D02*
X21952231Y-32987509D01*
X21952231Y-32987509D02*
X21831279Y-33047985D01*
X21831279Y-33047985D02*
X21770803Y-33108461D01*
X21770803Y-33108461D02*
X21710327Y-33229414D01*
X21710327Y-33229414D02*
X21710327Y-33592271D01*
X21710327Y-33592271D02*
X21770803Y-33713223D01*
X21770803Y-33713223D02*
X21831279Y-33773700D01*
X21831279Y-33773700D02*
X21952231Y-33834176D01*
X21952231Y-33834176D02*
X22133660Y-33834176D01*
X21166041Y-33834176D02*
X21166041Y-32987509D01*
X21166041Y-33229414D02*
X21105564Y-33108461D01*
X21105564Y-33108461D02*
X21045088Y-33047985D01*
X21045088Y-33047985D02*
X20924136Y-32987509D01*
X20924136Y-32987509D02*
X20803183Y-32987509D01*
X19472708Y-32503700D02*
X20561279Y-34136557D01*
X19049375Y-33834176D02*
X19049375Y-32564176D01*
X18323660Y-33834176D02*
X18867946Y-33108461D01*
X18323660Y-32564176D02*
X19049375Y-33289890D01*
X17235089Y-33834176D02*
X17235089Y-33168938D01*
X17235089Y-33168938D02*
X17295565Y-33047985D01*
X17295565Y-33047985D02*
X17416517Y-32987509D01*
X17416517Y-32987509D02*
X17658422Y-32987509D01*
X17658422Y-32987509D02*
X17779375Y-33047985D01*
X17235089Y-33773700D02*
X17356041Y-33834176D01*
X17356041Y-33834176D02*
X17658422Y-33834176D01*
X17658422Y-33834176D02*
X17779375Y-33773700D01*
X17779375Y-33773700D02*
X17839851Y-33652747D01*
X17839851Y-33652747D02*
X17839851Y-33531795D01*
X17839851Y-33531795D02*
X17779375Y-33410842D01*
X17779375Y-33410842D02*
X17658422Y-33350366D01*
X17658422Y-33350366D02*
X17356041Y-33350366D01*
X17356041Y-33350366D02*
X17235089Y-33289890D01*
X16448898Y-33834176D02*
X16569850Y-33773700D01*
X16569850Y-33773700D02*
X16630327Y-33652747D01*
X16630327Y-33652747D02*
X16630327Y-32564176D01*
X16086041Y-32987509D02*
X15783660Y-33834176D01*
X15481279Y-32987509D02*
X15783660Y-33834176D01*
X15783660Y-33834176D02*
X15904612Y-34136557D01*
X15904612Y-34136557D02*
X15965089Y-34197033D01*
X15965089Y-34197033D02*
X16086041Y-34257509D01*
D12*
%TO.C,*%
X124510000Y-22130000D02*
X125840000Y-22130000D01*
X124510000Y-23460000D02*
X124510000Y-22130000D01*
X124510000Y-24730000D02*
X127170000Y-24730000D01*
X124510000Y-73050000D02*
X124510000Y-24730000D01*
X127170000Y-24730000D02*
X127170000Y-73050000D01*
X127170000Y-73050000D02*
X124510000Y-73050000D01*
X139810000Y-22190000D02*
X142350000Y-22190000D01*
X139810000Y-72990000D02*
X139810000Y-22190000D01*
X142350000Y-22190000D02*
X142350000Y-72990000D01*
X142350000Y-72990000D02*
X139810000Y-72990000D01*
D13*
%TO.C,J1*%
X148590000Y-76270000D02*
X136490000Y-76270000D01*
X148590000Y-76270000D02*
X148590000Y-82370000D01*
X136490000Y-76270000D02*
X136490000Y-82370000D01*
X150590000Y-76520000D02*
X150590000Y-82120000D01*
X148590000Y-76520000D02*
X150590000Y-76520000D01*
X148590000Y-82120000D02*
X150590000Y-82120000D01*
X148590000Y-82370000D02*
X136490000Y-82370000D01*
%TO.C,G\u002A\u002A\u002A*%
G36*
X81806538Y-77961433D02*
G01*
X82314939Y-79858809D01*
X81809073Y-79994355D01*
X81303206Y-80129902D01*
X81524359Y-80958473D01*
X81565388Y-81112758D01*
X81618688Y-81315897D01*
X81659311Y-81475225D01*
X81688170Y-81594775D01*
X81706172Y-81678581D01*
X81714229Y-81730680D01*
X81713248Y-81755103D01*
X81704139Y-81755887D01*
X81700626Y-81753295D01*
X81657520Y-81723025D01*
X81582181Y-81671220D01*
X81484164Y-81604423D01*
X81373025Y-81529178D01*
X81083284Y-81333624D01*
X80440030Y-78907166D01*
X79796777Y-76480708D01*
X80547457Y-76272383D01*
X81298138Y-76064058D01*
X81806538Y-77961433D01*
G37*
G36*
X76514759Y-71287344D02*
G01*
X76532789Y-71352508D01*
X76584002Y-71539652D01*
X76629551Y-71709116D01*
X76667733Y-71854354D01*
X76696842Y-71968818D01*
X76715173Y-72045963D01*
X76721021Y-72079242D01*
X76720988Y-72079437D01*
X76710946Y-72086712D01*
X76681869Y-72098681D01*
X76631782Y-72115892D01*
X76558711Y-72138889D01*
X76460682Y-72168217D01*
X76335721Y-72204422D01*
X76181854Y-72248050D01*
X75997106Y-72299646D01*
X75779503Y-72359755D01*
X75527072Y-72428922D01*
X75237837Y-72507693D01*
X74909826Y-72596615D01*
X74541063Y-72696231D01*
X74129574Y-72807087D01*
X73673388Y-72929730D01*
X73170527Y-73064703D01*
X72619017Y-73212553D01*
X68520707Y-74310692D01*
X68307200Y-73513877D01*
X68093694Y-72717061D01*
X72199249Y-71623840D01*
X76304804Y-70530618D01*
X76514759Y-71287344D01*
G37*
G36*
X76590909Y-66631025D02*
G01*
X76696691Y-66647502D01*
X76816250Y-66671314D01*
X76937614Y-66700340D01*
X77048810Y-66732455D01*
X77221190Y-66798942D01*
X77438613Y-66907800D01*
X77648287Y-67037312D01*
X77829285Y-67175596D01*
X77840826Y-67185635D01*
X77910943Y-67247676D01*
X77973824Y-67306614D01*
X78032057Y-67366597D01*
X78088228Y-67431771D01*
X78144927Y-67506278D01*
X78204739Y-67594266D01*
X78270252Y-67699880D01*
X78344055Y-67827265D01*
X78428733Y-67980567D01*
X78526875Y-68163932D01*
X78641069Y-68381504D01*
X78773899Y-68637430D01*
X78927956Y-68935853D01*
X79009753Y-69094461D01*
X79132667Y-69332653D01*
X79248061Y-69556100D01*
X79353584Y-69760256D01*
X79446883Y-69940576D01*
X79525606Y-70092519D01*
X79587403Y-70211538D01*
X79629920Y-70293088D01*
X79650807Y-70332626D01*
X79699450Y-70421754D01*
X79126158Y-70568088D01*
X78552867Y-70714422D01*
X77501569Y-68678272D01*
X77365455Y-68414261D01*
X77215326Y-68122132D01*
X77074089Y-67846315D01*
X76943436Y-67590165D01*
X76825059Y-67357032D01*
X76720649Y-67150270D01*
X76631901Y-66973231D01*
X76560505Y-66829268D01*
X76508154Y-66721731D01*
X76476539Y-66653976D01*
X76467354Y-66629354D01*
X76468563Y-66628570D01*
X76510875Y-66624007D01*
X76590909Y-66631025D01*
G37*
G36*
X81723147Y-65225860D02*
G01*
X81728111Y-65274503D01*
X81735218Y-65368734D01*
X81744228Y-65503980D01*
X81754905Y-65675664D01*
X81767007Y-65879211D01*
X81780298Y-66110047D01*
X81794537Y-66363595D01*
X81809487Y-66635281D01*
X81824909Y-66920531D01*
X81840562Y-67214767D01*
X81856210Y-67513415D01*
X81871614Y-67811900D01*
X81886533Y-68105647D01*
X81900731Y-68390081D01*
X81913967Y-68660626D01*
X81926004Y-68912707D01*
X81936601Y-69141750D01*
X81945522Y-69343177D01*
X81952526Y-69512416D01*
X81957375Y-69644890D01*
X81959832Y-69736025D01*
X81959655Y-69781243D01*
X81953417Y-69788126D01*
X81907481Y-69809904D01*
X81824226Y-69840007D01*
X81712383Y-69876038D01*
X81580679Y-69915597D01*
X81437845Y-69956288D01*
X81292610Y-69995713D01*
X81153704Y-70031473D01*
X81029856Y-70061170D01*
X80929798Y-70082408D01*
X80862255Y-70092787D01*
X80835961Y-70089910D01*
X80835692Y-70088799D01*
X80830857Y-70045841D01*
X80824455Y-69956659D01*
X80816722Y-69826971D01*
X80807898Y-69662501D01*
X80798221Y-69468966D01*
X80787930Y-69252089D01*
X80777263Y-69017592D01*
X80766459Y-68771192D01*
X80755758Y-68518614D01*
X80745396Y-68265574D01*
X80735613Y-68017797D01*
X80726648Y-67781002D01*
X80718738Y-67560909D01*
X80712123Y-67363240D01*
X80707041Y-67193714D01*
X80703732Y-67058053D01*
X80702433Y-66961978D01*
X80703382Y-66911209D01*
X80710940Y-66845250D01*
X80743906Y-66673480D01*
X80794897Y-66482358D01*
X80858731Y-66290085D01*
X80930220Y-66114866D01*
X80958536Y-66057517D01*
X81061975Y-65886667D01*
X81193518Y-65708654D01*
X81341291Y-65538715D01*
X81493419Y-65392088D01*
X81553980Y-65340880D01*
X81632963Y-65277776D01*
X81692039Y-65235091D01*
X81721624Y-65220048D01*
X81723147Y-65225860D01*
G37*
G36*
X78050999Y-76413079D02*
G01*
X78195087Y-76923434D01*
X78346323Y-76882911D01*
X78497559Y-76842387D01*
X78993134Y-78691896D01*
X78996986Y-78706272D01*
X79090274Y-79054638D01*
X79170782Y-79355916D01*
X79239320Y-79613458D01*
X79296700Y-79830618D01*
X79343735Y-80010744D01*
X79381234Y-80157190D01*
X79410009Y-80273309D01*
X79430873Y-80362451D01*
X79444636Y-80427968D01*
X79452111Y-80473212D01*
X79454106Y-80501536D01*
X79451437Y-80516289D01*
X79444912Y-80520827D01*
X79435344Y-80518498D01*
X79414851Y-80509394D01*
X79348271Y-80478879D01*
X79255186Y-80435598D01*
X79149020Y-80385777D01*
X79127501Y-80375710D01*
X78799782Y-80238241D01*
X78427362Y-80108390D01*
X78017104Y-79987871D01*
X77575867Y-79878395D01*
X77110512Y-79781676D01*
X76627901Y-79699428D01*
X76134893Y-79633360D01*
X76117228Y-79631327D01*
X75508875Y-79573340D01*
X74867528Y-79534015D01*
X74203510Y-79513123D01*
X73527144Y-79510434D01*
X72848754Y-79525721D01*
X72178663Y-79558756D01*
X71527194Y-79609308D01*
X70904671Y-79677150D01*
X70321417Y-79762055D01*
X69995240Y-79816415D01*
X69777678Y-78977828D01*
X69560117Y-78139241D01*
X69817442Y-78062565D01*
X70074768Y-77985890D01*
X70169888Y-78340881D01*
X70201492Y-78457384D01*
X70232772Y-78565771D01*
X70257661Y-78638859D01*
X70279674Y-78685304D01*
X70302331Y-78713767D01*
X70329148Y-78732904D01*
X70334238Y-78735752D01*
X70428148Y-78760178D01*
X70518205Y-78737305D01*
X70589621Y-78670671D01*
X70594055Y-78663065D01*
X70603092Y-78631958D01*
X70602779Y-78584804D01*
X70591950Y-78513000D01*
X70569437Y-78407944D01*
X70534076Y-78261029D01*
X70445383Y-77902035D01*
X70837430Y-77796986D01*
X71229476Y-77691938D01*
X71332163Y-78047182D01*
X71363597Y-78154735D01*
X71397920Y-78265919D01*
X71424854Y-78341049D01*
X71447994Y-78388557D01*
X71470935Y-78416873D01*
X71497273Y-78434431D01*
X71526864Y-78446154D01*
X71614881Y-78450304D01*
X71695742Y-78417414D01*
X71749894Y-78353731D01*
X71755598Y-78339333D01*
X71763139Y-78302071D01*
X71761447Y-78252124D01*
X71749124Y-78180107D01*
X71724765Y-78076636D01*
X71686973Y-77932324D01*
X71592841Y-77581020D01*
X71984887Y-77475971D01*
X72376933Y-77370923D01*
X72464597Y-77698089D01*
X72467808Y-77710012D01*
X72504283Y-77837808D01*
X72539803Y-77950022D01*
X72570448Y-78034912D01*
X72592301Y-78080738D01*
X72613612Y-78103562D01*
X72687443Y-78138285D01*
X72772476Y-78138582D01*
X72846933Y-78102583D01*
X72872922Y-78076091D01*
X72901156Y-78026896D01*
X72912294Y-77962398D01*
X72906261Y-77874073D01*
X72882978Y-77753400D01*
X72842372Y-77591853D01*
X72756334Y-77269263D01*
X73148380Y-77164215D01*
X73540426Y-77059166D01*
X73637646Y-77421999D01*
X73674280Y-77556847D01*
X73704599Y-77661099D01*
X73728716Y-77730830D01*
X73750060Y-77774476D01*
X73772054Y-77800476D01*
X73798126Y-77817265D01*
X73828133Y-77829167D01*
X73916454Y-77833522D01*
X73997389Y-77800755D01*
X74051586Y-77736995D01*
X74057290Y-77722597D01*
X74064830Y-77685335D01*
X74063139Y-77635387D01*
X74050815Y-77563371D01*
X74026457Y-77459900D01*
X73988664Y-77315588D01*
X73894532Y-76964284D01*
X74286578Y-76859235D01*
X74678625Y-76754186D01*
X74766412Y-77081809D01*
X74800556Y-77202599D01*
X74839606Y-77324981D01*
X74873944Y-77415767D01*
X74900170Y-77465209D01*
X74954951Y-77507841D01*
X75036625Y-77524639D01*
X75118918Y-77505851D01*
X75185926Y-77455760D01*
X75221742Y-77378648D01*
X75220776Y-77333027D01*
X75206899Y-77242619D01*
X75181253Y-77121539D01*
X75145811Y-76980149D01*
X75058025Y-76652527D01*
X75450072Y-76547478D01*
X75842118Y-76442430D01*
X75936250Y-76793734D01*
X75954303Y-76860081D01*
X75998361Y-77008182D01*
X76038146Y-77112812D01*
X76077847Y-77179781D01*
X76121649Y-77214898D01*
X76173739Y-77223969D01*
X76238304Y-77212805D01*
X76263329Y-77205373D01*
X76317071Y-77179447D01*
X76350155Y-77139622D01*
X76363305Y-77078773D01*
X76357240Y-76989778D01*
X76332683Y-76865512D01*
X76290356Y-76698851D01*
X76196224Y-76347547D01*
X76588270Y-76242499D01*
X76980317Y-76137450D01*
X77067100Y-76459840D01*
X77096180Y-76564537D01*
X77137931Y-76696617D01*
X77176845Y-76789226D01*
X77217116Y-76849784D01*
X77262941Y-76885711D01*
X77318515Y-76904426D01*
X77333028Y-76906635D01*
X77417527Y-76892423D01*
X77486774Y-76840164D01*
X77523434Y-76761912D01*
X77522446Y-76716105D01*
X77508520Y-76625557D01*
X77482807Y-76504271D01*
X77447274Y-76362557D01*
X77359258Y-76034079D01*
X77633085Y-75968401D01*
X77906912Y-75902725D01*
X78050999Y-76413079D01*
G37*
G36*
X83341637Y-71853228D02*
G01*
X84005913Y-74332339D01*
X84203676Y-75070401D01*
X85566155Y-80155242D01*
X85406303Y-80481775D01*
X85387477Y-80519961D01*
X85329610Y-80633920D01*
X85279940Y-80726769D01*
X85243242Y-80789784D01*
X85224294Y-80814244D01*
X85219112Y-80807246D01*
X85200526Y-80758482D01*
X85171446Y-80668263D01*
X85133625Y-80542487D01*
X85088819Y-80387051D01*
X85038780Y-80207854D01*
X84985265Y-80010794D01*
X84768390Y-79201408D01*
X84275171Y-79333566D01*
X83781951Y-79465724D01*
X83226249Y-77391816D01*
X82670548Y-75317910D01*
X80563146Y-75875654D01*
X78455744Y-76433398D01*
X78198312Y-75526441D01*
X78140874Y-75324603D01*
X78085869Y-75132358D01*
X78036898Y-74962271D01*
X77995601Y-74819986D01*
X77963616Y-74711155D01*
X77942585Y-74641426D01*
X77934148Y-74616448D01*
X77919632Y-74608584D01*
X77877020Y-74584314D01*
X77852520Y-74574254D01*
X77773711Y-74572127D01*
X77693165Y-74600082D01*
X77634775Y-74651489D01*
X77634264Y-74652285D01*
X77622468Y-74677997D01*
X77618493Y-74712668D01*
X77623655Y-74764576D01*
X77639269Y-74842002D01*
X77666653Y-74953223D01*
X77707123Y-75106517D01*
X77814509Y-75507289D01*
X77473050Y-75598783D01*
X77131590Y-75690277D01*
X77030844Y-75314288D01*
X76991172Y-75168456D01*
X76960216Y-75062538D01*
X76935090Y-74990045D01*
X76912308Y-74942235D01*
X76888380Y-74910368D01*
X76859818Y-74885702D01*
X76810098Y-74858525D01*
X76721754Y-74849597D01*
X76641859Y-74884505D01*
X76585264Y-74959269D01*
X76572979Y-74994439D01*
X76568081Y-75033889D01*
X76572130Y-75086451D01*
X76586473Y-75161439D01*
X76612462Y-75268166D01*
X76651445Y-75415948D01*
X76752191Y-75791936D01*
X76425647Y-75879434D01*
X76099104Y-75966930D01*
X75986161Y-75579791D01*
X75948532Y-75453831D01*
X75903118Y-75316605D01*
X75862723Y-75220552D01*
X75823287Y-75159943D01*
X75780755Y-75129044D01*
X75731066Y-75122125D01*
X75670165Y-75133454D01*
X75618575Y-75150817D01*
X75570646Y-75181179D01*
X75542610Y-75226975D01*
X75533819Y-75295053D01*
X75543627Y-75392252D01*
X75571386Y-75525418D01*
X75616447Y-75701391D01*
X75715164Y-76069807D01*
X75373704Y-76161301D01*
X75032245Y-76252794D01*
X74926036Y-75856416D01*
X74899956Y-75760062D01*
X74863478Y-75631388D01*
X74834690Y-75541311D01*
X74810703Y-75482067D01*
X74788626Y-75445886D01*
X74765572Y-75425000D01*
X74727539Y-75409154D01*
X74644879Y-75409046D01*
X74563593Y-75441180D01*
X74505073Y-75499444D01*
X74502466Y-75504071D01*
X74490489Y-75532845D01*
X74486288Y-75568649D01*
X74491154Y-75620156D01*
X74506380Y-75696038D01*
X74533262Y-75804973D01*
X74573090Y-75955631D01*
X74678138Y-76347677D01*
X74336679Y-76439171D01*
X73995219Y-76530665D01*
X73833314Y-75926428D01*
X73799776Y-75801672D01*
X73755029Y-75637864D01*
X73719815Y-75514365D01*
X73691923Y-75424764D01*
X73669140Y-75362647D01*
X73649255Y-75321603D01*
X73630055Y-75295220D01*
X73609329Y-75277085D01*
X73582961Y-75261999D01*
X73499087Y-75248924D01*
X73414722Y-75274480D01*
X73349692Y-75334297D01*
X73348480Y-75336191D01*
X73337482Y-75357391D01*
X73331751Y-75383581D01*
X73332502Y-75421266D01*
X73340954Y-75476950D01*
X73358325Y-75557139D01*
X73385830Y-75668338D01*
X73424689Y-75817050D01*
X73476119Y-76009781D01*
X73641113Y-76625547D01*
X73299653Y-76717041D01*
X72958193Y-76808535D01*
X72857447Y-76432547D01*
X72817775Y-76286714D01*
X72786818Y-76180796D01*
X72761693Y-76108303D01*
X72738910Y-76060494D01*
X72714983Y-76028627D01*
X72686422Y-76003960D01*
X72646671Y-75981357D01*
X72558878Y-75968266D01*
X72476414Y-75996320D01*
X72416662Y-76061793D01*
X72406504Y-76086838D01*
X72401014Y-76124460D01*
X72404329Y-76177828D01*
X72417638Y-76255652D01*
X72442125Y-76366641D01*
X72478978Y-76519509D01*
X72575232Y-76911149D01*
X72249981Y-76998300D01*
X71924728Y-77085451D01*
X71812266Y-76698154D01*
X71775137Y-76571875D01*
X71739201Y-76456249D01*
X71710786Y-76376446D01*
X71686563Y-76324327D01*
X71663201Y-76291759D01*
X71637375Y-76270602D01*
X71597106Y-76251628D01*
X71510038Y-76246958D01*
X71430311Y-76283369D01*
X71374840Y-76355398D01*
X71362556Y-76390567D01*
X71357658Y-76430017D01*
X71361707Y-76482579D01*
X71376050Y-76557567D01*
X71402039Y-76664295D01*
X71441022Y-76812076D01*
X71541768Y-77188065D01*
X71200308Y-77279559D01*
X70858847Y-77371053D01*
X70752638Y-76974675D01*
X70726558Y-76878320D01*
X70690081Y-76749646D01*
X70661293Y-76659569D01*
X70637306Y-76600325D01*
X70615230Y-76564144D01*
X70592176Y-76543258D01*
X70554143Y-76527412D01*
X70471482Y-76527304D01*
X70390195Y-76559439D01*
X70331677Y-76617702D01*
X70329070Y-76622329D01*
X70317093Y-76651104D01*
X70312890Y-76686907D01*
X70317756Y-76738414D01*
X70332983Y-76814297D01*
X70359864Y-76923231D01*
X70399692Y-77073889D01*
X70504741Y-77465936D01*
X70163281Y-77557429D01*
X69821822Y-77648923D01*
X69718281Y-77262505D01*
X69713071Y-77243102D01*
X69670978Y-77091074D01*
X69637480Y-76981519D01*
X69609752Y-76906711D01*
X69584969Y-76858922D01*
X69560304Y-76830422D01*
X69514188Y-76806672D01*
X69433327Y-76804121D01*
X69353673Y-76835342D01*
X69294650Y-76895572D01*
X69292043Y-76900200D01*
X69280066Y-76928974D01*
X69275865Y-76964778D01*
X69280730Y-77016284D01*
X69295957Y-77092167D01*
X69318117Y-77181965D01*
X69322838Y-77201101D01*
X69362667Y-77351760D01*
X69467715Y-77743806D01*
X69278540Y-77794495D01*
X69089363Y-77845185D01*
X69219756Y-78359210D01*
X69350151Y-78873234D01*
X67676211Y-79328735D01*
X66002271Y-79784237D01*
X65476133Y-77820663D01*
X66150515Y-77820663D01*
X66162660Y-77921089D01*
X66192167Y-78057847D01*
X66238491Y-78237660D01*
X66244576Y-78260344D01*
X66284011Y-78404711D01*
X66314431Y-78507967D01*
X66339206Y-78578646D01*
X66361705Y-78625281D01*
X66385297Y-78656407D01*
X66413351Y-78680556D01*
X66426260Y-78689467D01*
X66512671Y-78717081D01*
X66598815Y-78696709D01*
X66672871Y-78630624D01*
X66689255Y-78605820D01*
X66699024Y-78579089D01*
X66700743Y-78542674D01*
X66693284Y-78488399D01*
X66675515Y-78408094D01*
X66646306Y-78293588D01*
X66604526Y-78136706D01*
X66588509Y-78077122D01*
X66549104Y-77933721D01*
X66518604Y-77830678D01*
X66494074Y-77760229D01*
X66472581Y-77714611D01*
X66451193Y-77686059D01*
X66426974Y-77666810D01*
X66375354Y-77645859D01*
X66286345Y-77647841D01*
X66223703Y-77670144D01*
X66180491Y-77701915D01*
X66156276Y-77749846D01*
X66150515Y-77820663D01*
X65476133Y-77820663D01*
X65408905Y-77569763D01*
X67182609Y-77569763D01*
X67190576Y-77625372D01*
X67209094Y-77705037D01*
X67239631Y-77817468D01*
X67279230Y-77955920D01*
X67283652Y-77971381D01*
X67318296Y-78090855D01*
X67354234Y-78210962D01*
X67381788Y-78294314D01*
X67404312Y-78348686D01*
X67425158Y-78381854D01*
X67447679Y-78401598D01*
X67475229Y-78415692D01*
X67563769Y-78435753D01*
X67649254Y-78410179D01*
X67716493Y-78336269D01*
X67729432Y-78312648D01*
X67740765Y-78282124D01*
X67744064Y-78245034D01*
X67738188Y-78192581D01*
X67721997Y-78115974D01*
X67694351Y-78006419D01*
X67654110Y-77855118D01*
X67642503Y-77811896D01*
X67603729Y-77670470D01*
X67573732Y-77569319D01*
X67549236Y-77500074D01*
X67526966Y-77454365D01*
X67503645Y-77423826D01*
X67475999Y-77400089D01*
X67424874Y-77372275D01*
X67336732Y-77363993D01*
X67257184Y-77399924D01*
X67200369Y-77476165D01*
X67192471Y-77495863D01*
X67183728Y-77529498D01*
X67182609Y-77569763D01*
X65408905Y-77569763D01*
X65341434Y-77317958D01*
X65199818Y-76789439D01*
X68121111Y-76789439D01*
X68124062Y-76831202D01*
X68134780Y-76892452D01*
X68154460Y-76979396D01*
X68184301Y-77098245D01*
X68225498Y-77255209D01*
X68279250Y-77456496D01*
X68302957Y-77544879D01*
X68337328Y-77672051D01*
X68352230Y-77727188D01*
X68391094Y-77867339D01*
X68421624Y-77971348D01*
X68445897Y-78045234D01*
X68465988Y-78095012D01*
X68483976Y-78126701D01*
X68501934Y-78146319D01*
X68521940Y-78159882D01*
X68535201Y-78166802D01*
X68622822Y-78182410D01*
X68706050Y-78153586D01*
X68768333Y-78085337D01*
X68774705Y-78072988D01*
X68784035Y-78048633D01*
X68788084Y-78018851D01*
X68785654Y-77977197D01*
X68775543Y-77917222D01*
X68756555Y-77832480D01*
X68727487Y-77716525D01*
X68687140Y-77562911D01*
X68634315Y-77365190D01*
X68584046Y-77178473D01*
X68540728Y-77020775D01*
X68506531Y-76901865D01*
X68479356Y-76815573D01*
X68457105Y-76755730D01*
X68437678Y-76716168D01*
X68418978Y-76690719D01*
X68398906Y-76673213D01*
X68372538Y-76658128D01*
X68288664Y-76645053D01*
X68204299Y-76670609D01*
X68139269Y-76730426D01*
X68133714Y-76739533D01*
X68124727Y-76760953D01*
X68121111Y-76789439D01*
X65199818Y-76789439D01*
X64680597Y-74851679D01*
X66349956Y-74404376D01*
X68019315Y-73957073D01*
X68127752Y-74361766D01*
X68236189Y-74766459D01*
X70163206Y-74250116D01*
X78609729Y-74250116D01*
X78612682Y-74291879D01*
X78623400Y-74353128D01*
X78643080Y-74440072D01*
X78672920Y-74558921D01*
X78714118Y-74715885D01*
X78767870Y-74917172D01*
X78791577Y-75005555D01*
X78840850Y-75187864D01*
X78879712Y-75328014D01*
X78910242Y-75432024D01*
X78934515Y-75505909D01*
X78954608Y-75555688D01*
X78972594Y-75587377D01*
X78990554Y-75606995D01*
X79010560Y-75620557D01*
X79071717Y-75640006D01*
X79150581Y-75637257D01*
X79209891Y-75607958D01*
X79263492Y-75552784D01*
X79268321Y-75543972D01*
X79277043Y-75521248D01*
X79280468Y-75491741D01*
X79277383Y-75449201D01*
X79266581Y-75387379D01*
X79246851Y-75300026D01*
X79216979Y-75180894D01*
X79175758Y-75023731D01*
X79121976Y-74822290D01*
X79103415Y-74753097D01*
X79579647Y-74753097D01*
X79586019Y-74807262D01*
X79602669Y-74886721D01*
X79630895Y-74999850D01*
X79671990Y-75155025D01*
X79688715Y-75217249D01*
X79726901Y-75356048D01*
X79756520Y-75455321D01*
X79780766Y-75523288D01*
X79802828Y-75568169D01*
X79825903Y-75598183D01*
X79853181Y-75621550D01*
X79875040Y-75635707D01*
X79961557Y-75657962D01*
X80044724Y-75635102D01*
X80108581Y-75570326D01*
X80116870Y-75554367D01*
X80125447Y-75525347D01*
X80126395Y-75486233D01*
X80118423Y-75428959D01*
X80100238Y-75345455D01*
X80070548Y-75227649D01*
X80028060Y-75067472D01*
X80010323Y-75001505D01*
X79970852Y-74857945D01*
X79940393Y-74754917D01*
X79935813Y-74741696D01*
X80418760Y-74741696D01*
X80424380Y-74796528D01*
X80440198Y-74874893D01*
X80459220Y-74951944D01*
X80467564Y-74985745D01*
X80507827Y-75138038D01*
X80517373Y-75173601D01*
X80556390Y-75316111D01*
X80586543Y-75418038D01*
X80611142Y-75487811D01*
X80633497Y-75533862D01*
X80656918Y-75564617D01*
X80684715Y-75588507D01*
X80697625Y-75597417D01*
X80784035Y-75625031D01*
X80870179Y-75604659D01*
X80944235Y-75538574D01*
X80960620Y-75513770D01*
X80970387Y-75487040D01*
X80972108Y-75450624D01*
X80964648Y-75396350D01*
X80946880Y-75316045D01*
X80917671Y-75201538D01*
X80875889Y-75044657D01*
X80859874Y-74985073D01*
X80820468Y-74841671D01*
X80789967Y-74738628D01*
X80765438Y-74668179D01*
X80743946Y-74622562D01*
X80722557Y-74594009D01*
X80698338Y-74574760D01*
X80658010Y-74555730D01*
X80570961Y-74551036D01*
X80491252Y-74587436D01*
X80435782Y-74659476D01*
X80432728Y-74666810D01*
X80421993Y-74701442D01*
X80418760Y-74741696D01*
X79935813Y-74741696D01*
X79916164Y-74684981D01*
X79895384Y-74640693D01*
X79875268Y-74614611D01*
X79853036Y-74599294D01*
X79829847Y-74590063D01*
X79743634Y-74586283D01*
X79658818Y-74617554D01*
X79598110Y-74676954D01*
X79592566Y-74687155D01*
X79588973Y-74697158D01*
X79582260Y-74715854D01*
X79579647Y-74753097D01*
X79103415Y-74753097D01*
X79095784Y-74724651D01*
X79047094Y-74544556D01*
X79038336Y-74513001D01*
X81209511Y-74513001D01*
X81216897Y-74570194D01*
X81234525Y-74653204D01*
X81263738Y-74770223D01*
X81305876Y-74929442D01*
X81347575Y-75084150D01*
X81379666Y-75198518D01*
X81404516Y-75277428D01*
X81425232Y-75328526D01*
X81444921Y-75359452D01*
X81466691Y-75377848D01*
X81493646Y-75391360D01*
X81509372Y-75397753D01*
X81605346Y-75410478D01*
X81687136Y-75378195D01*
X81743363Y-75304843D01*
X81746418Y-75297509D01*
X81757153Y-75262877D01*
X81760385Y-75222623D01*
X81754766Y-75167790D01*
X81738946Y-75089427D01*
X81711580Y-74978574D01*
X81671319Y-74826281D01*
X81661772Y-74790717D01*
X81622756Y-74648208D01*
X81592602Y-74546281D01*
X81568003Y-74476507D01*
X81545648Y-74430457D01*
X81522227Y-74399702D01*
X81494430Y-74375812D01*
X81454605Y-74353174D01*
X81366817Y-74340114D01*
X81284391Y-74368206D01*
X81224691Y-74433724D01*
X81220102Y-74443311D01*
X81211026Y-74473438D01*
X81209511Y-74513001D01*
X79038336Y-74513001D01*
X79008750Y-74406400D01*
X78978686Y-74304206D01*
X78954832Y-74231998D01*
X78935122Y-74183800D01*
X78917486Y-74153636D01*
X78899858Y-74135529D01*
X78880168Y-74123504D01*
X78871172Y-74119263D01*
X78782749Y-74105974D01*
X78694171Y-74131926D01*
X78627888Y-74191102D01*
X78622334Y-74200209D01*
X78613345Y-74221628D01*
X78609729Y-74250116D01*
X70163206Y-74250116D01*
X70713093Y-74102774D01*
X81955128Y-74102774D01*
X81962365Y-74161193D01*
X81980126Y-74246651D01*
X82009783Y-74366897D01*
X82052703Y-74529682D01*
X82078288Y-74624722D01*
X82102109Y-74710851D01*
X82115341Y-74758691D01*
X82143981Y-74853919D01*
X82167147Y-74918088D01*
X82187782Y-74958876D01*
X82208826Y-74983964D01*
X82233220Y-75001031D01*
X82256431Y-75012380D01*
X82344497Y-75023631D01*
X82424165Y-74990332D01*
X82480015Y-74917692D01*
X82485102Y-74905182D01*
X82494651Y-74870980D01*
X82496746Y-74829939D01*
X82490040Y-74773343D01*
X82473189Y-74692476D01*
X82444846Y-74578624D01*
X82403667Y-74423074D01*
X82386672Y-74359843D01*
X82348712Y-74221797D01*
X82319488Y-74123655D01*
X82295933Y-74057514D01*
X82274980Y-74015478D01*
X82253563Y-73989644D01*
X82228614Y-73972113D01*
X82187181Y-73956003D01*
X82101065Y-73954037D01*
X82020074Y-73983133D01*
X81965794Y-74037892D01*
X81957047Y-74063648D01*
X81955128Y-74102774D01*
X70713093Y-74102774D01*
X72065893Y-73740292D01*
X78861959Y-73740292D01*
X78862981Y-73767577D01*
X78871449Y-73770557D01*
X78923081Y-73779908D01*
X79008216Y-73790887D01*
X79113639Y-73801693D01*
X79343719Y-73822639D01*
X79351668Y-73746340D01*
X79354004Y-73723585D01*
X79361849Y-73645938D01*
X79373203Y-73532725D01*
X79387095Y-73393688D01*
X79397375Y-73290562D01*
X82561070Y-73290562D01*
X82739685Y-73957163D01*
X82833654Y-74307859D01*
X82918301Y-74623764D01*
X82998991Y-74658330D01*
X83001114Y-74659229D01*
X83069908Y-74679491D01*
X83123447Y-74681168D01*
X83124608Y-74680838D01*
X83170639Y-74651530D01*
X83219810Y-74599162D01*
X83272407Y-74528882D01*
X83093792Y-73862281D01*
X82915177Y-73195680D01*
X82834486Y-73161114D01*
X82832363Y-73160215D01*
X82763570Y-73139953D01*
X82710030Y-73138276D01*
X82708869Y-73138606D01*
X82662838Y-73167914D01*
X82613668Y-73220283D01*
X82561070Y-73290562D01*
X79397375Y-73290562D01*
X79402558Y-73238570D01*
X79409493Y-73168867D01*
X81064560Y-73168867D01*
X81068079Y-73171890D01*
X81108868Y-73182901D01*
X81185231Y-73195030D01*
X81284649Y-73206156D01*
X81315639Y-73209035D01*
X81414985Y-73218264D01*
X81491087Y-73225334D01*
X81529492Y-73228902D01*
X81535876Y-73219158D01*
X81548943Y-73165446D01*
X81564830Y-73070884D01*
X81582531Y-72942399D01*
X81601037Y-72786915D01*
X81619340Y-72611361D01*
X81629997Y-72503080D01*
X81647218Y-72332436D01*
X81663008Y-72181105D01*
X81676487Y-72057293D01*
X81686774Y-71969204D01*
X81692988Y-71925046D01*
X81695848Y-71912933D01*
X81705513Y-71896276D01*
X81724760Y-71895797D01*
X81759469Y-71915253D01*
X81815525Y-71958399D01*
X81898810Y-72028993D01*
X82015207Y-72130791D01*
X82094595Y-72201137D01*
X82191806Y-72286355D01*
X82262643Y-72340625D01*
X82316258Y-72364700D01*
X82361800Y-72359332D01*
X82408418Y-72325276D01*
X82465265Y-72263285D01*
X82541488Y-72174111D01*
X82661890Y-72035366D01*
X82599821Y-71979610D01*
X82516005Y-71904657D01*
X82392012Y-71794624D01*
X82254805Y-71673604D01*
X82109633Y-71546161D01*
X81961746Y-71416856D01*
X81816394Y-71290250D01*
X81678827Y-71170906D01*
X81554295Y-71063386D01*
X81448048Y-70972251D01*
X81365336Y-70902063D01*
X81311409Y-70857385D01*
X81291516Y-70842778D01*
X81291136Y-70844168D01*
X81286326Y-70880854D01*
X81277340Y-70962057D01*
X81264802Y-71081344D01*
X81249345Y-71232277D01*
X81231593Y-71408418D01*
X81212175Y-71603331D01*
X81191720Y-71810580D01*
X81170856Y-72023728D01*
X81150210Y-72236337D01*
X81130517Y-72440869D01*
X81130411Y-72441972D01*
X81112086Y-72634197D01*
X81095863Y-72806573D01*
X81082372Y-72952665D01*
X81072239Y-73066036D01*
X81066092Y-73140248D01*
X81064560Y-73168867D01*
X79409493Y-73168867D01*
X79418623Y-73077113D01*
X79434320Y-72919056D01*
X79448680Y-72774145D01*
X79460737Y-72652118D01*
X79469519Y-72562720D01*
X79474058Y-72515691D01*
X79474768Y-72509134D01*
X79481140Y-72488436D01*
X79497119Y-72484204D01*
X79528564Y-72500160D01*
X79581332Y-72540020D01*
X79661281Y-72607508D01*
X79774269Y-72706343D01*
X79823212Y-72749356D01*
X79922959Y-72836505D01*
X80006156Y-72908501D01*
X80065245Y-72958824D01*
X80092669Y-72980959D01*
X80104887Y-72978588D01*
X80147532Y-72947322D01*
X80210231Y-72888476D01*
X80284282Y-72809825D01*
X80451389Y-72622841D01*
X79772058Y-72023921D01*
X79572858Y-71849523D01*
X79399175Y-71700330D01*
X79262925Y-71586845D01*
X79164235Y-71509170D01*
X79103226Y-71467403D01*
X79080023Y-71461646D01*
X79073443Y-71496212D01*
X79062753Y-71576356D01*
X79048958Y-71694600D01*
X79032665Y-71844502D01*
X79014479Y-72019619D01*
X78995007Y-72213508D01*
X78974856Y-72419727D01*
X78954633Y-72631836D01*
X78934942Y-72843388D01*
X78916392Y-73047946D01*
X78899587Y-73239063D01*
X78885135Y-73410298D01*
X78873642Y-73555211D01*
X78865714Y-73667356D01*
X78861959Y-73740292D01*
X72065893Y-73740292D01*
X72713105Y-73566872D01*
X77190023Y-72367286D01*
X77081586Y-71962593D01*
X76973148Y-71557900D01*
X79907173Y-70771730D01*
X82841197Y-69985561D01*
X83341637Y-71853228D01*
G37*
%TD*%
%LPC*%
%TO.C,G\u002A\u002A\u002A*%
G36*
X73404358Y-70480957D02*
G01*
X73492463Y-70809771D01*
X72076037Y-71189301D01*
X70659612Y-71568831D01*
X70571507Y-71240017D01*
X70483402Y-70911204D01*
X71899827Y-70531675D01*
X73316252Y-70152144D01*
X73404358Y-70480957D01*
G37*
G36*
X84899593Y-80196930D02*
G01*
X85116599Y-81006806D01*
X84826038Y-81612768D01*
X84756285Y-81757847D01*
X84683993Y-81907298D01*
X84621952Y-82034585D01*
X84573235Y-82133435D01*
X84540918Y-82197569D01*
X84528078Y-82220712D01*
X84526821Y-82217981D01*
X84514556Y-82177811D01*
X84490529Y-82093341D01*
X84456030Y-81969284D01*
X84412350Y-81810351D01*
X84360780Y-81621254D01*
X84302613Y-81406703D01*
X84239138Y-81171411D01*
X84171647Y-80920089D01*
X83822615Y-79617483D01*
X84252602Y-79502269D01*
X84682587Y-79387054D01*
X84899593Y-80196930D01*
G37*
G36*
X82704635Y-81313174D02*
G01*
X82727791Y-81399675D01*
X82793549Y-81646242D01*
X82854288Y-81875338D01*
X82908778Y-82082235D01*
X82955786Y-82262205D01*
X82994083Y-82410521D01*
X83022436Y-82522454D01*
X83039618Y-82593277D01*
X83044396Y-82618263D01*
X83026481Y-82608080D01*
X82970535Y-82571931D01*
X82882360Y-82513376D01*
X82767791Y-82436319D01*
X82632661Y-82344666D01*
X82482804Y-82242322D01*
X81930484Y-81863895D01*
X81713057Y-81052446D01*
X81495630Y-80240997D01*
X81925616Y-80125783D01*
X82355603Y-80010568D01*
X82704635Y-81313174D01*
G37*
G36*
X76564876Y-67202179D02*
G01*
X76624076Y-67316947D01*
X76709636Y-67482784D01*
X76813165Y-67683429D01*
X76931486Y-67912720D01*
X77061418Y-68164493D01*
X77199779Y-68432586D01*
X77343391Y-68710839D01*
X77489072Y-68993089D01*
X77633645Y-69273173D01*
X78405046Y-70767584D01*
X78199803Y-70822579D01*
X77994559Y-70877574D01*
X76929065Y-68811342D01*
X76782482Y-68527109D01*
X76630382Y-68232235D01*
X76486536Y-67953422D01*
X76352694Y-67694057D01*
X76230605Y-67457529D01*
X76122019Y-67247224D01*
X76028683Y-67066530D01*
X75952349Y-66918835D01*
X75894764Y-66807528D01*
X75857678Y-66735994D01*
X75842840Y-66707622D01*
X75838754Y-66686394D01*
X75858398Y-66670226D01*
X75909009Y-66657549D01*
X75997711Y-66646587D01*
X76131628Y-66635560D01*
X76267509Y-66625597D01*
X76564876Y-67202179D01*
G37*
G36*
X82299140Y-64953630D02*
G01*
X82306172Y-64989359D01*
X82307373Y-65017012D01*
X82310921Y-65094189D01*
X82316621Y-65216418D01*
X82324288Y-65379847D01*
X82333744Y-65580629D01*
X82344805Y-65814914D01*
X82357290Y-66078855D01*
X82371018Y-66368601D01*
X82385806Y-66680304D01*
X82401472Y-67010115D01*
X82417835Y-67354184D01*
X82527701Y-69662922D01*
X82330100Y-69715869D01*
X82267813Y-69731909D01*
X82185899Y-69748609D01*
X82140461Y-69748997D01*
X82123115Y-69733800D01*
X82121192Y-69712842D01*
X82116771Y-69642614D01*
X82110278Y-69526999D01*
X82101906Y-69369833D01*
X82091850Y-69174955D01*
X82080302Y-68946200D01*
X82067455Y-68687406D01*
X82053504Y-68402407D01*
X82038640Y-68095044D01*
X82023059Y-67769152D01*
X82006952Y-67428565D01*
X81993842Y-67150526D01*
X81978285Y-66822329D01*
X81963496Y-66512238D01*
X81949661Y-66224057D01*
X81936965Y-65961584D01*
X81925594Y-65728621D01*
X81915734Y-65528968D01*
X81907570Y-65366427D01*
X81901288Y-65244797D01*
X81897074Y-65167881D01*
X81895115Y-65139478D01*
X81902024Y-65128545D01*
X81946023Y-65098281D01*
X82021304Y-65057346D01*
X82117239Y-65011364D01*
X82223199Y-64965953D01*
X82271804Y-64949010D01*
X82299140Y-64953630D01*
G37*
%TD*%
D14*
%TO.C,S8*%
X63500000Y-43500000D03*
D15*
X58000000Y-43500000D03*
D14*
X52500000Y-43500000D03*
D16*
X63000000Y-47300000D03*
X53000000Y-47300000D03*
X58000000Y-49400000D03*
X58000000Y-49400000D03*
%TD*%
D14*
%TO.C,S20*%
X115938462Y-86226324D03*
D15*
X120602727Y-89140880D03*
D14*
X125266992Y-92055436D03*
D16*
X118376180Y-83268701D03*
X126856661Y-88567894D03*
X123729251Y-84137396D03*
X123729251Y-84137396D03*
%TD*%
D14*
%TO.C,S10*%
X81500000Y-55740000D03*
D15*
X76000000Y-55740000D03*
D14*
X70500000Y-55740000D03*
D16*
X81000000Y-59540000D03*
X71000000Y-59540000D03*
X76000000Y-61640000D03*
X76000000Y-61640000D03*
%TD*%
D14*
%TO.C,S13*%
X99500000Y-60500000D03*
D15*
X94000000Y-60500000D03*
D14*
X88500000Y-60500000D03*
D16*
X99000000Y-64300000D03*
X89000000Y-64300000D03*
X94000000Y-66400000D03*
X94000000Y-66400000D03*
%TD*%
D14*
%TO.C,S4*%
X45500000Y-73070000D03*
D15*
X40000000Y-73070000D03*
D14*
X34500000Y-73070000D03*
D16*
X45000000Y-76870000D03*
X35000000Y-76870000D03*
X40000000Y-78970000D03*
X40000000Y-78970000D03*
%TD*%
D17*
%TO.C,*%
X125840000Y-23460000D03*
X143740000Y-23440000D03*
D18*
X125840000Y-26000000D03*
X143740000Y-25980000D03*
X125840000Y-28540000D03*
X143740000Y-28520000D03*
X125840000Y-31080000D03*
X143740000Y-31060000D03*
X125840000Y-33620000D03*
X143740000Y-33600000D03*
X125840000Y-36160000D03*
X143740000Y-36140000D03*
X125840000Y-38700000D03*
X143740000Y-38680000D03*
X125840000Y-41240000D03*
X143740000Y-41220000D03*
X125840000Y-43780000D03*
X143740000Y-43760000D03*
X125840000Y-46320000D03*
X143740000Y-46300000D03*
X125840000Y-48860000D03*
X143740000Y-48840000D03*
X125840000Y-51400000D03*
X143740000Y-51380000D03*
X125840000Y-53940000D03*
X143740000Y-53920000D03*
X125840000Y-56480000D03*
X143740000Y-56460000D03*
X125840000Y-59020000D03*
X143740000Y-59000000D03*
X125840000Y-61560000D03*
X143740000Y-61540000D03*
X125840000Y-64100000D03*
X143740000Y-64080000D03*
X125840000Y-66640000D03*
X143740000Y-66620000D03*
X125840000Y-69180000D03*
X143740000Y-69160000D03*
X125840000Y-71720000D03*
X143740000Y-71700000D03*
X128500000Y-71700000D03*
X141080000Y-71720000D03*
X128500000Y-69160000D03*
X141080000Y-69180000D03*
X128500000Y-66620000D03*
X141080000Y-66640000D03*
X128500000Y-64080000D03*
X141080000Y-64100000D03*
X128500000Y-61540000D03*
X141080000Y-61560000D03*
X128500000Y-59000000D03*
X141080000Y-59020000D03*
X128500000Y-56460000D03*
X141080000Y-56480000D03*
X128500000Y-53920000D03*
X141080000Y-53940000D03*
X128500000Y-51380000D03*
X141080000Y-51400000D03*
X128500000Y-48840000D03*
X141080000Y-48860000D03*
X128500000Y-46300000D03*
X141080000Y-46320000D03*
X128500000Y-43760000D03*
X141080000Y-43780000D03*
X128500000Y-41220000D03*
X141080000Y-41240000D03*
X128500000Y-38680000D03*
X141080000Y-38700000D03*
X128500000Y-36140000D03*
X141080000Y-36160000D03*
X128500000Y-33600000D03*
X141080000Y-33620000D03*
X128500000Y-31060000D03*
X141080000Y-31080000D03*
X128500000Y-28520000D03*
X141080000Y-28540000D03*
X128500000Y-25980000D03*
X141080000Y-26000000D03*
X128500000Y-23440000D03*
X141080000Y-23460000D03*
%TD*%
D14*
%TO.C,S21*%
X132306591Y-104520659D03*
D15*
X136127212Y-100564290D03*
D14*
X139947833Y-96607921D03*
D16*
X129920429Y-101521287D03*
X136867013Y-94327889D03*
X131883107Y-96465806D03*
X131883107Y-96465806D03*
%TD*%
D14*
%TO.C,S5*%
X45500000Y-56070000D03*
D15*
X40000000Y-56070000D03*
D14*
X34500000Y-56070000D03*
D16*
X45000000Y-59870000D03*
X35000000Y-59870000D03*
X40000000Y-61970000D03*
X40000000Y-61970000D03*
%TD*%
D14*
%TO.C,S19*%
X96337408Y-79476495D03*
D15*
X101650000Y-80900000D03*
D14*
X106962592Y-82323505D03*
D16*
X97803883Y-75935387D03*
X107463142Y-78523577D03*
X103177032Y-75201038D03*
X103177032Y-75201038D03*
%TD*%
D14*
%TO.C,S15*%
X99500000Y-26500000D03*
D15*
X94000000Y-26500000D03*
D14*
X88500000Y-26500000D03*
D16*
X99000000Y-30300000D03*
X89000000Y-30300000D03*
X94000000Y-32400000D03*
X94000000Y-32400000D03*
%TD*%
D14*
%TO.C,S1*%
X27500000Y-73070000D03*
D15*
X22000000Y-73070000D03*
D14*
X16500000Y-73070000D03*
D16*
X27000000Y-76870000D03*
X17000000Y-76870000D03*
X22000000Y-78970000D03*
X22000000Y-78970000D03*
%TD*%
D14*
%TO.C,S18*%
X117500000Y-29360000D03*
D15*
X112000000Y-29360000D03*
D14*
X106500000Y-29360000D03*
D16*
X117000000Y-33160000D03*
X107000000Y-33160000D03*
X112000000Y-35260000D03*
X112000000Y-35260000D03*
%TD*%
D19*
%TO.C,J1*%
X146990000Y-79320000D03*
X139990000Y-79320000D03*
X146990000Y-81420000D03*
X139990000Y-81420000D03*
D20*
X137290000Y-79120000D03*
X137290000Y-81620000D03*
X138390000Y-77020000D03*
X138390000Y-83720000D03*
X142390000Y-77020000D03*
X145390000Y-83720000D03*
X145390000Y-77020000D03*
X142390000Y-83720000D03*
%TD*%
D14*
%TO.C,S11*%
X81500000Y-38740000D03*
D15*
X76000000Y-38740000D03*
D14*
X70500000Y-38740000D03*
D16*
X81000000Y-42540000D03*
X71000000Y-42540000D03*
X76000000Y-44640000D03*
X76000000Y-44640000D03*
%TD*%
D14*
%TO.C,S9*%
X63500000Y-26500000D03*
D15*
X58000000Y-26500000D03*
D14*
X52500000Y-26500000D03*
D16*
X63000000Y-30300000D03*
X53000000Y-30300000D03*
X58000000Y-32400000D03*
X58000000Y-32400000D03*
%TD*%
D14*
%TO.C,S6*%
X45500000Y-39070000D03*
D15*
X40000000Y-39070000D03*
D14*
X34500000Y-39070000D03*
D16*
X45000000Y-42870000D03*
X35000000Y-42870000D03*
X40000000Y-44970000D03*
X40000000Y-44970000D03*
%TD*%
D14*
%TO.C,S14*%
X99500000Y-43500000D03*
D15*
X94000000Y-43500000D03*
D14*
X88500000Y-43500000D03*
D16*
X99000000Y-47300000D03*
X89000000Y-47300000D03*
X94000000Y-49400000D03*
X94000000Y-49400000D03*
%TD*%
D14*
%TO.C,S12*%
X81500000Y-21740000D03*
D15*
X76000000Y-21740000D03*
D14*
X70500000Y-21740000D03*
D16*
X81000000Y-25540000D03*
X71000000Y-25540000D03*
X76000000Y-27640000D03*
X76000000Y-27640000D03*
%TD*%
D14*
%TO.C,S16*%
X117500000Y-63360000D03*
D15*
X112000000Y-63360000D03*
D14*
X106500000Y-63360000D03*
D16*
X117000000Y-67160000D03*
X107000000Y-67160000D03*
X112000000Y-69260000D03*
X112000000Y-69260000D03*
%TD*%
D14*
%TO.C,S3*%
X27500000Y-39070000D03*
D15*
X22000000Y-39070000D03*
D14*
X16500000Y-39070000D03*
D16*
X27000000Y-42870000D03*
X17000000Y-42870000D03*
X22000000Y-44970000D03*
X22000000Y-44970000D03*
%TD*%
D14*
%TO.C,S2*%
X27500000Y-56070000D03*
D15*
X22000000Y-56070000D03*
D14*
X16500000Y-56070000D03*
D16*
X27000000Y-59870000D03*
X17000000Y-59870000D03*
X22000000Y-61970000D03*
X22000000Y-61970000D03*
%TD*%
D14*
%TO.C,S17*%
X117500000Y-46360000D03*
D15*
X112000000Y-46360000D03*
D14*
X106500000Y-46360000D03*
D16*
X117000000Y-50160000D03*
X107000000Y-50160000D03*
X112000000Y-52260000D03*
X112000000Y-52260000D03*
%TD*%
D14*
%TO.C,S7*%
X63500000Y-60500000D03*
D15*
X58000000Y-60500000D03*
D14*
X52500000Y-60500000D03*
D16*
X63000000Y-64300000D03*
X53000000Y-64300000D03*
X58000000Y-66400000D03*
X58000000Y-66400000D03*
%TD*%
%LPD*%
M02*
