%TF.GenerationSoftware,KiCad,Pcbnew,7.0.5*%
%TF.CreationDate,2023-06-08T16:22:04-03:00*%
%TF.ProjectId,2kalypcb_microcontroller_trrs,326b616c-7970-4636-925f-6d6963726f63,v1.0.0*%
%TF.SameCoordinates,Original*%
%TF.FileFunction,Drillmap*%
%TF.FilePolarity,Positive*%
%FSLAX45Y45*%
G04 Gerber Fmt 4.5, Leading zero omitted, Abs format (unit mm)*
G04 Created by KiCad (PCBNEW 7.0.5) date 2023-06-08 16:22:04*
%MOMM*%
%LPD*%
G01*
G04 APERTURE LIST*
%ADD10C,0.150000*%
%ADD11C,0.200000*%
%ADD12C,0.090000*%
%ADD13C,0.100000*%
%ADD14C,0.127000*%
G04 APERTURE END LIST*
D10*
X8350000Y-1324000D02*
X6850000Y-1324000D01*
X10818157Y-9199189D02*
X12346190Y-10154010D01*
X6850000Y-1324000D02*
G75*
G03*
X6700000Y-1474000I0J-150000D01*
G01*
X4749935Y-3056935D02*
G75*
G03*
X4899935Y-2906935I-5J150005D01*
G01*
X1451000Y-8157000D02*
X4879364Y-8157000D01*
X10299065Y-1935935D02*
G75*
G03*
X10449065Y-2085935I150005J5D01*
G01*
X10299065Y-1935935D02*
G75*
G03*
X10150000Y-1800273I-149065J-14065D01*
G01*
X6549935Y-1799935D02*
X5050000Y-1800000D01*
X13843937Y-3891000D02*
X13109990Y-3891000D01*
X14857102Y-9986000D02*
X14858000Y-9986000D01*
X13843937Y-3890997D02*
G75*
G03*
X13993937Y-3741000I-7J150007D01*
G01*
X13110000Y-3591000D02*
G75*
G03*
X12960000Y-3741000I10J-150010D01*
G01*
X8328955Y-8478018D02*
X9866947Y-8890122D01*
X14858000Y-9986000D02*
X14858000Y-2236000D01*
X4899935Y-2906935D02*
X4900000Y-1950000D01*
X12959990Y-3741000D02*
G75*
G03*
X13109990Y-3891000I150010J10D01*
G01*
X9866947Y-8890122D02*
X10818157Y-9199189D01*
X13492301Y-11260795D02*
G75*
G03*
X13704400Y-11257093I104199J107895D01*
G01*
X8650065Y-1799935D02*
X10150000Y-1800273D01*
X6336358Y-8233358D02*
X8328955Y-8478018D01*
X14815856Y-10106152D02*
G75*
G03*
X14857102Y-9986000I-107916J104202D01*
G01*
X5050000Y-1800000D02*
G75*
G03*
X4900000Y-1950000I5J-150005D01*
G01*
X13110000Y-3591000D02*
X13843947Y-3591000D01*
X14708000Y-2086000D02*
X10449065Y-2085935D01*
X4749935Y-3056935D02*
X1450000Y-3057000D01*
X8500065Y-1649935D02*
G75*
G03*
X8650065Y-1799935I150005J5D01*
G01*
X13704400Y-11257093D02*
X14815854Y-10106150D01*
X1301000Y-8007000D02*
G75*
G03*
X1451000Y-8157000I150005J5D01*
G01*
X8500000Y-1474000D02*
X8500065Y-1649935D01*
X8500000Y-1474000D02*
G75*
G03*
X8350000Y-1324000I-150000J0D01*
G01*
X1301000Y-8007000D02*
X1300000Y-3207000D01*
X14858000Y-2236000D02*
G75*
G03*
X14708000Y-2086000I-150010J-10D01*
G01*
X1450000Y-3057000D02*
G75*
G03*
X1300000Y-3207000I5J-150005D01*
G01*
X13993950Y-3741000D02*
G75*
G03*
X13843947Y-3591000I-150010J-10D01*
G01*
X12346190Y-10154010D02*
X13492301Y-11260796D01*
X6549935Y-1799935D02*
G75*
G03*
X6699935Y-1649935I-5J150005D01*
G01*
X6700000Y-1474000D02*
X6699935Y-1649935D01*
X4879364Y-8157000D02*
X6336358Y-8233358D01*
D11*
D12*
X13684000Y-7867000D02*
X13774000Y-7957000D01*
X13774000Y-7867000D02*
X13684000Y-7957000D01*
D11*
X13749000Y-7867000D02*
X13709000Y-7867000D01*
X13709000Y-7867000D02*
G75*
G03*
X13709000Y-7957000I0J-45000D01*
G01*
X13709000Y-7957000D02*
X13749000Y-7957000D01*
X13749000Y-7957000D02*
G75*
G03*
X13749000Y-7867000I0J45000D01*
G01*
D12*
X13684000Y-8117000D02*
X13774000Y-8207000D01*
X13774000Y-8117000D02*
X13684000Y-8207000D01*
D11*
X13749000Y-8117000D02*
X13709000Y-8117000D01*
X13709000Y-8117000D02*
G75*
G03*
X13709000Y-8207000I0J-45000D01*
G01*
X13709000Y-8207000D02*
X13749000Y-8207000D01*
X13749000Y-8207000D02*
G75*
G03*
X13749000Y-8117000I0J45000D01*
G01*
D12*
X13794000Y-7657000D02*
X13884000Y-7747000D01*
X13884000Y-7657000D02*
X13794000Y-7747000D01*
D11*
X13859000Y-7657000D02*
X13819000Y-7657000D01*
X13819000Y-7657000D02*
G75*
G03*
X13819000Y-7747000I0J-45000D01*
G01*
X13819000Y-7747000D02*
X13859000Y-7747000D01*
X13859000Y-7747000D02*
G75*
G03*
X13859000Y-7657000I0J45000D01*
G01*
D12*
X13794000Y-8327000D02*
X13884000Y-8417000D01*
X13884000Y-8327000D02*
X13794000Y-8417000D01*
D11*
X13859000Y-8327000D02*
X13819000Y-8327000D01*
X13819000Y-8327000D02*
G75*
G03*
X13819000Y-8417000I0J-45000D01*
G01*
X13819000Y-8417000D02*
X13859000Y-8417000D01*
X13859000Y-8417000D02*
G75*
G03*
X13859000Y-8327000I0J45000D01*
G01*
D12*
X14194000Y-7657000D02*
X14284000Y-7747000D01*
X14284000Y-7657000D02*
X14194000Y-7747000D01*
D11*
X14259000Y-7657000D02*
X14219000Y-7657000D01*
X14219000Y-7657000D02*
G75*
G03*
X14219000Y-7747000I0J-45000D01*
G01*
X14219000Y-7747000D02*
X14259000Y-7747000D01*
X14259000Y-7747000D02*
G75*
G03*
X14259000Y-7657000I0J45000D01*
G01*
D12*
X14194000Y-8327000D02*
X14284000Y-8417000D01*
X14284000Y-8327000D02*
X14194000Y-8417000D01*
D11*
X14259000Y-8327000D02*
X14219000Y-8327000D01*
X14219000Y-8327000D02*
G75*
G03*
X14219000Y-8417000I0J-45000D01*
G01*
X14219000Y-8417000D02*
X14259000Y-8417000D01*
X14259000Y-8417000D02*
G75*
G03*
X14259000Y-8327000I0J45000D01*
G01*
D12*
X14494000Y-7657000D02*
X14584000Y-7747000D01*
X14584000Y-7657000D02*
X14494000Y-7747000D01*
D11*
X14559000Y-7657000D02*
X14519000Y-7657000D01*
X14519000Y-7657000D02*
G75*
G03*
X14519000Y-7747000I0J-45000D01*
G01*
X14519000Y-7747000D02*
X14559000Y-7747000D01*
X14559000Y-7747000D02*
G75*
G03*
X14559000Y-7657000I0J45000D01*
G01*
D12*
X14494000Y-8327000D02*
X14584000Y-8417000D01*
X14584000Y-8327000D02*
X14494000Y-8417000D01*
D11*
X14559000Y-8327000D02*
X14519000Y-8327000D01*
X14519000Y-8327000D02*
G75*
G03*
X14519000Y-8417000I0J-45000D01*
G01*
X14519000Y-8417000D02*
X14559000Y-8417000D01*
X14559000Y-8417000D02*
G75*
G03*
X14559000Y-8327000I0J45000D01*
G01*
D13*
X12634000Y-2346000D02*
G75*
G03*
X12634000Y-2346000I-50000J0D01*
G01*
X12634000Y-2600000D02*
G75*
G03*
X12634000Y-2600000I-50000J0D01*
G01*
X12634000Y-2854000D02*
G75*
G03*
X12634000Y-2854000I-50000J0D01*
G01*
X12634000Y-3108000D02*
G75*
G03*
X12634000Y-3108000I-50000J0D01*
G01*
X12634000Y-3362000D02*
G75*
G03*
X12634000Y-3362000I-50000J0D01*
G01*
X12634000Y-3616000D02*
G75*
G03*
X12634000Y-3616000I-50000J0D01*
G01*
X12634000Y-3870000D02*
G75*
G03*
X12634000Y-3870000I-50000J0D01*
G01*
X12634000Y-4124000D02*
G75*
G03*
X12634000Y-4124000I-50000J0D01*
G01*
X12634000Y-4378000D02*
G75*
G03*
X12634000Y-4378000I-50000J0D01*
G01*
X12634000Y-4632000D02*
G75*
G03*
X12634000Y-4632000I-50000J0D01*
G01*
X12634000Y-4886000D02*
G75*
G03*
X12634000Y-4886000I-50000J0D01*
G01*
X12634000Y-5140000D02*
G75*
G03*
X12634000Y-5140000I-50000J0D01*
G01*
X12634000Y-5394000D02*
G75*
G03*
X12634000Y-5394000I-50000J0D01*
G01*
X12634000Y-5648000D02*
G75*
G03*
X12634000Y-5648000I-50000J0D01*
G01*
X12634000Y-5902000D02*
G75*
G03*
X12634000Y-5902000I-50000J0D01*
G01*
X12634000Y-6156000D02*
G75*
G03*
X12634000Y-6156000I-50000J0D01*
G01*
X12634000Y-6410000D02*
G75*
G03*
X12634000Y-6410000I-50000J0D01*
G01*
X12634000Y-6664000D02*
G75*
G03*
X12634000Y-6664000I-50000J0D01*
G01*
X12634000Y-6918000D02*
G75*
G03*
X12634000Y-6918000I-50000J0D01*
G01*
X12634000Y-7172000D02*
G75*
G03*
X12634000Y-7172000I-50000J0D01*
G01*
X12900000Y-2344000D02*
G75*
G03*
X12900000Y-2344000I-50000J0D01*
G01*
X12900000Y-2598000D02*
G75*
G03*
X12900000Y-2598000I-50000J0D01*
G01*
X12900000Y-2852000D02*
G75*
G03*
X12900000Y-2852000I-50000J0D01*
G01*
X12900000Y-3106000D02*
G75*
G03*
X12900000Y-3106000I-50000J0D01*
G01*
X12900000Y-3360000D02*
G75*
G03*
X12900000Y-3360000I-50000J0D01*
G01*
X12900000Y-3614000D02*
G75*
G03*
X12900000Y-3614000I-50000J0D01*
G01*
X12900000Y-3868000D02*
G75*
G03*
X12900000Y-3868000I-50000J0D01*
G01*
X12900000Y-4122000D02*
G75*
G03*
X12900000Y-4122000I-50000J0D01*
G01*
X12900000Y-4376000D02*
G75*
G03*
X12900000Y-4376000I-50000J0D01*
G01*
X12900000Y-4630000D02*
G75*
G03*
X12900000Y-4630000I-50000J0D01*
G01*
X12900000Y-4884000D02*
G75*
G03*
X12900000Y-4884000I-50000J0D01*
G01*
X12900000Y-5138000D02*
G75*
G03*
X12900000Y-5138000I-50000J0D01*
G01*
X12900000Y-5392000D02*
G75*
G03*
X12900000Y-5392000I-50000J0D01*
G01*
X12900000Y-5646000D02*
G75*
G03*
X12900000Y-5646000I-50000J0D01*
G01*
X12900000Y-5900000D02*
G75*
G03*
X12900000Y-5900000I-50000J0D01*
G01*
X12900000Y-6154000D02*
G75*
G03*
X12900000Y-6154000I-50000J0D01*
G01*
X12900000Y-6408000D02*
G75*
G03*
X12900000Y-6408000I-50000J0D01*
G01*
X12900000Y-6662000D02*
G75*
G03*
X12900000Y-6662000I-50000J0D01*
G01*
X12900000Y-6916000D02*
G75*
G03*
X12900000Y-6916000I-50000J0D01*
G01*
X12900000Y-7170000D02*
G75*
G03*
X12900000Y-7170000I-50000J0D01*
G01*
X14158000Y-2346000D02*
G75*
G03*
X14158000Y-2346000I-50000J0D01*
G01*
X14158000Y-2600000D02*
G75*
G03*
X14158000Y-2600000I-50000J0D01*
G01*
X14158000Y-2854000D02*
G75*
G03*
X14158000Y-2854000I-50000J0D01*
G01*
X14158000Y-3108000D02*
G75*
G03*
X14158000Y-3108000I-50000J0D01*
G01*
X14158000Y-3362000D02*
G75*
G03*
X14158000Y-3362000I-50000J0D01*
G01*
X14158000Y-3616000D02*
G75*
G03*
X14158000Y-3616000I-50000J0D01*
G01*
X14158000Y-3870000D02*
G75*
G03*
X14158000Y-3870000I-50000J0D01*
G01*
X14158000Y-4124000D02*
G75*
G03*
X14158000Y-4124000I-50000J0D01*
G01*
X14158000Y-4378000D02*
G75*
G03*
X14158000Y-4378000I-50000J0D01*
G01*
X14158000Y-4632000D02*
G75*
G03*
X14158000Y-4632000I-50000J0D01*
G01*
X14158000Y-4886000D02*
G75*
G03*
X14158000Y-4886000I-50000J0D01*
G01*
X14158000Y-5140000D02*
G75*
G03*
X14158000Y-5140000I-50000J0D01*
G01*
X14158000Y-5394000D02*
G75*
G03*
X14158000Y-5394000I-50000J0D01*
G01*
X14158000Y-5648000D02*
G75*
G03*
X14158000Y-5648000I-50000J0D01*
G01*
X14158000Y-5902000D02*
G75*
G03*
X14158000Y-5902000I-50000J0D01*
G01*
X14158000Y-6156000D02*
G75*
G03*
X14158000Y-6156000I-50000J0D01*
G01*
X14158000Y-6410000D02*
G75*
G03*
X14158000Y-6410000I-50000J0D01*
G01*
X14158000Y-6664000D02*
G75*
G03*
X14158000Y-6664000I-50000J0D01*
G01*
X14158000Y-6918000D02*
G75*
G03*
X14158000Y-6918000I-50000J0D01*
G01*
X14158000Y-7172000D02*
G75*
G03*
X14158000Y-7172000I-50000J0D01*
G01*
X14424000Y-2344000D02*
G75*
G03*
X14424000Y-2344000I-50000J0D01*
G01*
X14424000Y-2598000D02*
G75*
G03*
X14424000Y-2598000I-50000J0D01*
G01*
X14424000Y-2852000D02*
G75*
G03*
X14424000Y-2852000I-50000J0D01*
G01*
X14424000Y-3106000D02*
G75*
G03*
X14424000Y-3106000I-50000J0D01*
G01*
X14424000Y-3360000D02*
G75*
G03*
X14424000Y-3360000I-50000J0D01*
G01*
X14424000Y-3614000D02*
G75*
G03*
X14424000Y-3614000I-50000J0D01*
G01*
X14424000Y-3868000D02*
G75*
G03*
X14424000Y-3868000I-50000J0D01*
G01*
X14424000Y-4122000D02*
G75*
G03*
X14424000Y-4122000I-50000J0D01*
G01*
X14424000Y-4376000D02*
G75*
G03*
X14424000Y-4376000I-50000J0D01*
G01*
X14424000Y-4630000D02*
G75*
G03*
X14424000Y-4630000I-50000J0D01*
G01*
X14424000Y-4884000D02*
G75*
G03*
X14424000Y-4884000I-50000J0D01*
G01*
X14424000Y-5138000D02*
G75*
G03*
X14424000Y-5138000I-50000J0D01*
G01*
X14424000Y-5392000D02*
G75*
G03*
X14424000Y-5392000I-50000J0D01*
G01*
X14424000Y-5646000D02*
G75*
G03*
X14424000Y-5646000I-50000J0D01*
G01*
X14424000Y-5900000D02*
G75*
G03*
X14424000Y-5900000I-50000J0D01*
G01*
X14424000Y-6154000D02*
G75*
G03*
X14424000Y-6154000I-50000J0D01*
G01*
X14424000Y-6408000D02*
G75*
G03*
X14424000Y-6408000I-50000J0D01*
G01*
X14424000Y-6662000D02*
G75*
G03*
X14424000Y-6662000I-50000J0D01*
G01*
X14424000Y-6916000D02*
G75*
G03*
X14424000Y-6916000I-50000J0D01*
G01*
X14424000Y-7170000D02*
G75*
G03*
X14424000Y-7170000I-50000J0D01*
G01*
D14*
X1700000Y-4223500D02*
X1700000Y-4350500D01*
X1636500Y-4287000D02*
X1763500Y-4287000D01*
X1700000Y-5923500D02*
X1700000Y-6050500D01*
X1636500Y-5987000D02*
X1763500Y-5987000D01*
X1700000Y-7623500D02*
X1700000Y-7750500D01*
X1636500Y-7687000D02*
X1763500Y-7687000D01*
X2200000Y-4433500D02*
X2200000Y-4560500D01*
X2136500Y-4497000D02*
X2263500Y-4497000D01*
X2200000Y-4433500D02*
X2200000Y-4560500D01*
X2136500Y-4497000D02*
X2263500Y-4497000D01*
X2200000Y-6133500D02*
X2200000Y-6260500D01*
X2136500Y-6197000D02*
X2263500Y-6197000D01*
X2200000Y-6133500D02*
X2200000Y-6260500D01*
X2136500Y-6197000D02*
X2263500Y-6197000D01*
X2200000Y-7833500D02*
X2200000Y-7960500D01*
X2136500Y-7897000D02*
X2263500Y-7897000D01*
X2200000Y-7833500D02*
X2200000Y-7960500D01*
X2136500Y-7897000D02*
X2263500Y-7897000D01*
X2700000Y-4223500D02*
X2700000Y-4350500D01*
X2636500Y-4287000D02*
X2763500Y-4287000D01*
X2700000Y-5923500D02*
X2700000Y-6050500D01*
X2636500Y-5987000D02*
X2763500Y-5987000D01*
X2700000Y-7623500D02*
X2700000Y-7750500D01*
X2636500Y-7687000D02*
X2763500Y-7687000D01*
X3500000Y-4223500D02*
X3500000Y-4350500D01*
X3436500Y-4287000D02*
X3563500Y-4287000D01*
X3500000Y-5923500D02*
X3500000Y-6050500D01*
X3436500Y-5987000D02*
X3563500Y-5987000D01*
X3500000Y-7623500D02*
X3500000Y-7750500D01*
X3436500Y-7687000D02*
X3563500Y-7687000D01*
X4000000Y-4433500D02*
X4000000Y-4560500D01*
X3936500Y-4497000D02*
X4063500Y-4497000D01*
X4000000Y-4433500D02*
X4000000Y-4560500D01*
X3936500Y-4497000D02*
X4063500Y-4497000D01*
X4000000Y-6133500D02*
X4000000Y-6260500D01*
X3936500Y-6197000D02*
X4063500Y-6197000D01*
X4000000Y-6133500D02*
X4000000Y-6260500D01*
X3936500Y-6197000D02*
X4063500Y-6197000D01*
X4000000Y-7833500D02*
X4000000Y-7960500D01*
X3936500Y-7897000D02*
X4063500Y-7897000D01*
X4000000Y-7833500D02*
X4000000Y-7960500D01*
X3936500Y-7897000D02*
X4063500Y-7897000D01*
X4500000Y-4223500D02*
X4500000Y-4350500D01*
X4436500Y-4287000D02*
X4563500Y-4287000D01*
X4500000Y-5923500D02*
X4500000Y-6050500D01*
X4436500Y-5987000D02*
X4563500Y-5987000D01*
X4500000Y-7623500D02*
X4500000Y-7750500D01*
X4436500Y-7687000D02*
X4563500Y-7687000D01*
X5300000Y-2966500D02*
X5300000Y-3093500D01*
X5236500Y-3030000D02*
X5363500Y-3030000D01*
X5300000Y-4666500D02*
X5300000Y-4793500D01*
X5236500Y-4730000D02*
X5363500Y-4730000D01*
X5300000Y-6366500D02*
X5300000Y-6493500D01*
X5236500Y-6430000D02*
X5363500Y-6430000D01*
X5800000Y-3176500D02*
X5800000Y-3303500D01*
X5736500Y-3240000D02*
X5863500Y-3240000D01*
X5800000Y-3176500D02*
X5800000Y-3303500D01*
X5736500Y-3240000D02*
X5863500Y-3240000D01*
X5800000Y-4876500D02*
X5800000Y-5003500D01*
X5736500Y-4940000D02*
X5863500Y-4940000D01*
X5800000Y-4876500D02*
X5800000Y-5003500D01*
X5736500Y-4940000D02*
X5863500Y-4940000D01*
X5800000Y-6576500D02*
X5800000Y-6703500D01*
X5736500Y-6640000D02*
X5863500Y-6640000D01*
X5800000Y-6576500D02*
X5800000Y-6703500D01*
X5736500Y-6640000D02*
X5863500Y-6640000D01*
X6300000Y-2966500D02*
X6300000Y-3093500D01*
X6236500Y-3030000D02*
X6363500Y-3030000D01*
X6300000Y-4666500D02*
X6300000Y-4793500D01*
X6236500Y-4730000D02*
X6363500Y-4730000D01*
X6300000Y-6366500D02*
X6300000Y-6493500D01*
X6236500Y-6430000D02*
X6363500Y-6430000D01*
X7100000Y-2490500D02*
X7100000Y-2617500D01*
X7036500Y-2554000D02*
X7163500Y-2554000D01*
X7100000Y-4190500D02*
X7100000Y-4317500D01*
X7036500Y-4254000D02*
X7163500Y-4254000D01*
X7100000Y-5890500D02*
X7100000Y-6017500D01*
X7036500Y-5954000D02*
X7163500Y-5954000D01*
X7600000Y-2700500D02*
X7600000Y-2827500D01*
X7536500Y-2764000D02*
X7663500Y-2764000D01*
X7600000Y-2700500D02*
X7600000Y-2827500D01*
X7536500Y-2764000D02*
X7663500Y-2764000D01*
X7600000Y-4400500D02*
X7600000Y-4527500D01*
X7536500Y-4464000D02*
X7663500Y-4464000D01*
X7600000Y-4400500D02*
X7600000Y-4527500D01*
X7536500Y-4464000D02*
X7663500Y-4464000D01*
X7600000Y-6100500D02*
X7600000Y-6227500D01*
X7536500Y-6164000D02*
X7663500Y-6164000D01*
X7600000Y-6100500D02*
X7600000Y-6227500D01*
X7536500Y-6164000D02*
X7663500Y-6164000D01*
X8100000Y-2490500D02*
X8100000Y-2617500D01*
X8036500Y-2554000D02*
X8163500Y-2554000D01*
X8100000Y-4190500D02*
X8100000Y-4317500D01*
X8036500Y-4254000D02*
X8163500Y-4254000D01*
X8100000Y-5890500D02*
X8100000Y-6017500D01*
X8036500Y-5954000D02*
X8163500Y-5954000D01*
X8900000Y-2966500D02*
X8900000Y-3093500D01*
X8836500Y-3030000D02*
X8963500Y-3030000D01*
X8900000Y-4666500D02*
X8900000Y-4793500D01*
X8836500Y-4730000D02*
X8963500Y-4730000D01*
X8900000Y-6366500D02*
X8900000Y-6493500D01*
X8836500Y-6430000D02*
X8963500Y-6430000D01*
X9400000Y-3176500D02*
X9400000Y-3303500D01*
X9336500Y-3240000D02*
X9463500Y-3240000D01*
X9400000Y-3176500D02*
X9400000Y-3303500D01*
X9336500Y-3240000D02*
X9463500Y-3240000D01*
X9400000Y-4876500D02*
X9400000Y-5003500D01*
X9336500Y-4940000D02*
X9463500Y-4940000D01*
X9400000Y-4876500D02*
X9400000Y-5003500D01*
X9336500Y-4940000D02*
X9463500Y-4940000D01*
X9400000Y-6576500D02*
X9400000Y-6703500D01*
X9336500Y-6640000D02*
X9463500Y-6640000D01*
X9400000Y-6576500D02*
X9400000Y-6703500D01*
X9336500Y-6640000D02*
X9463500Y-6640000D01*
X9780388Y-7530039D02*
X9780388Y-7657039D01*
X9716888Y-7593539D02*
X9843888Y-7593539D01*
X9900000Y-2966500D02*
X9900000Y-3093500D01*
X9836500Y-3030000D02*
X9963500Y-3030000D01*
X9900000Y-4666500D02*
X9900000Y-4793500D01*
X9836500Y-4730000D02*
X9963500Y-4730000D01*
X9900000Y-6366500D02*
X9900000Y-6493500D01*
X9836500Y-6430000D02*
X9963500Y-6430000D01*
X10317703Y-7456604D02*
X10317703Y-7583604D01*
X10254203Y-7520104D02*
X10381203Y-7520104D01*
X10317703Y-7456604D02*
X10317703Y-7583604D01*
X10254203Y-7520104D02*
X10381203Y-7520104D01*
X10700000Y-3252500D02*
X10700000Y-3379500D01*
X10636500Y-3316000D02*
X10763500Y-3316000D01*
X10700000Y-4952500D02*
X10700000Y-5079500D01*
X10636500Y-5016000D02*
X10763500Y-5016000D01*
X10700000Y-6652500D02*
X10700000Y-6779500D01*
X10636500Y-6716000D02*
X10763500Y-6716000D01*
X10746314Y-7788858D02*
X10746314Y-7915858D01*
X10682814Y-7852358D02*
X10809814Y-7852358D01*
X11200000Y-3462500D02*
X11200000Y-3589500D01*
X11136500Y-3526000D02*
X11263500Y-3526000D01*
X11200000Y-3462500D02*
X11200000Y-3589500D01*
X11136500Y-3526000D02*
X11263500Y-3526000D01*
X11200000Y-5162500D02*
X11200000Y-5289500D01*
X11136500Y-5226000D02*
X11263500Y-5226000D01*
X11200000Y-5162500D02*
X11200000Y-5289500D01*
X11136500Y-5226000D02*
X11263500Y-5226000D01*
X11200000Y-6862500D02*
X11200000Y-6989500D01*
X11136500Y-6926000D02*
X11263500Y-6926000D01*
X11200000Y-6862500D02*
X11200000Y-6989500D01*
X11136500Y-6926000D02*
X11263500Y-6926000D01*
X11700000Y-3252500D02*
X11700000Y-3379500D01*
X11636500Y-3316000D02*
X11763500Y-3316000D01*
X11700000Y-4952500D02*
X11700000Y-5079500D01*
X11636500Y-5016000D02*
X11763500Y-5016000D01*
X11700000Y-6652500D02*
X11700000Y-6779500D01*
X11636500Y-6716000D02*
X11763500Y-6716000D01*
X11837618Y-8263370D02*
X11837618Y-8390370D01*
X11774118Y-8326870D02*
X11901118Y-8326870D01*
X12372925Y-8350240D02*
X12372925Y-8477240D01*
X12309425Y-8413740D02*
X12436425Y-8413740D01*
X12372925Y-8350240D02*
X12372925Y-8477240D01*
X12309425Y-8413740D02*
X12436425Y-8413740D01*
X12685666Y-8793289D02*
X12685666Y-8920289D01*
X12622166Y-8856789D02*
X12749166Y-8856789D01*
X12992043Y-10088629D02*
X12992043Y-10215629D01*
X12928543Y-10152129D02*
X13055543Y-10152129D01*
X13188311Y-9583081D02*
X13188311Y-9710081D01*
X13124811Y-9646581D02*
X13251811Y-9646581D01*
X13188311Y-9583081D02*
X13188311Y-9710081D01*
X13124811Y-9646581D02*
X13251811Y-9646581D01*
X13686701Y-9369289D02*
X13686701Y-9496289D01*
X13623201Y-9432789D02*
X13750201Y-9432789D01*
D11*
X1553277Y-11621879D02*
X1553277Y-11421879D01*
X1553277Y-11421879D02*
X1600896Y-11421879D01*
X1600896Y-11421879D02*
X1629467Y-11431403D01*
X1629467Y-11431403D02*
X1648515Y-11450451D01*
X1648515Y-11450451D02*
X1658039Y-11469498D01*
X1658039Y-11469498D02*
X1667562Y-11507594D01*
X1667562Y-11507594D02*
X1667562Y-11536165D01*
X1667562Y-11536165D02*
X1658039Y-11574260D01*
X1658039Y-11574260D02*
X1648515Y-11593308D01*
X1648515Y-11593308D02*
X1629467Y-11612356D01*
X1629467Y-11612356D02*
X1600896Y-11621879D01*
X1600896Y-11621879D02*
X1553277Y-11621879D01*
X1753277Y-11621879D02*
X1753277Y-11488546D01*
X1753277Y-11526641D02*
X1762801Y-11507594D01*
X1762801Y-11507594D02*
X1772324Y-11498070D01*
X1772324Y-11498070D02*
X1791372Y-11488546D01*
X1791372Y-11488546D02*
X1810420Y-11488546D01*
X1877086Y-11621879D02*
X1877086Y-11488546D01*
X1877086Y-11421879D02*
X1867562Y-11431403D01*
X1867562Y-11431403D02*
X1877086Y-11440927D01*
X1877086Y-11440927D02*
X1886610Y-11431403D01*
X1886610Y-11431403D02*
X1877086Y-11421879D01*
X1877086Y-11421879D02*
X1877086Y-11440927D01*
X2000896Y-11621879D02*
X1981848Y-11612356D01*
X1981848Y-11612356D02*
X1972324Y-11593308D01*
X1972324Y-11593308D02*
X1972324Y-11421879D01*
X2105658Y-11621879D02*
X2086610Y-11612356D01*
X2086610Y-11612356D02*
X2077086Y-11593308D01*
X2077086Y-11593308D02*
X2077086Y-11421879D01*
X2334229Y-11621879D02*
X2334229Y-11421879D01*
X2334229Y-11421879D02*
X2400896Y-11564737D01*
X2400896Y-11564737D02*
X2467563Y-11421879D01*
X2467563Y-11421879D02*
X2467563Y-11621879D01*
X2648515Y-11621879D02*
X2648515Y-11517118D01*
X2648515Y-11517118D02*
X2638991Y-11498070D01*
X2638991Y-11498070D02*
X2619944Y-11488546D01*
X2619944Y-11488546D02*
X2581848Y-11488546D01*
X2581848Y-11488546D02*
X2562801Y-11498070D01*
X2648515Y-11612356D02*
X2629467Y-11621879D01*
X2629467Y-11621879D02*
X2581848Y-11621879D01*
X2581848Y-11621879D02*
X2562801Y-11612356D01*
X2562801Y-11612356D02*
X2553277Y-11593308D01*
X2553277Y-11593308D02*
X2553277Y-11574260D01*
X2553277Y-11574260D02*
X2562801Y-11555213D01*
X2562801Y-11555213D02*
X2581848Y-11545689D01*
X2581848Y-11545689D02*
X2629467Y-11545689D01*
X2629467Y-11545689D02*
X2648515Y-11536165D01*
X2743753Y-11488546D02*
X2743753Y-11688546D01*
X2743753Y-11498070D02*
X2762801Y-11488546D01*
X2762801Y-11488546D02*
X2800896Y-11488546D01*
X2800896Y-11488546D02*
X2819943Y-11498070D01*
X2819943Y-11498070D02*
X2829467Y-11507594D01*
X2829467Y-11507594D02*
X2838991Y-11526641D01*
X2838991Y-11526641D02*
X2838991Y-11583784D01*
X2838991Y-11583784D02*
X2829467Y-11602832D01*
X2829467Y-11602832D02*
X2819943Y-11612356D01*
X2819943Y-11612356D02*
X2800896Y-11621879D01*
X2800896Y-11621879D02*
X2762801Y-11621879D01*
X2762801Y-11621879D02*
X2743753Y-11612356D01*
X2924705Y-11602832D02*
X2934229Y-11612356D01*
X2934229Y-11612356D02*
X2924705Y-11621879D01*
X2924705Y-11621879D02*
X2915182Y-11612356D01*
X2915182Y-11612356D02*
X2924705Y-11602832D01*
X2924705Y-11602832D02*
X2924705Y-11621879D01*
X2924705Y-11498070D02*
X2934229Y-11507594D01*
X2934229Y-11507594D02*
X2924705Y-11517118D01*
X2924705Y-11517118D02*
X2915182Y-11507594D01*
X2915182Y-11507594D02*
X2924705Y-11498070D01*
X2924705Y-11498070D02*
X2924705Y-11517118D01*
D12*
X1202500Y-11905396D02*
X1292500Y-11995396D01*
X1292500Y-11905396D02*
X1202500Y-11995396D01*
D11*
X1591372Y-11841879D02*
X1610420Y-11841879D01*
X1610420Y-11841879D02*
X1629467Y-11851403D01*
X1629467Y-11851403D02*
X1638991Y-11860927D01*
X1638991Y-11860927D02*
X1648515Y-11879975D01*
X1648515Y-11879975D02*
X1658039Y-11918070D01*
X1658039Y-11918070D02*
X1658039Y-11965689D01*
X1658039Y-11965689D02*
X1648515Y-12003784D01*
X1648515Y-12003784D02*
X1638991Y-12022832D01*
X1638991Y-12022832D02*
X1629467Y-12032356D01*
X1629467Y-12032356D02*
X1610420Y-12041879D01*
X1610420Y-12041879D02*
X1591372Y-12041879D01*
X1591372Y-12041879D02*
X1572324Y-12032356D01*
X1572324Y-12032356D02*
X1562801Y-12022832D01*
X1562801Y-12022832D02*
X1553277Y-12003784D01*
X1553277Y-12003784D02*
X1543753Y-11965689D01*
X1543753Y-11965689D02*
X1543753Y-11918070D01*
X1543753Y-11918070D02*
X1553277Y-11879975D01*
X1553277Y-11879975D02*
X1562801Y-11860927D01*
X1562801Y-11860927D02*
X1572324Y-11851403D01*
X1572324Y-11851403D02*
X1591372Y-11841879D01*
X1743753Y-12022832D02*
X1753277Y-12032356D01*
X1753277Y-12032356D02*
X1743753Y-12041879D01*
X1743753Y-12041879D02*
X1734229Y-12032356D01*
X1734229Y-12032356D02*
X1743753Y-12022832D01*
X1743753Y-12022832D02*
X1743753Y-12041879D01*
X1848515Y-12041879D02*
X1886610Y-12041879D01*
X1886610Y-12041879D02*
X1905658Y-12032356D01*
X1905658Y-12032356D02*
X1915182Y-12022832D01*
X1915182Y-12022832D02*
X1934229Y-11994260D01*
X1934229Y-11994260D02*
X1943753Y-11956165D01*
X1943753Y-11956165D02*
X1943753Y-11879975D01*
X1943753Y-11879975D02*
X1934229Y-11860927D01*
X1934229Y-11860927D02*
X1924705Y-11851403D01*
X1924705Y-11851403D02*
X1905658Y-11841879D01*
X1905658Y-11841879D02*
X1867562Y-11841879D01*
X1867562Y-11841879D02*
X1848515Y-11851403D01*
X1848515Y-11851403D02*
X1838991Y-11860927D01*
X1838991Y-11860927D02*
X1829467Y-11879975D01*
X1829467Y-11879975D02*
X1829467Y-11927594D01*
X1829467Y-11927594D02*
X1838991Y-11946641D01*
X1838991Y-11946641D02*
X1848515Y-11956165D01*
X1848515Y-11956165D02*
X1867562Y-11965689D01*
X1867562Y-11965689D02*
X1905658Y-11965689D01*
X1905658Y-11965689D02*
X1924705Y-11956165D01*
X1924705Y-11956165D02*
X1934229Y-11946641D01*
X1934229Y-11946641D02*
X1943753Y-11927594D01*
X2067562Y-11841879D02*
X2086610Y-11841879D01*
X2086610Y-11841879D02*
X2105658Y-11851403D01*
X2105658Y-11851403D02*
X2115182Y-11860927D01*
X2115182Y-11860927D02*
X2124705Y-11879975D01*
X2124705Y-11879975D02*
X2134229Y-11918070D01*
X2134229Y-11918070D02*
X2134229Y-11965689D01*
X2134229Y-11965689D02*
X2124705Y-12003784D01*
X2124705Y-12003784D02*
X2115182Y-12022832D01*
X2115182Y-12022832D02*
X2105658Y-12032356D01*
X2105658Y-12032356D02*
X2086610Y-12041879D01*
X2086610Y-12041879D02*
X2067562Y-12041879D01*
X2067562Y-12041879D02*
X2048515Y-12032356D01*
X2048515Y-12032356D02*
X2038991Y-12022832D01*
X2038991Y-12022832D02*
X2029467Y-12003784D01*
X2029467Y-12003784D02*
X2019943Y-11965689D01*
X2019943Y-11965689D02*
X2019943Y-11918070D01*
X2019943Y-11918070D02*
X2029467Y-11879975D01*
X2029467Y-11879975D02*
X2038991Y-11860927D01*
X2038991Y-11860927D02*
X2048515Y-11851403D01*
X2048515Y-11851403D02*
X2067562Y-11841879D01*
X2258039Y-11841879D02*
X2277086Y-11841879D01*
X2277086Y-11841879D02*
X2296134Y-11851403D01*
X2296134Y-11851403D02*
X2305658Y-11860927D01*
X2305658Y-11860927D02*
X2315182Y-11879975D01*
X2315182Y-11879975D02*
X2324705Y-11918070D01*
X2324705Y-11918070D02*
X2324705Y-11965689D01*
X2324705Y-11965689D02*
X2315182Y-12003784D01*
X2315182Y-12003784D02*
X2305658Y-12022832D01*
X2305658Y-12022832D02*
X2296134Y-12032356D01*
X2296134Y-12032356D02*
X2277086Y-12041879D01*
X2277086Y-12041879D02*
X2258039Y-12041879D01*
X2258039Y-12041879D02*
X2238991Y-12032356D01*
X2238991Y-12032356D02*
X2229467Y-12022832D01*
X2229467Y-12022832D02*
X2219944Y-12003784D01*
X2219944Y-12003784D02*
X2210420Y-11965689D01*
X2210420Y-11965689D02*
X2210420Y-11918070D01*
X2210420Y-11918070D02*
X2219944Y-11879975D01*
X2219944Y-11879975D02*
X2229467Y-11860927D01*
X2229467Y-11860927D02*
X2238991Y-11851403D01*
X2238991Y-11851403D02*
X2258039Y-11841879D01*
X2410420Y-12041879D02*
X2410420Y-11908546D01*
X2410420Y-11927594D02*
X2419944Y-11918070D01*
X2419944Y-11918070D02*
X2438991Y-11908546D01*
X2438991Y-11908546D02*
X2467563Y-11908546D01*
X2467563Y-11908546D02*
X2486610Y-11918070D01*
X2486610Y-11918070D02*
X2496134Y-11937118D01*
X2496134Y-11937118D02*
X2496134Y-12041879D01*
X2496134Y-11937118D02*
X2505658Y-11918070D01*
X2505658Y-11918070D02*
X2524705Y-11908546D01*
X2524705Y-11908546D02*
X2553277Y-11908546D01*
X2553277Y-11908546D02*
X2572325Y-11918070D01*
X2572325Y-11918070D02*
X2581848Y-11937118D01*
X2581848Y-11937118D02*
X2581848Y-12041879D01*
X2677086Y-12041879D02*
X2677086Y-11908546D01*
X2677086Y-11927594D02*
X2686610Y-11918070D01*
X2686610Y-11918070D02*
X2705658Y-11908546D01*
X2705658Y-11908546D02*
X2734229Y-11908546D01*
X2734229Y-11908546D02*
X2753277Y-11918070D01*
X2753277Y-11918070D02*
X2762801Y-11937118D01*
X2762801Y-11937118D02*
X2762801Y-12041879D01*
X2762801Y-11937118D02*
X2772325Y-11918070D01*
X2772325Y-11918070D02*
X2791372Y-11908546D01*
X2791372Y-11908546D02*
X2819943Y-11908546D01*
X2819943Y-11908546D02*
X2838991Y-11918070D01*
X2838991Y-11918070D02*
X2848515Y-11937118D01*
X2848515Y-11937118D02*
X2848515Y-12041879D01*
X3238991Y-11832356D02*
X3067563Y-12089498D01*
X3496134Y-11841879D02*
X3515182Y-11841879D01*
X3515182Y-11841879D02*
X3534229Y-11851403D01*
X3534229Y-11851403D02*
X3543753Y-11860927D01*
X3543753Y-11860927D02*
X3553277Y-11879975D01*
X3553277Y-11879975D02*
X3562801Y-11918070D01*
X3562801Y-11918070D02*
X3562801Y-11965689D01*
X3562801Y-11965689D02*
X3553277Y-12003784D01*
X3553277Y-12003784D02*
X3543753Y-12022832D01*
X3543753Y-12022832D02*
X3534229Y-12032356D01*
X3534229Y-12032356D02*
X3515182Y-12041879D01*
X3515182Y-12041879D02*
X3496134Y-12041879D01*
X3496134Y-12041879D02*
X3477086Y-12032356D01*
X3477086Y-12032356D02*
X3467563Y-12022832D01*
X3467563Y-12022832D02*
X3458039Y-12003784D01*
X3458039Y-12003784D02*
X3448515Y-11965689D01*
X3448515Y-11965689D02*
X3448515Y-11918070D01*
X3448515Y-11918070D02*
X3458039Y-11879975D01*
X3458039Y-11879975D02*
X3467563Y-11860927D01*
X3467563Y-11860927D02*
X3477086Y-11851403D01*
X3477086Y-11851403D02*
X3496134Y-11841879D01*
X3648515Y-12022832D02*
X3658039Y-12032356D01*
X3658039Y-12032356D02*
X3648515Y-12041879D01*
X3648515Y-12041879D02*
X3638991Y-12032356D01*
X3638991Y-12032356D02*
X3648515Y-12022832D01*
X3648515Y-12022832D02*
X3648515Y-12041879D01*
X3781848Y-11841879D02*
X3800896Y-11841879D01*
X3800896Y-11841879D02*
X3819944Y-11851403D01*
X3819944Y-11851403D02*
X3829467Y-11860927D01*
X3829467Y-11860927D02*
X3838991Y-11879975D01*
X3838991Y-11879975D02*
X3848515Y-11918070D01*
X3848515Y-11918070D02*
X3848515Y-11965689D01*
X3848515Y-11965689D02*
X3838991Y-12003784D01*
X3838991Y-12003784D02*
X3829467Y-12022832D01*
X3829467Y-12022832D02*
X3819944Y-12032356D01*
X3819944Y-12032356D02*
X3800896Y-12041879D01*
X3800896Y-12041879D02*
X3781848Y-12041879D01*
X3781848Y-12041879D02*
X3762801Y-12032356D01*
X3762801Y-12032356D02*
X3753277Y-12022832D01*
X3753277Y-12022832D02*
X3743753Y-12003784D01*
X3743753Y-12003784D02*
X3734229Y-11965689D01*
X3734229Y-11965689D02*
X3734229Y-11918070D01*
X3734229Y-11918070D02*
X3743753Y-11879975D01*
X3743753Y-11879975D02*
X3753277Y-11860927D01*
X3753277Y-11860927D02*
X3762801Y-11851403D01*
X3762801Y-11851403D02*
X3781848Y-11841879D01*
X3915182Y-11841879D02*
X4038991Y-11841879D01*
X4038991Y-11841879D02*
X3972325Y-11918070D01*
X3972325Y-11918070D02*
X4000896Y-11918070D01*
X4000896Y-11918070D02*
X4019944Y-11927594D01*
X4019944Y-11927594D02*
X4029467Y-11937118D01*
X4029467Y-11937118D02*
X4038991Y-11956165D01*
X4038991Y-11956165D02*
X4038991Y-12003784D01*
X4038991Y-12003784D02*
X4029467Y-12022832D01*
X4029467Y-12022832D02*
X4019944Y-12032356D01*
X4019944Y-12032356D02*
X4000896Y-12041879D01*
X4000896Y-12041879D02*
X3943753Y-12041879D01*
X3943753Y-12041879D02*
X3924706Y-12032356D01*
X3924706Y-12032356D02*
X3915182Y-12022832D01*
X4219944Y-11841879D02*
X4124706Y-11841879D01*
X4124706Y-11841879D02*
X4115182Y-11937118D01*
X4115182Y-11937118D02*
X4124706Y-11927594D01*
X4124706Y-11927594D02*
X4143753Y-11918070D01*
X4143753Y-11918070D02*
X4191372Y-11918070D01*
X4191372Y-11918070D02*
X4210420Y-11927594D01*
X4210420Y-11927594D02*
X4219944Y-11937118D01*
X4219944Y-11937118D02*
X4229468Y-11956165D01*
X4229468Y-11956165D02*
X4229468Y-12003784D01*
X4229468Y-12003784D02*
X4219944Y-12022832D01*
X4219944Y-12022832D02*
X4210420Y-12032356D01*
X4210420Y-12032356D02*
X4191372Y-12041879D01*
X4191372Y-12041879D02*
X4143753Y-12041879D01*
X4143753Y-12041879D02*
X4124706Y-12032356D01*
X4124706Y-12032356D02*
X4115182Y-12022832D01*
X4400896Y-11908546D02*
X4400896Y-12041879D01*
X4353277Y-11832356D02*
X4305658Y-11975213D01*
X4305658Y-11975213D02*
X4429468Y-11975213D01*
X4496134Y-11841879D02*
X4496134Y-11879975D01*
X4572325Y-11841879D02*
X4572325Y-11879975D01*
X4867563Y-12118070D02*
X4858039Y-12108546D01*
X4858039Y-12108546D02*
X4838991Y-12079975D01*
X4838991Y-12079975D02*
X4829468Y-12060927D01*
X4829468Y-12060927D02*
X4819944Y-12032356D01*
X4819944Y-12032356D02*
X4810420Y-11984737D01*
X4810420Y-11984737D02*
X4810420Y-11946641D01*
X4810420Y-11946641D02*
X4819944Y-11899022D01*
X4819944Y-11899022D02*
X4829468Y-11870451D01*
X4829468Y-11870451D02*
X4838991Y-11851403D01*
X4838991Y-11851403D02*
X4858039Y-11822832D01*
X4858039Y-11822832D02*
X4867563Y-11813308D01*
X4981849Y-11841879D02*
X5000896Y-11841879D01*
X5000896Y-11841879D02*
X5019944Y-11851403D01*
X5019944Y-11851403D02*
X5029468Y-11860927D01*
X5029468Y-11860927D02*
X5038991Y-11879975D01*
X5038991Y-11879975D02*
X5048515Y-11918070D01*
X5048515Y-11918070D02*
X5048515Y-11965689D01*
X5048515Y-11965689D02*
X5038991Y-12003784D01*
X5038991Y-12003784D02*
X5029468Y-12022832D01*
X5029468Y-12022832D02*
X5019944Y-12032356D01*
X5019944Y-12032356D02*
X5000896Y-12041879D01*
X5000896Y-12041879D02*
X4981849Y-12041879D01*
X4981849Y-12041879D02*
X4962801Y-12032356D01*
X4962801Y-12032356D02*
X4953277Y-12022832D01*
X4953277Y-12022832D02*
X4943753Y-12003784D01*
X4943753Y-12003784D02*
X4934230Y-11965689D01*
X4934230Y-11965689D02*
X4934230Y-11918070D01*
X4934230Y-11918070D02*
X4943753Y-11879975D01*
X4943753Y-11879975D02*
X4953277Y-11860927D01*
X4953277Y-11860927D02*
X4962801Y-11851403D01*
X4962801Y-11851403D02*
X4981849Y-11841879D01*
X5286611Y-12041879D02*
X5286611Y-11841879D01*
X5372325Y-12041879D02*
X5372325Y-11937118D01*
X5372325Y-11937118D02*
X5362801Y-11918070D01*
X5362801Y-11918070D02*
X5343753Y-11908546D01*
X5343753Y-11908546D02*
X5315182Y-11908546D01*
X5315182Y-11908546D02*
X5296134Y-11918070D01*
X5296134Y-11918070D02*
X5286611Y-11927594D01*
X5496134Y-12041879D02*
X5477087Y-12032356D01*
X5477087Y-12032356D02*
X5467563Y-12022832D01*
X5467563Y-12022832D02*
X5458039Y-12003784D01*
X5458039Y-12003784D02*
X5458039Y-11946641D01*
X5458039Y-11946641D02*
X5467563Y-11927594D01*
X5467563Y-11927594D02*
X5477087Y-11918070D01*
X5477087Y-11918070D02*
X5496134Y-11908546D01*
X5496134Y-11908546D02*
X5524706Y-11908546D01*
X5524706Y-11908546D02*
X5543753Y-11918070D01*
X5543753Y-11918070D02*
X5553277Y-11927594D01*
X5553277Y-11927594D02*
X5562801Y-11946641D01*
X5562801Y-11946641D02*
X5562801Y-12003784D01*
X5562801Y-12003784D02*
X5553277Y-12022832D01*
X5553277Y-12022832D02*
X5543753Y-12032356D01*
X5543753Y-12032356D02*
X5524706Y-12041879D01*
X5524706Y-12041879D02*
X5496134Y-12041879D01*
X5677087Y-12041879D02*
X5658039Y-12032356D01*
X5658039Y-12032356D02*
X5648515Y-12013308D01*
X5648515Y-12013308D02*
X5648515Y-11841879D01*
X5829468Y-12032356D02*
X5810420Y-12041879D01*
X5810420Y-12041879D02*
X5772325Y-12041879D01*
X5772325Y-12041879D02*
X5753277Y-12032356D01*
X5753277Y-12032356D02*
X5743753Y-12013308D01*
X5743753Y-12013308D02*
X5743753Y-11937118D01*
X5743753Y-11937118D02*
X5753277Y-11918070D01*
X5753277Y-11918070D02*
X5772325Y-11908546D01*
X5772325Y-11908546D02*
X5810420Y-11908546D01*
X5810420Y-11908546D02*
X5829468Y-11918070D01*
X5829468Y-11918070D02*
X5838991Y-11937118D01*
X5838991Y-11937118D02*
X5838991Y-11956165D01*
X5838991Y-11956165D02*
X5743753Y-11975213D01*
X5915182Y-12032356D02*
X5934230Y-12041879D01*
X5934230Y-12041879D02*
X5972325Y-12041879D01*
X5972325Y-12041879D02*
X5991372Y-12032356D01*
X5991372Y-12032356D02*
X6000896Y-12013308D01*
X6000896Y-12013308D02*
X6000896Y-12003784D01*
X6000896Y-12003784D02*
X5991372Y-11984737D01*
X5991372Y-11984737D02*
X5972325Y-11975213D01*
X5972325Y-11975213D02*
X5943753Y-11975213D01*
X5943753Y-11975213D02*
X5924706Y-11965689D01*
X5924706Y-11965689D02*
X5915182Y-11946641D01*
X5915182Y-11946641D02*
X5915182Y-11937118D01*
X5915182Y-11937118D02*
X5924706Y-11918070D01*
X5924706Y-11918070D02*
X5943753Y-11908546D01*
X5943753Y-11908546D02*
X5972325Y-11908546D01*
X5972325Y-11908546D02*
X5991372Y-11918070D01*
X6238992Y-11965689D02*
X6391373Y-11965689D01*
X6315182Y-12041879D02*
X6315182Y-11889498D01*
X6667563Y-11927594D02*
X6648515Y-11918070D01*
X6648515Y-11918070D02*
X6638992Y-11908546D01*
X6638992Y-11908546D02*
X6629468Y-11889498D01*
X6629468Y-11889498D02*
X6629468Y-11879975D01*
X6629468Y-11879975D02*
X6638992Y-11860927D01*
X6638992Y-11860927D02*
X6648515Y-11851403D01*
X6648515Y-11851403D02*
X6667563Y-11841879D01*
X6667563Y-11841879D02*
X6705658Y-11841879D01*
X6705658Y-11841879D02*
X6724706Y-11851403D01*
X6724706Y-11851403D02*
X6734230Y-11860927D01*
X6734230Y-11860927D02*
X6743753Y-11879975D01*
X6743753Y-11879975D02*
X6743753Y-11889498D01*
X6743753Y-11889498D02*
X6734230Y-11908546D01*
X6734230Y-11908546D02*
X6724706Y-11918070D01*
X6724706Y-11918070D02*
X6705658Y-11927594D01*
X6705658Y-11927594D02*
X6667563Y-11927594D01*
X6667563Y-11927594D02*
X6648515Y-11937118D01*
X6648515Y-11937118D02*
X6638992Y-11946641D01*
X6638992Y-11946641D02*
X6629468Y-11965689D01*
X6629468Y-11965689D02*
X6629468Y-12003784D01*
X6629468Y-12003784D02*
X6638992Y-12022832D01*
X6638992Y-12022832D02*
X6648515Y-12032356D01*
X6648515Y-12032356D02*
X6667563Y-12041879D01*
X6667563Y-12041879D02*
X6705658Y-12041879D01*
X6705658Y-12041879D02*
X6724706Y-12032356D01*
X6724706Y-12032356D02*
X6734230Y-12022832D01*
X6734230Y-12022832D02*
X6743753Y-12003784D01*
X6743753Y-12003784D02*
X6743753Y-11965689D01*
X6743753Y-11965689D02*
X6734230Y-11946641D01*
X6734230Y-11946641D02*
X6724706Y-11937118D01*
X6724706Y-11937118D02*
X6705658Y-11927594D01*
X6972325Y-12032356D02*
X6991373Y-12041879D01*
X6991373Y-12041879D02*
X7029468Y-12041879D01*
X7029468Y-12041879D02*
X7048515Y-12032356D01*
X7048515Y-12032356D02*
X7058039Y-12013308D01*
X7058039Y-12013308D02*
X7058039Y-12003784D01*
X7058039Y-12003784D02*
X7048515Y-11984737D01*
X7048515Y-11984737D02*
X7029468Y-11975213D01*
X7029468Y-11975213D02*
X7000896Y-11975213D01*
X7000896Y-11975213D02*
X6981849Y-11965689D01*
X6981849Y-11965689D02*
X6972325Y-11946641D01*
X6972325Y-11946641D02*
X6972325Y-11937118D01*
X6972325Y-11937118D02*
X6981849Y-11918070D01*
X6981849Y-11918070D02*
X7000896Y-11908546D01*
X7000896Y-11908546D02*
X7029468Y-11908546D01*
X7029468Y-11908546D02*
X7048515Y-11918070D01*
X7172325Y-12041879D02*
X7153277Y-12032356D01*
X7153277Y-12032356D02*
X7143754Y-12013308D01*
X7143754Y-12013308D02*
X7143754Y-11841879D01*
X7277087Y-12041879D02*
X7258039Y-12032356D01*
X7258039Y-12032356D02*
X7248515Y-12022832D01*
X7248515Y-12022832D02*
X7238992Y-12003784D01*
X7238992Y-12003784D02*
X7238992Y-11946641D01*
X7238992Y-11946641D02*
X7248515Y-11927594D01*
X7248515Y-11927594D02*
X7258039Y-11918070D01*
X7258039Y-11918070D02*
X7277087Y-11908546D01*
X7277087Y-11908546D02*
X7305658Y-11908546D01*
X7305658Y-11908546D02*
X7324706Y-11918070D01*
X7324706Y-11918070D02*
X7334230Y-11927594D01*
X7334230Y-11927594D02*
X7343754Y-11946641D01*
X7343754Y-11946641D02*
X7343754Y-12003784D01*
X7343754Y-12003784D02*
X7334230Y-12022832D01*
X7334230Y-12022832D02*
X7324706Y-12032356D01*
X7324706Y-12032356D02*
X7305658Y-12041879D01*
X7305658Y-12041879D02*
X7277087Y-12041879D01*
X7400896Y-11908546D02*
X7477087Y-11908546D01*
X7429468Y-11841879D02*
X7429468Y-12013308D01*
X7429468Y-12013308D02*
X7438992Y-12032356D01*
X7438992Y-12032356D02*
X7458039Y-12041879D01*
X7458039Y-12041879D02*
X7477087Y-12041879D01*
X7534230Y-12032356D02*
X7553277Y-12041879D01*
X7553277Y-12041879D02*
X7591373Y-12041879D01*
X7591373Y-12041879D02*
X7610420Y-12032356D01*
X7610420Y-12032356D02*
X7619944Y-12013308D01*
X7619944Y-12013308D02*
X7619944Y-12003784D01*
X7619944Y-12003784D02*
X7610420Y-11984737D01*
X7610420Y-11984737D02*
X7591373Y-11975213D01*
X7591373Y-11975213D02*
X7562801Y-11975213D01*
X7562801Y-11975213D02*
X7543754Y-11965689D01*
X7543754Y-11965689D02*
X7534230Y-11946641D01*
X7534230Y-11946641D02*
X7534230Y-11937118D01*
X7534230Y-11937118D02*
X7543754Y-11918070D01*
X7543754Y-11918070D02*
X7562801Y-11908546D01*
X7562801Y-11908546D02*
X7591373Y-11908546D01*
X7591373Y-11908546D02*
X7610420Y-11918070D01*
X7686611Y-12118070D02*
X7696135Y-12108546D01*
X7696135Y-12108546D02*
X7715182Y-12079975D01*
X7715182Y-12079975D02*
X7724706Y-12060927D01*
X7724706Y-12060927D02*
X7734230Y-12032356D01*
X7734230Y-12032356D02*
X7743754Y-11984737D01*
X7743754Y-11984737D02*
X7743754Y-11946641D01*
X7743754Y-11946641D02*
X7734230Y-11899022D01*
X7734230Y-11899022D02*
X7724706Y-11870451D01*
X7724706Y-11870451D02*
X7715182Y-11851403D01*
X7715182Y-11851403D02*
X7696135Y-11822832D01*
X7696135Y-11822832D02*
X7686611Y-11813308D01*
D13*
X1292500Y-12214396D02*
G75*
G03*
X1292500Y-12214396I-50000J0D01*
G01*
D11*
X1658039Y-12305879D02*
X1543753Y-12305879D01*
X1600896Y-12305879D02*
X1600896Y-12105879D01*
X1600896Y-12105879D02*
X1581848Y-12134451D01*
X1581848Y-12134451D02*
X1562801Y-12153498D01*
X1562801Y-12153498D02*
X1543753Y-12163022D01*
X1743753Y-12286832D02*
X1753277Y-12296356D01*
X1753277Y-12296356D02*
X1743753Y-12305879D01*
X1743753Y-12305879D02*
X1734229Y-12296356D01*
X1734229Y-12296356D02*
X1743753Y-12286832D01*
X1743753Y-12286832D02*
X1743753Y-12305879D01*
X1877086Y-12105879D02*
X1896134Y-12105879D01*
X1896134Y-12105879D02*
X1915182Y-12115403D01*
X1915182Y-12115403D02*
X1924705Y-12124927D01*
X1924705Y-12124927D02*
X1934229Y-12143975D01*
X1934229Y-12143975D02*
X1943753Y-12182070D01*
X1943753Y-12182070D02*
X1943753Y-12229689D01*
X1943753Y-12229689D02*
X1934229Y-12267784D01*
X1934229Y-12267784D02*
X1924705Y-12286832D01*
X1924705Y-12286832D02*
X1915182Y-12296356D01*
X1915182Y-12296356D02*
X1896134Y-12305879D01*
X1896134Y-12305879D02*
X1877086Y-12305879D01*
X1877086Y-12305879D02*
X1858039Y-12296356D01*
X1858039Y-12296356D02*
X1848515Y-12286832D01*
X1848515Y-12286832D02*
X1838991Y-12267784D01*
X1838991Y-12267784D02*
X1829467Y-12229689D01*
X1829467Y-12229689D02*
X1829467Y-12182070D01*
X1829467Y-12182070D02*
X1838991Y-12143975D01*
X1838991Y-12143975D02*
X1848515Y-12124927D01*
X1848515Y-12124927D02*
X1858039Y-12115403D01*
X1858039Y-12115403D02*
X1877086Y-12105879D01*
X2067562Y-12105879D02*
X2086610Y-12105879D01*
X2086610Y-12105879D02*
X2105658Y-12115403D01*
X2105658Y-12115403D02*
X2115182Y-12124927D01*
X2115182Y-12124927D02*
X2124705Y-12143975D01*
X2124705Y-12143975D02*
X2134229Y-12182070D01*
X2134229Y-12182070D02*
X2134229Y-12229689D01*
X2134229Y-12229689D02*
X2124705Y-12267784D01*
X2124705Y-12267784D02*
X2115182Y-12286832D01*
X2115182Y-12286832D02*
X2105658Y-12296356D01*
X2105658Y-12296356D02*
X2086610Y-12305879D01*
X2086610Y-12305879D02*
X2067562Y-12305879D01*
X2067562Y-12305879D02*
X2048515Y-12296356D01*
X2048515Y-12296356D02*
X2038991Y-12286832D01*
X2038991Y-12286832D02*
X2029467Y-12267784D01*
X2029467Y-12267784D02*
X2019943Y-12229689D01*
X2019943Y-12229689D02*
X2019943Y-12182070D01*
X2019943Y-12182070D02*
X2029467Y-12143975D01*
X2029467Y-12143975D02*
X2038991Y-12124927D01*
X2038991Y-12124927D02*
X2048515Y-12115403D01*
X2048515Y-12115403D02*
X2067562Y-12105879D01*
X2258039Y-12105879D02*
X2277086Y-12105879D01*
X2277086Y-12105879D02*
X2296134Y-12115403D01*
X2296134Y-12115403D02*
X2305658Y-12124927D01*
X2305658Y-12124927D02*
X2315182Y-12143975D01*
X2315182Y-12143975D02*
X2324705Y-12182070D01*
X2324705Y-12182070D02*
X2324705Y-12229689D01*
X2324705Y-12229689D02*
X2315182Y-12267784D01*
X2315182Y-12267784D02*
X2305658Y-12286832D01*
X2305658Y-12286832D02*
X2296134Y-12296356D01*
X2296134Y-12296356D02*
X2277086Y-12305879D01*
X2277086Y-12305879D02*
X2258039Y-12305879D01*
X2258039Y-12305879D02*
X2238991Y-12296356D01*
X2238991Y-12296356D02*
X2229467Y-12286832D01*
X2229467Y-12286832D02*
X2219944Y-12267784D01*
X2219944Y-12267784D02*
X2210420Y-12229689D01*
X2210420Y-12229689D02*
X2210420Y-12182070D01*
X2210420Y-12182070D02*
X2219944Y-12143975D01*
X2219944Y-12143975D02*
X2229467Y-12124927D01*
X2229467Y-12124927D02*
X2238991Y-12115403D01*
X2238991Y-12115403D02*
X2258039Y-12105879D01*
X2410420Y-12305879D02*
X2410420Y-12172546D01*
X2410420Y-12191594D02*
X2419944Y-12182070D01*
X2419944Y-12182070D02*
X2438991Y-12172546D01*
X2438991Y-12172546D02*
X2467563Y-12172546D01*
X2467563Y-12172546D02*
X2486610Y-12182070D01*
X2486610Y-12182070D02*
X2496134Y-12201118D01*
X2496134Y-12201118D02*
X2496134Y-12305879D01*
X2496134Y-12201118D02*
X2505658Y-12182070D01*
X2505658Y-12182070D02*
X2524705Y-12172546D01*
X2524705Y-12172546D02*
X2553277Y-12172546D01*
X2553277Y-12172546D02*
X2572325Y-12182070D01*
X2572325Y-12182070D02*
X2581848Y-12201118D01*
X2581848Y-12201118D02*
X2581848Y-12305879D01*
X2677086Y-12305879D02*
X2677086Y-12172546D01*
X2677086Y-12191594D02*
X2686610Y-12182070D01*
X2686610Y-12182070D02*
X2705658Y-12172546D01*
X2705658Y-12172546D02*
X2734229Y-12172546D01*
X2734229Y-12172546D02*
X2753277Y-12182070D01*
X2753277Y-12182070D02*
X2762801Y-12201118D01*
X2762801Y-12201118D02*
X2762801Y-12305879D01*
X2762801Y-12201118D02*
X2772325Y-12182070D01*
X2772325Y-12182070D02*
X2791372Y-12172546D01*
X2791372Y-12172546D02*
X2819943Y-12172546D01*
X2819943Y-12172546D02*
X2838991Y-12182070D01*
X2838991Y-12182070D02*
X2848515Y-12201118D01*
X2848515Y-12201118D02*
X2848515Y-12305879D01*
X3238991Y-12096356D02*
X3067563Y-12353498D01*
X3496134Y-12105879D02*
X3515182Y-12105879D01*
X3515182Y-12105879D02*
X3534229Y-12115403D01*
X3534229Y-12115403D02*
X3543753Y-12124927D01*
X3543753Y-12124927D02*
X3553277Y-12143975D01*
X3553277Y-12143975D02*
X3562801Y-12182070D01*
X3562801Y-12182070D02*
X3562801Y-12229689D01*
X3562801Y-12229689D02*
X3553277Y-12267784D01*
X3553277Y-12267784D02*
X3543753Y-12286832D01*
X3543753Y-12286832D02*
X3534229Y-12296356D01*
X3534229Y-12296356D02*
X3515182Y-12305879D01*
X3515182Y-12305879D02*
X3496134Y-12305879D01*
X3496134Y-12305879D02*
X3477086Y-12296356D01*
X3477086Y-12296356D02*
X3467563Y-12286832D01*
X3467563Y-12286832D02*
X3458039Y-12267784D01*
X3458039Y-12267784D02*
X3448515Y-12229689D01*
X3448515Y-12229689D02*
X3448515Y-12182070D01*
X3448515Y-12182070D02*
X3458039Y-12143975D01*
X3458039Y-12143975D02*
X3467563Y-12124927D01*
X3467563Y-12124927D02*
X3477086Y-12115403D01*
X3477086Y-12115403D02*
X3496134Y-12105879D01*
X3648515Y-12286832D02*
X3658039Y-12296356D01*
X3658039Y-12296356D02*
X3648515Y-12305879D01*
X3648515Y-12305879D02*
X3638991Y-12296356D01*
X3638991Y-12296356D02*
X3648515Y-12286832D01*
X3648515Y-12286832D02*
X3648515Y-12305879D01*
X3781848Y-12105879D02*
X3800896Y-12105879D01*
X3800896Y-12105879D02*
X3819944Y-12115403D01*
X3819944Y-12115403D02*
X3829467Y-12124927D01*
X3829467Y-12124927D02*
X3838991Y-12143975D01*
X3838991Y-12143975D02*
X3848515Y-12182070D01*
X3848515Y-12182070D02*
X3848515Y-12229689D01*
X3848515Y-12229689D02*
X3838991Y-12267784D01*
X3838991Y-12267784D02*
X3829467Y-12286832D01*
X3829467Y-12286832D02*
X3819944Y-12296356D01*
X3819944Y-12296356D02*
X3800896Y-12305879D01*
X3800896Y-12305879D02*
X3781848Y-12305879D01*
X3781848Y-12305879D02*
X3762801Y-12296356D01*
X3762801Y-12296356D02*
X3753277Y-12286832D01*
X3753277Y-12286832D02*
X3743753Y-12267784D01*
X3743753Y-12267784D02*
X3734229Y-12229689D01*
X3734229Y-12229689D02*
X3734229Y-12182070D01*
X3734229Y-12182070D02*
X3743753Y-12143975D01*
X3743753Y-12143975D02*
X3753277Y-12124927D01*
X3753277Y-12124927D02*
X3762801Y-12115403D01*
X3762801Y-12115403D02*
X3781848Y-12105879D01*
X3915182Y-12105879D02*
X4038991Y-12105879D01*
X4038991Y-12105879D02*
X3972325Y-12182070D01*
X3972325Y-12182070D02*
X4000896Y-12182070D01*
X4000896Y-12182070D02*
X4019944Y-12191594D01*
X4019944Y-12191594D02*
X4029467Y-12201118D01*
X4029467Y-12201118D02*
X4038991Y-12220165D01*
X4038991Y-12220165D02*
X4038991Y-12267784D01*
X4038991Y-12267784D02*
X4029467Y-12286832D01*
X4029467Y-12286832D02*
X4019944Y-12296356D01*
X4019944Y-12296356D02*
X4000896Y-12305879D01*
X4000896Y-12305879D02*
X3943753Y-12305879D01*
X3943753Y-12305879D02*
X3924706Y-12296356D01*
X3924706Y-12296356D02*
X3915182Y-12286832D01*
X4134229Y-12305879D02*
X4172325Y-12305879D01*
X4172325Y-12305879D02*
X4191372Y-12296356D01*
X4191372Y-12296356D02*
X4200896Y-12286832D01*
X4200896Y-12286832D02*
X4219944Y-12258260D01*
X4219944Y-12258260D02*
X4229468Y-12220165D01*
X4229468Y-12220165D02*
X4229468Y-12143975D01*
X4229468Y-12143975D02*
X4219944Y-12124927D01*
X4219944Y-12124927D02*
X4210420Y-12115403D01*
X4210420Y-12115403D02*
X4191372Y-12105879D01*
X4191372Y-12105879D02*
X4153277Y-12105879D01*
X4153277Y-12105879D02*
X4134229Y-12115403D01*
X4134229Y-12115403D02*
X4124706Y-12124927D01*
X4124706Y-12124927D02*
X4115182Y-12143975D01*
X4115182Y-12143975D02*
X4115182Y-12191594D01*
X4115182Y-12191594D02*
X4124706Y-12210641D01*
X4124706Y-12210641D02*
X4134229Y-12220165D01*
X4134229Y-12220165D02*
X4153277Y-12229689D01*
X4153277Y-12229689D02*
X4191372Y-12229689D01*
X4191372Y-12229689D02*
X4210420Y-12220165D01*
X4210420Y-12220165D02*
X4219944Y-12210641D01*
X4219944Y-12210641D02*
X4229468Y-12191594D01*
X4400896Y-12172546D02*
X4400896Y-12305879D01*
X4353277Y-12096356D02*
X4305658Y-12239213D01*
X4305658Y-12239213D02*
X4429468Y-12239213D01*
X4496134Y-12105879D02*
X4496134Y-12143975D01*
X4572325Y-12105879D02*
X4572325Y-12143975D01*
X4867563Y-12382070D02*
X4858039Y-12372546D01*
X4858039Y-12372546D02*
X4838991Y-12343975D01*
X4838991Y-12343975D02*
X4829468Y-12324927D01*
X4829468Y-12324927D02*
X4819944Y-12296356D01*
X4819944Y-12296356D02*
X4810420Y-12248737D01*
X4810420Y-12248737D02*
X4810420Y-12210641D01*
X4810420Y-12210641D02*
X4819944Y-12163022D01*
X4819944Y-12163022D02*
X4829468Y-12134451D01*
X4829468Y-12134451D02*
X4838991Y-12115403D01*
X4838991Y-12115403D02*
X4858039Y-12086832D01*
X4858039Y-12086832D02*
X4867563Y-12077308D01*
X4972325Y-12191594D02*
X4953277Y-12182070D01*
X4953277Y-12182070D02*
X4943753Y-12172546D01*
X4943753Y-12172546D02*
X4934230Y-12153498D01*
X4934230Y-12153498D02*
X4934230Y-12143975D01*
X4934230Y-12143975D02*
X4943753Y-12124927D01*
X4943753Y-12124927D02*
X4953277Y-12115403D01*
X4953277Y-12115403D02*
X4972325Y-12105879D01*
X4972325Y-12105879D02*
X5010420Y-12105879D01*
X5010420Y-12105879D02*
X5029468Y-12115403D01*
X5029468Y-12115403D02*
X5038991Y-12124927D01*
X5038991Y-12124927D02*
X5048515Y-12143975D01*
X5048515Y-12143975D02*
X5048515Y-12153498D01*
X5048515Y-12153498D02*
X5038991Y-12172546D01*
X5038991Y-12172546D02*
X5029468Y-12182070D01*
X5029468Y-12182070D02*
X5010420Y-12191594D01*
X5010420Y-12191594D02*
X4972325Y-12191594D01*
X4972325Y-12191594D02*
X4953277Y-12201118D01*
X4953277Y-12201118D02*
X4943753Y-12210641D01*
X4943753Y-12210641D02*
X4934230Y-12229689D01*
X4934230Y-12229689D02*
X4934230Y-12267784D01*
X4934230Y-12267784D02*
X4943753Y-12286832D01*
X4943753Y-12286832D02*
X4953277Y-12296356D01*
X4953277Y-12296356D02*
X4972325Y-12305879D01*
X4972325Y-12305879D02*
X5010420Y-12305879D01*
X5010420Y-12305879D02*
X5029468Y-12296356D01*
X5029468Y-12296356D02*
X5038991Y-12286832D01*
X5038991Y-12286832D02*
X5048515Y-12267784D01*
X5048515Y-12267784D02*
X5048515Y-12229689D01*
X5048515Y-12229689D02*
X5038991Y-12210641D01*
X5038991Y-12210641D02*
X5029468Y-12201118D01*
X5029468Y-12201118D02*
X5010420Y-12191594D01*
X5172325Y-12105879D02*
X5191372Y-12105879D01*
X5191372Y-12105879D02*
X5210420Y-12115403D01*
X5210420Y-12115403D02*
X5219944Y-12124927D01*
X5219944Y-12124927D02*
X5229468Y-12143975D01*
X5229468Y-12143975D02*
X5238991Y-12182070D01*
X5238991Y-12182070D02*
X5238991Y-12229689D01*
X5238991Y-12229689D02*
X5229468Y-12267784D01*
X5229468Y-12267784D02*
X5219944Y-12286832D01*
X5219944Y-12286832D02*
X5210420Y-12296356D01*
X5210420Y-12296356D02*
X5191372Y-12305879D01*
X5191372Y-12305879D02*
X5172325Y-12305879D01*
X5172325Y-12305879D02*
X5153277Y-12296356D01*
X5153277Y-12296356D02*
X5143753Y-12286832D01*
X5143753Y-12286832D02*
X5134230Y-12267784D01*
X5134230Y-12267784D02*
X5124706Y-12229689D01*
X5124706Y-12229689D02*
X5124706Y-12182070D01*
X5124706Y-12182070D02*
X5134230Y-12143975D01*
X5134230Y-12143975D02*
X5143753Y-12124927D01*
X5143753Y-12124927D02*
X5153277Y-12115403D01*
X5153277Y-12115403D02*
X5172325Y-12105879D01*
X5477087Y-12305879D02*
X5477087Y-12105879D01*
X5562801Y-12305879D02*
X5562801Y-12201118D01*
X5562801Y-12201118D02*
X5553277Y-12182070D01*
X5553277Y-12182070D02*
X5534230Y-12172546D01*
X5534230Y-12172546D02*
X5505658Y-12172546D01*
X5505658Y-12172546D02*
X5486611Y-12182070D01*
X5486611Y-12182070D02*
X5477087Y-12191594D01*
X5686610Y-12305879D02*
X5667563Y-12296356D01*
X5667563Y-12296356D02*
X5658039Y-12286832D01*
X5658039Y-12286832D02*
X5648515Y-12267784D01*
X5648515Y-12267784D02*
X5648515Y-12210641D01*
X5648515Y-12210641D02*
X5658039Y-12191594D01*
X5658039Y-12191594D02*
X5667563Y-12182070D01*
X5667563Y-12182070D02*
X5686610Y-12172546D01*
X5686610Y-12172546D02*
X5715182Y-12172546D01*
X5715182Y-12172546D02*
X5734230Y-12182070D01*
X5734230Y-12182070D02*
X5743753Y-12191594D01*
X5743753Y-12191594D02*
X5753277Y-12210641D01*
X5753277Y-12210641D02*
X5753277Y-12267784D01*
X5753277Y-12267784D02*
X5743753Y-12286832D01*
X5743753Y-12286832D02*
X5734230Y-12296356D01*
X5734230Y-12296356D02*
X5715182Y-12305879D01*
X5715182Y-12305879D02*
X5686610Y-12305879D01*
X5867563Y-12305879D02*
X5848515Y-12296356D01*
X5848515Y-12296356D02*
X5838991Y-12277308D01*
X5838991Y-12277308D02*
X5838991Y-12105879D01*
X6019944Y-12296356D02*
X6000896Y-12305879D01*
X6000896Y-12305879D02*
X5962801Y-12305879D01*
X5962801Y-12305879D02*
X5943753Y-12296356D01*
X5943753Y-12296356D02*
X5934230Y-12277308D01*
X5934230Y-12277308D02*
X5934230Y-12201118D01*
X5934230Y-12201118D02*
X5943753Y-12182070D01*
X5943753Y-12182070D02*
X5962801Y-12172546D01*
X5962801Y-12172546D02*
X6000896Y-12172546D01*
X6000896Y-12172546D02*
X6019944Y-12182070D01*
X6019944Y-12182070D02*
X6029468Y-12201118D01*
X6029468Y-12201118D02*
X6029468Y-12220165D01*
X6029468Y-12220165D02*
X5934230Y-12239213D01*
X6105658Y-12296356D02*
X6124706Y-12305879D01*
X6124706Y-12305879D02*
X6162801Y-12305879D01*
X6162801Y-12305879D02*
X6181849Y-12296356D01*
X6181849Y-12296356D02*
X6191372Y-12277308D01*
X6191372Y-12277308D02*
X6191372Y-12267784D01*
X6191372Y-12267784D02*
X6181849Y-12248737D01*
X6181849Y-12248737D02*
X6162801Y-12239213D01*
X6162801Y-12239213D02*
X6134230Y-12239213D01*
X6134230Y-12239213D02*
X6115182Y-12229689D01*
X6115182Y-12229689D02*
X6105658Y-12210641D01*
X6105658Y-12210641D02*
X6105658Y-12201118D01*
X6105658Y-12201118D02*
X6115182Y-12182070D01*
X6115182Y-12182070D02*
X6134230Y-12172546D01*
X6134230Y-12172546D02*
X6162801Y-12172546D01*
X6162801Y-12172546D02*
X6181849Y-12182070D01*
X6258039Y-12382070D02*
X6267563Y-12372546D01*
X6267563Y-12372546D02*
X6286611Y-12343975D01*
X6286611Y-12343975D02*
X6296134Y-12324927D01*
X6296134Y-12324927D02*
X6305658Y-12296356D01*
X6305658Y-12296356D02*
X6315182Y-12248737D01*
X6315182Y-12248737D02*
X6315182Y-12210641D01*
X6315182Y-12210641D02*
X6305658Y-12163022D01*
X6305658Y-12163022D02*
X6296134Y-12134451D01*
X6296134Y-12134451D02*
X6286611Y-12115403D01*
X6286611Y-12115403D02*
X6267563Y-12086832D01*
X6267563Y-12086832D02*
X6258039Y-12077308D01*
D14*
X1229000Y-12414896D02*
X1229000Y-12541896D01*
X1165500Y-12478396D02*
X1292500Y-12478396D01*
D11*
X1658039Y-12569879D02*
X1543753Y-12569879D01*
X1600896Y-12569879D02*
X1600896Y-12369879D01*
X1600896Y-12369879D02*
X1581848Y-12398451D01*
X1581848Y-12398451D02*
X1562801Y-12417498D01*
X1562801Y-12417498D02*
X1543753Y-12427022D01*
X1743753Y-12550832D02*
X1753277Y-12560356D01*
X1753277Y-12560356D02*
X1743753Y-12569879D01*
X1743753Y-12569879D02*
X1734229Y-12560356D01*
X1734229Y-12560356D02*
X1743753Y-12550832D01*
X1743753Y-12550832D02*
X1743753Y-12569879D01*
X1829467Y-12388927D02*
X1838991Y-12379403D01*
X1838991Y-12379403D02*
X1858039Y-12369879D01*
X1858039Y-12369879D02*
X1905658Y-12369879D01*
X1905658Y-12369879D02*
X1924705Y-12379403D01*
X1924705Y-12379403D02*
X1934229Y-12388927D01*
X1934229Y-12388927D02*
X1943753Y-12407975D01*
X1943753Y-12407975D02*
X1943753Y-12427022D01*
X1943753Y-12427022D02*
X1934229Y-12455594D01*
X1934229Y-12455594D02*
X1819943Y-12569879D01*
X1819943Y-12569879D02*
X1943753Y-12569879D01*
X2010420Y-12369879D02*
X2143753Y-12369879D01*
X2143753Y-12369879D02*
X2058039Y-12569879D01*
X2258039Y-12369879D02*
X2277086Y-12369879D01*
X2277086Y-12369879D02*
X2296134Y-12379403D01*
X2296134Y-12379403D02*
X2305658Y-12388927D01*
X2305658Y-12388927D02*
X2315182Y-12407975D01*
X2315182Y-12407975D02*
X2324705Y-12446070D01*
X2324705Y-12446070D02*
X2324705Y-12493689D01*
X2324705Y-12493689D02*
X2315182Y-12531784D01*
X2315182Y-12531784D02*
X2305658Y-12550832D01*
X2305658Y-12550832D02*
X2296134Y-12560356D01*
X2296134Y-12560356D02*
X2277086Y-12569879D01*
X2277086Y-12569879D02*
X2258039Y-12569879D01*
X2258039Y-12569879D02*
X2238991Y-12560356D01*
X2238991Y-12560356D02*
X2229467Y-12550832D01*
X2229467Y-12550832D02*
X2219944Y-12531784D01*
X2219944Y-12531784D02*
X2210420Y-12493689D01*
X2210420Y-12493689D02*
X2210420Y-12446070D01*
X2210420Y-12446070D02*
X2219944Y-12407975D01*
X2219944Y-12407975D02*
X2229467Y-12388927D01*
X2229467Y-12388927D02*
X2238991Y-12379403D01*
X2238991Y-12379403D02*
X2258039Y-12369879D01*
X2410420Y-12569879D02*
X2410420Y-12436546D01*
X2410420Y-12455594D02*
X2419944Y-12446070D01*
X2419944Y-12446070D02*
X2438991Y-12436546D01*
X2438991Y-12436546D02*
X2467563Y-12436546D01*
X2467563Y-12436546D02*
X2486610Y-12446070D01*
X2486610Y-12446070D02*
X2496134Y-12465118D01*
X2496134Y-12465118D02*
X2496134Y-12569879D01*
X2496134Y-12465118D02*
X2505658Y-12446070D01*
X2505658Y-12446070D02*
X2524705Y-12436546D01*
X2524705Y-12436546D02*
X2553277Y-12436546D01*
X2553277Y-12436546D02*
X2572325Y-12446070D01*
X2572325Y-12446070D02*
X2581848Y-12465118D01*
X2581848Y-12465118D02*
X2581848Y-12569879D01*
X2677086Y-12569879D02*
X2677086Y-12436546D01*
X2677086Y-12455594D02*
X2686610Y-12446070D01*
X2686610Y-12446070D02*
X2705658Y-12436546D01*
X2705658Y-12436546D02*
X2734229Y-12436546D01*
X2734229Y-12436546D02*
X2753277Y-12446070D01*
X2753277Y-12446070D02*
X2762801Y-12465118D01*
X2762801Y-12465118D02*
X2762801Y-12569879D01*
X2762801Y-12465118D02*
X2772325Y-12446070D01*
X2772325Y-12446070D02*
X2791372Y-12436546D01*
X2791372Y-12436546D02*
X2819943Y-12436546D01*
X2819943Y-12436546D02*
X2838991Y-12446070D01*
X2838991Y-12446070D02*
X2848515Y-12465118D01*
X2848515Y-12465118D02*
X2848515Y-12569879D01*
X3238991Y-12360356D02*
X3067563Y-12617498D01*
X3496134Y-12369879D02*
X3515182Y-12369879D01*
X3515182Y-12369879D02*
X3534229Y-12379403D01*
X3534229Y-12379403D02*
X3543753Y-12388927D01*
X3543753Y-12388927D02*
X3553277Y-12407975D01*
X3553277Y-12407975D02*
X3562801Y-12446070D01*
X3562801Y-12446070D02*
X3562801Y-12493689D01*
X3562801Y-12493689D02*
X3553277Y-12531784D01*
X3553277Y-12531784D02*
X3543753Y-12550832D01*
X3543753Y-12550832D02*
X3534229Y-12560356D01*
X3534229Y-12560356D02*
X3515182Y-12569879D01*
X3515182Y-12569879D02*
X3496134Y-12569879D01*
X3496134Y-12569879D02*
X3477086Y-12560356D01*
X3477086Y-12560356D02*
X3467563Y-12550832D01*
X3467563Y-12550832D02*
X3458039Y-12531784D01*
X3458039Y-12531784D02*
X3448515Y-12493689D01*
X3448515Y-12493689D02*
X3448515Y-12446070D01*
X3448515Y-12446070D02*
X3458039Y-12407975D01*
X3458039Y-12407975D02*
X3467563Y-12388927D01*
X3467563Y-12388927D02*
X3477086Y-12379403D01*
X3477086Y-12379403D02*
X3496134Y-12369879D01*
X3648515Y-12550832D02*
X3658039Y-12560356D01*
X3658039Y-12560356D02*
X3648515Y-12569879D01*
X3648515Y-12569879D02*
X3638991Y-12560356D01*
X3638991Y-12560356D02*
X3648515Y-12550832D01*
X3648515Y-12550832D02*
X3648515Y-12569879D01*
X3781848Y-12369879D02*
X3800896Y-12369879D01*
X3800896Y-12369879D02*
X3819944Y-12379403D01*
X3819944Y-12379403D02*
X3829467Y-12388927D01*
X3829467Y-12388927D02*
X3838991Y-12407975D01*
X3838991Y-12407975D02*
X3848515Y-12446070D01*
X3848515Y-12446070D02*
X3848515Y-12493689D01*
X3848515Y-12493689D02*
X3838991Y-12531784D01*
X3838991Y-12531784D02*
X3829467Y-12550832D01*
X3829467Y-12550832D02*
X3819944Y-12560356D01*
X3819944Y-12560356D02*
X3800896Y-12569879D01*
X3800896Y-12569879D02*
X3781848Y-12569879D01*
X3781848Y-12569879D02*
X3762801Y-12560356D01*
X3762801Y-12560356D02*
X3753277Y-12550832D01*
X3753277Y-12550832D02*
X3743753Y-12531784D01*
X3743753Y-12531784D02*
X3734229Y-12493689D01*
X3734229Y-12493689D02*
X3734229Y-12446070D01*
X3734229Y-12446070D02*
X3743753Y-12407975D01*
X3743753Y-12407975D02*
X3753277Y-12388927D01*
X3753277Y-12388927D02*
X3762801Y-12379403D01*
X3762801Y-12379403D02*
X3781848Y-12369879D01*
X4029467Y-12369879D02*
X3934229Y-12369879D01*
X3934229Y-12369879D02*
X3924706Y-12465118D01*
X3924706Y-12465118D02*
X3934229Y-12455594D01*
X3934229Y-12455594D02*
X3953277Y-12446070D01*
X3953277Y-12446070D02*
X4000896Y-12446070D01*
X4000896Y-12446070D02*
X4019944Y-12455594D01*
X4019944Y-12455594D02*
X4029467Y-12465118D01*
X4029467Y-12465118D02*
X4038991Y-12484165D01*
X4038991Y-12484165D02*
X4038991Y-12531784D01*
X4038991Y-12531784D02*
X4029467Y-12550832D01*
X4029467Y-12550832D02*
X4019944Y-12560356D01*
X4019944Y-12560356D02*
X4000896Y-12569879D01*
X4000896Y-12569879D02*
X3953277Y-12569879D01*
X3953277Y-12569879D02*
X3934229Y-12560356D01*
X3934229Y-12560356D02*
X3924706Y-12550832D01*
X4162801Y-12369879D02*
X4181848Y-12369879D01*
X4181848Y-12369879D02*
X4200896Y-12379403D01*
X4200896Y-12379403D02*
X4210420Y-12388927D01*
X4210420Y-12388927D02*
X4219944Y-12407975D01*
X4219944Y-12407975D02*
X4229468Y-12446070D01*
X4229468Y-12446070D02*
X4229468Y-12493689D01*
X4229468Y-12493689D02*
X4219944Y-12531784D01*
X4219944Y-12531784D02*
X4210420Y-12550832D01*
X4210420Y-12550832D02*
X4200896Y-12560356D01*
X4200896Y-12560356D02*
X4181848Y-12569879D01*
X4181848Y-12569879D02*
X4162801Y-12569879D01*
X4162801Y-12569879D02*
X4143753Y-12560356D01*
X4143753Y-12560356D02*
X4134229Y-12550832D01*
X4134229Y-12550832D02*
X4124706Y-12531784D01*
X4124706Y-12531784D02*
X4115182Y-12493689D01*
X4115182Y-12493689D02*
X4115182Y-12446070D01*
X4115182Y-12446070D02*
X4124706Y-12407975D01*
X4124706Y-12407975D02*
X4134229Y-12388927D01*
X4134229Y-12388927D02*
X4143753Y-12379403D01*
X4143753Y-12379403D02*
X4162801Y-12369879D01*
X4353277Y-12369879D02*
X4372325Y-12369879D01*
X4372325Y-12369879D02*
X4391372Y-12379403D01*
X4391372Y-12379403D02*
X4400896Y-12388927D01*
X4400896Y-12388927D02*
X4410420Y-12407975D01*
X4410420Y-12407975D02*
X4419944Y-12446070D01*
X4419944Y-12446070D02*
X4419944Y-12493689D01*
X4419944Y-12493689D02*
X4410420Y-12531784D01*
X4410420Y-12531784D02*
X4400896Y-12550832D01*
X4400896Y-12550832D02*
X4391372Y-12560356D01*
X4391372Y-12560356D02*
X4372325Y-12569879D01*
X4372325Y-12569879D02*
X4353277Y-12569879D01*
X4353277Y-12569879D02*
X4334229Y-12560356D01*
X4334229Y-12560356D02*
X4324706Y-12550832D01*
X4324706Y-12550832D02*
X4315182Y-12531784D01*
X4315182Y-12531784D02*
X4305658Y-12493689D01*
X4305658Y-12493689D02*
X4305658Y-12446070D01*
X4305658Y-12446070D02*
X4315182Y-12407975D01*
X4315182Y-12407975D02*
X4324706Y-12388927D01*
X4324706Y-12388927D02*
X4334229Y-12379403D01*
X4334229Y-12379403D02*
X4353277Y-12369879D01*
X4496134Y-12369879D02*
X4496134Y-12407975D01*
X4572325Y-12369879D02*
X4572325Y-12407975D01*
X4867563Y-12646070D02*
X4858039Y-12636546D01*
X4858039Y-12636546D02*
X4838991Y-12607975D01*
X4838991Y-12607975D02*
X4829468Y-12588927D01*
X4829468Y-12588927D02*
X4819944Y-12560356D01*
X4819944Y-12560356D02*
X4810420Y-12512737D01*
X4810420Y-12512737D02*
X4810420Y-12474641D01*
X4810420Y-12474641D02*
X4819944Y-12427022D01*
X4819944Y-12427022D02*
X4829468Y-12398451D01*
X4829468Y-12398451D02*
X4838991Y-12379403D01*
X4838991Y-12379403D02*
X4858039Y-12350832D01*
X4858039Y-12350832D02*
X4867563Y-12341308D01*
X4972325Y-12455594D02*
X4953277Y-12446070D01*
X4953277Y-12446070D02*
X4943753Y-12436546D01*
X4943753Y-12436546D02*
X4934230Y-12417498D01*
X4934230Y-12417498D02*
X4934230Y-12407975D01*
X4934230Y-12407975D02*
X4943753Y-12388927D01*
X4943753Y-12388927D02*
X4953277Y-12379403D01*
X4953277Y-12379403D02*
X4972325Y-12369879D01*
X4972325Y-12369879D02*
X5010420Y-12369879D01*
X5010420Y-12369879D02*
X5029468Y-12379403D01*
X5029468Y-12379403D02*
X5038991Y-12388927D01*
X5038991Y-12388927D02*
X5048515Y-12407975D01*
X5048515Y-12407975D02*
X5048515Y-12417498D01*
X5048515Y-12417498D02*
X5038991Y-12436546D01*
X5038991Y-12436546D02*
X5029468Y-12446070D01*
X5029468Y-12446070D02*
X5010420Y-12455594D01*
X5010420Y-12455594D02*
X4972325Y-12455594D01*
X4972325Y-12455594D02*
X4953277Y-12465118D01*
X4953277Y-12465118D02*
X4943753Y-12474641D01*
X4943753Y-12474641D02*
X4934230Y-12493689D01*
X4934230Y-12493689D02*
X4934230Y-12531784D01*
X4934230Y-12531784D02*
X4943753Y-12550832D01*
X4943753Y-12550832D02*
X4953277Y-12560356D01*
X4953277Y-12560356D02*
X4972325Y-12569879D01*
X4972325Y-12569879D02*
X5010420Y-12569879D01*
X5010420Y-12569879D02*
X5029468Y-12560356D01*
X5029468Y-12560356D02*
X5038991Y-12550832D01*
X5038991Y-12550832D02*
X5048515Y-12531784D01*
X5048515Y-12531784D02*
X5048515Y-12493689D01*
X5048515Y-12493689D02*
X5038991Y-12474641D01*
X5038991Y-12474641D02*
X5029468Y-12465118D01*
X5029468Y-12465118D02*
X5010420Y-12455594D01*
X5219944Y-12436546D02*
X5219944Y-12569879D01*
X5172325Y-12360356D02*
X5124706Y-12503213D01*
X5124706Y-12503213D02*
X5248515Y-12503213D01*
X5477087Y-12569879D02*
X5477087Y-12369879D01*
X5562801Y-12569879D02*
X5562801Y-12465118D01*
X5562801Y-12465118D02*
X5553277Y-12446070D01*
X5553277Y-12446070D02*
X5534230Y-12436546D01*
X5534230Y-12436546D02*
X5505658Y-12436546D01*
X5505658Y-12436546D02*
X5486611Y-12446070D01*
X5486611Y-12446070D02*
X5477087Y-12455594D01*
X5686610Y-12569879D02*
X5667563Y-12560356D01*
X5667563Y-12560356D02*
X5658039Y-12550832D01*
X5658039Y-12550832D02*
X5648515Y-12531784D01*
X5648515Y-12531784D02*
X5648515Y-12474641D01*
X5648515Y-12474641D02*
X5658039Y-12455594D01*
X5658039Y-12455594D02*
X5667563Y-12446070D01*
X5667563Y-12446070D02*
X5686610Y-12436546D01*
X5686610Y-12436546D02*
X5715182Y-12436546D01*
X5715182Y-12436546D02*
X5734230Y-12446070D01*
X5734230Y-12446070D02*
X5743753Y-12455594D01*
X5743753Y-12455594D02*
X5753277Y-12474641D01*
X5753277Y-12474641D02*
X5753277Y-12531784D01*
X5753277Y-12531784D02*
X5743753Y-12550832D01*
X5743753Y-12550832D02*
X5734230Y-12560356D01*
X5734230Y-12560356D02*
X5715182Y-12569879D01*
X5715182Y-12569879D02*
X5686610Y-12569879D01*
X5867563Y-12569879D02*
X5848515Y-12560356D01*
X5848515Y-12560356D02*
X5838991Y-12541308D01*
X5838991Y-12541308D02*
X5838991Y-12369879D01*
X6019944Y-12560356D02*
X6000896Y-12569879D01*
X6000896Y-12569879D02*
X5962801Y-12569879D01*
X5962801Y-12569879D02*
X5943753Y-12560356D01*
X5943753Y-12560356D02*
X5934230Y-12541308D01*
X5934230Y-12541308D02*
X5934230Y-12465118D01*
X5934230Y-12465118D02*
X5943753Y-12446070D01*
X5943753Y-12446070D02*
X5962801Y-12436546D01*
X5962801Y-12436546D02*
X6000896Y-12436546D01*
X6000896Y-12436546D02*
X6019944Y-12446070D01*
X6019944Y-12446070D02*
X6029468Y-12465118D01*
X6029468Y-12465118D02*
X6029468Y-12484165D01*
X6029468Y-12484165D02*
X5934230Y-12503213D01*
X6105658Y-12560356D02*
X6124706Y-12569879D01*
X6124706Y-12569879D02*
X6162801Y-12569879D01*
X6162801Y-12569879D02*
X6181849Y-12560356D01*
X6181849Y-12560356D02*
X6191372Y-12541308D01*
X6191372Y-12541308D02*
X6191372Y-12531784D01*
X6191372Y-12531784D02*
X6181849Y-12512737D01*
X6181849Y-12512737D02*
X6162801Y-12503213D01*
X6162801Y-12503213D02*
X6134230Y-12503213D01*
X6134230Y-12503213D02*
X6115182Y-12493689D01*
X6115182Y-12493689D02*
X6105658Y-12474641D01*
X6105658Y-12474641D02*
X6105658Y-12465118D01*
X6105658Y-12465118D02*
X6115182Y-12446070D01*
X6115182Y-12446070D02*
X6134230Y-12436546D01*
X6134230Y-12436546D02*
X6162801Y-12436546D01*
X6162801Y-12436546D02*
X6181849Y-12446070D01*
X6258039Y-12646070D02*
X6267563Y-12636546D01*
X6267563Y-12636546D02*
X6286611Y-12607975D01*
X6286611Y-12607975D02*
X6296134Y-12588927D01*
X6296134Y-12588927D02*
X6305658Y-12560356D01*
X6305658Y-12560356D02*
X6315182Y-12512737D01*
X6315182Y-12512737D02*
X6315182Y-12474641D01*
X6315182Y-12474641D02*
X6305658Y-12427022D01*
X6305658Y-12427022D02*
X6296134Y-12398451D01*
X6296134Y-12398451D02*
X6286611Y-12379403D01*
X6286611Y-12379403D02*
X6267563Y-12350832D01*
X6267563Y-12350832D02*
X6258039Y-12341308D01*
M02*
