M48
; DRILL file {KiCad 7.0.5} date qui 08 jun 2023 16:22:05
; FORMAT={-:-/ absolute / metric / decimal}
; #@! TF.CreationDate,2023-06-08T16:22:05-03:00
; #@! TF.GenerationSoftware,Kicad,Pcbnew,7.0.5
; #@! TF.FileFunction,Plated,1,2,PTH
FMAT,2
METRIC
; #@! TA.AperFunction,Plated,PTH,ComponentDrill
T1C0.900
; #@! TA.AperFunction,Plated,PTH,ComponentDrill
T2C1.000
; #@! TA.AperFunction,Plated,PTH,ComponentDrill
T3C1.270
%
G90
G05
T2
X125.84Y-23.46
X125.84Y-26.0
X125.84Y-28.54
X125.84Y-31.08
X125.84Y-33.62
X125.84Y-36.16
X125.84Y-38.7
X125.84Y-41.24
X125.84Y-43.78
X125.84Y-46.32
X125.84Y-48.86
X125.84Y-51.4
X125.84Y-53.94
X125.84Y-56.48
X125.84Y-59.02
X125.84Y-61.56
X125.84Y-64.1
X125.84Y-66.64
X125.84Y-69.18
X125.84Y-71.72
X128.5Y-23.44
X128.5Y-25.98
X128.5Y-28.52
X128.5Y-31.06
X128.5Y-33.6
X128.5Y-36.14
X128.5Y-38.68
X128.5Y-41.22
X128.5Y-43.76
X128.5Y-46.3
X128.5Y-48.84
X128.5Y-51.38
X128.5Y-53.92
X128.5Y-56.46
X128.5Y-59.0
X128.5Y-61.54
X128.5Y-64.08
X128.5Y-66.62
X128.5Y-69.16
X128.5Y-71.7
X141.08Y-23.46
X141.08Y-26.0
X141.08Y-28.54
X141.08Y-31.08
X141.08Y-33.62
X141.08Y-36.16
X141.08Y-38.7
X141.08Y-41.24
X141.08Y-43.78
X141.08Y-46.32
X141.08Y-48.86
X141.08Y-51.4
X141.08Y-53.94
X141.08Y-56.48
X141.08Y-59.02
X141.08Y-61.56
X141.08Y-64.1
X141.08Y-66.64
X141.08Y-69.18
X141.08Y-71.72
X143.74Y-23.44
X143.74Y-25.98
X143.74Y-28.52
X143.74Y-31.06
X143.74Y-33.6
X143.74Y-36.14
X143.74Y-38.68
X143.74Y-41.22
X143.74Y-43.76
X143.74Y-46.3
X143.74Y-48.84
X143.74Y-51.38
X143.74Y-53.92
X143.74Y-56.46
X143.74Y-59.0
X143.74Y-61.54
X143.74Y-64.08
X143.74Y-66.62
X143.74Y-69.16
X143.74Y-71.7
T3
X17.0Y-42.87
X17.0Y-59.87
X17.0Y-76.87
X22.0Y-44.97
X22.0Y-44.97
X22.0Y-61.97
X22.0Y-61.97
X22.0Y-78.97
X22.0Y-78.97
X27.0Y-42.87
X27.0Y-59.87
X27.0Y-76.87
X35.0Y-42.87
X35.0Y-59.87
X35.0Y-76.87
X40.0Y-44.97
X40.0Y-44.97
X40.0Y-61.97
X40.0Y-61.97
X40.0Y-78.97
X40.0Y-78.97
X45.0Y-42.87
X45.0Y-59.87
X45.0Y-76.87
X53.0Y-30.3
X53.0Y-47.3
X53.0Y-64.3
X58.0Y-32.4
X58.0Y-32.4
X58.0Y-49.4
X58.0Y-49.4
X58.0Y-66.4
X58.0Y-66.4
X63.0Y-30.3
X63.0Y-47.3
X63.0Y-64.3
X71.0Y-25.54
X71.0Y-42.54
X71.0Y-59.54
X76.0Y-27.64
X76.0Y-27.64
X76.0Y-44.64
X76.0Y-44.64
X76.0Y-61.64
X76.0Y-61.64
X81.0Y-25.54
X81.0Y-42.54
X81.0Y-59.54
X89.0Y-30.3
X89.0Y-47.3
X89.0Y-64.3
X94.0Y-32.4
X94.0Y-32.4
X94.0Y-49.4
X94.0Y-49.4
X94.0Y-66.4
X94.0Y-66.4
X97.804Y-75.935
X99.0Y-30.3
X99.0Y-47.3
X99.0Y-64.3
X103.177Y-75.201
X103.177Y-75.201
X107.0Y-33.16
X107.0Y-50.16
X107.0Y-67.16
X107.463Y-78.524
X112.0Y-35.26
X112.0Y-35.26
X112.0Y-52.26
X112.0Y-52.26
X112.0Y-69.26
X112.0Y-69.26
X117.0Y-33.16
X117.0Y-50.16
X117.0Y-67.16
X118.376Y-83.269
X123.729Y-84.137
X123.729Y-84.137
X126.857Y-88.568
X129.92Y-101.521
X131.883Y-96.466
X131.883Y-96.466
X136.867Y-94.328
T1
X137.49Y-79.12G85X137.09Y-79.12
G05
X137.49Y-81.62G85X137.09Y-81.62
G05
X138.59Y-77.02G85X138.19Y-77.02
G05
X138.59Y-83.72G85X138.19Y-83.72
G05
X142.59Y-77.02G85X142.19Y-77.02
G05
X142.59Y-83.72G85X142.19Y-83.72
G05
X145.59Y-77.02G85X145.19Y-77.02
G05
X145.59Y-83.72G85X145.19Y-83.72
G05
T0
M30
